<?xml version="1.0" encoding="UTF-8"?>
<svg id="Capa_1" data-name="Capa 1" xmlns="http://www.w3.org/2000/svg" xmlns:xlink="http://www.w3.org/1999/xlink" viewBox="0 0 464.35 145.23">
  <defs>
    <style>
      .cls-1, .cls-2 {
        fill: none;
      }

      .cls-3 {
        font-family: InstrumentSerif-Italic, 'Instrument Serif';
        font-style: italic;
      }

      .cls-3, .cls-4, .cls-5 {
        font-size: 15px;
      }

      .cls-3, .cls-6, .cls-5 {
        fill: #1d1d1b;
      }

      .cls-7 {
        fill: #f2f8f6;
      }

      .cls-4, .cls-8 {
        fill: #fff;
      }

      .cls-4, .cls-5 {
        font-family: InstrumentSerif-Regular, 'Instrument Serif';
      }

      .cls-9 {
        fill: #00d6a3;
      }

      .cls-10 {
        clip-path: url(#clippath-1);
      }

      .cls-11 {
        clip-path: url(#clippath-3);
      }

      .cls-12 {
        clip-path: url(#clippath-2);
      }

      .cls-2 {
        stroke: #1d1d1b;
        stroke-width: .5px;
      }

      .cls-13 {
        letter-spacing: 0em;
      }

      .cls-14 {
        letter-spacing: -.02em;
      }

      .cls-15 {
        letter-spacing: -.02em;
      }

      .cls-16 {
        letter-spacing: -.01em;
      }

      .cls-17 {
        letter-spacing: -.04em;
      }

      .cls-18 {
        letter-spacing: -.01em;
      }

      .cls-19 {
        letter-spacing: -.01em;
      }

      .cls-20 {
        letter-spacing: 0em;
      }

      .cls-21 {
        letter-spacing: 0em;
      }

      .cls-22 {
        letter-spacing: 0em;
      }

      .cls-23 {
        clip-path: url(#clippath);
      }
    </style>
    <clipPath id="clippath">
      <rect class="cls-1" x="21.66" y="20.83" width="411.22" height="94.85"/>
    </clipPath>
    <clipPath id="clippath-1">
      <rect class="cls-1" x="21.66" y="20.83" width="411.22" height="94.85"/>
    </clipPath>
    <clipPath id="clippath-2">
      <rect class="cls-1" x="21.66" y="20.83" width="411.22" height="94.85"/>
    </clipPath>
    <clipPath id="clippath-3">
      <rect class="cls-1" x="21.66" y="20.83" width="411.22" height="94.85"/>
    </clipPath>
  </defs>
  <polygon class="cls-6" points="187.4 57.63 187.4 61.03 187.4 107.23 432.88 107.23 432.88 57.63 187.4 57.63"/>
  <polyline class="cls-6" points="189.98 73.92 180.79 78.31 189.48 82.43"/>
  <polygon class="cls-8" points="151.82 32.36 39.95 113.21 39.97 115.42 159.33 111.17 155.99 32.36 151.82 32.36"/>
  <g class="cls-23">
    <polyline class="cls-2" points="151.82 32.36 155.99 32.36 159.33 111.17 39.97 115.42 39.95 113.21"/>
  </g>
  <rect class="cls-7" x="32.28" y="31.17" width="120.73" height="80.15" transform="translate(-2.43 3.28) rotate(-2)"/>
  <rect class="cls-2" x="32.28" y="31.17" width="120.73" height="80.15" transform="translate(-2.43 3.28) rotate(-2)"/>
  <line class="cls-2" x1="31.44" y1="48.77" x2="180.78" y2="45.55"/>
  <text class="cls-4" transform="translate(205.26 80.62)"><tspan x="0" y="0">¿Cómo </tspan></text>
  <path class="cls-8" d="M244.39,80.77c-.33,0-.57-.12-.71-.37-.14-.24-.15-.65-.01-1.21l1.11-4.76c.05-.22.06-.39.02-.52-.04-.12-.13-.19-.28-.19-.18,0-.38.13-.59.4-.22.27-.46.77-.73,1.51-.04.13-.11.19-.21.19-.15,0-.19-.09-.12-.27.22-.69.45-1.23.7-1.62.24-.39.49-.66.74-.83.25-.16.48-.24.69-.24.35,0,.59.12.73.37.14.25.14.65.02,1.21l-1.11,4.76c-.05.22-.06.39-.02.52.03.13.13.19.28.19.18,0,.38-.13.59-.4.21-.26.46-.77.73-1.51.04-.13.11-.19.21-.19.15,0,.19.09.12.27-.21.68-.44,1.22-.7,1.61-.25.4-.51.67-.76.83-.25.16-.49.24-.71.24ZM245.62,71.55c-.19,0-.35-.07-.47-.2-.13-.13-.19-.3-.19-.49,0-.27.08-.48.25-.65.16-.16.35-.24.56-.24s.37.06.5.19c.14.13.2.29.2.49,0,.28-.09.5-.25.66-.17.16-.37.24-.6.24ZM248.23,80.76c-.37,0-.66-.15-.86-.47-.2-.31-.3-.76-.3-1.36s.08-1.14.24-1.72c.16-.57.38-1.12.66-1.64.28-.52.6-.98.95-1.38.35-.4.73-.72,1.12-.95.39-.23.79-.35,1.18-.35.27,0,.5.07.7.21.14.09.23.06.26-.09l.48-1.98c.05-.18.05-.3,0-.38-.04-.07-.14-.11-.28-.12l-.45-.04c-.15,0-.22-.08-.2-.19.02-.09.09-.14.21-.17.36-.06.68-.13.96-.22.28-.08.5-.2.68-.34.08-.06.15-.09.23-.09.12,0,.16.08.13.23l-2.13,9.22c-.15.65-.05.97.3.97.23,0,.44-.15.62-.47.18-.31.37-.79.56-1.44.03-.11.09-.17.2-.17.07,0,.11.03.13.09.02.06.02.13,0,.21-.19.94-.45,1.61-.79,2.02-.34.4-.73.61-1.18.61-.39,0-.67-.16-.83-.49-.16-.33-.18-.78-.05-1.35l.17-.69c.02-.07,0-.11-.04-.12-.04,0-.08.01-.11.08-.48.94-.94,1.6-1.36,1.99-.43.39-.84.58-1.21.58ZM248.59,79.99c.24,0,.5-.14.79-.43.29-.29.58-.66.86-1.12.29-.46.55-.95.79-1.49.24-.53.43-1.04.58-1.53.14-.49.22-.9.22-1.24,0-.61-.22-.91-.65-.91-.26,0-.54.12-.82.35-.29.24-.57.55-.83.95-.27.4-.51.85-.72,1.36-.22.51-.39,1.03-.52,1.58-.13.55-.2,1.08-.2,1.6,0,.35.05.59.14.71.09.13.21.19.35.19ZM255.93,80.76c-.53,0-.96-.21-1.27-.62-.32-.41-.48-1-.48-1.76,0-.66.12-1.31.35-1.97.23-.65.54-1.24.92-1.77.38-.53.8-.95,1.25-1.27.45-.32.9-.48,1.33-.48.47,0,.81.11,1.01.34.2.23.31.53.31.91,0,.45-.16.9-.47,1.34-.32.45-.76.84-1.32,1.19-.57.35-1.23.61-1.99.78-.22.05-.34.18-.35.38-.01.07-.01.14-.01.22v.22c0,.57.1,1,.29,1.29.19.29.46.44.8.44.38,0,.75-.17,1.1-.52.35-.35.65-.84.89-1.49.03-.09.09-.14.18-.14.06,0,.1.03.11.08.01.05.01.11,0,.18-.32.88-.71,1.54-1.16,1.99-.46.45-.95.67-1.49.67ZM255.37,76.87c-.02.07,0,.13.04.17.04.04.1.06.17.04.62-.17,1.14-.43,1.56-.77.42-.35.74-.73.95-1.16.21-.43.32-.85.32-1.26s-.17-.63-.5-.63c-.29,0-.61.17-.94.51-.34.34-.66.79-.95,1.33-.29.55-.51,1.14-.66,1.77ZM260.17,80.62c-.14,0-.2-.06-.17-.19l1.43-5.99c.05-.22.06-.39.02-.52-.04-.12-.13-.19-.28-.19-.18,0-.38.13-.59.4-.22.27-.46.77-.73,1.51-.04.13-.11.19-.21.19-.15,0-.19-.09-.12-.27.22-.69.45-1.23.7-1.62.24-.39.49-.66.74-.83.25-.16.48-.24.69-.24.33,0,.56.12.7.37.14.25.14.65.01,1.21l-.38,1.62c-.01.07,0,.11.05.12.04.01.07-.01.1-.08.39-.81.76-1.45,1.12-1.93.36-.47.7-.81,1.02-1.01.32-.2.61-.3.87-.3.37,0,.64.15.81.45.17.3.17.76,0,1.38l-1.14,4.35c-.07.28-.07.49-.01.63.06.14.17.21.33.21.2,0,.4-.13.59-.4.19-.26.4-.77.61-1.51.03-.11.09-.17.2-.17.08,0,.13.03.14.09.01.06.01.13,0,.21-.19.68-.4,1.21-.62,1.6-.22.39-.44.65-.67.8s-.45.22-.68.22c-.36,0-.63-.15-.81-.45-.18-.3-.19-.77-.03-1.4l1.16-4.35c.11-.39.13-.66.05-.81-.07-.15-.18-.23-.32-.23-.22,0-.47.14-.75.41-.28.28-.57.65-.85,1.12-.29.48-.58,1.01-.86,1.61-.28.6-.53,1.23-.76,1.88-.23.65-.41,1.29-.55,1.9-.03.11-.1.17-.21.17h-.61ZM268.56,80.76c-.34,0-.61-.13-.79-.4-.19-.27-.22-.7-.09-1.31l1.24-5.43c.03-.15-.03-.22-.18-.22h-.57c-.14,0-.21-.06-.21-.19,0-.07.02-.12.08-.17.05-.04.11-.06.18-.06h.54c.23,0,.36-.1.4-.31l.36-1.6c.03-.11.1-.17.21-.17h.62c.14,0,.19.07.16.19l-.38,1.67c-.03.15.03.22.18.22h.85c.17,0,.26.07.26.19,0,.15-.11.23-.32.23h-.81c-.22,0-.36.1-.4.31l-1.26,5.49c-.05.22-.04.39.02.52.06.13.18.19.34.19.23,0,.44-.13.64-.39.2-.26.4-.75.62-1.49.04-.13.1-.19.19-.19.07,0,.11.03.13.09.02.06,0,.17-.04.33-.19.68-.4,1.2-.62,1.56-.22.36-.45.61-.68.74-.23.14-.46.2-.68.2ZM272.94,80.77c-.33,0-.57-.12-.71-.37-.14-.24-.15-.65-.01-1.21l1.11-4.76c.05-.22.06-.39.02-.52-.04-.12-.13-.19-.28-.19-.18,0-.38.13-.59.4-.22.27-.46.77-.73,1.51-.04.13-.11.19-.21.19-.15,0-.19-.09-.12-.27.22-.69.45-1.23.7-1.62.24-.39.49-.66.74-.83.25-.16.48-.24.69-.24.35,0,.59.12.73.37.14.25.14.65.02,1.21l-1.11,4.76c-.05.22-.06.39-.02.52.03.13.13.19.28.19.18,0,.38-.13.59-.4.21-.26.46-.77.73-1.51.04-.13.11-.19.21-.19.15,0,.19.09.12.27-.21.68-.44,1.22-.7,1.61-.25.4-.51.67-.76.83-.25.16-.49.24-.71.24ZM274.17,71.55c-.19,0-.35-.07-.47-.2-.13-.13-.19-.3-.19-.49,0-.27.08-.48.25-.65.16-.16.35-.24.56-.24s.37.06.5.19c.14.13.2.29.2.49,0,.28-.09.5-.25.66-.17.16-.37.24-.6.24ZM275.91,80.62c-.13,0-.18-.06-.15-.19l1.51-6.48c.09-.37-.03-.56-.36-.56h-.32c-.16,0-.24-.07-.24-.21s.09-.21.27-.21c.31,0,.54-.04.7-.12.15-.08.26-.24.31-.48.13-.57.33-1.08.59-1.52.26-.44.6-.8,1.01-1.06.41-.26.89-.39,1.44-.39.59,0,1.02.13,1.3.4.27.27.41.54.41.83,0,.22-.06.4-.17.53-.12.13-.26.2-.43.2-.19,0-.33-.05-.4-.16-.08-.11-.14-.23-.17-.38-.04-.15-.08-.3-.12-.45-.05-.15-.13-.28-.24-.38-.12-.1-.3-.16-.55-.16-.43,0-.76.17-.98.51-.22.34-.42.85-.58,1.53l-.21.9c-.03.13.02.19.16.19h1.86c.46,0,.77.1.94.3.17.2.19.55.08,1.03l-1.14,4.9c-.05.22-.06.39-.02.52.03.13.13.19.28.19.18,0,.38-.13.59-.4.21-.26.46-.77.73-1.51.04-.13.11-.19.21-.19.15,0,.19.09.12.27-.21.68-.44,1.22-.7,1.61-.26.4-.51.67-.76.83-.25.16-.49.24-.71.24-.33,0-.57-.12-.71-.37-.14-.24-.15-.65-.01-1.21l1.18-5.03c.06-.26.07-.45.02-.58-.04-.13-.18-.19-.4-.19h-1.73c-.1,0-.16.05-.19.15l-1.6,6.92c-.03.11-.1.17-.21.17h-.63ZM284.8,80.76c-.55,0-1.01-.23-1.36-.68-.36-.45-.54-1.04-.54-1.75,0-.67.11-1.33.32-1.97.21-.64.5-1.23.87-1.75.36-.53.77-.94,1.21-1.25.44-.31.89-.46,1.34-.46.48,0,.88.13,1.21.39.05.04.08.07.09.1,0,.03,0,.08-.01.16l-.41,1.97c-.03.14-.1.21-.19.21-.11,0-.18-.08-.2-.23l-.08-1.06c-.03-.46-.1-.76-.2-.9-.11-.14-.26-.21-.46-.21-.28,0-.57.14-.85.41-.29.28-.56.65-.8,1.11-.25.47-.44.98-.59,1.55-.15.57-.22,1.14-.22,1.72,0,1.26.41,1.89,1.23,1.89.39,0,.74-.18,1.06-.54.32-.36.61-.92.88-1.68.03-.1.1-.15.21-.15.06,0,.09.02.11.07,0,.04,0,.13-.03.26-.1.55-.28,1.03-.54,1.46-.26.42-.57.75-.92,1-.36.24-.73.37-1.13.37ZM289.27,80.76c-.36,0-.64-.15-.84-.47-.2-.31-.3-.76-.3-1.36s.08-1.14.24-1.72c.16-.57.38-1.12.66-1.64.28-.52.6-.98.95-1.38.35-.4.73-.72,1.12-.95.39-.23.79-.35,1.18-.35.19,0,.37.04.54.11.17.08.31.19.42.35.06.09.12.14.18.14s.12-.05.18-.14c.11-.16.2-.26.27-.31.07-.04.14-.07.2-.07.13,0,.18.07.15.21l-1.33,5.74c-.15.65-.05.97.3.97.23,0,.44-.15.62-.47.18-.31.37-.79.56-1.44.03-.11.09-.17.2-.17.07,0,.11.03.14.09.02.06.02.13,0,.21-.19.94-.45,1.61-.77,2.02-.32.4-.7.61-1.15.61-.39,0-.67-.16-.83-.49-.17-.33-.18-.78-.05-1.35l.2-.83c.02-.07,0-.11-.04-.12-.04,0-.08.01-.11.07-.55,1.01-1.04,1.72-1.46,2.12-.43.4-.83.6-1.21.6ZM289.65,79.99c.24,0,.5-.14.8-.43.29-.29.58-.66.86-1.12.29-.46.55-.95.79-1.49.24-.53.43-1.04.58-1.53.14-.49.22-.9.22-1.24,0-.61-.22-.91-.65-.91-.26,0-.54.12-.82.35-.29.24-.57.55-.83.95-.27.4-.51.85-.72,1.36-.22.51-.39,1.03-.52,1.58-.13.55-.2,1.08-.2,1.6,0,.35.04.59.13.71.08.13.21.19.37.19ZM296.01,80.62c-.14,0-.19-.06-.16-.19l1.42-5.99c.05-.22.06-.39.02-.52-.04-.12-.13-.19-.28-.19-.18,0-.38.13-.59.4-.22.27-.46.77-.73,1.51-.04.13-.11.19-.21.19-.15,0-.19-.09-.12-.27.22-.69.45-1.23.7-1.62.24-.39.49-.66.74-.83.25-.16.48-.24.69-.24.33,0,.56.12.7.37.14.25.14.65.02,1.21l-.17.71c-.01.07,0,.11.05.12.04.01.07-.01.1-.08.38-.87.72-1.47,1.04-1.81.31-.34.66-.51,1.07-.51.27,0,.47.07.61.22.13.15.2.34.2.59s-.06.45-.18.6c-.12.15-.28.23-.46.23-.16,0-.28-.04-.35-.12-.07-.08-.12-.17-.16-.28-.04-.1-.07-.2-.11-.28-.04-.08-.1-.12-.19-.12-.15,0-.35.19-.59.57-.24.38-.5.89-.77,1.54-.28.65-.54,1.37-.79,2.17-.26.8-.48,1.62-.67,2.46-.03.11-.1.17-.21.17h-.62ZM305.43,80.76c-.62,0-1.11-.26-1.47-.77-.36-.51-.54-1.21-.54-2.09,0-.65.11-1.28.32-1.88.21-.6.49-1.13.83-1.6.35-.47.73-.84,1.15-1.12.42-.27.85-.41,1.28-.41.62,0,1.11.25,1.47.76.36.51.54,1.21.54,2.1,0,.65-.1,1.28-.32,1.88-.21.6-.49,1.14-.83,1.6-.35.47-.73.84-1.15,1.12-.43.28-.85.41-1.28.41ZM304.44,78.51c0,1.26.32,1.89.96,1.89.32,0,.63-.15.94-.47.3-.31.58-.72.83-1.23.25-.51.45-1.08.6-1.7.15-.62.23-1.25.23-1.88,0-1.25-.33-1.88-.98-1.88-.31,0-.62.15-.93.46-.31.31-.59.71-.83,1.22-.25.51-.44,1.08-.59,1.7-.15.63-.23,1.25-.23,1.88h0ZM308.19,83.7c-.13,0-.19-.06-.19-.17,0-.1.08-.16.24-.18l.21-.03c.2-.03.35-.09.44-.17.1-.09.17-.24.22-.46l1.99-8.61c.02-.08,0-.14-.04-.19-.05-.04-.11-.04-.19,0-.1.05-.2.1-.29.16-.09.06-.18.11-.27.17-.09.06-.16.08-.22.05-.06-.02-.09-.07-.09-.14s.05-.14.15-.21c.28-.19.57-.35.87-.5.17-.08.27-.21.32-.39l.19-.85c.05-.21.18-.31.39-.31h.27c.12,0,.21.04.27.1.06.07.07.17.04.3l-.1.44c-.03.17.03.24.19.21.23-.03.45-.04.66-.04.74,0,1.34.21,1.82.63.47.42.71,1.07.71,1.94,0,.68-.13,1.34-.38,1.97-.25.64-.58,1.2-.99,1.7-.41.5-.86.9-1.35,1.19-.49.3-.98.44-1.47.44-.27,0-.53-.06-.77-.16-.15-.07-.24-.03-.27.12l-.45,1.98c-.05.22-.05.36,0,.44.05.07.18.12.37.15l.39.06c.18.03.27.09.27.18,0,.12-.09.18-.26.18h-2.7ZM310.98,78.9c-.18.99.03,1.48.65,1.48.35,0,.7-.15,1.06-.44.36-.29.69-.69,1.01-1.19.31-.49.56-1.05.75-1.67.19-.62.29-1.25.29-1.9s-.15-1.15-.43-1.45c-.29-.29-.72-.44-1.27-.44-.5,0-.79.17-.86.51l-1.18,5.1ZM318.39,80.76c-.62,0-1.11-.26-1.47-.77-.36-.51-.54-1.21-.54-2.09,0-.65.11-1.28.32-1.88.21-.6.49-1.13.83-1.6.35-.47.73-.84,1.15-1.12.42-.27.85-.41,1.28-.41.62,0,1.11.25,1.47.76.36.51.54,1.21.54,2.1,0,.65-.1,1.28-.32,1.88-.21.6-.49,1.14-.83,1.6-.35.47-.73.84-1.15,1.12-.43.28-.85.41-1.28.41ZM317.4,78.51c0,1.26.32,1.89.96,1.89.32,0,.63-.15.94-.47.3-.31.58-.72.83-1.23.25-.51.45-1.08.6-1.7.15-.62.23-1.25.23-1.88,0-1.25-.33-1.88-.98-1.88-.31,0-.62.15-.93.46-.31.31-.59.71-.83,1.22-.25.51-.44,1.08-.59,1.7-.15.63-.23,1.25-.23,1.88h0ZM323.25,80.62c-.14,0-.19-.06-.16-.19l1.42-5.99c.05-.22.06-.39.02-.52-.04-.12-.13-.19-.28-.19-.18,0-.38.13-.59.4-.22.27-.46.77-.73,1.51-.04.13-.11.19-.21.19-.15,0-.19-.09-.12-.27.22-.69.45-1.23.7-1.62.24-.39.49-.66.74-.83.25-.16.48-.24.69-.24.33,0,.56.12.7.37.14.25.14.65.02,1.21l-.17.71c-.01.07,0,.11.05.12.04.01.07-.01.1-.08.38-.87.72-1.47,1.04-1.81.31-.34.66-.51,1.07-.51.27,0,.47.07.61.22.13.15.2.34.2.59s-.06.45-.18.6c-.12.15-.28.23-.46.23-.16,0-.28-.04-.35-.12-.07-.08-.12-.17-.16-.28-.04-.1-.07-.2-.11-.28-.04-.08-.1-.12-.19-.12-.15,0-.35.19-.59.57-.24.38-.5.89-.77,1.54-.28.65-.54,1.37-.79,2.17-.26.8-.48,1.62-.67,2.46-.03.11-.1.17-.21.17h-.62ZM329.34,80.76c-.34,0-.61-.13-.8-.4-.19-.27-.22-.7-.09-1.31l1.25-5.43c.03-.15-.03-.22-.18-.22h-.57c-.14,0-.21-.06-.21-.19,0-.07.02-.12.08-.17.05-.04.11-.06.18-.06h.54c.23,0,.36-.1.4-.31l.36-1.6c.03-.11.1-.17.21-.17h.61c.14,0,.2.07.17.19l-.38,1.67c-.03.15.03.22.18.22h.86c.17,0,.25.07.25.19,0,.15-.1.23-.32.23h-.81c-.22,0-.36.1-.4.31l-1.26,5.49c-.05.22-.04.39.02.52.06.13.18.19.34.19.23,0,.44-.13.64-.39.19-.26.4-.75.62-1.49.04-.13.1-.19.2-.19.07,0,.11.03.13.09.02.06,0,.17-.04.33-.19.68-.4,1.2-.62,1.56-.23.36-.45.61-.68.74-.23.14-.46.2-.67.2ZM333.61,80.76c-.37,0-.62-.17-.76-.5-.14-.33-.13-.78.02-1.33l1.18-4.35c.08-.29.1-.51.06-.68-.04-.16-.13-.24-.27-.24-.23,0-.46.18-.7.52-.24.35-.44.84-.61,1.46-.03.11-.1.17-.2.17-.14,0-.19-.1-.14-.3.23-.84.53-1.49.91-1.94.38-.45.79-.68,1.24-.68.36,0,.6.16.72.49.12.33.1.78-.06,1.35l-1.2,4.35c-.19.69-.13,1.03.2,1.03.2,0,.43-.14.69-.41.26-.27.53-.64.82-1.11.28-.47.57-1,.85-1.6.28-.6.53-1.23.77-1.89.23-.66.42-1.31.57-1.97.03-.11.1-.17.21-.17h.6c.14,0,.2.07.17.19l-1.41,6.03c-.11.47-.03.7.26.7.42,0,.86-.63,1.32-1.9.04-.13.11-.19.21-.19.06,0,.1.03.13.08.02.05.02.12,0,.19-.27.85-.59,1.51-.96,1.98-.37.47-.76.7-1.17.7-.72,0-.96-.52-.72-1.57l.39-1.67c.02-.07,0-.11-.04-.12-.05,0-.08.01-.11.07-.58,1.2-1.12,2.05-1.6,2.54-.49.49-.94.74-1.35.74ZM340.47,80.62c-.14,0-.19-.06-.16-.19l1.42-5.99c.05-.22.06-.39.02-.52-.04-.12-.13-.19-.28-.19-.18,0-.38.13-.59.4-.22.27-.46.77-.73,1.51-.04.13-.11.19-.21.19-.15,0-.19-.09-.12-.27.22-.69.45-1.23.7-1.62.24-.39.49-.66.74-.83.25-.16.48-.24.69-.24.33,0,.56.12.7.37.14.25.14.65.02,1.21l-.38,1.62c-.01.07,0,.11.04.12.04.01.08-.01.11-.08.39-.81.76-1.45,1.12-1.93.36-.47.7-.81,1.02-1.01.32-.2.61-.3.87-.3.37,0,.64.15.81.45.17.3.17.76,0,1.38l-1.14,4.35c-.07.28-.08.49-.02.63.06.14.17.21.33.21.2,0,.4-.13.59-.4.2-.26.4-.77.61-1.51.03-.11.09-.17.19-.17.08,0,.13.03.14.09.01.06.01.13,0,.21-.19.68-.4,1.21-.61,1.6-.22.39-.44.65-.67.8s-.45.22-.68.22c-.36,0-.63-.15-.81-.45-.18-.3-.19-.77-.03-1.4l1.15-4.35c.11-.39.13-.66.05-.81-.08-.15-.18-.23-.32-.23-.22,0-.47.14-.75.41-.28.28-.57.65-.85,1.12-.29.48-.58,1.01-.86,1.61-.28.6-.53,1.23-.76,1.88-.22.65-.41,1.29-.55,1.9-.03.11-.1.17-.21.17h-.62ZM349.15,80.77c-.33,0-.57-.12-.7-.37-.14-.24-.15-.65-.02-1.21l1.11-4.76c.05-.22.06-.39.02-.52-.04-.12-.13-.19-.28-.19-.18,0-.38.13-.59.4-.22.27-.46.77-.73,1.51-.04.13-.11.19-.21.19-.15,0-.19-.09-.12-.27.22-.69.45-1.23.7-1.62.24-.39.49-.66.74-.83.25-.16.48-.24.69-.24.35,0,.59.12.73.37.14.25.14.65.02,1.21l-1.11,4.76c-.05.22-.06.39-.02.52.03.13.13.19.28.19.18,0,.38-.13.59-.4.21-.26.46-.77.73-1.51.04-.13.11-.19.21-.19.15,0,.19.09.12.27-.21.68-.44,1.22-.7,1.61-.26.4-.51.67-.76.83-.25.16-.49.24-.71.24ZM350.38,71.55c-.19,0-.35-.07-.47-.2-.13-.13-.19-.3-.19-.49,0-.27.08-.48.25-.65.17-.16.35-.24.56-.24s.37.06.5.19c.14.13.2.29.2.49,0,.28-.09.5-.26.66-.17.16-.37.24-.6.24ZM352.99,80.76c-.37,0-.66-.15-.86-.47-.2-.31-.3-.76-.3-1.36s.08-1.14.24-1.72c.16-.57.38-1.12.66-1.64.28-.52.6-.98.95-1.38.35-.4.73-.72,1.12-.95.39-.23.79-.35,1.18-.35.27,0,.5.07.7.21.14.09.23.06.26-.09l.48-1.98c.05-.18.05-.3,0-.38-.04-.07-.14-.11-.28-.12l-.45-.04c-.15,0-.22-.08-.2-.19.02-.09.09-.14.21-.17.36-.06.68-.13.96-.22.28-.08.5-.2.67-.34.08-.06.15-.09.23-.09.12,0,.16.08.13.23l-2.13,9.22c-.15.65-.05.97.3.97.23,0,.44-.15.62-.47.18-.31.37-.79.56-1.44.03-.11.09-.17.2-.17.07,0,.11.03.14.09.02.06.02.13,0,.21-.19.94-.45,1.61-.79,2.02-.34.4-.73.61-1.18.61-.39,0-.67-.16-.83-.49-.17-.33-.18-.78-.05-1.35l.16-.69c.02-.07,0-.11-.04-.12-.05,0-.08.01-.11.08-.48.94-.94,1.6-1.36,1.99-.43.39-.84.58-1.21.58ZM353.35,79.99c.24,0,.5-.14.8-.43.29-.29.58-.66.86-1.12.29-.46.55-.95.79-1.49.24-.53.43-1.04.58-1.53.14-.49.22-.9.22-1.24,0-.61-.22-.91-.65-.91-.26,0-.54.12-.82.35-.29.24-.57.55-.83.95-.27.4-.51.85-.72,1.36-.22.51-.39,1.03-.52,1.58-.13.55-.2,1.08-.2,1.6,0,.35.05.59.14.71.09.13.21.19.35.19ZM360.09,80.76c-.36,0-.64-.15-.84-.47-.2-.31-.3-.76-.3-1.36s.08-1.14.24-1.72c.16-.57.38-1.12.66-1.64.28-.52.6-.98.95-1.38.35-.4.73-.72,1.12-.95.39-.23.79-.35,1.18-.35.19,0,.37.04.54.11.17.08.31.19.42.35.06.09.12.14.18.14s.12-.05.18-.14c.11-.16.2-.26.27-.31.07-.04.14-.07.2-.07.13,0,.18.07.15.21l-1.33,5.74c-.15.65-.05.97.3.97.23,0,.44-.15.62-.47.18-.31.37-.79.56-1.44.03-.11.09-.17.2-.17.07,0,.11.03.14.09.02.06.02.13,0,.21-.19.94-.45,1.61-.77,2.02-.32.4-.7.61-1.15.61-.39,0-.67-.16-.83-.49-.17-.33-.18-.78-.05-1.35l.2-.83c.02-.07,0-.11-.04-.12-.04,0-.08.01-.11.07-.55,1.01-1.04,1.72-1.46,2.12-.43.4-.83.6-1.21.6ZM360.46,79.99c.24,0,.5-.14.8-.43.29-.29.58-.66.86-1.12.29-.46.55-.95.79-1.49.24-.53.43-1.04.58-1.53.14-.49.22-.9.22-1.24,0-.61-.22-.91-.65-.91-.26,0-.54.12-.82.35-.29.24-.57.55-.83.95-.27.4-.51.85-.72,1.36-.22.51-.39,1.03-.52,1.58-.13.55-.2,1.08-.2,1.6,0,.35.04.59.13.71.08.13.21.19.37.19ZM367.21,80.76c-.37,0-.66-.15-.86-.47-.2-.31-.3-.76-.3-1.36s.08-1.14.24-1.72c.16-.57.38-1.12.66-1.64.28-.52.6-.98.95-1.38.35-.4.73-.72,1.12-.95.39-.23.79-.35,1.18-.35.27,0,.5.07.7.21.14.09.23.06.26-.09l.48-1.98c.05-.18.05-.3,0-.38-.04-.07-.14-.11-.28-.12l-.45-.04c-.15,0-.22-.08-.2-.19.02-.09.09-.14.21-.17.36-.06.68-.13.96-.22.28-.08.5-.2.67-.34.08-.06.15-.09.23-.09.12,0,.16.08.13.23l-2.13,9.22c-.15.65-.05.97.3.97.23,0,.44-.15.62-.47.18-.31.37-.79.56-1.44.03-.11.09-.17.2-.17.07,0,.11.03.14.09.02.06.02.13,0,.21-.19.94-.45,1.61-.79,2.02-.34.4-.73.61-1.18.61-.39,0-.67-.16-.83-.49-.17-.33-.18-.78-.05-1.35l.16-.69c.02-.07,0-.11-.04-.12-.05,0-.08.01-.11.08-.48.94-.94,1.6-1.36,1.99-.43.39-.84.58-1.21.58ZM367.57,79.99c.24,0,.5-.14.8-.43.29-.29.58-.66.86-1.12.29-.46.55-.95.79-1.49.24-.53.43-1.04.58-1.53.14-.49.22-.9.22-1.24,0-.61-.22-.91-.65-.91-.26,0-.54.12-.82.35-.29.24-.57.55-.83.95-.27.4-.51.85-.72,1.36-.22.51-.39,1.03-.52,1.58-.13.55-.2,1.08-.2,1.6,0,.35.05.59.14.71.09.13.21.19.35.19ZM374.91,80.76c-.53,0-.96-.21-1.27-.62-.32-.41-.48-1-.48-1.76,0-.66.12-1.31.35-1.97.23-.65.54-1.24.92-1.77.38-.53.8-.95,1.25-1.27.45-.32.9-.48,1.33-.48.47,0,.81.11,1.01.34.2.23.31.53.31.91,0,.45-.16.9-.47,1.34-.32.45-.76.84-1.32,1.19-.57.35-1.23.61-1.99.78-.22.05-.34.18-.35.38-.01.07-.02.14-.02.22v.22c0,.57.1,1,.29,1.29.2.29.46.44.8.44.38,0,.75-.17,1.1-.52.35-.35.65-.84.89-1.49.03-.09.09-.14.18-.14.06,0,.1.03.11.08.01.05.01.11,0,.18-.32.88-.71,1.54-1.16,1.99-.46.45-.95.67-1.49.67ZM374.35,76.87c-.02.07,0,.13.04.17.04.04.1.06.17.04.62-.17,1.14-.43,1.56-.77.42-.35.74-.73.95-1.16.21-.43.32-.85.32-1.26s-.16-.63-.49-.63c-.29,0-.61.17-.95.51-.34.34-.66.79-.94,1.33-.29.55-.51,1.14-.66,1.77ZM379.93,80.76c-.33,0-.68-.05-1.04-.15-.37-.1-.64-.23-.83-.38-.07-.06-.1-.15-.09-.27l.33-1.97c.02-.13.08-.19.18-.19.11,0,.17.07.17.21l.03.72c.02.57.16.99.41,1.25.26.27.57.4.94.4.32,0,.59-.1.83-.31.23-.2.35-.51.35-.91,0-.23-.04-.44-.11-.64-.07-.19-.18-.41-.33-.63s-.36-.5-.61-.82c-.34-.44-.59-.82-.76-1.13-.17-.31-.25-.64-.25-.98,0-.63.2-1.13.59-1.51.39-.38.9-.57,1.51-.57.27,0,.53.04.79.12.26.08.47.2.64.36.09.07.12.16.09.27l-.42,2.01c-.03.13-.09.19-.18.19s-.15-.07-.16-.21l-.05-.72c-.04-.6-.12-1.03-.23-1.29-.12-.26-.35-.39-.71-.39-.32,0-.58.11-.78.33-.2.22-.3.49-.3.79,0,.33.09.63.27.91.18.28.42.62.74,1.04.41.54.69.97.83,1.29.14.32.22.65.22.97,0,.42-.09.8-.28,1.12-.19.33-.43.59-.74.78-.31.19-.65.28-1.02.28Z"/>
  <text class="cls-4" transform="translate(382.72 80.62)"><tspan x="0" y="0" xml:space="preserve"> en </tspan></text>
  <text class="cls-4" transform="translate(205.26 95.62)"><tspan x="0" y="0">todos los aspectos de </tspan><tspan class="cls-22" x="106.32" y="0">t</tspan><tspan x="110.08" y="0">u t</tspan><tspan class="cls-14" x="123.33" y="0">r</tspan><tspan x="127.83" y="0">abajo?</tspan></text>
  <text class="cls-5" transform="translate(205.26 49.78)"><tspan class="cls-20" x="0" y="0">D</tspan><tspan x="7.81" y="0">ELI</tspan><tspan class="cls-22" x="24.54" y="0">M</tspan><tspan x="34.39" y="0">I</tspan><tspan class="cls-17" x="38.13" y="0">T</tspan><tspan class="cls-20" x="44.41" y="0">A</tspan><tspan x="51.13" y="0">R TU Á</tspan><tspan class="cls-21" x="85.74" y="0">MB</tspan><tspan x="102.64" y="0">I</tspan><tspan class="cls-19" x="106.38" y="0">T</tspan><tspan x="113.11" y="0">O </tspan><tspan class="cls-20" x="123.76" y="0">D</tspan><tspan x="131.58" y="0">E INF</tspan><tspan class="cls-16" x="158.88" y="0">L</tspan><tspan x="164.88" y="0">UE</tspan><tspan class="cls-18" x="179.71" y="0">N</tspan><tspan class="cls-13" x="187.65" y="0">C</tspan><tspan class="cls-15" x="194.85" y="0">I</tspan><tspan x="198.36" y="0">A</tspan></text>
  <text class="cls-3" transform="translate(187.29 49.78)"><tspan x="0" y="0">1.1</tspan></text>
  <polygon class="cls-8" points="95.82 93.34 93.7 97.01 91.83 100.25 86.62 97.29 86.17 98.07 84.54 100.9 81.89 105.48 85.84 107.73 88.49 103.15 89.74 103.86 93.21 105.84 93.6 106.06 97.56 99.22 102.08 101.79 104.2 98.12 95.82 93.34"/>
  <path d="M82.1,105.43l3.69,2.1,2.65-4.59,5.11,2.92,3.95-6.85.13.07,4.39,2.5,1.97-3.41-8.12-4.63-3.99,6.91-.13-.08-5.07-2.89-4.58,7.93ZM85.9,107.94l-4.22-2.4.08-.13,4.81-8.33,5.2,2.96,3.99-6.91.13.08,8.52,4.85-2.27,3.94-.13-.08-4.39-2.5-3.96,6.85-5.11-2.92-2.65,4.59Z"/>
  <polygon class="cls-8" points="106.58 68.73 109.2 64.2 106.07 62.42 103.45 66.95 101.57 70.21 104.7 71.99 109.46 74.7 111.35 71.44 106.58 68.73"/>
  <path d="M101.78,70.15l7.63,4.35,1.73-3-4.76-2.71.08-.13,2.54-4.39-2.87-1.63-4.34,7.52ZM109.52,74.91l-.13-.08-8.03-4.57,1.96-3.39,2.69-4.66,3.4,1.93-.08.13-2.54,4.39,4.76,2.72-2.04,3.52Z"/>
  <g class="cls-10">
    <path class="cls-8" d="M58.35,92.05c1.49-2.24,4.6-2.84,6.88-1.34,2.27,1.5,2.93,4.56,1.45,6.8l3.44,2.26c2.67-4,1.5-9.49-2.57-12.18s-9.62-1.6-12.29,2.4c0,.01-.02.03-.03.04l3.12,2.03s0,0,0,0"/>
    <path d="M66.89,97.46l3.19,2.1c2.53-3.94,1.37-9.22-2.61-11.84-4-2.63-9.37-1.61-12.02,2.27l2.86,1.86c1.57-2.22,4.68-2.8,7.01-1.27,2.31,1.52,3,4.57,1.58,6.88M70.16,99.98l-3.69-2.43.08-.13c1.44-2.18.81-5.13-1.41-6.59-2.22-1.46-5.21-.88-6.66,1.3l-.07.15-3.39-2.2.11-.17c2.73-4.09,8.33-5.19,12.5-2.45,4.17,2.74,5.34,8.3,2.62,12.39l-.08.13Z"/>
    <path class="cls-8" d="M98.73,80.69c.11,3.19-2.4,5.86-5.61,5.98s-5.9-2.38-6.01-5.57c-.11-3.19,2.4-5.86,5.61-5.98,3.21-.11,5.9,2.38,6.01,5.57"/>
    <path d="M92.73,75.27c-3.12.11-5.57,2.72-5.46,5.82.11,3.1,2.74,5.53,5.85,5.42,3.12-.11,5.57-2.72,5.46-5.82-.11-3.1-2.73-5.53-5.85-5.42M93.13,86.82c-3.29.11-6.05-2.45-6.17-5.72-.11-3.27,2.47-6.02,5.75-6.13,3.29-.11,6.05,2.45,6.17,5.72.12,3.27-2.47,6.02-5.75,6.13"/>
  </g>
  <polygon class="cls-8" points="67.52 68.12 71.04 80.74 80.4 70.96 67.52 68.12"/>
  <path d="M67.73,68.32l3.38,12.12,8.99-9.4-12.37-2.73ZM70.97,81.04l-3.66-13.12,13.39,2.95-9.73,10.17Z"/>
  <polygon class="cls-8" points="117.97 93.31 114.9 92.35 114.31 95.51 112.4 92.93 110.06 95.15 110.05 91.94 106.85 92.37 108.74 89.75 105.9 88.24 108.97 87.22 107.58 84.32 110.66 85.29 111.25 82.13 113.15 84.71 115.5 82.49 115.51 85.7 118.71 85.27 116.82 87.88 119.66 89.4 116.59 90.42 117.97 93.31"/>
  <path d="M112.42,92.7l1.8,2.44.56-2.98,2.9.91-1.31-2.73,2.9-.96-2.68-1.43,1.78-2.47-3.02.41v-3.03s-2.22,2.1-2.22,2.1l-1.8-2.44-.56,2.98-2.9-.91,1.31,2.73-2.9.96,2.68,1.43-1.79,2.47,3.02-.41v3.03s2.22-2.1,2.22-2.1ZM114.39,95.88l-2.01-2.72-2.48,2.34v-3.39s-3.39.46-3.39.46l1.99-2.76-2.99-1.6,3.24-1.08-1.46-3.05,3.24,1.02.63-3.33,2.01,2.72,2.48-2.34v3.39s3.39-.46,3.39-.46l-2,2.76,2.99,1.6-3.24,1.07,1.46,3.05-3.24-1.02-.63,3.34Z"/>
  <rect class="cls-8" x="74.23" y="85.76" width="8.37" height="8.32" transform="translate(-3.09 2.79) rotate(-2)"/>
  <path d="M74.52,94.07l8.06-.28-.28-8.01-8.06.28.28,8.01ZM82.9,94.08l-8.67.3-.3-8.61,8.67-.3.3,8.61Z"/>
  <g class="cls-12">
    <path class="cls-8" d="M101.3,53.54h-.01c-2.56-2.87-6.51-3.62-8.81-1.63-2.33,2.02-2.14,6.13.42,9.11h0c1.31,1.68,1.33,3.89.03,4.96-1.3,1.07-3.47.63-4.88-.96h0c-2.3-2.78-5.99-3.59-8.17-1.8l1.77,2.31c1.22-1,3.27-.55,4.56.99h.01c2.52,2.92,6.47,3.75,8.82,1.82,2.38-1.95,2.28-6.05-.23-9.07h0c-1.38-1.66-1.47-3.92-.18-5.03,1.27-1.1,3.44-.71,4.88.85h0c2.35,2.74,6.03,3.47,8.16,1.62l-1.81-2.28c-1.19,1.03-3.24.63-4.56-.89"/>
    <path d="M86.24,66.31l.11.1c2.47,2.87,6.33,3.68,8.61,1.81,1.12-.91,1.71-2.34,1.66-4.02-.04-1.65-.69-3.34-1.84-4.76l-.08-.09c-1.43-1.73-1.51-4.08-.17-5.24,1.32-1.14,3.6-.75,5.09.87l.1.11h-.01c1.28,1.45,2.98,2.34,4.68,2.47,1.19.09,2.24-.22,3.07-.88l-1.62-2.05c-.5.38-1.12.55-1.82.5-.99-.07-1.97-.58-2.72-1.39h-.01s-.1-.1-.1-.1c-2.51-2.83-6.37-3.56-8.6-1.62-2.26,1.96-2.08,5.92.39,8.85h0s.05.06.05.06c1.36,1.74,1.36,4.06,0,5.17-1.35,1.1-3.63.67-5.09-.98l-.1-.11h0c-2.22-2.59-5.64-3.36-7.75-1.76l1.59,2.07c1.26-.9,3.24-.48,4.55.99h0ZM92.19,69.53c-2.04.07-4.3-.92-5.97-2.81h0s-.11-.1-.11-.1c-1.24-1.49-3.19-1.92-4.35-.97l-.12.1-1.95-2.55.11-.09c2.26-1.85,6.02-1.04,8.39,1.81l.09.11c1.35,1.43,3.38,1.81,4.57.83,1.22-1,1.2-3.12-.04-4.73h0c-2.63-3.07-2.81-7.25-.41-9.34,2.32-2.01,6.3-1.32,8.93,1.54h0s.12.1.12.1c.71.82,1.67,1.34,2.62,1.4.67.05,1.27-.13,1.72-.53l.12-.1,2,2.52-.11.1c-.9.78-2.08,1.14-3.4,1.04-1.82-.13-3.64-1.11-4.98-2.67l-.1-.11h0c-1.38-1.41-3.39-1.74-4.56-.73-1.2,1.04-1.13,3.15.13,4.74l.07.08c1.24,1.49,1.94,3.27,1.99,5.03.04,1.77-.58,3.28-1.78,4.26-.83.68-1.86,1.03-2.96,1.07"/>
  </g>
  <polygon class="cls-8" points="126.47 77.58 123.87 75.38 126.15 72.73 123.29 70.3 121.01 72.95 118.42 70.75 116.13 73.41 118.73 75.61 116.58 78.12 119.44 80.54 121.59 78.04 124.19 80.24 126.47 77.58"/>
  <path d="M116.8,78.1l2.63,2.23,2.15-2.51,2.6,2.2,2.08-2.43-2.6-2.2,2.27-2.65-2.63-2.23-2.28,2.65-2.6-2.2-2.08,2.43,2.6,2.2-2.15,2.51ZM119.46,80.76l-3.09-2.62,2.15-2.51-2.6-2.2,2.48-2.89,2.6,2.2,2.28-2.65,3.09,2.62-2.28,2.65,2.6,2.2-2.48,2.89-2.6-2.2-2.15,2.51Z"/>
  <g class="cls-11">
    <path class="cls-9" d="M78.27,62.92c-5.98.21-11.47,2.3-13.34,5.23-4.13,6.48-3.07,12.34-1.45,16.11,2.85,6.66,9.18,11.13,13.96,12.1,6.72,1.37,16.49-2.76,21.32-9.02,2.15-2.78,4.19-7.13,1.72-12.05-3.73-7.42-10.97-11.92-19.85-12.36-.79-.04-1.57-.04-2.35-.02M80.76,96.92c-1.18.04-2.32-.04-3.38-.26-4.85-.99-11.28-5.52-14.18-12.28-1.64-3.84-2.72-9.8,1.48-16.39,2.16-3.4,9.02-5.7,15.96-5.36,9,.45,16.33,5.01,20.11,12.53,2.54,5.06.46,9.51-1.75,12.36-4.13,5.35-11.83,9.17-18.24,9.39"/>
  </g>
</svg>