<?xml version="1.0" encoding="UTF-8"?>
<svg id="Capa_1" data-name="Capa 1" xmlns="http://www.w3.org/2000/svg" xmlns:xlink="http://www.w3.org/1999/xlink" viewBox="0 0 464.35 145.23">
  <defs>
    <style>
      .cls-1, .cls-2 {
        fill: none;
      }

      .cls-3, .cls-4 {
        font-family: InstrumentSerif-Italic, 'Instrument Serif';
        font-style: italic;
      }

      .cls-3, .cls-4, .cls-5, .cls-6 {
        font-size: 15px;
      }

      .cls-3, .cls-5, .cls-7 {
        fill: #fff;
      }

      .cls-4, .cls-8, .cls-6 {
        fill: #1d1d1b;
      }

      .cls-9 {
        fill: #f2f8f6;
      }

      .cls-5, .cls-6 {
        font-family: InstrumentSerif-Regular, 'Instrument Serif';
      }

      .cls-10 {
        fill: #00d6a3;
      }

      .cls-11 {
        clip-path: url(#clippath-1);
      }

      .cls-12 {
        clip-path: url(#clippath-2);
      }

      .cls-13 {
        letter-spacing: 0em;
      }

      .cls-2 {
        stroke: #1d1d1b;
        stroke-width: .5px;
      }

      .cls-14 {
        letter-spacing: 0em;
      }

      .cls-15 {
        letter-spacing: -.02em;
      }

      .cls-16 {
        letter-spacing: -.02em;
      }

      .cls-17 {
        letter-spacing: -.04em;
      }

      .cls-18 {
        letter-spacing: -.03em;
      }

      .cls-19 {
        letter-spacing: 0em;
      }

      .cls-20 {
        letter-spacing: -.01em;
      }

      .cls-21 {
        letter-spacing: 0em;
      }

      .cls-22 {
        letter-spacing: 0em;
      }

      .cls-23 {
        clip-path: url(#clippath);
      }
    </style>
    <clipPath id="clippath">
      <rect class="cls-1" x="19.05" y="21.31" width="425.11" height="94.77"/>
    </clipPath>
    <clipPath id="clippath-1">
      <rect class="cls-1" x="19.05" y="21.31" width="425.11" height="94.77"/>
    </clipPath>
    <clipPath id="clippath-2">
      <rect class="cls-1" x="19.05" y="21.31" width="425.11" height="94.77"/>
    </clipPath>
  </defs>
  <polygon class="cls-8" points="185.16 58.82 185.16 62.17 185.16 107.71 444.16 107.71 444.16 58.82 185.16 58.82"/>
  <polyline class="cls-8" points="187.88 75.17 178.18 79.56 187.36 83.68"/>
  <polygon class="cls-7" points="149.22 32.77 37.35 113.62 37.37 115.82 156.73 111.57 153.39 32.77 149.22 32.77"/>
  <g class="cls-23">
    <polyline class="cls-2" points="149.22 32.77 153.39 32.77 156.73 111.57 37.37 115.82 37.35 113.62"/>
  </g>
  <rect class="cls-9" x="29.67" y="31.65" width="120.73" height="80.15" transform="translate(-2.45 3.19) rotate(-2)"/>
  <rect class="cls-2" x="29.67" y="31.65" width="120.73" height="80.15" transform="translate(-2.45 3.19) rotate(-2)"/>
  <line class="cls-2" x1="28.72" y1="49.25" x2="178.17" y2="45.6"/>
  <text class="cls-5" transform="translate(202.65 79.35)"><tspan x="0" y="0">¿Cómo </tspan></text>
  <path class="cls-7" d="M241.79,79.5c-.33,0-.57-.12-.71-.37-.14-.24-.15-.65-.01-1.21l1.11-4.76c.05-.22.06-.39.02-.52-.04-.12-.13-.19-.28-.19-.18,0-.38.13-.59.4-.22.27-.46.77-.73,1.51-.04.13-.11.19-.21.19-.15,0-.19-.09-.12-.27.22-.69.45-1.23.7-1.62.24-.39.49-.66.74-.83.25-.16.48-.24.69-.24.35,0,.59.12.73.37.14.25.14.65.02,1.21l-1.11,4.76c-.05.22-.06.39-.02.52.03.13.13.19.28.19.18,0,.38-.13.59-.4.21-.26.46-.77.73-1.51.04-.13.11-.19.21-.19.15,0,.19.09.12.27-.21.68-.44,1.22-.7,1.61-.25.4-.51.67-.76.83-.25.16-.49.24-.71.24ZM243.02,70.27c-.19,0-.35-.07-.47-.2-.13-.13-.19-.3-.19-.49,0-.27.08-.48.25-.65.16-.16.35-.24.56-.24s.37.06.5.19c.14.13.2.29.2.49,0,.28-.09.5-.25.66-.17.16-.37.24-.6.24ZM245.63,79.48c-.37,0-.66-.15-.86-.47-.2-.31-.3-.76-.3-1.36s.08-1.14.24-1.72c.16-.57.38-1.12.66-1.64.28-.52.6-.98.95-1.38.35-.4.73-.72,1.12-.95.39-.23.79-.35,1.18-.35.27,0,.5.07.7.21.14.09.23.06.26-.09l.48-1.98c.05-.18.05-.3,0-.38-.04-.07-.14-.11-.28-.12l-.45-.04c-.15,0-.22-.08-.2-.19.02-.09.09-.14.21-.17.36-.06.68-.13.96-.22.28-.08.5-.2.68-.34.08-.06.15-.09.23-.09.12,0,.16.08.13.23l-2.13,9.22c-.15.65-.05.97.3.97.23,0,.44-.15.62-.47.18-.31.37-.79.56-1.44.03-.11.09-.17.2-.17.07,0,.11.03.13.09.02.06.02.13,0,.21-.19.94-.45,1.61-.79,2.02-.34.4-.73.61-1.18.61-.39,0-.67-.16-.83-.49-.16-.33-.18-.78-.05-1.35l.17-.69c.02-.07,0-.11-.04-.12-.04,0-.08.01-.11.08-.48.94-.94,1.6-1.36,1.99-.43.39-.84.58-1.21.58ZM245.99,78.72c.24,0,.5-.14.79-.43.29-.29.58-.66.86-1.12.29-.46.55-.95.79-1.49.24-.53.43-1.04.58-1.53.14-.49.22-.9.22-1.24,0-.61-.22-.91-.65-.91-.26,0-.54.12-.82.35-.29.24-.57.55-.83.95-.27.4-.51.85-.72,1.36-.22.51-.39,1.03-.52,1.58-.13.55-.2,1.08-.2,1.6,0,.35.05.59.14.71.09.13.21.19.35.19ZM253.32,79.48c-.53,0-.96-.21-1.27-.62-.32-.41-.48-1-.48-1.76,0-.66.12-1.31.35-1.97.23-.65.54-1.24.92-1.77.38-.53.8-.95,1.25-1.27.45-.32.9-.48,1.33-.48.47,0,.81.11,1.01.34.2.23.31.53.31.91,0,.45-.16.9-.47,1.34-.32.45-.76.84-1.32,1.19-.57.35-1.23.61-1.99.78-.22.05-.34.18-.35.38-.01.07-.01.14-.01.22v.22c0,.57.1,1,.29,1.29.19.29.46.44.8.44.38,0,.75-.17,1.1-.52.35-.35.65-.84.89-1.49.03-.09.09-.14.18-.14.06,0,.1.03.11.08.01.05.01.11,0,.18-.32.88-.71,1.54-1.16,1.99-.46.45-.95.67-1.49.67ZM252.77,75.6c-.02.07,0,.13.04.17.04.04.1.06.17.04.62-.17,1.14-.43,1.56-.77.42-.35.74-.73.95-1.16.21-.43.32-.85.32-1.26s-.17-.63-.5-.63c-.29,0-.61.17-.94.51-.34.34-.66.79-.95,1.33-.29.55-.51,1.14-.66,1.77ZM257.57,79.35c-.14,0-.2-.06-.17-.19l1.43-5.99c.05-.22.06-.39.02-.52-.04-.12-.13-.19-.28-.19-.18,0-.38.13-.59.4-.22.27-.46.77-.73,1.51-.04.13-.11.19-.21.19-.15,0-.19-.09-.12-.27.22-.69.45-1.23.7-1.62.24-.39.49-.66.74-.83.25-.16.48-.24.69-.24.33,0,.56.12.7.37.14.25.14.65.01,1.21l-.38,1.62c-.01.07,0,.11.05.12.04.01.07-.01.1-.08.39-.81.76-1.45,1.12-1.93.36-.47.7-.81,1.02-1.01.32-.2.61-.3.87-.3.37,0,.64.15.81.45.17.3.17.76,0,1.38l-1.14,4.35c-.07.28-.07.49-.01.63.06.14.17.21.33.21.2,0,.4-.13.59-.4.19-.26.4-.77.61-1.51.03-.11.09-.17.2-.17.08,0,.13.03.14.09.01.06.01.13,0,.21-.19.68-.4,1.21-.62,1.6-.22.39-.44.65-.67.8s-.45.22-.68.22c-.36,0-.63-.15-.81-.45-.18-.3-.19-.77-.03-1.4l1.16-4.35c.11-.39.13-.66.05-.81-.07-.15-.18-.23-.32-.23-.22,0-.47.14-.75.41-.28.28-.57.65-.85,1.12-.29.48-.58,1.01-.86,1.61-.28.6-.53,1.23-.76,1.88-.23.65-.41,1.29-.55,1.9-.03.11-.1.17-.21.17h-.61ZM265.95,79.48c-.34,0-.61-.13-.79-.4-.19-.27-.22-.7-.09-1.31l1.24-5.43c.03-.15-.03-.22-.18-.22h-.57c-.14,0-.21-.06-.21-.19,0-.07.02-.12.08-.17.05-.04.11-.06.18-.06h.54c.23,0,.36-.1.4-.31l.36-1.6c.03-.11.1-.17.21-.17h.62c.14,0,.19.07.16.19l-.38,1.67c-.03.15.03.22.18.22h.85c.17,0,.26.07.26.19,0,.15-.11.23-.32.23h-.81c-.22,0-.36.1-.4.31l-1.26,5.49c-.05.22-.04.39.02.52.06.13.18.19.34.19.23,0,.44-.13.64-.39.2-.26.4-.75.62-1.49.04-.13.1-.19.19-.19.07,0,.11.03.13.09.02.06,0,.17-.04.33-.19.68-.4,1.2-.62,1.56-.22.36-.45.61-.68.74-.23.14-.46.2-.68.2ZM270.33,79.5c-.33,0-.57-.12-.71-.37-.14-.24-.15-.65-.01-1.21l1.11-4.76c.05-.22.06-.39.02-.52-.04-.12-.13-.19-.28-.19-.18,0-.38.13-.59.4-.22.27-.46.77-.73,1.51-.04.13-.11.19-.21.19-.15,0-.19-.09-.12-.27.22-.69.45-1.23.7-1.62.24-.39.49-.66.74-.83.25-.16.48-.24.69-.24.35,0,.59.12.73.37.14.25.14.65.02,1.21l-1.11,4.76c-.05.22-.06.39-.02.52.03.13.13.19.28.19.18,0,.38-.13.59-.4.21-.26.46-.77.73-1.51.04-.13.11-.19.21-.19.15,0,.19.09.12.27-.21.68-.44,1.22-.7,1.61-.25.4-.51.67-.76.83-.25.16-.49.24-.71.24ZM271.56,70.27c-.19,0-.35-.07-.47-.2-.13-.13-.19-.3-.19-.49,0-.27.08-.48.25-.65.16-.16.35-.24.56-.24s.37.06.5.19c.14.13.2.29.2.49,0,.28-.09.5-.25.66-.17.16-.37.24-.6.24ZM273.3,79.35c-.13,0-.18-.06-.15-.19l1.51-6.48c.09-.37-.03-.56-.36-.56h-.32c-.16,0-.24-.07-.24-.21s.09-.21.27-.21c.31,0,.54-.04.7-.12.15-.08.26-.24.31-.48.13-.57.33-1.08.59-1.52.26-.44.6-.8,1.01-1.06.41-.26.89-.39,1.44-.39.59,0,1.02.13,1.3.4.27.27.41.54.41.83,0,.22-.06.4-.17.53-.12.13-.26.2-.43.2-.19,0-.33-.05-.4-.16-.08-.11-.14-.23-.17-.38-.04-.15-.08-.3-.12-.45-.05-.15-.13-.28-.24-.38-.12-.1-.3-.16-.55-.16-.43,0-.76.17-.98.51-.22.34-.42.85-.58,1.53l-.21.9c-.03.13.02.19.16.19h1.86c.46,0,.77.1.94.3.17.2.19.55.08,1.03l-1.14,4.9c-.05.22-.06.39-.02.52.03.13.13.19.28.19.18,0,.38-.13.59-.4.21-.26.46-.77.73-1.51.04-.13.11-.19.21-.19.15,0,.19.09.12.27-.21.68-.44,1.22-.7,1.61-.26.4-.51.67-.76.83-.25.16-.49.24-.71.24-.33,0-.57-.12-.71-.37-.14-.24-.15-.65-.01-1.21l1.18-5.03c.06-.26.07-.45.02-.58-.04-.13-.18-.19-.4-.19h-1.73c-.1,0-.16.05-.19.15l-1.6,6.92c-.03.11-.1.17-.21.17h-.63ZM282.2,79.48c-.55,0-1.01-.23-1.36-.68-.36-.45-.54-1.04-.54-1.75,0-.67.11-1.33.32-1.97.21-.64.5-1.23.87-1.75.36-.53.77-.94,1.21-1.25.44-.31.89-.46,1.34-.46.48,0,.88.13,1.21.39.05.04.08.07.09.1,0,.03,0,.08-.01.16l-.41,1.97c-.03.14-.1.21-.19.21-.11,0-.18-.08-.2-.23l-.08-1.06c-.03-.46-.1-.76-.2-.9-.11-.14-.26-.21-.46-.21-.28,0-.57.14-.85.41-.29.28-.56.65-.8,1.11-.25.47-.44.98-.59,1.55-.15.57-.22,1.14-.22,1.72,0,1.26.41,1.89,1.23,1.89.39,0,.74-.18,1.06-.54.32-.36.61-.92.88-1.68.03-.1.1-.15.21-.15.06,0,.09.02.11.07,0,.04,0,.13-.03.26-.1.55-.28,1.03-.54,1.46-.26.42-.57.75-.92,1-.36.24-.73.37-1.13.37ZM286.67,79.48c-.36,0-.64-.15-.84-.47-.2-.31-.3-.76-.3-1.36s.08-1.14.24-1.72c.16-.57.38-1.12.66-1.64.28-.52.6-.98.95-1.38.35-.4.73-.72,1.12-.95.39-.23.79-.35,1.18-.35.19,0,.37.04.54.11.17.08.31.19.42.35.06.09.12.14.18.14s.12-.05.18-.14c.11-.16.2-.26.27-.31.07-.04.14-.07.2-.07.13,0,.18.07.15.21l-1.33,5.74c-.15.65-.05.97.3.97.23,0,.44-.15.62-.47.18-.31.37-.79.56-1.44.03-.11.09-.17.2-.17.07,0,.11.03.14.09.02.06.02.13,0,.21-.19.94-.45,1.61-.77,2.02-.32.4-.7.61-1.15.61-.39,0-.67-.16-.83-.49-.17-.33-.18-.78-.05-1.35l.2-.83c.02-.07,0-.11-.04-.12-.04,0-.08.01-.11.07-.55,1.01-1.04,1.72-1.46,2.12-.43.4-.83.6-1.21.6ZM287.04,78.72c.24,0,.5-.14.8-.43.29-.29.58-.66.86-1.12.29-.46.55-.95.79-1.49.24-.53.43-1.04.58-1.53.14-.49.22-.9.22-1.24,0-.61-.22-.91-.65-.91-.26,0-.54.12-.82.35-.29.24-.57.55-.83.95-.27.4-.51.85-.72,1.36-.22.51-.39,1.03-.52,1.58-.13.55-.2,1.08-.2,1.6,0,.35.04.59.13.71.08.13.21.19.37.19ZM293.4,79.35c-.14,0-.19-.06-.16-.19l1.42-5.99c.05-.22.06-.39.02-.52-.04-.12-.13-.19-.28-.19-.18,0-.38.13-.59.4-.22.27-.46.77-.73,1.51-.04.13-.11.19-.21.19-.15,0-.19-.09-.12-.27.22-.69.45-1.23.7-1.62.24-.39.49-.66.74-.83.25-.16.48-.24.69-.24.33,0,.56.12.7.37.14.25.14.65.02,1.21l-.17.71c-.01.07,0,.11.05.12.04.01.07-.01.1-.08.38-.87.72-1.47,1.04-1.81.31-.34.66-.51,1.07-.51.27,0,.47.07.61.22.13.15.2.34.2.59s-.06.45-.18.6c-.12.15-.28.23-.46.23-.16,0-.28-.04-.35-.12-.07-.08-.12-.17-.16-.28-.04-.1-.07-.2-.11-.28-.04-.08-.1-.12-.19-.12-.15,0-.35.19-.59.57-.24.38-.5.89-.77,1.54-.28.65-.54,1.37-.79,2.17-.26.8-.48,1.62-.67,2.46-.03.11-.1.17-.21.17h-.62Z"/>
  <text class="cls-5" transform="translate(297.96 79.35)"><tspan x="0" y="0" xml:space="preserve"> muchas </tspan></text>
  <text class="cls-5" transform="translate(343.17 79.35)"><tspan x="0" y="0"> </tspan></text>
  <text class="cls-3" transform="translate(202.65 94.35)"><tspan x="0" y="0">oportunidades</tspan></text>
  <text class="cls-5" transform="translate(282.26 94.35)"><tspan x="0" y="0" xml:space="preserve"> de mejo</tspan><tspan class="cls-16" x="42.51" y="0">r</tspan><tspan class="cls-13" x="47.02" y="0">a en cada ámbito?</tspan></text>
  <g class="cls-11">
    <path d="M112.57,65.3c-5.48,12.57-18.22,19.15-28.45,14.69-10.23-4.46-14.08-18.27-8.6-30.84,5.48-12.57,18.22-19.15,28.45-14.69,10.23,4.46,14.08,18.27,8.6,30.84"/>
    <path class="cls-10" d="M110.27,64.29c-5.48,12.57-18.22,19.15-28.45,14.69-10.23-4.46-14.08-18.27-8.6-30.84s18.22-19.15,28.45-14.69c10.23,4.46,14.08,18.27,8.6,30.84"/>
    <path class="cls-10" d="M94.92,32.23c-8.49,0-17.26,6.15-21.55,15.98-5.44,12.47-1.62,26.2,8.51,30.62,10.13,4.42,22.79-2.14,28.22-14.6,5.43-12.47,1.62-26.2-8.51-30.62-2.14-.93-4.4-1.38-6.68-1.38M88.56,80.55c-2.32,0-4.62-.45-6.81-1.4-10.3-4.49-14.2-18.43-8.69-31.07,5.51-12.64,18.37-19.27,28.67-14.78,10.3,4.49,14.2,18.43,8.69,31.07-4.34,9.96-13.25,16.19-21.86,16.19"/>
    <path class="cls-7" d="M107.51,64.02c-5.42,11.06-16.95,16.54-25.74,12.23-8.79-4.31-11.52-16.77-6.09-27.83,5.42-11.06,16.95-16.54,25.73-12.23,8.79,4.31,11.52,16.77,6.09,27.83"/>
  </g>
  <polygon class="cls-10" points="65.45 108.89 60.57 106.35 77.45 74.48 82.34 77.02 65.45 108.89"/>
  <path class="cls-10" d="M60.8,106.28l4.58,2.39,16.73-31.57-4.58-2.39-16.73,31.57ZM65.52,109.12l-5.19-2.7.08-.15,16.97-32.02,5.18,2.7-.08.15-16.97,32.02Z"/>
  <g class="cls-12">
    <path d="M98.47,52.48c-2.06,0-3.74,1.68-3.74,3.74s1.68,3.74,3.74,3.74,3.74-1.68,3.74-3.74-1.68-3.74-3.74-3.74M98.47,60.3c-2.25,0-4.08-1.83-4.08-4.08s1.83-4.08,4.08-4.08,4.08,1.83,4.08,4.08-1.83,4.08-4.08,4.08"/>
  </g>
  <path d="M82.31,66.85h5.79v-5.79h-5.79v5.79ZM88.45,67.19h-6.48v-6.48h6.48v6.48Z"/>
  <path d="M82.4,45.13l2.9,8.37,5.97-6.99-8.87-1.38ZM85.17,54.17l-3.28-9.47,10.04,1.56-6.76,7.91Z"/>
  <text class="cls-6" transform="translate(202.65 50.27)"><tspan class="cls-21" x="0" y="0">A</tspan><tspan class="cls-15" x="6.72" y="0">N</tspan><tspan class="cls-21" x="14.52" y="0">A</tspan><tspan class="cls-14" x="21.24" y="0">LIZ</tspan><tspan class="cls-20" x="37.57" y="0">A</tspan><tspan x="44.28" y="0">R LA </tspan><tspan class="cls-19" x="70.12" y="0">S</tspan><tspan x="76.15" y="0">IT</tspan><tspan class="cls-17" x="86.8" y="0">U</tspan><tspan class="cls-18" x="94.3" y="0">A</tspan><tspan class="cls-14" x="100.66" y="0">CI</tspan><tspan class="cls-22" x="111.6" y="0">Ó</tspan><tspan class="cls-13" x="119.59" y="0">N</tspan></text>
  <text class="cls-4" transform="translate(184.68 50.27)"><tspan x="0" y="0">1.2</tspan></text>
</svg>