<?xml version="1.0" encoding="UTF-8"?>
<svg id="Capa_1" data-name="Capa 1" xmlns="http://www.w3.org/2000/svg" xmlns:xlink="http://www.w3.org/1999/xlink" viewBox="0 0 602.02 145.23">
  <defs>
    <style>
      .cls-1, .cls-2 {
        fill: none;
      }

      .cls-3 {
        font-family: InstrumentSerif-Italic, 'Instrument Serif';
        font-style: italic;
      }

      .cls-3, .cls-4 {
        font-size: 15px;
      }

      .cls-3, .cls-5 {
        fill: #1d1d1b;
      }

      .cls-6 {
        fill: #f2f8f6;
      }

      .cls-7 {
        font-size: 14px;
      }

      .cls-7, .cls-4 {
        font-family: InstrumentSerif-Regular, 'Instrument Serif';
      }

      .cls-7, .cls-8 {
        fill: #fff;
      }

      .cls-9 {
        fill: #00d6a3;
      }

      .cls-10 {
        letter-spacing: 0em;
      }

      .cls-11 {
        letter-spacing: 0em;
      }

      .cls-2 {
        stroke: #1d1d1b;
        stroke-width: .5px;
      }

      .cls-12 {
        letter-spacing: 0em;
      }

      .cls-13 {
        letter-spacing: -.02em;
      }

      .cls-14 {
        letter-spacing: -.02em;
      }

      .cls-15 {
        letter-spacing: -.02em;
      }

      .cls-16 {
        letter-spacing: -.02em;
      }

      .cls-17 {
        letter-spacing: -.01em;
      }

      .cls-18 {
        letter-spacing: -.01em;
      }

      .cls-19 {
        letter-spacing: -.01em;
      }

      .cls-20 {
        letter-spacing: -.01em;
      }

      .cls-21 {
        letter-spacing: -.01em;
      }

      .cls-22 {
        letter-spacing: 0em;
      }

      .cls-23 {
        letter-spacing: 0em;
      }

      .cls-24 {
        letter-spacing: 0em;
      }

      .cls-25 {
        letter-spacing: 0em;
      }

      .cls-26 {
        letter-spacing: 0em;
      }

      .cls-27 {
        letter-spacing: 0em;
      }

      .cls-28 {
        clip-path: url(#clippath);
      }
    </style>
    <clipPath id="clippath">
      <rect class="cls-1" x="22.94" y="25.87" width="542.89" height="94.85"/>
    </clipPath>
  </defs>
  <polygon class="cls-5" points="191.17 63.37 191.17 66.51 191.17 109.13 450.04 109.13 450.04 63.37 191.17 63.37"/>
  <polyline class="cls-5" points="194.72 81.61 182.07 86.4 194.03 90.9"/>
  <polygon class="cls-8" points="153.1 37.4 41.23 118.25 41.25 120.46 160.61 116.2 157.27 37.4 153.1 37.4"/>
  <g class="cls-28">
    <polyline class="cls-2" points="153.1 37.4 157.27 37.4 160.61 116.2 41.25 120.46 41.23 118.25"/>
  </g>
  <rect class="cls-6" x="33.56" y="36.21" width="120.73" height="80.15" transform="translate(-2.6 3.32) rotate(-2)"/>
  <rect class="cls-2" x="33.56" y="36.21" width="120.73" height="80.15" transform="translate(-2.6 3.32) rotate(-2)"/>
  <line class="cls-2" x1="33.07" y1="53.8" x2="182.06" y2="50.58"/>
  <text class="cls-7" transform="translate(206.54 83.22)"><tspan x="0" y="0">¿Cómo </tspan></text>
  <path class="cls-8" d="M243.07,83.37c-.31,0-.53-.11-.66-.34-.13-.23-.14-.6-.01-1.13l1.04-4.44c.05-.21.05-.37.02-.48-.03-.12-.12-.17-.26-.17-.17,0-.35.12-.55.37-.2.25-.43.72-.68,1.41-.04.12-.1.18-.2.18-.14,0-.18-.08-.11-.25.21-.64.42-1.15.65-1.51.23-.36.46-.62.69-.77.23-.15.45-.22.64-.22.33,0,.56.11.69.34.13.23.14.6.01,1.13l-1.04,4.44c-.05.21-.05.37-.02.48.03.12.12.17.26.17.17,0,.35-.12.55-.37.2-.25.43-.72.68-1.41.04-.12.1-.18.2-.18.14,0,.18.08.11.25-.2.63-.41,1.14-.65,1.51-.24.37-.47.63-.71.78-.23.15-.45.22-.66.22ZM244.22,74.76c-.18,0-.32-.06-.44-.19-.12-.13-.17-.28-.17-.45,0-.25.08-.45.23-.6.15-.15.33-.22.53-.22s.34.06.47.18c.13.12.19.27.19.45,0,.26-.08.47-.24.62-.16.15-.35.22-.56.22ZM246.65,83.35c-.35,0-.61-.14-.8-.43-.19-.29-.28-.71-.28-1.27s.07-1.07.22-1.6c.15-.54.35-1.05.62-1.53.26-.49.56-.91.89-1.29.33-.37.68-.67,1.05-.89.37-.22.74-.33,1.1-.33.25,0,.47.07.66.2.13.08.21.06.24-.08l.45-1.85c.05-.17.05-.28,0-.35-.04-.07-.13-.1-.26-.11l-.42-.04c-.14,0-.2-.07-.18-.18.02-.08.08-.14.2-.15.34-.06.63-.12.9-.2.26-.08.47-.18.63-.32.07-.06.14-.08.21-.08.11,0,.15.07.13.21l-1.99,8.61c-.14.61-.05.91.28.91.21,0,.41-.14.58-.43.17-.29.35-.74.52-1.34.03-.1.09-.15.18-.15.07,0,.11.03.13.08.02.06.02.12,0,.2-.18.88-.42,1.51-.74,1.88-.31.38-.68.57-1.1.57-.36,0-.62-.15-.78-.46-.15-.31-.17-.73-.05-1.26l.15-.64c.02-.07,0-.1-.04-.11-.04,0-.08.01-.1.07-.45.88-.87,1.5-1.27,1.86-.4.36-.78.55-1.13.55ZM246.99,82.64c.22,0,.47-.14.74-.41.27-.27.54-.62.81-1.05.27-.43.51-.89.74-1.39.22-.49.4-.97.54-1.43.14-.46.2-.84.2-1.16,0-.57-.2-.85-.6-.85-.24,0-.5.11-.77.33-.27.22-.53.52-.78.89-.25.37-.47.8-.67,1.27-.2.47-.36.96-.48,1.47-.12.51-.18,1.01-.18,1.49,0,.33.04.55.13.67.09.12.2.17.33.17ZM253.83,83.35c-.49,0-.89-.19-1.19-.58-.3-.39-.45-.94-.45-1.64,0-.62.11-1.23.33-1.83.22-.61.51-1.16.86-1.65.35-.49.74-.89,1.17-1.19.42-.3.84-.45,1.24-.45.44,0,.75.1.94.31.19.21.29.49.29.85,0,.42-.15.84-.44,1.25-.29.42-.7.79-1.23,1.11-.53.33-1.15.57-1.85.73-.21.05-.31.16-.32.35,0,.07-.01.13-.01.2v.2c0,.53.09.93.27,1.2.18.27.43.41.75.41.35,0,.7-.16,1.03-.49.33-.33.61-.79.83-1.39.03-.08.08-.13.17-.13.06,0,.09.02.1.07.01.05.01.1,0,.17-.3.82-.66,1.44-1.08,1.86-.42.42-.89.63-1.39.63ZM253.32,79.73c-.02.07,0,.12.04.16.04.04.1.05.16.03.58-.16,1.06-.4,1.46-.72.39-.32.69-.68.89-1.08.2-.4.3-.79.3-1.18s-.15-.59-.46-.59c-.27,0-.56.16-.88.48-.32.32-.61.73-.88,1.25-.27.51-.48,1.06-.62,1.65ZM257.8,83.23c-.13,0-.18-.06-.15-.18l1.33-5.59c.05-.21.05-.37.02-.48-.03-.12-.12-.17-.26-.17-.17,0-.35.12-.55.37-.2.25-.43.72-.68,1.41-.04.12-.1.18-.2.18-.14,0-.18-.08-.11-.25.21-.64.42-1.15.65-1.51.23-.36.46-.62.69-.77.23-.15.45-.22.64-.22.31,0,.53.11.66.34.13.23.14.6.01,1.13l-.35,1.51c0,.07,0,.1.04.11.04,0,.07-.01.1-.07.36-.76.71-1.36,1.05-1.8.34-.44.65-.76.95-.94.3-.19.57-.28.81-.28.35,0,.6.14.76.42.16.28.16.71,0,1.29l-1.06,4.06c-.07.26-.07.46-.01.59.06.13.16.2.31.2.19,0,.37-.12.55-.37.18-.25.37-.72.57-1.41.03-.1.09-.15.18-.15.07,0,.12.03.13.08.01.06.01.12,0,.2-.18.63-.37,1.13-.57,1.49-.21.36-.41.61-.62.75-.21.14-.42.21-.64.21-.34,0-.59-.14-.76-.42-.17-.28-.18-.71-.03-1.3l1.08-4.06c.1-.36.12-.62.05-.76-.07-.14-.17-.21-.3-.21-.21,0-.44.13-.7.39-.26.26-.53.61-.8,1.05-.27.44-.54.94-.8,1.51-.26.56-.5,1.14-.71,1.75-.21.61-.38,1.2-.51,1.78-.03.1-.09.15-.2.15h-.57ZM265.62,83.35c-.32,0-.56-.13-.74-.38-.18-.25-.21-.66-.08-1.22l1.16-5.07c.03-.14-.03-.21-.17-.21h-.53c-.13,0-.2-.06-.2-.18,0-.07.02-.12.07-.15.05-.04.1-.06.17-.06h.5c.21,0,.34-.1.38-.29l.34-1.5c.03-.1.09-.15.2-.15h.57c.13,0,.18.06.15.18l-.35,1.55c-.03.14.03.21.17.21h.8c.16,0,.24.06.24.18,0,.14-.1.21-.29.21h-.76c-.21,0-.33.1-.38.29l-1.18,5.12c-.05.21-.04.37.02.48.06.12.17.17.32.17.21,0,.41-.12.6-.36.18-.24.38-.7.58-1.39.04-.12.1-.18.18-.18.07,0,.11.03.13.08.02.06,0,.16-.04.31-.18.63-.37,1.12-.58,1.46-.21.34-.42.57-.64.69-.21.13-.42.19-.63.19ZM269.71,83.37c-.31,0-.53-.11-.66-.34-.13-.23-.14-.6-.01-1.13l1.04-4.44c.05-.21.05-.37.02-.48-.03-.12-.12-.17-.26-.17-.17,0-.35.12-.55.37-.2.25-.43.72-.68,1.41-.04.12-.1.18-.2.18-.14,0-.18-.08-.11-.25.21-.64.42-1.15.65-1.51.23-.36.46-.62.69-.77.23-.15.45-.22.64-.22.33,0,.56.11.69.34.13.23.14.6.01,1.13l-1.04,4.44c-.05.21-.05.37-.02.48.03.12.12.17.26.17.17,0,.35-.12.55-.37.2-.25.43-.72.68-1.41.04-.12.1-.18.2-.18.14,0,.18.08.11.25-.2.63-.41,1.14-.65,1.51-.24.37-.47.63-.71.78-.23.15-.45.22-.66.22ZM270.86,74.76c-.18,0-.32-.06-.44-.19-.12-.13-.17-.28-.17-.45,0-.25.08-.45.23-.6.15-.15.33-.22.53-.22s.34.06.47.18c.13.12.19.27.19.45,0,.26-.08.47-.24.62-.16.15-.35.22-.56.22ZM272.48,83.23c-.12,0-.17-.06-.14-.18l1.41-6.05c.08-.35-.03-.52-.34-.52h-.29c-.15,0-.22-.07-.22-.2s.08-.2.25-.2c.29,0,.51-.04.65-.11.14-.07.24-.22.29-.45.12-.53.31-1.01.55-1.42.25-.42.56-.74.95-.99.38-.24.83-.36,1.34-.36.55,0,.95.12,1.21.37.26.25.39.51.39.78,0,.21-.05.37-.16.5-.11.13-.24.19-.4.19-.18,0-.3-.05-.38-.15-.07-.1-.13-.22-.16-.36-.03-.14-.07-.28-.11-.42-.04-.14-.12-.26-.22-.36-.11-.1-.28-.15-.51-.15-.4,0-.71.16-.92.48-.21.32-.39.79-.54,1.43l-.2.84c-.03.12.02.18.15.18h1.74c.43,0,.72.09.88.28.15.19.18.51.08.97l-1.06,4.58c-.05.21-.05.37-.02.48.03.12.12.17.26.17.17,0,.35-.12.55-.37.2-.25.43-.72.68-1.41.04-.12.1-.18.2-.18.14,0,.18.08.11.25-.2.63-.41,1.14-.65,1.51-.24.37-.47.63-.71.78-.23.15-.45.22-.66.22-.31,0-.53-.11-.66-.34-.13-.23-.14-.6-.01-1.13l1.11-4.69c.06-.24.06-.42.02-.55-.04-.12-.17-.18-.37-.18h-1.61c-.09,0-.15.05-.18.14l-1.5,6.45c-.03.1-.09.15-.2.15h-.59ZM280.78,83.35c-.51,0-.94-.21-1.27-.64-.34-.42-.5-.97-.5-1.63,0-.63.1-1.24.3-1.84.2-.6.47-1.15.81-1.64.34-.49.72-.88,1.13-1.17.42-.29.83-.43,1.25-.43.45,0,.83.12,1.13.36.05.04.07.07.08.09,0,.02,0,.07-.01.15l-.38,1.83c-.03.13-.09.2-.18.2-.1,0-.16-.07-.18-.21l-.07-.99c-.03-.43-.09-.71-.19-.84-.1-.13-.24-.2-.43-.2-.26,0-.53.13-.8.39-.27.26-.52.6-.75,1.04-.23.43-.41.91-.55,1.44-.14.53-.2,1.06-.2,1.6,0,1.18.38,1.76,1.15,1.76.36,0,.69-.17.99-.5.29-.34.57-.86.82-1.57.03-.09.09-.14.2-.14.06,0,.09.02.1.06,0,.04,0,.12-.03.24-.09.51-.26.97-.5,1.36-.24.39-.53.7-.86.93-.33.23-.68.34-1.06.34ZM284.96,83.35c-.34,0-.6-.14-.78-.43-.19-.29-.28-.71-.28-1.27s.07-1.07.22-1.6c.15-.54.35-1.05.62-1.53.26-.49.56-.91.89-1.29.33-.37.68-.67,1.05-.89.37-.22.74-.33,1.1-.33.18,0,.35.03.5.1.16.07.29.18.39.33.06.08.11.13.17.13s.11-.04.17-.13c.1-.15.19-.24.25-.29.07-.04.13-.06.18-.06.12,0,.17.07.14.2l-1.25,5.36c-.14.61-.05.91.28.91.21,0,.41-.14.58-.43.17-.29.35-.74.53-1.34.03-.1.09-.15.18-.15.07,0,.11.03.13.08.02.06.02.12,0,.2-.18.88-.42,1.51-.71,1.88-.3.38-.66.57-1.08.57-.36,0-.62-.15-.78-.46-.15-.31-.17-.73-.05-1.26l.18-.77c.02-.07,0-.1-.04-.11-.04,0-.08.01-.1.07-.51.94-.97,1.6-1.37,1.97-.4.37-.77.56-1.13.56ZM285.31,82.64c.22,0,.47-.14.74-.41.27-.27.54-.62.8-1.05.27-.43.51-.89.73-1.39.22-.49.4-.97.54-1.43.14-.46.2-.84.2-1.16,0-.57-.2-.85-.6-.85-.24,0-.5.11-.77.33-.27.22-.53.52-.78.89-.25.37-.47.8-.67,1.27-.2.47-.36.96-.48,1.47-.12.51-.18,1.01-.18,1.49,0,.33.04.55.12.67.08.12.19.17.34.17ZM291.24,83.23c-.13,0-.18-.06-.15-.18l1.33-5.59c.05-.21.05-.37.02-.48-.03-.12-.12-.17-.26-.17-.17,0-.35.12-.55.37-.2.25-.43.72-.68,1.41-.04.12-.1.18-.2.18-.14,0-.18-.08-.11-.25.21-.64.42-1.15.65-1.51.23-.36.46-.62.69-.77.23-.15.45-.22.64-.22.31,0,.53.11.66.34.13.23.14.6.01,1.13l-.15.66c0,.07,0,.1.04.11.04,0,.07-.01.1-.07.35-.81.68-1.38.97-1.69.29-.32.62-.48.99-.48.25,0,.44.07.57.2.13.14.19.32.19.55s-.06.42-.17.56-.26.21-.43.21c-.15,0-.26-.04-.32-.11-.07-.07-.11-.16-.15-.26-.03-.1-.07-.18-.1-.26-.04-.07-.1-.11-.18-.11-.14,0-.32.18-.55.53-.22.35-.46.83-.72,1.44-.26.6-.5,1.28-.74,2.02-.24.75-.45,1.51-.62,2.3-.03.1-.09.15-.2.15h-.57ZM299.87,83.35c-.51,0-.94-.21-1.27-.64-.34-.42-.5-.97-.5-1.63,0-.63.1-1.24.3-1.84.2-.6.47-1.15.81-1.64.34-.49.72-.88,1.13-1.17.42-.29.83-.43,1.25-.43.45,0,.83.12,1.13.36.05.04.07.07.08.09,0,.02,0,.07-.01.15l-.38,1.83c-.03.13-.09.2-.18.2-.1,0-.16-.07-.18-.21l-.07-.99c-.03-.43-.09-.71-.19-.84-.1-.13-.24-.2-.43-.2-.26,0-.53.13-.8.39-.27.26-.52.6-.75,1.04-.23.43-.41.91-.55,1.44-.14.53-.2,1.06-.2,1.6,0,1.18.38,1.76,1.15,1.76.36,0,.69-.17.99-.5.29-.34.57-.86.82-1.57.03-.09.09-.14.2-.14.06,0,.09.02.1.06,0,.04,0,.12-.03.24-.09.51-.26.97-.5,1.36-.24.39-.53.7-.86.93-.33.23-.68.34-1.06.34ZM304.95,83.35c-.58,0-1.04-.24-1.37-.72-.34-.48-.5-1.13-.5-1.95,0-.61.1-1.19.29-1.75.2-.56.45-1.06.78-1.5.32-.44.68-.79,1.08-1.04.4-.26.8-.38,1.2-.38.58,0,1.04.24,1.37.71.34.48.5,1.13.5,1.96,0,.61-.1,1.19-.29,1.75-.2.56-.46,1.06-.78,1.5-.32.44-.68.79-1.08,1.04-.4.26-.8.38-1.2.38ZM304.02,81.25c0,1.18.3,1.76.9,1.76.3,0,.59-.14.88-.43.28-.29.54-.67.78-1.15.23-.48.42-1.01.56-1.59.14-.58.21-1.17.21-1.76,0-1.17-.3-1.75-.91-1.75-.29,0-.58.14-.87.43-.29.28-.55.66-.78,1.14-.23.48-.41,1.01-.55,1.59-.14.58-.21,1.17-.21,1.76h0ZM309.48,83.23c-.13,0-.18-.06-.15-.18l1.33-5.59c.05-.21.05-.37.02-.48-.03-.12-.12-.17-.26-.17-.17,0-.35.12-.55.37-.2.25-.43.72-.68,1.41-.04.12-.1.18-.2.18-.14,0-.18-.08-.11-.25.21-.64.42-1.15.65-1.51.23-.36.46-.62.69-.77.23-.15.45-.22.64-.22.31,0,.53.11.66.34.13.23.14.6.01,1.13l-.15.66c0,.07,0,.1.04.11.04,0,.07-.01.1-.07.35-.81.68-1.38.97-1.69.29-.32.62-.48.99-.48.25,0,.44.07.57.2.13.14.19.32.19.55s-.06.42-.17.56-.26.21-.43.21c-.15,0-.26-.04-.32-.11-.07-.07-.11-.16-.15-.26-.03-.1-.07-.18-.1-.26-.04-.07-.1-.11-.18-.11-.14,0-.32.18-.55.53-.22.35-.46.83-.72,1.44-.26.6-.5,1.28-.74,2.02-.24.75-.45,1.51-.62,2.3-.03.1-.09.15-.2.15h-.57ZM314.64,83.23c-.13,0-.18-.06-.15-.18l1.33-5.59c.05-.21.05-.37.02-.48-.03-.12-.12-.17-.26-.17-.17,0-.35.12-.55.37-.2.25-.43.72-.68,1.41-.04.12-.1.18-.2.18-.14,0-.18-.08-.11-.25.21-.64.42-1.15.65-1.51.23-.36.46-.62.69-.77.23-.15.45-.22.64-.22.31,0,.53.11.66.34.13.23.14.6.01,1.13l-.15.66c0,.07,0,.1.04.11.04,0,.07-.01.1-.07.35-.81.68-1.38.97-1.69.29-.32.62-.48.99-.48.25,0,.44.07.57.2.13.14.19.32.19.55s-.06.42-.17.56-.26.21-.43.21c-.15,0-.26-.04-.32-.11-.07-.07-.11-.16-.15-.26-.03-.1-.07-.18-.1-.26-.04-.07-.1-.11-.18-.11-.14,0-.32.18-.55.53-.22.35-.46.83-.72,1.44-.26.6-.5,1.28-.74,2.02-.24.75-.45,1.51-.62,2.3-.03.1-.09.15-.2.15h-.57ZM320.44,83.35c-.49,0-.89-.19-1.19-.58-.3-.39-.45-.94-.45-1.64,0-.62.11-1.23.33-1.83.22-.61.51-1.16.86-1.65.35-.49.74-.89,1.17-1.19.42-.3.84-.45,1.24-.45.44,0,.75.1.95.31.19.21.29.49.29.85,0,.42-.15.84-.44,1.25-.29.42-.7.79-1.23,1.11-.53.33-1.15.57-1.86.73-.21.05-.31.16-.32.35,0,.07-.01.13-.01.2v.2c0,.53.09.93.27,1.2.18.27.43.41.75.41.35,0,.7-.16,1.03-.49.33-.33.61-.79.83-1.39.03-.08.08-.13.17-.13.06,0,.09.02.11.07.01.05.01.1,0,.17-.3.82-.66,1.44-1.08,1.86-.42.42-.89.63-1.39.63ZM319.93,79.73c-.02.07,0,.12.04.16s.1.05.16.03c.58-.16,1.06-.4,1.46-.72.39-.32.69-.68.89-1.08.2-.4.3-.79.3-1.18s-.15-.59-.46-.59c-.27,0-.56.16-.88.48-.32.32-.61.73-.88,1.25-.27.51-.48,1.06-.62,1.65ZM325.5,83.35c-.51,0-.94-.21-1.27-.64-.34-.42-.5-.97-.5-1.63,0-.63.1-1.24.3-1.84.2-.6.47-1.15.81-1.64.34-.49.72-.88,1.13-1.17.42-.29.83-.43,1.25-.43.45,0,.83.12,1.13.36.05.04.07.07.08.09,0,.02,0,.07-.01.15l-.38,1.83c-.03.13-.09.2-.18.2-.1,0-.16-.07-.18-.21l-.07-.99c-.03-.43-.09-.71-.19-.84-.1-.13-.24-.2-.43-.2-.26,0-.53.13-.8.39-.27.26-.52.6-.75,1.04-.23.43-.41.91-.55,1.44-.14.53-.2,1.06-.2,1.6,0,1.18.38,1.76,1.15,1.76.36,0,.69-.17.99-.5.29-.34.57-.86.82-1.57.03-.09.09-.14.2-.14.06,0,.09.02.1.06,0,.04,0,.12-.03.24-.09.51-.26.97-.5,1.36-.24.39-.53.7-.86.93-.33.23-.68.34-1.06.34ZM329.85,83.35c-.32,0-.56-.13-.74-.38-.18-.25-.21-.66-.08-1.22l1.16-5.07c.03-.14-.03-.21-.17-.21h-.53c-.13,0-.2-.06-.2-.18,0-.07.02-.12.07-.15.05-.04.1-.06.17-.06h.5c.21,0,.34-.1.38-.29l.34-1.5c.03-.1.09-.15.2-.15h.57c.13,0,.18.06.15.18l-.35,1.55c-.03.14.03.21.17.21h.8c.16,0,.24.06.24.18,0,.14-.1.21-.29.21h-.76c-.21,0-.33.1-.38.29l-1.18,5.12c-.05.21-.04.37.02.48.06.12.17.17.32.17.21,0,.41-.12.59-.36.18-.24.38-.7.58-1.39.04-.12.1-.18.18-.18.07,0,.11.03.13.08.02.06,0,.16-.04.31-.18.63-.37,1.12-.58,1.46-.21.34-.42.57-.64.69-.21.13-.42.19-.63.19ZM333.48,83.35c-.34,0-.6-.14-.78-.43-.19-.29-.28-.71-.28-1.27s.07-1.07.22-1.6c.15-.54.35-1.05.62-1.53.26-.49.56-.91.89-1.29.33-.37.68-.67,1.05-.89.37-.22.74-.33,1.1-.33.18,0,.35.03.5.1.16.07.29.18.39.33.06.08.11.13.17.13s.11-.04.17-.13c.1-.15.19-.24.25-.29.07-.04.13-.06.18-.06.12,0,.17.07.14.2l-1.25,5.36c-.14.61-.05.91.28.91.21,0,.41-.14.58-.43.17-.29.35-.74.53-1.34.03-.1.09-.15.18-.15.07,0,.11.03.13.08.02.06.02.12,0,.2-.18.88-.42,1.51-.71,1.88-.3.38-.66.57-1.08.57-.36,0-.62-.15-.78-.46-.15-.31-.17-.73-.05-1.26l.18-.77c.02-.07,0-.1-.04-.11-.04,0-.08.01-.1.07-.51.94-.97,1.6-1.37,1.97-.4.37-.77.56-1.13.56ZM333.83,82.64c.22,0,.47-.14.74-.41.27-.27.54-.62.8-1.05.27-.43.51-.89.73-1.39.22-.49.4-.97.54-1.43.14-.46.2-.84.2-1.16,0-.57-.2-.85-.6-.85-.24,0-.5.11-.77.33-.27.22-.53.52-.78.89-.25.37-.47.8-.67,1.27-.2.47-.36.96-.48,1.47-.12.51-.18,1.01-.18,1.49,0,.33.04.55.12.67.08.12.19.17.34.17ZM347.14,83.35c-.34,0-.59-.14-.76-.42-.17-.28-.18-.71-.03-1.3l1.08-4.06c.1-.36.12-.62.05-.76-.07-.14-.17-.21-.3-.21-.19,0-.4.13-.64.39-.24.26-.5.6-.76,1.04-.27.44-.52.94-.78,1.5-.25.56-.49,1.14-.7,1.75-.21.61-.39,1.2-.53,1.79-.03.1-.09.15-.2.15h-.55c-.13,0-.18-.06-.15-.18l1.29-5.47c.08-.36.1-.62.04-.76-.06-.14-.16-.21-.29-.21-.18,0-.39.13-.63.39-.24.26-.49.6-.76,1.04-.26.44-.52.94-.77,1.5-.25.56-.49,1.14-.7,1.75-.21.61-.39,1.2-.52,1.79-.03.1-.09.15-.2.15h-.57c-.13,0-.18-.06-.15-.18l1.33-5.59c.05-.21.05-.37.02-.48-.03-.12-.12-.17-.26-.17-.17,0-.35.12-.55.37-.2.25-.43.72-.68,1.41-.04.12-.1.18-.2.18-.14,0-.18-.08-.11-.25.21-.64.42-1.15.65-1.51.23-.36.46-.62.69-.77.23-.15.45-.22.64-.22.31,0,.53.11.66.34.13.23.14.6.01,1.13l-.35,1.51c0,.07,0,.1.04.11.04,0,.07-.01.1-.07.54-1.12,1.03-1.9,1.47-2.35.44-.45.84-.67,1.2-.67.35,0,.59.14.74.42.14.28.15.71.02,1.29l-.29,1.27c0,.07,0,.1.04.11.04,0,.07-.01.1-.07.35-.76.69-1.36,1-1.8.31-.44.61-.76.89-.94.28-.19.54-.28.78-.28.35,0,.6.14.76.42.16.28.16.71,0,1.29l-1.06,4.06c-.07.26-.07.46-.01.59.06.13.16.2.31.2.19,0,.37-.12.55-.37.18-.25.37-.72.57-1.41.03-.1.09-.15.18-.15.07,0,.12.03.13.08.01.06.01.12,0,.2-.18.63-.37,1.13-.57,1.49-.21.36-.41.61-.62.75-.21.14-.42.21-.64.21ZM351.1,83.35c-.49,0-.89-.19-1.19-.58-.3-.39-.45-.94-.45-1.64,0-.62.11-1.23.33-1.83.22-.61.51-1.16.86-1.65.35-.49.74-.89,1.17-1.19.42-.3.84-.45,1.24-.45.44,0,.75.1.95.31.19.21.29.49.29.85,0,.42-.15.84-.44,1.25-.29.42-.7.79-1.23,1.11-.53.33-1.15.57-1.86.73-.21.05-.31.16-.32.35,0,.07-.01.13-.01.2v.2c0,.53.09.93.27,1.2.18.27.43.41.75.41.35,0,.7-.16,1.03-.49.33-.33.61-.79.83-1.39.03-.08.08-.13.17-.13.06,0,.09.02.11.07.01.05.01.1,0,.17-.3.82-.66,1.44-1.08,1.86-.42.42-.89.63-1.39.63ZM350.59,79.73c-.02.07,0,.12.04.16s.1.05.16.03c.58-.16,1.06-.4,1.46-.72.39-.32.69-.68.89-1.08.2-.4.3-.79.3-1.18s-.15-.59-.46-.59c-.27,0-.56.16-.88.48-.32.32-.61.73-.88,1.25-.27.51-.48,1.06-.62,1.65ZM355.07,83.23c-.13,0-.18-.06-.15-.18l1.33-5.59c.05-.21.05-.37.02-.48-.03-.12-.12-.17-.26-.17-.17,0-.35.12-.55.37-.2.25-.43.72-.68,1.41-.04.12-.1.18-.2.18-.14,0-.18-.08-.11-.25.21-.64.42-1.15.65-1.51.23-.36.46-.62.69-.77.23-.15.45-.22.64-.22.31,0,.53.11.66.34.13.23.14.6.01,1.13l-.35,1.51c0,.07,0,.1.04.11.04,0,.07-.01.1-.07.36-.76.71-1.36,1.05-1.8.34-.44.65-.76.95-.94.3-.19.57-.28.81-.28.35,0,.6.14.76.42.16.28.16.71,0,1.29l-1.06,4.06c-.07.26-.07.46-.01.59.06.13.16.2.31.2.19,0,.37-.12.55-.37.18-.25.37-.72.57-1.41.03-.1.09-.15.18-.15.07,0,.12.03.13.08s.01.12,0,.2c-.18.63-.37,1.13-.57,1.49-.21.36-.41.61-.62.75s-.42.21-.64.21c-.34,0-.59-.14-.76-.42-.17-.28-.18-.71-.03-1.3l1.08-4.06c.1-.36.12-.62.05-.76-.07-.14-.17-.21-.3-.21-.21,0-.44.13-.7.39-.26.26-.53.61-.8,1.05-.27.44-.54.94-.8,1.51-.26.56-.5,1.14-.71,1.75-.21.61-.38,1.2-.51,1.78-.03.1-.09.15-.2.15h-.57ZM362.89,83.35c-.32,0-.56-.13-.74-.38-.18-.25-.21-.66-.08-1.22l1.16-5.07c.03-.14-.03-.21-.17-.21h-.53c-.13,0-.2-.06-.2-.18,0-.07.02-.12.07-.15.05-.04.1-.06.17-.06h.5c.21,0,.34-.1.38-.29l.34-1.5c.03-.1.09-.15.2-.15h.57c.13,0,.18.06.15.18l-.35,1.55c-.03.14.03.21.17.21h.8c.16,0,.24.06.24.18,0,.14-.1.21-.29.21h-.76c-.21,0-.33.1-.38.29l-1.18,5.12c-.05.21-.04.37.02.48.06.12.17.17.32.17.21,0,.41-.12.59-.36.18-.24.38-.7.58-1.39.04-.12.1-.18.18-.18.07,0,.11.03.13.08.02.06,0,.16-.04.31-.18.63-.37,1.12-.58,1.46-.21.34-.42.57-.64.69-.21.13-.42.19-.63.19ZM366.99,83.35c-.49,0-.89-.19-1.19-.58-.3-.39-.45-.94-.45-1.64,0-.62.11-1.23.33-1.83.22-.61.51-1.16.86-1.65.35-.49.74-.89,1.17-1.19.42-.3.84-.45,1.24-.45.44,0,.75.1.95.31.19.21.29.49.29.85,0,.42-.15.84-.44,1.25-.29.42-.7.79-1.23,1.11-.53.33-1.15.57-1.86.73-.21.05-.31.16-.32.35,0,.07-.01.13-.01.2v.2c0,.53.09.93.27,1.2.18.27.43.41.75.41.35,0,.7-.16,1.03-.49.33-.33.61-.79.83-1.39.03-.08.08-.13.17-.13.06,0,.09.02.11.07.01.05.01.1,0,.17-.3.82-.66,1.44-1.08,1.86-.42.42-.89.63-1.39.63ZM366.47,79.73c-.02.07,0,.12.04.16s.1.05.16.03c.58-.16,1.06-.4,1.46-.72.39-.32.69-.68.89-1.08.2-.4.3-.79.3-1.18s-.15-.59-.46-.59c-.27,0-.56.16-.88.48-.32.32-.61.73-.88,1.25-.27.51-.48,1.06-.62,1.65Z"/>
  <text class="cls-7" transform="translate(370.06 83.22)"><tspan x="0" y="0" xml:space="preserve"> los </tspan></text>
  <text class="cls-7" transform="translate(206.54 98.22)"><tspan x="0" y="0">problemas que su</tspan><tspan class="cls-27" x="83.33" y="0">b</tspan><tspan class="cls-18" x="89.42" y="0">y</tspan><tspan x="94.88" y="0">acen t</tspan><tspan class="cls-15" x="122.76" y="0">r</tspan><tspan class="cls-11" x="126.96" y="0">as las opor</tspan><tspan class="cls-26" x="176.69" y="0">t</tspan><tspan x="180.2" y="0">unidades?</tspan></text>
  <text class="cls-4" transform="translate(208.07 54.82)"><tspan class="cls-20" x="0" y="0">C</tspan><tspan class="cls-25" x="7.04" y="0">O</tspan><tspan class="cls-17" x="15.01" y="0">N</tspan><tspan class="cls-14" x="22.95" y="0">V</tspan><tspan x="29.58" y="0">E</tspan><tspan class="cls-16" x="36.37" y="0">R</tspan><tspan x="43.78" y="0">TIR </tspan><tspan class="cls-22" x="64.68" y="0">O</tspan><tspan x="72.64" y="0">P</tspan><tspan class="cls-23" x="79.63" y="0">O</tspan><tspan class="cls-16" x="87.58" y="0">R</tspan><tspan x="94.99" y="0">TUNI</tspan><tspan class="cls-13" x="121.78" y="0">D</tspan><tspan class="cls-22" x="129.39" y="0">A</tspan><tspan class="cls-23" x="136.11" y="0">D</tspan><tspan class="cls-10" x="143.91" y="0">ES EN P</tspan><tspan class="cls-13" x="183.79" y="0">R</tspan><tspan class="cls-21" x="191.14" y="0">O</tspan><tspan class="cls-24" x="199.09" y="0">B</tspan><tspan class="cls-12" x="206.16" y="0">LEM</tspan><tspan class="cls-19" x="229.12" y="0">A</tspan><tspan x="235.8" y="0">S </tspan><tspan class="cls-24" x="244.45" y="0">B</tspan><tspan x="251.52" y="0">IEN </tspan><tspan class="cls-22" x="272.7" y="0">D</tspan><tspan x="280.51" y="0">EFINIDOS</tspan></text>
  <text class="cls-3" transform="translate(190.1 54.82)"><tspan x="0" y="0">2.1</tspan></text>
  <g>
    <g>
      <path class="cls-8" d="M75.14,69l1.09,6.03,13.98,12.81,1.11,4.57s2.43,1.51,6.01.01l.65-4.65,12.25-12.12,1.55-6.68"/>
      <path d="M94.18,93.23c-1.78,0-2.87-.66-2.93-.7l-.05-.03-1.11-4.59-13.99-12.82-1.1-6.07.26-.05,1.08,5.99,13.98,12.81v.04s1.1,4.52,1.1,4.52c.34.19,2.61,1.31,5.78,0l.65-4.62.03-.03,12.22-12.09,1.54-6.64.25.06-1.56,6.72-.03.03-12.22,12.09-.66,4.68-.07.03c-1.21.51-2.29.68-3.2.68Z"/>
    </g>
    <ellipse cx="93.46" cy="68.96" rx="18.45" ry="3.39"/>
    <g>
      <path class="cls-8" d="M76.23,75.03s13.9,7.74,34,.64"/>
      <path d="M93.41,78.78c-10.55,0-17.15-3.58-17.24-3.63l.13-.23c.14.08,14.08,7.63,33.9.63l.09.25c-6.29,2.23-12,2.99-16.87,2.99Z"/>
    </g>
    <g>
      <path class="cls-8" d="M77.17,61.42s4.73.15,5.77-1.11c0,0,.07,6.29,2,6.21,0,0-3.92,3.28-4.81,2.2,0,0-2.88.1-2.96-7.3Z"/>
      <path d="M80.66,69.07s-.07,0-.11,0c-.2-.02-.37-.09-.49-.22-.17-.01-.67-.1-1.21-.62-.8-.77-1.77-2.58-1.82-6.81v-.14s.13,0,.13,0c.05,0,4.68.13,5.66-1.06l.23-.27v.36s.07,4.69,1.29,5.84c.18.17.37.26.58.24h.38s-.29.23-.29.23c-.12.1-2.94,2.45-4.35,2.45ZM80.19,68.59l.04.05c.08.1.2.15.35.17,1.06.09,3.31-1.61,4.04-2.19-.16-.05-.31-.14-.45-.27-1.12-1.07-1.32-4.66-1.36-5.73-1.25.97-4.76.96-5.51.95.06,4.03.97,5.74,1.72,6.48.58.56,1.09.57,1.1.56h.06Z"/>
    </g>
    <g>
      <path class="cls-8" d="M106.29,59.32s1.77,5.1-.81,4.95l4.22,1.75s1.18-3.53.81-4.93l-4.22-1.77Z"/>
      <path d="M109.77,66.2l-5.05-2.1.76.04c.42.02.74-.1.95-.38.86-1.14-.25-4.37-.26-4.41l-.1-.28,4.54,1.91.02.06c.38,1.43-.77,4.86-.82,5.01l-.04.13ZM106.01,64.35l3.6,1.5c.2-.64,1.05-3.43.78-4.66l-3.89-1.64c.26.83.93,3.32.14,4.37-.16.21-.37.36-.63.43Z"/>
    </g>
    <g>
      <path class="cls-8" d="M93.74,64.4l3.33.3s1.26,5.99-.59,5.99h-4.59s3.03-2.88,1.85-6.29Z"/>
      <path d="M96.47,70.82h-4.91l.24-.22s2.96-2.87,1.82-6.15l-.07-.19,3.62.32.02.09c.04.19.95,4.6-.04,5.82-.18.22-.41.33-.68.33ZM92.19,70.56h4.28c.19,0,.35-.08.48-.23.84-1.03.13-4.85,0-5.51l-3.03-.27c.86,2.82-1.07,5.27-1.73,6.01Z"/>
    </g>
    <g>
      <path class="cls-8" d="M83.24,71.46s1.53.38,4.43.42c0,0-.54-1.37,0-1.88,0,0-4,.28-3.79-.49,0,0-1.06.61-.64,1.95Z"/>
      <path d="M87.86,72.01h-.19c-2.88-.05-4.44-.43-4.46-.43l-.07-.02-.02-.07c-.45-1.43.68-2.1.69-2.11l.27-.16-.08.3s0,.05.02.07c.29.36,2.39.35,3.64.26l.36-.03-.26.25c-.39.37-.11,1.38.03,1.74l.07.18ZM83.34,71.35c.33.07,1.75.35,4.14.4-.11-.35-.31-1.1-.08-1.6-.9.05-3.18.13-3.59-.37-.01-.01-.02-.03-.03-.04-.25.22-.69.74-.44,1.62Z"/>
    </g>
    <g>
      <path class="cls-8" d="M100.01,58.02s-1.75,2.21-3.97,1.35l4.29,4.29s3.96-2.9,2.36-6.09l-2.68.45Z"/>
      <path d="M100.32,63.83l-4.81-4.81.57.22c2.11.82,3.81-1.29,3.82-1.31l.03-.04,2.82-.47.04.09c1.63,3.25-2.36,6.22-2.4,6.25l-.09.07ZM96.49,59.64l3.85,3.85c.56-.45,3.57-3.01,2.27-5.77l-2.53.42c-.24.28-1.71,1.88-3.59,1.5Z"/>
    </g>
    <g>
      <path class="cls-8" d="M103.44,53.05s-.61,2.1-2.57,2.06-2.71-.47-2.71-.47l3.63,3.92s3.7.7,4.22-.79l-2.57-4.72Z"/>
      <path d="M103.6,58.86c-.92,0-1.76-.15-1.83-.17h-.04s-.03-.04-.03-.04l-4.18-4.52.71.39s.76.41,2.65.45c1.84.06,2.42-1.88,2.44-1.96l.09-.3,2.75,5.05-.02.05c-.29.85-1.47,1.05-2.53,1.05ZM101.86,58.45c.4.07,3.5.56,4.01-.66l-2.41-4.42c-.25.58-.98,1.88-2.53,1.88-.02,0-.04,0-.07,0-1.09-.03-1.81-.17-2.24-.29l3.24,3.5Z"/>
    </g>
    <g>
      <path class="cls-8" d="M79.85,57.57l2.78,6.17s2.47-1.76,3.32-2.78l-2.49-5.71h-3.61s.54.88.83.94-.9.73-.83,1.38Z"/>
      <path d="M82.57,63.94l-2.85-6.36c-.04-.45.39-.87.67-1.15.05-.05.11-.11.16-.16-.31-.17-.69-.76-.81-.96l-.12-.2h3.92l2.56,5.86-.05.06c-.85,1.02-3.24,2.73-3.35,2.81l-.13.09ZM79.97,57.54l2.7,6c.51-.37,2.36-1.74,3.12-2.61l-2.42-5.56h-3.28c.23.34.5.66.62.68.1.02.14.09.14.12.04.13-.07.24-.28.44-.24.24-.61.6-.6.92Z"/>
    </g>
    <g>
      <path class="cls-8" d="M79.78,55.25s-.67,1.28.06,2.26"/>
      <path d="M79.74,57.59c-.77-1.03-.1-2.34-.07-2.4l.23.12s-.62,1.23.05,2.12l-.21.16Z"/>
    </g>
    <g>
      <path class="cls-8" d="M89.29,60.31s.39,3.49-.57,3.35c0,0-.43-.25-.35-.75,0,0,3.06.85,3.39.65,0,0-.29.49-.11.56.03,0,.06.01.11,0,.37-.08,1.65-2.19,1.33-3.5l-3.81-.31Z"/>
      <path d="M91.71,64.26s-.06,0-.09-.02c-.06-.02-.11-.07-.13-.13-.04-.11,0-.26.06-.4-.5,0-1.45-.22-2.23-.42-.05.15-.12.28-.21.36-.11.11-.25.15-.4.13l-.05-.02s-.5-.3-.41-.89l.02-.14.14.04c.24.07.49.13.73.2.17-.76.08-2.09.02-2.66l-.02-.16,4.07.33.02.09c.22.92-.28,2.17-.77,2.96-.15.24-.44.65-.66.7-.03,0-.06.01-.09.01ZM92.15,63.17l-.26.45c-.08.14-.14.3-.15.37,0,0,0,0,0,0,.26-.06,1.48-1.98,1.25-3.25l-3.56-.29c.05.47.14,1.76-.05,2.59,1.13.28,2.15.48,2.31.4l.44-.28ZM88.77,63.54c.06,0,.11-.02.16-.07.06-.06.1-.14.14-.24-.22-.06-.42-.11-.57-.15.02.26.2.41.27.46Z"/>
    </g>
    <g>
      <path class="cls-8" d="M91.82,63.47l-3.44-.56c-.01.55.35.75.35.75l2.94.46s-.09-.28.16-.65Z"/>
      <path d="M91.85,64.28l-.2-.03-2.99-.47s-.42-.25-.41-.87v-.15s3.79.61,3.79.61l-.11.17c-.21.31-.14.53-.14.54l.06.2ZM88.77,63.54l2.75.42c0-.1.02-.24.1-.4l-3.1-.5c.04.29.2.43.26.47Z"/>
    </g>
    <g>
      <path class="cls-8" d="M70.73,51.16s3.4-.81,3.59-2.11l3.2,5.08-1.9,2.92c-3.86-1.29-4.89-5.9-4.89-5.9Z"/>
      <path d="M75.68,57.21l-.1-.03c-3.88-1.29-4.97-5.94-4.98-5.99l-.03-.13.13-.03c.92-.22,3.34-1.01,3.49-2l.05-.35,3.44,5.45-2,3.08ZM70.89,51.25c.2.73,1.36,4.48,4.68,5.65l1.8-2.77-3.01-4.77c-.51,1.07-2.88,1.74-3.47,1.89Z"/>
    </g>
    <g>
      <path class="cls-8" d="M111.19,46.21s-2.38,5.35-3.94,5.34l3.25,3.39s4.64-3.15,4.64-5.13c0,0-3.88-1.34-3.94-3.6Z"/>
      <path d="M110.48,55.12l-3.53-3.69h.31s0,0,0,0c1.21,0,3.17-3.8,3.82-5.26l.23-.53v.58c.07,2.14,3.83,3.47,3.87,3.48l.09.03v.09c0,2.03-4.5,5.11-4.69,5.24l-.09.06ZM107.51,51.64l3,3.13c.63-.44,4.36-3.13,4.49-4.87-.56-.21-3.42-1.35-3.88-3.23-.56,1.19-2.26,4.56-3.61,4.97Z"/>
    </g>
    <g>
      <path class="cls-8" d="M91.35,93.56s-1.08,2.44-2.26,2.2l2.86,3.3s1.72-2.91,1.4-4.16l-2-1.35Z"/>
      <path d="M91.97,99.29l-3.23-3.73.37.08c.88.18,1.83-1.48,2.12-2.13l.06-.14,2.17,1.46v.05c.34,1.28-1.33,4.13-1.4,4.26l-.09.16ZM89.38,95.91l2.55,2.94c.34-.61,1.52-2.81,1.31-3.85l-1.83-1.24c-.23.48-1.05,2.02-2.02,2.15Z"/>
    </g>
    <g>
      <path class="cls-8" d="M95.75,93.32l-2.98,2.03s2.23,4.6,4.31,2.94l2.14-2.31s-3.67,0-3.47-2.67Z"/>
      <path d="M96.12,98.78c-.12,0-.24-.01-.36-.04-1.66-.38-3.05-3.21-3.11-3.33l-.05-.1,3.3-2.25-.02.27c-.05.61.12,1.12.49,1.52.92.99,2.82,1,2.85,1h.3s-2.35,2.53-2.35,2.53c-.34.27-.69.4-1.05.4ZM92.94,95.4c.26.51,1.51,2.78,2.89,3.09.42.1.81,0,1.17-.3l1.94-2.09c-.6-.04-1.97-.23-2.75-1.07-.37-.4-.56-.89-.57-1.46l-2.68,1.83Z"/>
    </g>
    <g>
      <path class="cls-9" d="M93.96,104.56c-.33-.3-1.7-1.76-1.19-5.21.65-.23,2.86-1.02,3.65-1.64-.05,1.08-.08,3.91.79,4.46l-3.25,2.39Z"/>
      <path class="cls-9" d="M96.27,97.96c-.05,1.29,0,3.49.72,4.2l-3.02,2.22c-.4-.4-1.52-1.83-1.09-4.94.91-.32,2.54-.93,3.39-1.48M96.56,97.35c-.18.62-3.91,1.9-3.91,1.9-.63,4.09,1.3,5.47,1.3,5.47l3.53-2.6c-1.22-.1-.92-4.78-.92-4.78h0Z"/>
    </g>
  </g>
</svg>