<?xml version="1.0" encoding="UTF-8"?>
<svg id="Capa_1" data-name="Capa 1" xmlns="http://www.w3.org/2000/svg" viewBox="0 0 272.49 116.1">
  <defs>
    <style>
      .cls-1 {
        font-family: Inter-Regular, Inter;
        font-variation-settings: 'opsz' 14, 'wght' 400;
      }

      .cls-1, .cls-2 {
        fill: #1d1d1b;
        font-size: 9.53px;
      }

      .cls-2 {
        font-family: InstrumentSerif-Italic, 'Instrument Serif';
        font-style: italic;
      }

      .cls-3 {
        fill: #e5fbf6;
      }

      .cls-4 {
        fill: #00d6a3;
      }

      .cls-5 {
        fill: #fff;
      }

      .cls-6 {
        fill: none;
        stroke: #1d1d1b;
        stroke-width: .5px;
      }

      .cls-7 {
        letter-spacing: 0em;
      }

      .cls-8 {
        letter-spacing: -.02em;
      }

      .cls-9 {
        letter-spacing: -.02em;
      }

      .cls-10 {
        letter-spacing: -.02em;
      }

      .cls-11 {
        letter-spacing: .01em;
      }
    </style>
  </defs>
  <polyline class="cls-5" points="147.51 20.86 151.68 20.86 155.02 99.67 35.66 103.92 35.64 101.71"/>
  <polyline class="cls-6" points="147.51 20.86 151.68 20.86 155.02 99.67 35.66 103.92 35.64 101.71"/>
  <rect class="cls-3" x="29.92" y="19.22" width="120.73" height="80.15" transform="translate(-2.01 3.19) rotate(-2)"/>
  <text class="cls-2" transform="translate(56.02 60.4) rotate(-2)"><tspan x="0" y="0">2.1</tspan></text>
  <text class="cls-1" transform="translate(64.31 60.11) rotate(-2)"><tspan x="0" y="0" xml:space="preserve"> Co</tspan><tspan class="cls-8" x="15.35" y="0">n</tspan><tspan class="cls-9" x="20.81" y="0">v</tspan><tspan x="25.98" y="0">e</tspan><tspan class="cls-11" x="31.53" y="0">r</tspan><tspan x="35.26" y="0">tir las </tspan></text>
  <text class="cls-1" transform="translate(50.9 71.07) rotate(-2)"><tspan x="0" y="0">opo</tspan><tspan class="cls-11" x="17.26" y="0">r</tspan><tspan class="cls-7" x="20.99" y="0">tunidades en </tspan></text>
  <text class="cls-1" transform="translate(34.51 82.13) rotate(-2)"><tspan x="0" y="0">p</tspan><tspan class="cls-10" x="5.83" y="0">r</tspan><tspan x="9.27" y="0">oblemas bien definidos</tspan></text>
  <rect class="cls-6" x="29.92" y="19.22" width="120.73" height="80.15" transform="translate(-2.01 3.19) rotate(-2)"/>
  <line class="cls-6" x1="41.33" y1="33.24" x2="263.85" y2="33.24"/>
  <g>
    <g>
      <path class="cls-5" d="M6.89,28.11l1.23,6.81,15.79,14.47,1.25,5.16s2.75,1.71,6.79.01l.74-5.25,13.83-13.68,1.75-7.54"/>
      <path d="M28.39,55.47c-2.01,0-3.24-.75-3.31-.79l-.05-.03-1.25-5.18-15.79-14.47-1.24-6.86.29-.05,1.22,6.76,15.79,14.47v.04s1.24,5.1,1.24,5.1c.39.21,2.94,1.48,6.53,0l.73-5.21.04-.04,13.8-13.65,1.74-7.5.29.07-1.76,7.58-.03.03-13.8,13.65-.74,5.28-.08.03c-1.37.57-2.59.77-3.61.77Z"/>
    </g>
    <ellipse cx="27.58" cy="28.06" rx="20.84" ry="3.83"/>
    <g>
      <path class="cls-5" d="M8.12,34.91s15.7,8.74,38.4.72"/>
      <path d="M27.52,39.15c-11.91,0-19.36-4.04-19.47-4.1l.14-.26c.16.09,15.9,8.62,38.28.71l.1.28c-7.11,2.51-13.55,3.37-19.05,3.37Z"/>
    </g>
    <g>
      <path class="cls-5" d="M9.18,19.55s5.34.17,6.51-1.25c0,0,.08,7.1,2.25,7.01,0,0-4.43,3.71-5.43,2.48,0,0-3.26.11-3.34-8.24Z"/>
      <path d="M13.13,28.18s-.08,0-.12,0c-.23-.02-.41-.1-.55-.25-.2-.01-.76-.11-1.37-.7-.91-.87-2-2.91-2.05-7.69v-.15s.15,0,.15,0c.05,0,5.29.15,6.4-1.2l.26-.31v.4c0,.05.08,5.29,1.45,6.6.2.19.42.29.65.27l.43-.02-.33.28c-.14.12-3.32,2.76-4.91,2.76ZM12.59,27.64l.05.06c.09.11.22.17.4.19,1.2.1,3.74-1.82,4.56-2.48-.18-.06-.35-.16-.5-.31-1.27-1.2-1.49-5.27-1.53-6.47-1.41,1.09-5.38,1.08-6.23,1.07.07,4.55,1.09,6.49,1.94,7.31.65.63,1.23.64,1.24.63h.07Z"/>
    </g>
    <g>
      <path class="cls-5" d="M42.06,17.17s2,5.76-.92,5.59l4.76,1.98s1.34-3.98.92-5.57l-4.76-2Z"/>
      <path d="M45.99,24.94l-5.7-2.37.86.05c.48.03.83-.11,1.07-.43.97-1.28-.28-4.94-.3-4.97l-.11-.31,5.13,2.16.02.07c.42,1.61-.87,5.49-.92,5.65l-.05.15ZM41.74,22.85l4.07,1.69c.23-.72,1.19-3.87.88-5.27l-4.4-1.85c.29.94,1.05,3.75.15,4.94-.18.24-.42.4-.71.49Z"/>
    </g>
    <g>
      <path class="cls-5" d="M27.89,22.92l3.76.33s1.42,6.76-.67,6.76h-5.18s3.42-3.26,2.09-7.1Z"/>
      <path d="M30.98,30.16h-5.54l.27-.25s3.34-3.24,2.05-6.94l-.07-.21,4.09.36.02.11c.04.21,1.07,5.19-.05,6.57-.2.25-.46.37-.77.37ZM26.14,29.87h4.84c.22,0,.39-.09.54-.26.95-1.17.15-5.48,0-6.22l-3.43-.3c.97,3.18-1.21,5.95-1.95,6.79Z"/>
    </g>
    <g>
      <path class="cls-5" d="M16.04,30.88s1.73.43,5,.48c0,0-.61-1.54,0-2.13,0,0-4.52.32-4.28-.56,0,0-1.2.69-.72,2.21Z"/>
      <path d="M21.26,31.51h-.22c-3.25-.06-5.02-.48-5.03-.49l-.08-.02-.02-.08c-.51-1.61.77-2.37.78-2.38l.31-.18-.09.34s0,.05.02.08c.33.4,2.7.39,4.11.29l.41-.03-.29.28c-.44.42-.12,1.56.04,1.97l.08.2ZM16.15,30.75c.37.08,1.98.39,4.68.45-.13-.39-.35-1.25-.08-1.81-1.02.06-3.59.15-4.06-.42-.01-.02-.02-.03-.03-.05-.28.24-.78.83-.5,1.83Z"/>
    </g>
    <g>
      <path class="cls-5" d="M34.97,15.71s-1.97,2.49-4.49,1.52l4.85,4.85s4.47-3.27,2.66-6.88l-3.02.51Z"/>
      <path d="M35.32,22.27l-5.43-5.43.65.25c2.38.92,4.3-1.45,4.32-1.48l.04-.04,3.19-.53.05.1c1.84,3.67-2.66,7.03-2.71,7.06l-.1.07ZM31,17.53l4.35,4.35c.63-.5,4.03-3.4,2.56-6.52l-2.86.48c-.27.31-1.93,2.12-4.05,1.69Z"/>
    </g>
    <g>
      <path class="cls-5" d="M38.84,10.1s-.69,2.37-2.9,2.32-3.06-.53-3.06-.53l4.1,4.43s4.18.79,4.76-.9l-2.9-5.33Z"/>
      <path d="M39.03,16.66c-1.04,0-1.99-.17-2.07-.19h-.05s-.03-.04-.03-.04l-4.72-5.1.8.44s.85.46,2.99.51c2.08.06,2.73-2.12,2.76-2.21l.1-.34,3.1,5.7-.02.06c-.33.96-1.66,1.18-2.86,1.18ZM37.06,16.19c.45.08,3.95.63,4.52-.75l-2.72-4.99c-.28.65-1.1,2.12-2.85,2.12-.03,0-.05,0-.08,0-1.23-.03-2.04-.19-2.53-.33l3.65,3.95Z"/>
    </g>
    <g>
      <path class="cls-5" d="M12.2,15.2l3.13,6.97s2.79-1.99,3.75-3.14l-2.81-6.45h-4.07s.61.99.94,1.06-1.01.83-.94,1.56Z"/>
      <path d="M15.28,22.39l-3.22-7.18c-.05-.5.44-.98.76-1.3.06-.06.13-.13.18-.18-.35-.19-.78-.86-.92-1.08l-.14-.22h4.43l2.89,6.62-.06.07c-.96,1.15-3.66,3.09-3.78,3.17l-.15.1ZM12.35,15.16l3.05,6.78c.57-.41,2.66-1.96,3.52-2.94l-2.74-6.28h-3.71c.26.38.56.74.7.77.12.02.15.1.16.14.04.14-.08.27-.31.5-.28.27-.69.68-.67,1.04Z"/>
    </g>
    <g>
      <path class="cls-5" d="M12.13,12.58s-.75,1.45.07,2.55"/>
      <path d="M12.08,15.22c-.87-1.16-.11-2.65-.08-2.71l.26.14s-.7,1.38.06,2.4l-.24.18Z"/>
    </g>
    <g>
      <path class="cls-5" d="M22.87,18.29s.44,3.94-.64,3.78c0,0-.48-.29-.39-.85,0,0,3.46.96,3.83.73,0,0-.32.56-.12.63.03.01.07.01.12,0,.42-.09,1.86-2.47,1.51-3.95l-4.31-.35Z"/>
      <path d="M25.6,22.75s-.07,0-.11-.02c-.07-.03-.12-.08-.14-.15-.04-.12,0-.3.07-.45-.56,0-1.64-.25-2.52-.47-.06.17-.14.31-.24.41-.13.12-.28.17-.46.15l-.05-.02s-.57-.34-.46-1l.03-.16.16.04c.27.08.55.15.82.22.19-.86.09-2.36.02-3l-.02-.18,4.59.37.02.1c.25,1.04-.32,2.45-.87,3.34-.17.27-.49.74-.74.79-.04,0-.07.01-.1.01ZM26.1,21.52l-.3.51c-.09.15-.16.33-.17.42,0,0,0,0,0,0,.3-.07,1.67-2.23,1.42-3.67l-4.02-.32c.05.53.16,1.99-.05,2.93,1.27.32,2.43.54,2.61.45l.5-.31ZM22.28,21.94c.06,0,.12-.02.18-.07.06-.06.12-.16.16-.27-.25-.06-.47-.12-.65-.17.02.29.23.46.3.52Z"/>
    </g>
    <g>
      <path class="cls-5" d="M25.72,21.86l-3.89-.63c-.01.62.39.85.39.85l3.32.51s-.11-.32.18-.74Z"/>
      <path d="M25.76,22.77l-.23-.03-3.37-.53s-.48-.28-.46-.98v-.17s4.28.69,4.28.69l-.13.19c-.23.35-.16.6-.16.61l.07.22ZM22.28,21.94l3.1.48c0-.12.03-.27.11-.45l-3.5-.56c.04.33.23.49.29.54Z"/>
    </g>
    <g>
      <path class="cls-5" d="M1.91,7.96s3.84-.91,4.05-2.38l3.62,5.73-2.14,3.3C3.08,13.16,1.91,7.96,1.91,7.96Z"/>
      <path d="M7.5,14.79l-.11-.04C3,13.29,1.78,8.04,1.77,7.99l-.03-.14.14-.03c1.04-.25,3.78-1.14,3.94-2.26l.06-.39,3.88,6.15-2.26,3.48ZM2.09,8.06c.22.82,1.53,5.06,5.29,6.38l2.03-3.13-3.4-5.39c-.58,1.21-3.25,1.97-3.91,2.14Z"/>
    </g>
    <g>
      <path class="cls-5" d="M47.6,2.38s-2.68,6.04-4.45,6.03l3.66,3.83s5.24-3.56,5.24-5.79c0,0-4.38-1.52-4.45-4.07Z"/>
      <path d="M46.79,12.43l-3.99-4.17h.35s0,0,0,0c1.37,0,3.58-4.29,4.31-5.94l.26-.6.02.65c.06,2.42,4.31,3.92,4.35,3.93l.1.03v.1c0,2.29-5.08,5.77-5.3,5.91l-.1.07ZM43.44,8.51l3.38,3.54c.71-.5,4.92-3.53,5.06-5.5-.64-.24-3.86-1.53-4.38-3.65-.63,1.34-2.55,5.15-4.07,5.61Z"/>
    </g>
    <g>
      <path class="cls-5" d="M25.19,55.84s-1.22,2.76-2.55,2.49l3.23,3.73s1.94-3.29,1.58-4.69l-2.26-1.52Z"/>
      <path d="M25.89,62.31l-3.65-4.21.42.08c.99.21,2.06-1.67,2.39-2.4l.07-.16,2.45,1.65v.05c.38,1.45-1.5,4.67-1.58,4.81l-.1.18ZM22.97,58.49l2.88,3.32c.38-.69,1.71-3.18,1.48-4.35l-2.07-1.4c-.26.55-1.18,2.28-2.28,2.43Z"/>
    </g>
    <g>
      <path class="cls-5" d="M30.17,55.57l-3.37,2.3s2.52,5.19,4.87,3.32l2.42-2.6s-4.14,0-3.92-3.01Z"/>
      <path d="M30.58,61.74c-.13,0-.27-.02-.4-.05-1.88-.42-3.45-3.63-3.52-3.76l-.06-.11,3.73-2.54-.02.3c-.05.69.14,1.27.56,1.72,1.04,1.12,3.19,1.13,3.22,1.13h.34s-2.65,2.85-2.65,2.85c-.38.3-.77.45-1.19.45ZM26.99,57.91c.3.57,1.71,3.14,3.26,3.49.48.11.91,0,1.33-.34l2.19-2.36c-.67-.05-2.22-.26-3.11-1.21-.42-.45-.63-1-.64-1.65l-3.02,2.06Z"/>
    </g>
    <g>
      <path class="cls-4" d="M28.14,68.25c-.38-.34-1.92-1.99-1.35-5.88.74-.26,3.23-1.15,4.12-1.85-.05,1.21-.09,4.42.89,5.03l-3.67,2.7Z"/>
      <path class="cls-4" d="M30.75,60.81c-.05,1.46,0,3.94.81,4.74l-3.41,2.51c-.45-.45-1.72-2.07-1.23-5.58,1.03-.36,2.87-1.05,3.83-1.67M31.08,60.11c-.21.7-4.42,2.15-4.42,2.15-.71,4.62,1.47,6.18,1.47,6.18l3.98-2.93c-1.38-.11-1.04-5.39-1.04-5.39h0Z"/>
    </g>
  </g>
</svg>