<?xml version="1.0" encoding="UTF-8"?>
<svg id="Capa_1" data-name="Capa 1" xmlns="http://www.w3.org/2000/svg" xmlns:xlink="http://www.w3.org/1999/xlink" viewBox="0 0 222.02 132.23">
  <defs>
    <style>
      .cls-1, .cls-2 {
        fill: none;
      }

      .cls-3 {
        fill: #e5fbf6;
      }

      .cls-4 {
        fill: #00d6a3;
      }

      .cls-5 {
        clip-path: url(#clippath-1);
      }

      .cls-6 {
        fill: #fff;
      }

      .cls-7 {
        font-family: Inter-Regular, Inter;
        font-variation-settings: 'opsz' 14, 'wght' 400;
      }

      .cls-7, .cls-8 {
        fill: #1d1d1b;
        font-size: 10px;
      }

      .cls-2 {
        stroke: #1d1d1b;
        stroke-width: .5px;
      }

      .cls-8 {
        font-family: InstrumentSerif-Italic, 'Instrument Serif';
        font-style: italic;
      }

      .cls-9 {
        letter-spacing: -.02em;
      }

      .cls-10 {
        clip-path: url(#clippath);
      }
    </style>
    <clipPath id="clippath">
      <rect class="cls-1" x="16.15" y="9.01" width="189.72" height="106.4"/>
    </clipPath>
    <clipPath id="clippath-1">
      <rect class="cls-1" x="16.15" y="9.01" width="189.72" height="106.4"/>
    </clipPath>
  </defs>
  <polygon class="cls-6" points="48.17 103.14 47.93 105.33 166.96 115.14 172.91 36.49 168.76 36 48.17 103.14"/>
  <g class="cls-10">
    <polyline class="cls-2" points="168.76 36 172.91 36.49 166.96 115.14 47.93 105.34 48.17 103.14"/>
  </g>
  <rect class="cls-3" x="67.44" y="7.3" width="80.15" height="120.73" transform="translate(32.51 170.2) rotate(-86)"/>
  <text class="cls-8" transform="translate(74.25 64.79) rotate(4)"><tspan x="0" y="0">2.2</tspan></text>
  <text class="cls-7" transform="translate(84.49 65.51) rotate(4)"><tspan x="0" y="0" xml:space="preserve"> Seleccionar</tspan></text>
  <text class="cls-7" transform="translate(140.87 69.45) rotate(4)"><tspan x="0" y="0"> </tspan></text>
  <text class="cls-7" transform="translate(79.94 76.22) rotate(4)"><tspan x="0" y="0">el p</tspan><tspan class="cls-9" x="17.19" y="0">r</tspan><tspan x="20.79" y="0">oblema</tspan></text>
  <rect class="cls-2" x="67.44" y="7.3" width="80.15" height="120.73" transform="translate(32.51 170.2) rotate(-86)"/>
  <g class="cls-5">
    <line class="cls-2" x1="47.65" y1="42.04" x2="205.87" y2="42.04"/>
    <path class="cls-6" d="M72.19,33.55s-9.93-17.36-8.55-20.35c0,0-14.56,19.09-19.57,15.41l4.73,21.76s12.03,1.11,23.39-16.81"/>
    <path d="M44.26,28.89l4.65,21.36c1.14.05,12.49.06,23.14-16.7-.73-1.28-8.93-15.78-8.65-19.83-1.01,1.29-4.1,5.14-7.57,8.65-5.49,5.54-9.37,7.73-11.56,6.51M48.8,50.5s-.01,0-.01,0c-.06,0-.1-.04-.11-.1l-4.73-21.76c-.01-.05.01-.1.06-.13.04-.03.1-.03.15,0,4.85,3.56,19.25-15.2,19.39-15.39.04-.05.11-.06.17-.03.06.03.08.1.05.16-1.33,2.9,8.45,20.06,8.55,20.24.02.04.02.09,0,.13-11.1,17.52-23.02,16.91-23.5,16.87"/>
    <path class="cls-6" d="M56.79,60.77l-16.11,6.77s-9.04-20.98,3.01-25.06l14.49-2.67s-11.21,14.81-1.39,20.96"/>
    <path d="M57.89,39.99l-14.17,2.61c-2.37.8-4.09,2.36-5.09,4.61-3.13,7.03,1.59,18.86,2.13,20.16l15.77-6.63c-2.05-1.35-3.31-3.2-3.73-5.49-.65-3.56.82-7.59,2.17-10.34,1.17-2.38,2.45-4.25,2.92-4.91M40.67,67.67s-.09-.03-.11-.08c-.06-.13-5.52-12.97-2.17-20.48,1.03-2.32,2.8-3.92,5.26-4.75l14.51-2.67c.05,0,.1.01.13.06s.02.1,0,.14c-.02.02-1.64,2.18-3.09,5.14-1.33,2.72-2.79,6.7-2.15,10.18.42,2.3,1.71,4.14,3.82,5.46.04.03.06.07.06.12,0,.05-.03.09-.08.11l-16.11,6.77s-.04.01-.06,0"/>
    <path class="cls-4" d="M16.32,19.79c.87-.21,5.51-1.34,10.31-3.06,6.98-2.51,11.02-5.03,12.02-7.51l19.13,14.93c-13.92,15.94-29.06,22.41-30.54,23.02l-10.91-27.37Z"/>
    <path class="cls-4" d="M38.59,9.01c-2.09,6-22.44,10.69-22.44,10.69l11.02,27.63s16-6.21,30.8-23.2l-19.37-15.12ZM38.7,9.42l18.89,14.75c-13.56,15.49-28.26,21.99-30.28,22.83l-10.81-27.12c2.55-.61,19.67-4.88,22.2-10.46"/>
    <path class="cls-6" d="M32.66,31.31l3.41-2.11c.28-.17.63-.15.88.07l3.04,2.58c.32.27.79-.02.69-.43l-.94-3.89c-.08-.31.06-.64.33-.81l3.41-2.12c.35-.22.22-.76-.19-.79l-3.98-.29c-.33-.02-.6-.26-.68-.57l-.94-3.88c-.1-.4-.65-.44-.81-.06l-1.53,3.71c-.12.3-.42.49-.75.46l-4-.29c-.41-.03-.62.49-.31.75l3.05,2.58c.25.21.33.56.21.86l-1.53,3.71c-.16.38.27.74.62.53"/>
  </g>
</svg>