<?xml version="1.0" encoding="UTF-8"?>
<svg id="Capa_1" data-name="Capa 1" xmlns="http://www.w3.org/2000/svg" xmlns:xlink="http://www.w3.org/1999/xlink" viewBox="0 0 464.35 145.23">
  <defs>
    <style>
      .cls-1, .cls-2 {
        fill: none;
      }

      .cls-3, .cls-4 {
        font-size: 15px;
      }

      .cls-3, .cls-5 {
        fill: #1d1d1b;
      }

      .cls-3, .cls-6 {
        font-family: InstrumentSerif-Italic, 'Instrument Serif';
        font-style: italic;
      }

      .cls-7 {
        fill: #f2f8f6;
      }

      .cls-8, .cls-4 {
        font-family: InstrumentSerif-Regular, 'Instrument Serif';
      }

      .cls-8, .cls-9, .cls-6 {
        fill: #fff;
      }

      .cls-8, .cls-6 {
        font-size: 14px;
      }

      .cls-10 {
        fill: #00d6a3;
      }

      .cls-11 {
        letter-spacing: 0em;
      }

      .cls-2 {
        stroke: #1d1d1b;
        stroke-width: .5px;
      }

      .cls-12 {
        letter-spacing: -.02em;
      }

      .cls-13 {
        letter-spacing: -.02em;
      }

      .cls-14 {
        letter-spacing: -.02em;
      }

      .cls-15 {
        letter-spacing: 0em;
      }

      .cls-16 {
        letter-spacing: 0em;
      }

      .cls-17 {
        letter-spacing: -.01em;
      }

      .cls-18 {
        letter-spacing: -.01em;
      }

      .cls-19 {
        letter-spacing: 0em;
      }

      .cls-20 {
        letter-spacing: 0em;
      }

      .cls-21 {
        clip-path: url(#clippath);
      }
    </style>
    <clipPath id="clippath">
      <rect class="cls-1" x="25" y="25.19" width="509.58" height="94.85"/>
    </clipPath>
  </defs>
  <polygon class="cls-5" points="189.41 64.11 189.41 67.23 189.41 109.52 385.2 109.52 385.2 64.11 189.41 64.11"/>
  <polyline class="cls-5" points="191.47 77.52 184.13 82.31 191.07 86.82"/>
  <polygon class="cls-9" points="155.16 36.72 43.29 117.57 43.31 119.78 162.67 115.53 159.33 36.72 155.16 36.72"/>
  <g class="cls-21">
    <polyline class="cls-2" points="155.16 36.72 159.33 36.72 162.67 115.53 43.31 119.78 43.29 117.57"/>
  </g>
  <rect class="cls-7" x="35.62" y="35.53" width="120.73" height="80.15" transform="translate(-2.58 3.4) rotate(-2)"/>
  <rect class="cls-2" x="35.62" y="35.53" width="120.73" height="80.15" transform="translate(-2.58 3.4) rotate(-2)"/>
  <line class="cls-2" x1="34.71" y1="53.13" x2="184.12" y2="46.97"/>
  <text class="cls-8" transform="translate(208.6 83.61)"><tspan x="0" y="0">¿Cómo </tspan></text>
  <text class="cls-6" transform="translate(243.42 83.61)"><tspan x="0" y="0">encont</tspan><tspan class="cls-12" x="33.98" y="0">r</tspan><tspan class="cls-11" x="38.88" y="0">ar</tspan></text>
  <text class="cls-8" transform="translate(294.09 83.61)"><tspan x="0" y="0" xml:space="preserve"> el problema </tspan></text>
  <text class="cls-8" transform="translate(208.6 98.61)"><tspan x="0" y="0">que tiene más </tspan></text>
  <text class="cls-6" transform="translate(276.28 98.61)"><tspan x="0" y="0">po</tspan><tspan class="cls-15" x="12.1" y="0">t</tspan><tspan x="15.83" y="0">encial</tspan></text>
  <text class="cls-8" transform="translate(323.21 98.61)"><tspan x="0" y="0">?</tspan></text>
  <text class="cls-4" transform="translate(210.13 54.15)"><tspan class="cls-16" x="0" y="0">S</tspan><tspan x="6.03" y="0">ELE</tspan><tspan class="cls-17" x="25.81" y="0">C</tspan><tspan x="32.83" y="0">CI</tspan><tspan class="cls-20" x="43.77" y="0">O</tspan><tspan class="cls-13" x="51.76" y="0">N</tspan><tspan class="cls-19" x="59.56" y="0">A</tspan><tspan x="66.27" y="0">R EL P</tspan><tspan class="cls-14" x="99.04" y="0">R</tspan><tspan class="cls-18" x="106.39" y="0">O</tspan><tspan class="cls-20" x="114.34" y="0">B</tspan><tspan x="121.41" y="0">LEMA</tspan></text>
  <text class="cls-3" transform="translate(192.16 54.15)"><tspan x="0" y="0">2.2</tspan></text>
  <g>
    <g>
      <path class="cls-9" d="M119.39,75.5s-9.17-13.71-8.21-16.25c0,0-10.88,16.55-15.22,13.81l5.15,17.63s9.96.22,18.28-15.18Z"/>
      <path d="M101.12,90.78h-.01s-.09-.03-.1-.08l-5.15-17.63s0-.09.04-.11c.03-.03.08-.03.12,0,4.19,2.65,14.96-13.61,15.07-13.78.03-.04.09-.06.14-.04s.07.08.05.13c-.93,2.46,8.11,16.02,8.2,16.16.02.03.02.07,0,.11-8.13,15.05-17.97,15.24-18.36,15.24ZM96.14,73.26l5.05,17.31c.94-.03,10.28-.67,18.08-15.07-.67-1.01-8.26-12.47-8.26-15.82-.76,1.12-3.08,4.47-5.73,7.55-4.19,4.88-7.27,6.9-9.14,6.02Z"/>
    </g>
    <g>
      <path class="cls-9" d="M108.28,98.77l-12.86,6.5s-8.65-16.74,1.03-20.8l11.77-3.03s-8.37,12.83.06,17.33Z"/>
      <path d="M95.42,105.38s-.07-.02-.09-.06c-.05-.1-5.28-10.36-2.97-16.73.72-1.97,2.08-3.39,4.05-4.21l11.78-3.03s.09,0,.11.04.03.08,0,.12c-.01.02-1.22,1.89-2.25,4.4-.94,2.32-1.91,5.67-1.18,8.5.48,1.87,1.64,3.3,3.45,4.27.03.02.06.05.06.09,0,.04-.02.07-.06.09l-12.86,6.5s-.03.01-.05.01ZM107.99,81.62l-11.51,2.96c-1.9.8-3.23,2.17-3.92,4.09-2.17,5.96,2.39,15.43,2.91,16.47l12.59-6.36c-1.77-.99-2.9-2.44-3.38-4.31-.74-2.89.24-6.29,1.19-8.64.82-2.03,1.77-3.64,2.12-4.21Z"/>
    </g>
    <g>
      <path class="cls-10" d="M72.63,67.39c.7-.22,4.46-1.42,8.3-3.11,5.6-2.47,8.78-4.78,9.46-6.87l16.6,11.18c-10.53,13.92-22.62,20.11-23.8,20.69l-10.55-21.89Z"/>
      <path class="cls-10" d="M90.44,57.57l16.39,11.05c-10.27,13.53-21.99,19.72-23.6,20.53l-10.46-21.69c2.06-.65,15.9-5.14,17.67-9.88M90.33,57.24c-1.38,5.06-17.85,10.09-17.85,10.09l10.65,22.1s12.81-6.03,24-20.86l-16.81-11.33h0Z"/>
    </g>
    <path class="cls-9" d="M86.51,76.08l2.74-1.98c.32-.23.74-.23,1.06,0l2.71,1.99c.2.15.48-.05.4-.29l-1.02-3.22c-.12-.37.02-.77.33-1l2.75-1.98c.21-.15.1-.47-.15-.47h-3.37c-.39,0-.74-.26-.85-.63l-1.02-3.21c-.08-.24-.42-.24-.5,0l-1.07,3.22c-.12.37-.47.61-.85.61h-3.38c-.25,0-.36.32-.16.47l2.71,1.99c.31.23.44.64.32,1.01l-1.07,3.21c-.08.24.2.44.4.29Z"/>
  </g>
</svg>