<?xml version="1.0" encoding="UTF-8"?>
<svg id="Capa_1" data-name="Capa 1" xmlns="http://www.w3.org/2000/svg" xmlns:xlink="http://www.w3.org/1999/xlink" viewBox="0 0 566.93 566.93">
  <defs>
    <style>
      .cls-1, .cls-2, .cls-3 {
        fill: none;
      }

      .cls-4 {
        fill: #fff;
      }

      .cls-4, .cls-2, .cls-3, .cls-5 {
        stroke-linecap: round;
      }

      .cls-4, .cls-2, .cls-6 {
        stroke: #000;
      }

      .cls-4, .cls-3, .cls-5 {
        stroke-linejoin: round;
      }

      .cls-2, .cls-6 {
        stroke-miterlimit: 10;
      }

      .cls-3 {
        stroke: #080717;
      }

      .cls-6 {
        fill: url(#Motivo_nuevo_4);
      }

      .cls-5 {
        stroke: #020202;
      }
    </style>
    <pattern id="Motivo_nuevo_4" data-name="Motivo nuevo 4" x="0" y="0" width="17.01" height="17.01" patternTransform="translate(2041.33 2243.86)" patternUnits="userSpaceOnUse" viewBox="0 0 17.01 17.01">
      <g>
        <rect class="cls-1" width="17.01" height="17.01"/>
        <line class="cls-2" x1="17.01" y1="12.39" x2="17.01" y2="81.79"/>
        <line class="cls-2" x1="0" y1="12.39" x2="0" y2="81.79"/>
        <g>
          <line class="cls-2" x1="17.01" y1="-4.61" x2="17.01" y2="64.78"/>
          <line class="cls-2" x1="8.5" y1="7.82" x2="8.5" y2="77.22"/>
        </g>
        <line class="cls-2" x1="0" y1="-4.61" x2="0" y2="64.78"/>
        <g>
          <line class="cls-2" x1="17.01" y1="-21.62" x2="17.01" y2="47.77"/>
          <line class="cls-2" x1="8.5" y1="-9.18" x2="8.5" y2="60.21"/>
        </g>
        <line class="cls-2" x1="0" y1="-21.62" x2="0" y2="47.77"/>
        <g>
          <line class="cls-2" x1="17.01" y1="-38.63" x2="17.01" y2="30.76"/>
          <line class="cls-2" x1="8.5" y1="-26.19" x2="8.5" y2="43.2"/>
        </g>
        <line class="cls-2" x1="0" y1="-38.63" x2="0" y2="30.76"/>
        <g>
          <line class="cls-2" x1="17.01" y1="-55.64" x2="17.01" y2="13.76"/>
          <line class="cls-2" x1="8.5" y1="-43.2" x2="8.5" y2="26.19"/>
        </g>
        <line class="cls-2" x1="0" y1="-55.64" x2="0" y2="13.76"/>
        <line class="cls-2" x1="8.5" y1="-60.21" x2="8.5" y2="9.18"/>
      </g>
    </pattern>
  </defs>
  <polyline class="cls-4" points="117.38 255.05 117.38 378.21 274.33 451.77 416.64 383 413.56 253.68"/>
  <polygon class="cls-5" points="274.33 210.63 117.54 254.91 274.33 312.87 413.56 253.68 274.33 210.63"/>
  <path class="cls-4" d="M153.2,202.44l-59.48-75.68-7.32,8.36c-8.91,10.18-14.89,23.59-16.77,37.59h0c.04.09,74.81,83.01,86.69,85.69,12.1,2.73,50.8,10.36,51.19,10.44.44.09.91-.26,1.1-.81.12-.35,2.87-8.69-1.54-12.43-3.26-2.76-15.57-10.9-20.06-13.85,4.83-2.33,17.94-8.12,28.47-7.61.49.03,2.4,1.09,3.05,3.07,1.39,4.24,3.44,6.79,6.09,7.58,3.5,1.05,6.71-1.41,6.84-1.51.03-.02.04-.05.07-.08.04.17.08.35.12.51,2.28,9.96,14.15,8.04,14.66,7.95.29-.05.57-.27.74-.59.17-.32.22-.7.13-1.02l-3.3-11.89c2.1,1.13,9.78,5.12,13.08,4.7,3.77-.48,9.43-6.37,9.68-6.62.24-.25.38-.61.38-.97,0-.36-.14-.67-.38-.83l-29.1-20.03c-.09-.06-.18-.07-.28-.09l-2.17-7.81c-.07-.26-.23-.46-.43-.55,0,0-35.27-16.74-35.43-16.69l-46.02,13.16Z"/>
  <line class="cls-3" x1="244.46" y1="239.79" x2="237.26" y2="214.33"/>
  <path class="cls-3" d="M177.27,220.35s16.78-.93,18.99-12.36l10.07,2.12s-.14,30.53,11.4,22.84l-4.05-36.02"/>
  <polyline class="cls-4" points="274.11 451.59 274.11 312.69 211.68 368.55 48.77 298.37 117.26 255.03 271.39 311.79"/>
  <polyline class="cls-4" points="274.15 312.95 329.91 367.8 483.66 297.61 410.81 254.84 274.15 312.95"/>
  <line class="cls-3" x1="226.62" y1="202.74" x2="231.65" y2="243.71"/>
  <path class="cls-4" d="M417.97,207.25l54.64-79.24,7.83,7.89c9.53,9.61,16.33,22.61,19.08,36.47h0c-.04.09-69.49,87.52-81.17,90.93-11.91,3.48-50.06,13.51-50.44,13.61-.43.12-.93-.2-1.15-.74-.14-.34-3.41-8.5.76-12.5,3.09-2.96,14.86-11.85,19.16-15.08-4.96-2.03-18.42-6.98-28.89-5.82-.49.06-2.33,1.24-2.85,3.25-1.13,4.31-3.01,6.99-5.6,7.95-3.43,1.27-6.79-.99-6.92-1.08-.03-.02-.05-.05-.07-.07-.03.17-.06.36-.09.52-1.66,10.08-13.62,8.91-14.13,8.85-.29-.03-.58-.23-.77-.54-.19-.31-.27-.68-.2-1.01l2.55-12.08c-2.03,1.26-9.44,5.72-12.76,5.51-3.79-.24-9.81-5.77-10.07-6-.25-.24-.42-.59-.44-.95-.02-.36.1-.68.33-.85l27.79-21.81c.08-.07.18-.08.27-.1l1.68-7.93c.06-.26.2-.47.4-.58,0,0,34.15-18.9,34.32-18.87l46.75,10.26Z"/>
  <line class="cls-3" x1="329.22" y1="250.21" x2="334.82" y2="224.36"/>
  <path class="cls-3" d="M395.07,226.62s-16.8.12-19.73-11.15l-9.92,2.75s2.04,30.46-9.95,23.51l1.8-36.2"/>
  <line class="cls-3" x1="344.71" y1="212.13" x2="342.25" y2="253.33"/>
  <polygon class="cls-6" points="117.62 339.03 274.46 407.65 415.86 343.34 416.4 354.22 274.58 421.19 117.85 349.89 117.62 339.03"/>
</svg>