<?xml version="1.0" encoding="UTF-8"?>
<svg id="Capa_1" data-name="Capa 1" xmlns="http://www.w3.org/2000/svg" viewBox="0 0 566.93 566.93">
  <defs>
    <style>
      .cls-1 {
        stroke: #000;
      }

      .cls-1, .cls-2 {
        fill: none;
        stroke-miterlimit: 10;
      }

      .cls-3 {
        stroke: #020202;
      }

      .cls-3, .cls-4 {
        stroke-linecap: round;
        stroke-linejoin: round;
      }

      .cls-4 {
        fill: #ff4e00;
      }

      .cls-4, .cls-2 {
        stroke: #ff4e00;
      }
    </style>
  </defs>
  <polygon class="cls-1" points="149.65 190.2 172.08 147.76 177.45 183.01 223.41 189.47 192.21 206.86 217.44 252.76 161.05 217.23 124.47 255.91 139.27 209.84 105.67 173.44 149.65 190.2"/>
  <polygon class="cls-4" points="181.43 350.43 191.23 302.4 225.54 350.43 288.27 343.57 256.91 390.62 293.17 435.71 217.7 417.09 168.68 472.56 172.6 396.1 117.71 356.31 181.43 350.43"/>
  <polygon class="cls-2" points="398.79 269.58 431.26 220.24 450.99 291.9 510.01 307.42 461.65 347.02 474.14 435.04 412.32 363.15 340.98 418.05 373.9 332.36 299.32 262.03 398.79 269.58"/>
  <polygon class="cls-3" points="330.39 172.06 359.54 173.19 348.94 201.83 359.18 224.68 324.73 222.65 299.32 239.06 299.32 207.26 273.67 186.47 305.03 174.33 312.22 154.65 330.39 172.06"/>
</svg>