<?xml version="1.0" encoding="UTF-8"?>
<svg id="Capa_1" data-name="Capa 1" xmlns="http://www.w3.org/2000/svg" viewBox="0 0 566.93 566.93">
  <defs>
    <style>
      .cls-1 {
        fill: #fff;
        stroke: #000;
      }

      .cls-1, .cls-2 {
        stroke-linecap: round;
        stroke-linejoin: round;
      }

      .cls-2 {
        fill: #ff4e00;
        stroke: #ff4e00;
      }
    </style>
  </defs>
  <rect class="cls-1" x="233.65" y="135.3" width="198.61" height="226.7"/>
  <line class="cls-1" x1="274.15" y1="178.21" x2="418.92" y2="178.21"/>
  <rect class="cls-1" x="178.19" y="100.17" width="198.61" height="226.7"/>
  <line class="cls-1" x1="205.38" y1="135.3" x2="350.15" y2="135.3"/>
  <line class="cls-1" x1="205.38" y1="170.14" x2="350.15" y2="170.14"/>
  <path class="cls-2" d="M455.73,215.94H199.5v-20.2c0-5.22-4.84-9.45-10.81-9.45h-103.01c-5.97,0-10.81,4.23-10.81,9.45v239.73c0,8.55,7.92,15.47,17.69,15.47h363.16c9.77,0,17.69-6.93,17.69-15.47v-204.05c0-8.55-7.92-15.47-17.69-15.47Z"/>
  <g>
    <path d="M123.64,268.17v-27.65h15.81v1.6h-14.08v11.32h13.16v1.61h-13.16v11.52h14.34v1.6h-16.07Z"/>
    <path d="M152.11,268.54c-2.3,0-4.14-.7-5.52-2.11-1.38-1.4-2.07-3.34-2.07-5.8v-1.34h1.73v1.34c0,1.98.53,3.53,1.58,4.64,1.05,1.11,2.48,1.67,4.29,1.67s3.23-.56,4.29-1.67c1.05-1.11,1.58-2.66,1.58-4.64v-20.11h1.73v20.11c0,2.46-.69,4.39-2.07,5.8-1.38,1.4-3.22,2.11-5.52,2.11Z"/>
    <path d="M166.84,268.17v-27.65h15.81v1.6h-14.08v11.32h13.16v1.61h-13.16v11.52h14.34v1.6h-16.07Z"/>
    <path d="M189.05,268.17v-27.65h2.43l8.65,20.52c.17.41.36.86.55,1.35.19.49.39.99.58,1.51.2.52.39,1.04.58,1.55.19.51.37,1.01.56,1.49h-.56c.17-.47.36-.96.55-1.47.19-.51.39-1.02.58-1.55.2-.53.39-1.04.58-1.53.19-.49.38-.95.55-1.35l8.61-20.52h2.43v27.65h-1.71v-20.98c0-.58,0-1.17.02-1.77.01-.61.02-1.21.03-1.82,0-.61,0-1.2,0-1.78h.3c-.24.63-.47,1.26-.71,1.89s-.47,1.25-.71,1.85c-.24.6-.46,1.18-.69,1.73-.22.55-.43,1.07-.63,1.55l-8.18,19.33h-1.56l-8.2-19.33c-.2-.47-.41-.98-.63-1.53-.22-.55-.45-1.13-.69-1.73-.24-.6-.47-1.22-.71-1.85-.24-.63-.49-1.27-.73-1.91h.32c.01.56.02,1.14.03,1.73,0,.6.01,1.21.02,1.82s.01,1.21.02,1.79c0,.58,0,1.14,0,1.67v19.33h-1.69Z"/>
    <path d="M222.67,268.17v-27.65h8.74c1.73,0,3.23.36,4.48,1.07,1.25.71,2.22,1.69,2.9,2.93s1.02,2.67,1.02,4.28-.34,3.02-1.02,4.26-1.65,2.22-2.91,2.92-2.76,1.06-4.49,1.06h-7.59v-1.58h7.55c1.4,0,2.6-.28,3.6-.85,1-.57,1.78-1.35,2.32-2.36s.82-2.15.82-3.45-.27-2.47-.82-3.47-1.32-1.79-2.33-2.36c-1.01-.57-2.21-.85-3.59-.85h-6.96v26.05h-1.73Z"/>
    <path d="M245.73,268.17v-27.65h1.74v26.05h13.58v1.6h-15.33Z"/>
    <path d="M276.03,268.54c-2.31,0-4.35-.59-6.12-1.77-1.77-1.18-3.15-2.84-4.15-4.97-1-2.13-1.49-4.61-1.49-7.43s.5-5.33,1.5-7.46c1-2.13,2.38-3.79,4.15-4.97,1.76-1.19,3.8-1.78,6.11-1.78s4.34.59,6.1,1.78,3.15,2.85,4.14,4.97c.99,2.13,1.48,4.61,1.48,7.46s-.5,5.31-1.48,7.44c-.99,2.13-2.37,3.78-4.14,4.96-1.77,1.18-3.8,1.77-6.1,1.77ZM276.03,266.89c1.94,0,3.67-.51,5.18-1.54,1.51-1.03,2.69-2.48,3.55-4.35.86-1.87,1.29-4.08,1.29-6.63s-.43-4.78-1.29-6.66c-.86-1.88-2.04-3.33-3.55-4.36-1.51-1.03-3.24-1.54-5.18-1.54s-3.67.51-5.19,1.53c-1.52,1.02-2.71,2.47-3.57,4.35-.87,1.88-1.3,4.11-1.3,6.68s.43,4.74,1.29,6.61,2.05,3.33,3.56,4.36c1.52,1.03,3.25,1.55,5.21,1.55Z"/>
    <path d="M301.69,268.62c-1.79,0-3.36-.31-4.69-.92s-2.38-1.47-3.14-2.57c-.76-1.1-1.19-2.38-1.27-3.82h1.76c.07,1.16.43,2.17,1.07,3.02.64.85,1.49,1.51,2.57,1.97,1.08.46,2.31.69,3.71.69,1.48,0,2.79-.25,3.92-.75,1.12-.5,2-1.2,2.63-2.11.63-.9.95-1.95.95-3.15,0-.94-.22-1.75-.67-2.44s-1.11-1.29-2-1.8c-.88-.51-2.01-.97-3.37-1.38l-3.17-.95c-2.24-.67-3.92-1.57-5.06-2.71-1.13-1.14-1.7-2.54-1.7-4.21,0-1.43.38-2.71,1.13-3.81.75-1.11,1.78-1.98,3.08-2.61s2.78-.95,4.43-.95,3.14.32,4.4.96c1.26.64,2.26,1.52,3.01,2.63s1.15,2.39,1.22,3.82h-1.73c-.14-1.73-.83-3.13-2.08-4.2-1.25-1.07-2.87-1.6-4.86-1.6-1.32,0-2.51.24-3.55.73-1.04.49-1.86,1.16-2.46,2.02-.59.86-.89,1.84-.89,2.94,0,.92.23,1.72.7,2.41.46.69,1.12,1.28,1.98,1.77.85.49,1.85.91,2.99,1.25l3.06.89c1.09.32,2.08.7,2.96,1.13.88.43,1.64.94,2.28,1.51s1.13,1.24,1.48,1.99c.35.75.52,1.61.52,2.58,0,1.47-.38,2.78-1.13,3.93-.75,1.15-1.82,2.06-3.2,2.72s-3,.99-4.87.99Z"/>
    <path d="M329.08,240.53v27.65h-1.73v-27.65h1.73ZM335.04,268.17h-6.74v-1.6h6.66c2.46,0,4.54-.49,6.22-1.48,1.69-.98,2.96-2.39,3.82-4.23s1.29-4.04,1.29-6.6-.42-4.71-1.24-6.52c-.83-1.81-2.04-3.2-3.64-4.17-1.6-.97-3.55-1.46-5.86-1.46h-7.31v-1.6h7.38c2.6,0,4.82.55,6.66,1.64s3.26,2.67,4.24,4.72c.98,2.05,1.48,4.52,1.48,7.38s-.51,5.4-1.52,7.48-2.49,3.67-4.42,4.77c-1.94,1.1-4.28,1.65-7.02,1.65Z"/>
    <path d="M354.13,268.17v-27.65h15.81v1.6h-14.08v11.32h13.16v1.61h-13.16v11.52h14.34v1.6h-16.07Z"/>
    <path d="M386.58,268.17v-27.65h1.74v26.05h13.58v1.6h-15.33Z"/>
    <path d="M404.8,268.17l10.24-27.65h2.13l10.28,27.65h-1.84l-7.29-19.76c-.37-1-.76-2.08-1.16-3.24-.4-1.16-.84-2.46-1.31-3.91h.48c-.47,1.45-.91,2.75-1.32,3.92-.41,1.16-.79,2.24-1.15,3.23l-7.24,19.76h-1.84ZM409.22,259.47v-1.58h13.82v1.58h-13.82Z"/>
    <path d="M153.64,280.53v27.65h-1.72v-27.65h1.72Z"/>
    <path d="M161.17,308.17v-27.65h2.43l8.65,20.52c.17.41.36.86.55,1.35.19.49.39.99.58,1.51.2.52.39,1.04.58,1.55.19.51.37,1.01.56,1.49h-.56c.17-.47.36-.96.55-1.47.19-.51.39-1.02.58-1.55.2-.53.39-1.04.58-1.53.19-.49.37-.95.55-1.35l8.61-20.52h2.43v27.65h-1.71v-20.98c0-.58,0-1.17.02-1.77.01-.61.02-1.21.03-1.82,0-.61,0-1.2,0-1.78h.3c-.24.63-.47,1.26-.71,1.89-.24.63-.47,1.25-.71,1.85-.24.6-.46,1.18-.69,1.73-.22.55-.43,1.07-.63,1.55l-8.18,19.33h-1.56l-8.2-19.33c-.2-.47-.41-.98-.63-1.53-.22-.55-.45-1.13-.69-1.73-.23-.6-.47-1.22-.71-1.85s-.49-1.27-.73-1.91h.32c.01.56.02,1.14.03,1.73,0,.6.01,1.21.02,1.82,0,.61.01,1.21.02,1.79,0,.58,0,1.14,0,1.67v19.33h-1.69Z"/>
    <path d="M194.79,308.17v-27.65h8.74c1.73,0,3.22.36,4.48,1.07,1.26.71,2.22,1.69,2.9,2.93.68,1.24,1.02,2.67,1.02,4.28s-.34,3.02-1.02,4.26c-.68,1.24-1.65,2.22-2.91,2.92s-2.76,1.06-4.49,1.06h-7.59v-1.58h7.55c1.4,0,2.6-.28,3.6-.85,1-.57,1.78-1.35,2.32-2.36.54-1,.82-2.15.82-3.45s-.27-2.47-.82-3.47c-.54-1-1.32-1.79-2.33-2.36-1.01-.57-2.21-.85-3.59-.85h-6.96v26.05h-1.73Z"/>
    <path d="M228.21,308.54c-2.31,0-4.36-.59-6.12-1.77-1.77-1.18-3.15-2.84-4.15-4.97-1-2.13-1.49-4.61-1.49-7.43s.5-5.33,1.5-7.46c1-2.13,2.38-3.79,4.15-4.97s3.8-1.78,6.11-1.78,4.33.59,6.1,1.78c1.77,1.19,3.15,2.85,4.14,4.97.99,2.13,1.48,4.61,1.48,7.46s-.5,5.31-1.48,7.44c-.99,2.13-2.37,3.78-4.14,4.96-1.77,1.18-3.8,1.77-6.1,1.77ZM228.21,306.89c1.94,0,3.67-.51,5.18-1.54,1.51-1.03,2.69-2.48,3.55-4.35.86-1.87,1.29-4.08,1.29-6.63s-.43-4.78-1.29-6.66c-.86-1.88-2.04-3.33-3.55-4.36-1.51-1.03-3.23-1.54-5.18-1.54s-3.67.51-5.19,1.53c-1.52,1.02-2.71,2.47-3.57,4.35-.87,1.88-1.3,4.11-1.3,6.68s.43,4.74,1.29,6.61,2.05,3.33,3.56,4.36c1.52,1.03,3.25,1.55,5.21,1.55Z"/>
    <path d="M246.08,308.17v-27.65h8.76c1.73,0,3.23.34,4.48,1.02,1.25.68,2.22,1.63,2.9,2.85.68,1.22,1.02,2.63,1.02,4.24s-.34,2.99-1.02,4.19c-.68,1.2-1.65,2.14-2.91,2.81-1.26.67-2.76,1.01-4.49,1.01h-7.79v-1.61h7.77c1.39,0,2.58-.26,3.58-.79,1-.53,1.77-1.27,2.32-2.24.54-.96.82-2.09.82-3.38s-.27-2.47-.82-3.44c-.54-.97-1.32-1.73-2.32-2.26s-2.2-.81-3.6-.81h-6.98v26.05h-1.73ZM262.27,308.17l-6.74-12.54h1.95l6.77,12.54h-1.98Z"/>
    <path d="M267.67,282.12v-1.6h19.67v1.6h-8.96v26.05h-1.73v-26.05h-8.98Z"/>
    <path d="M286.9,308.17l10.24-27.65h2.13l10.28,27.65h-1.84l-7.29-19.76c-.37-1-.76-2.08-1.16-3.24-.4-1.16-.84-2.46-1.31-3.91h.48c-.47,1.45-.91,2.75-1.32,3.92-.41,1.16-.79,2.24-1.15,3.23l-7.24,19.76h-1.84ZM291.31,299.47v-1.58h13.82v1.58h-13.82Z"/>
    <path d="M314.28,308.17v-27.65h1.91l13.93,19.91c.41.57.83,1.18,1.27,1.85.44.66.89,1.35,1.35,2.07.46.72.92,1.45,1.38,2.19l-.35.06c-.03-.75-.05-1.5-.07-2.25-.03-.74-.04-1.46-.06-2.16-.01-.7-.02-1.35-.02-1.96v-19.71h1.72v27.65h-1.91l-13.51-19.22c-.45-.66-.9-1.33-1.36-2.01-.46-.69-.94-1.42-1.45-2.2-.51-.78-1.06-1.63-1.65-2.54l.37-.07c.02.89.05,1.74.07,2.56.02.82.04,1.58.05,2.29.01.71.02,1.36.02,1.96v19.24h-1.73Z"/>
    <path d="M353.27,308.54c-2.31,0-4.36-.59-6.12-1.77-1.77-1.18-3.15-2.83-4.16-4.95-1-2.12-1.5-4.6-1.5-7.45s.5-5.35,1.5-7.48c1-2.13,2.39-3.78,4.16-4.96,1.77-1.18,3.81-1.77,6.12-1.77,1.54,0,2.94.25,4.18.76,1.24.51,2.32,1.19,3.24,2.06.91.87,1.65,1.84,2.22,2.91s.94,2.18,1.14,3.32h-1.74c-.2-.95-.54-1.87-1.03-2.76-.49-.88-1.12-1.68-1.88-2.38-.77-.7-1.66-1.25-2.69-1.66-1.03-.41-2.17-.61-3.43-.61-1.83,0-3.51.49-5.04,1.47-1.53.98-2.75,2.4-3.67,4.27-.92,1.87-1.37,4.14-1.37,6.83s.46,4.98,1.38,6.85c.92,1.87,2.14,3.28,3.66,4.24,1.52.96,3.2,1.44,5.03,1.44,1.26,0,2.41-.2,3.43-.61,1.03-.41,1.92-.96,2.69-1.67.77-.71,1.39-1.5,1.88-2.38.49-.88.83-1.79,1.03-2.75h1.74c-.2,1.13-.58,2.22-1.14,3.29-.56,1.07-1.3,2.04-2.21,2.91s-1.99,1.56-3.24,2.08c-1.25.51-2.65.77-4.19.77Z"/>
    <path d="M371.8,280.53v27.65h-1.72v-27.65h1.72Z"/>
    <path d="M376.53,308.17l10.24-27.65h2.13l10.28,27.65h-1.84l-7.29-19.76c-.37-1-.76-2.08-1.16-3.24-.4-1.16-.84-2.46-1.31-3.91h.48c-.47,1.45-.91,2.75-1.32,3.92-.41,1.16-.79,2.24-1.15,3.23l-7.24,19.76h-1.84ZM380.95,299.47v-1.58h13.82v1.58h-13.82Z"/>
    <path d="M152.55,320.53v27.65h-1.73v-27.65h1.73ZM158.51,348.17h-6.74v-1.6h6.66c2.46,0,4.54-.49,6.22-1.48,1.69-.98,2.96-2.39,3.82-4.23s1.29-4.04,1.29-6.6-.42-4.71-1.24-6.52c-.83-1.81-2.04-3.2-3.64-4.17-1.6-.97-3.55-1.46-5.86-1.46h-7.31v-1.6h7.38c2.6,0,4.82.55,6.66,1.64s3.26,2.67,4.24,4.72c.98,2.05,1.48,4.52,1.48,7.38s-.51,5.4-1.52,7.48-2.49,3.67-4.42,4.77c-1.94,1.1-4.28,1.65-7.02,1.65Z"/>
    <path d="M177.6,348.17v-27.65h15.81v1.6h-14.08v11.32h13.16v1.61h-13.16v11.52h14.34v1.6h-16.07Z"/>
    <path d="M211.78,320.53v27.65h-1.73v-27.65h1.73ZM217.73,348.17h-6.74v-1.6h6.66c2.46,0,4.54-.49,6.22-1.48,1.69-.98,2.96-2.39,3.82-4.23s1.29-4.04,1.29-6.6-.42-4.71-1.24-6.52c-.83-1.81-2.04-3.2-3.64-4.17-1.6-.97-3.55-1.46-5.86-1.46h-7.31v-1.6h7.38c2.6,0,4.82.55,6.66,1.64s3.26,2.67,4.24,4.72c.98,2.05,1.48,4.52,1.48,7.38s-.51,5.4-1.52,7.48-2.49,3.67-4.42,4.77c-1.94,1.1-4.28,1.65-7.02,1.65Z"/>
    <path d="M236.83,348.17v-27.65h15.81v1.6h-14.08v11.32h13.16v1.61h-13.16v11.52h14.34v1.6h-16.07Z"/>
    <path d="M259.04,348.17v-27.65h15.66v1.6h-13.93v11.45h12.6v1.6h-12.6v13.01h-1.73Z"/>
    <path d="M282.64,320.53v27.65h-1.73v-27.65h1.73Z"/>
    <path d="M290.17,348.17v-27.65h1.91l13.93,19.91c.41.57.83,1.18,1.27,1.85.44.66.89,1.35,1.35,2.07.46.72.92,1.45,1.38,2.19l-.35.06c-.02-.75-.05-1.5-.07-2.25s-.04-1.46-.06-2.16c-.01-.7-.02-1.35-.02-1.96v-19.71h1.73v27.65h-1.91l-13.51-19.22c-.45-.66-.9-1.33-1.35-2.01-.46-.69-.94-1.42-1.45-2.2-.51-.78-1.06-1.63-1.65-2.54l.37-.07c.02.89.05,1.74.07,2.56s.04,1.58.06,2.29c.01.71.02,1.36.02,1.96v19.24h-1.73Z"/>
    <path d="M320.51,320.53v27.65h-1.73v-27.65h1.73Z"/>
    <path d="M328.04,348.17v-27.65h8.76c1.73,0,3.23.34,4.48,1.02,1.25.68,2.22,1.63,2.9,2.85.68,1.22,1.02,2.63,1.02,4.24s-.34,2.99-1.02,4.19c-.68,1.2-1.65,2.14-2.91,2.81-1.26.67-2.76,1.01-4.49,1.01h-7.79v-1.61h7.77c1.39,0,2.58-.26,3.58-.79,1-.53,1.78-1.27,2.32-2.24s.82-2.09.82-3.38-.27-2.47-.82-3.44c-.54-.97-1.32-1.73-2.32-2.26s-2.2-.81-3.6-.81h-6.98v26.05h-1.73ZM344.24,348.17l-6.74-12.54h1.95l6.77,12.54h-1.99Z"/>
    <path d="M361.77,348.17v-27.65h15.81v1.6h-14.08v11.32h13.16v1.61h-13.16v11.52h14.34v1.6h-16.07Z"/>
    <path d="M383.98,348.17v-27.65h1.74v26.05h13.58v1.6h-15.33Z"/>
    <path d="M169.07,388.54c-2.31,0-4.35-.59-6.12-1.77-1.77-1.18-3.15-2.84-4.15-4.97s-1.49-4.61-1.49-7.43.5-5.33,1.5-7.46c1-2.13,2.38-3.79,4.15-4.97s3.8-1.78,6.11-1.78,4.34.59,6.11,1.78c1.77,1.19,3.15,2.85,4.14,4.97.99,2.13,1.48,4.61,1.48,7.46s-.49,5.31-1.48,7.44c-.99,2.13-2.37,3.78-4.14,4.96-1.77,1.18-3.8,1.77-6.11,1.77ZM169.07,386.89c1.94,0,3.67-.51,5.18-1.54,1.51-1.03,2.69-2.48,3.55-4.35s1.29-4.08,1.29-6.63-.43-4.78-1.29-6.66c-.86-1.88-2.04-3.33-3.55-4.36-1.51-1.03-3.24-1.54-5.18-1.54s-3.67.51-5.19,1.53-2.71,2.47-3.57,4.35c-.87,1.88-1.3,4.11-1.3,6.68s.43,4.74,1.29,6.61c.86,1.87,2.05,3.33,3.56,4.36,1.51,1.03,3.25,1.55,5.2,1.55Z"/>
    <path d="M186.94,388.17v-27.65h9.02c1.68,0,3.11.3,4.29.89s2.08,1.42,2.7,2.49c.62,1.06.93,2.31.93,3.75,0,1.11-.19,2.1-.57,2.96-.38.86-.9,1.57-1.56,2.14-.66.57-1.43.97-2.29,1.21v.13c.93.09,1.81.42,2.64,1,.83.58,1.52,1.37,2.05,2.36.53.99.8,2.15.8,3.47,0,1.44-.31,2.7-.95,3.79-.63,1.09-1.56,1.94-2.79,2.55s-2.75.92-4.55.92h-9.72ZM188.67,373.35h7.87c1.19,0,2.2-.25,3.04-.76.84-.51,1.49-1.19,1.94-2.04s.68-1.81.68-2.86c0-1.72-.55-3.08-1.65-4.07-1.1-1-2.63-1.49-4.6-1.49h-7.27v11.23ZM188.67,386.58h7.98c2.12,0,3.75-.52,4.89-1.57,1.14-1.04,1.72-2.41,1.72-4.09,0-1.16-.28-2.2-.83-3.11s-1.33-1.62-2.32-2.13c-.99-.51-2.12-.77-3.39-.77h-8.04v11.67Z"/>
    <path d="M217.45,388.54c-2.3,0-4.14-.7-5.52-2.11-1.38-1.4-2.07-3.34-2.07-5.8v-1.34h1.73v1.34c0,1.98.53,3.53,1.58,4.64,1.05,1.11,2.48,1.67,4.29,1.67s3.23-.56,4.29-1.67c1.05-1.11,1.58-2.66,1.58-4.64v-20.11h1.72v20.11c0,2.46-.69,4.39-2.07,5.8-1.38,1.4-3.22,2.11-5.52,2.11Z"/>
    <path d="M232.18,388.17v-27.65h15.81v1.6h-14.08v11.32h13.16v1.61h-13.16v11.52h14.34v1.6h-16.07Z"/>
    <path d="M252.55,362.12v-1.6h19.67v1.6h-8.96v26.05h-1.72v-26.05h-8.98Z"/>
    <path d="M279.64,360.53v27.65h-1.73v-27.65h1.73Z"/>
    <path d="M294.67,388.17l-10.3-27.65h1.84l7.29,19.76c.36.96.75,2.04,1.16,3.22.41,1.18.85,2.48,1.31,3.91h-.46c.47-1.43.91-2.74,1.32-3.92.41-1.17.79-2.25,1.15-3.21l7.22-19.76h1.84l-10.24,27.65h-2.12Z"/>
    <path d="M320.83,388.54c-2.31,0-4.36-.59-6.12-1.77-1.77-1.18-3.15-2.84-4.15-4.97-1-2.13-1.49-4.61-1.49-7.43s.5-5.33,1.5-7.46c1-2.13,2.38-3.79,4.15-4.97s3.8-1.78,6.11-1.78,4.33.59,6.1,1.78c1.77,1.19,3.15,2.85,4.14,4.97.99,2.13,1.48,4.61,1.48,7.46s-.5,5.31-1.48,7.44c-.99,2.13-2.37,3.78-4.14,4.96-1.77,1.18-3.8,1.77-6.1,1.77ZM320.83,386.89c1.94,0,3.67-.51,5.18-1.54,1.51-1.03,2.69-2.48,3.55-4.35.86-1.87,1.29-4.08,1.29-6.63s-.43-4.78-1.29-6.66c-.86-1.88-2.04-3.33-3.55-4.36-1.51-1.03-3.23-1.54-5.18-1.54s-3.67.51-5.19,1.53c-1.52,1.02-2.71,2.47-3.57,4.35-.87,1.88-1.3,4.11-1.3,6.68s.43,4.74,1.29,6.61,2.05,3.33,3.56,4.36c1.52,1.03,3.25,1.55,5.21,1.55Z"/>
    <path d="M348.94,388.17v-27.65h1.74v26.05h13.58v1.6h-15.33Z"/>
    <path d="M379.24,388.54c-2.31,0-4.36-.59-6.12-1.77-1.77-1.18-3.15-2.84-4.15-4.97-1-2.13-1.49-4.61-1.49-7.43s.5-5.33,1.5-7.46c1-2.13,2.38-3.79,4.15-4.97s3.8-1.78,6.11-1.78,4.33.59,6.1,1.78c1.77,1.19,3.15,2.85,4.14,4.97.99,2.13,1.48,4.61,1.48,7.46s-.5,5.31-1.48,7.44c-.99,2.13-2.37,3.78-4.14,4.96-1.77,1.18-3.8,1.77-6.1,1.77ZM379.24,386.89c1.94,0,3.67-.51,5.18-1.54,1.51-1.03,2.69-2.48,3.55-4.35.86-1.87,1.29-4.08,1.29-6.63s-.43-4.78-1.29-6.66c-.86-1.88-2.04-3.33-3.55-4.36-1.51-1.03-3.23-1.54-5.18-1.54s-3.67.51-5.19,1.53c-1.52,1.02-2.71,2.47-3.57,4.35-.87,1.88-1.3,4.11-1.3,6.68s.43,4.74,1.29,6.61,2.05,3.33,3.56,4.36c1.52,1.03,3.25,1.55,5.21,1.55Z"/>
    <path d="M132.91,428.17v-27.65h2.43l8.65,20.52c.17.41.36.86.55,1.35.19.49.39.99.58,1.51.2.52.39,1.04.57,1.55.19.51.37,1.01.56,1.49h-.56c.17-.47.36-.96.55-1.47.19-.51.39-1.02.58-1.55.2-.53.39-1.04.58-1.53.19-.49.37-.95.55-1.35l8.61-20.52h2.43v27.65h-1.71v-20.98c0-.58,0-1.17.02-1.77.01-.61.02-1.21.03-1.82,0-.61,0-1.2,0-1.78h.3c-.23.63-.47,1.26-.71,1.89-.23.63-.47,1.25-.71,1.85-.23.6-.46,1.18-.69,1.73-.22.55-.43,1.07-.63,1.55l-8.18,19.33h-1.56l-8.2-19.33c-.2-.47-.41-.98-.63-1.53-.22-.55-.45-1.13-.69-1.73-.24-.6-.47-1.22-.71-1.85s-.49-1.27-.73-1.91h.31c.01.56.02,1.14.03,1.73,0,.6.01,1.21.02,1.82s.01,1.21.02,1.79c0,.58,0,1.14,0,1.67v19.33h-1.69Z"/>
    <path d="M166.53,428.17v-27.65h15.81v1.6h-14.08v11.32h13.16v1.61h-13.16v11.52h14.34v1.6h-16.07Z"/>
    <path d="M194.99,428.54c-2.3,0-4.14-.7-5.52-2.11-1.38-1.4-2.07-3.34-2.07-5.8v-1.34h1.73v1.34c0,1.98.53,3.53,1.58,4.64,1.05,1.11,2.48,1.67,4.29,1.67s3.23-.56,4.29-1.67c1.05-1.11,1.58-2.66,1.58-4.64v-20.11h1.72v20.11c0,2.46-.69,4.39-2.07,5.8-1.38,1.4-3.22,2.11-5.52,2.11Z"/>
    <path d="M220.08,428.54c-2.31,0-4.36-.59-6.12-1.77-1.77-1.18-3.15-2.84-4.15-4.97-1-2.13-1.49-4.61-1.49-7.43s.5-5.33,1.5-7.46c1-2.13,2.38-3.79,4.15-4.97s3.8-1.78,6.11-1.78,4.33.59,6.1,1.78c1.77,1.19,3.15,2.85,4.14,4.97.99,2.13,1.48,4.61,1.48,7.46s-.5,5.31-1.48,7.44c-.99,2.13-2.37,3.78-4.14,4.96-1.77,1.18-3.8,1.77-6.1,1.77ZM220.08,426.89c1.94,0,3.67-.51,5.18-1.54,1.51-1.03,2.69-2.48,3.55-4.35.86-1.87,1.29-4.08,1.29-6.63s-.43-4.78-1.29-6.66c-.86-1.88-2.04-3.33-3.55-4.36-1.51-1.03-3.23-1.54-5.18-1.54s-3.67.51-5.19,1.53c-1.52,1.02-2.71,2.47-3.57,4.35-.87,1.88-1.3,4.11-1.3,6.68s.43,4.74,1.29,6.61,2.05,3.33,3.56,4.36c1.52,1.03,3.25,1.55,5.21,1.55Z"/>
    <path d="M237.95,428.17v-27.65h8.76c1.73,0,3.23.34,4.48,1.02,1.25.68,2.22,1.63,2.9,2.85.68,1.22,1.02,2.63,1.02,4.24s-.34,2.99-1.02,4.19c-.68,1.2-1.65,2.14-2.91,2.81-1.26.67-2.76,1.01-4.49,1.01h-7.79v-1.61h7.77c1.39,0,2.58-.26,3.58-.79,1-.53,1.77-1.27,2.32-2.24.54-.96.82-2.09.82-3.38s-.27-2.47-.82-3.44c-.54-.97-1.32-1.73-2.32-2.26s-2.2-.81-3.6-.81h-6.98v26.05h-1.73ZM254.15,428.17l-6.74-12.54h1.95l6.77,12.54h-1.98Z"/>
    <path d="M271.68,428.17v-27.65h8.74c1.73,0,3.22.36,4.48,1.07,1.26.71,2.22,1.69,2.9,2.93.68,1.24,1.02,2.67,1.02,4.28s-.34,3.02-1.02,4.26c-.68,1.24-1.65,2.22-2.91,2.92s-2.76,1.06-4.49,1.06h-7.59v-1.58h7.55c1.4,0,2.6-.28,3.6-.85,1-.57,1.78-1.35,2.32-2.36.54-1,.82-2.15.82-3.45s-.27-2.47-.82-3.47c-.54-1-1.32-1.79-2.33-2.36-1.01-.57-2.21-.85-3.59-.85h-6.96v26.05h-1.73Z"/>
    <path d="M305.1,428.54c-2.31,0-4.36-.59-6.12-1.77-1.77-1.18-3.15-2.84-4.15-4.97-1-2.13-1.49-4.61-1.49-7.43s.5-5.33,1.5-7.46c1-2.13,2.38-3.79,4.15-4.97s3.8-1.78,6.11-1.78,4.33.59,6.1,1.78c1.77,1.19,3.15,2.85,4.14,4.97.99,2.13,1.48,4.61,1.48,7.46s-.5,5.31-1.48,7.44c-.99,2.13-2.37,3.78-4.14,4.96-1.77,1.18-3.8,1.77-6.1,1.77ZM305.1,426.89c1.94,0,3.67-.51,5.18-1.54,1.51-1.03,2.69-2.48,3.55-4.35.86-1.87,1.29-4.08,1.29-6.63s-.43-4.78-1.29-6.66c-.86-1.88-2.04-3.33-3.55-4.36-1.51-1.03-3.23-1.54-5.18-1.54s-3.67.51-5.19,1.53c-1.52,1.02-2.71,2.47-3.57,4.35-.87,1.88-1.3,4.11-1.3,6.68s.43,4.74,1.29,6.61,2.05,3.33,3.56,4.36c1.52,1.03,3.25,1.55,5.21,1.55Z"/>
    <path d="M330.76,428.62c-1.79,0-3.36-.31-4.69-.92s-2.38-1.47-3.15-2.57c-.76-1.1-1.18-2.38-1.27-3.82h1.76c.07,1.16.43,2.17,1.07,3.02.64.85,1.49,1.51,2.57,1.97,1.08.46,2.31.69,3.71.69,1.48,0,2.79-.25,3.92-.75,1.12-.5,2-1.2,2.63-2.11.63-.9.95-1.95.95-3.15,0-.94-.22-1.75-.67-2.44s-1.11-1.29-1.99-1.8c-.88-.51-2.01-.97-3.37-1.38l-3.17-.95c-2.24-.67-3.92-1.57-5.06-2.71-1.13-1.14-1.7-2.54-1.7-4.21,0-1.43.38-2.71,1.13-3.81.75-1.11,1.78-1.98,3.08-2.61s2.78-.95,4.43-.95,3.14.32,4.4.96c1.26.64,2.26,1.52,3.01,2.63s1.15,2.39,1.22,3.82h-1.73c-.14-1.73-.83-3.13-2.08-4.2-1.25-1.07-2.87-1.6-4.86-1.6-1.32,0-2.51.24-3.55.73-1.04.49-1.87,1.16-2.46,2.02-.59.86-.89,1.84-.89,2.94,0,.92.23,1.72.7,2.41.46.69,1.12,1.28,1.98,1.77.85.49,1.85.91,2.99,1.25l3.06.89c1.09.32,2.08.7,2.96,1.13.88.43,1.65.94,2.28,1.51s1.13,1.24,1.47,1.99c.35.75.52,1.61.52,2.58,0,1.47-.38,2.78-1.13,3.93-.76,1.15-1.82,2.06-3.2,2.72s-3,.99-4.87.99Z"/>
    <path d="M347.9,400.53v27.65h-1.72v-27.65h1.72Z"/>
    <path d="M355.44,428.17v-27.65h9.02c1.68,0,3.11.3,4.3.89,1.18.59,2.08,1.42,2.7,2.49.62,1.06.93,2.31.93,3.75,0,1.11-.19,2.1-.57,2.96-.38.86-.9,1.57-1.56,2.14-.66.57-1.43.97-2.29,1.21v.13c.93.09,1.81.42,2.64,1,.83.58,1.52,1.37,2.05,2.36.53.99.8,2.15.8,3.47,0,1.44-.32,2.7-.95,3.79-.63,1.09-1.56,1.94-2.79,2.55-1.23.61-2.75.92-4.56.92h-9.72ZM357.16,413.35h7.87c1.19,0,2.2-.25,3.04-.76.84-.51,1.49-1.19,1.94-2.04.45-.85.68-1.81.68-2.86,0-1.72-.55-3.08-1.65-4.07-1.1-1-2.63-1.49-4.6-1.49h-7.27v11.23ZM357.16,426.58h7.98c2.12,0,3.74-.52,4.89-1.57,1.14-1.04,1.72-2.41,1.72-4.09,0-1.16-.28-2.2-.84-3.11s-1.33-1.62-2.32-2.13c-.99-.51-2.12-.77-3.4-.77h-8.03v11.67Z"/>
    <path d="M379.69,428.17v-27.65h1.74v26.05h13.58v1.6h-15.33Z"/>
    <path d="M400.71,428.17v-27.65h15.81v1.6h-14.08v11.32h13.15v1.61h-13.15v11.52h14.34v1.6h-16.07Z"/>
  </g>
</svg>