<?xml version="1.0" encoding="UTF-8"?>
<svg id="Capa_1" data-name="Capa 1" xmlns="http://www.w3.org/2000/svg" viewBox="0 0 566.93 566.93">
  <defs>
    <style>
      .cls-1 {
        fill: #fff;
        stroke: #000;
      }

      .cls-1, .cls-2 {
        stroke-linecap: round;
        stroke-linejoin: round;
      }

      .cls-2 {
        fill: #ff4e00;
        stroke: #ff4e00;
      }
    </style>
  </defs>
  <rect class="cls-1" x="233.65" y="135.3" width="198.61" height="226.7"/>
  <line class="cls-1" x1="274.15" y1="178.21" x2="418.92" y2="178.21"/>
  <rect class="cls-1" x="178.19" y="100.17" width="198.61" height="226.7"/>
  <line class="cls-1" x1="205.38" y1="135.3" x2="350.15" y2="135.3"/>
  <line class="cls-1" x1="205.38" y1="170.14" x2="350.15" y2="170.14"/>
  <path class="cls-2" d="M455.73,215.94H199.5v-20.2c0-5.22-4.84-9.45-10.81-9.45h-103.01c-5.97,0-10.81,4.23-10.81,9.45v239.73c0,8.55,7.92,15.47,17.69,15.47h363.16c9.77,0,17.69-6.93,17.69-15.47v-204.05c0-8.55-7.92-15.47-17.69-15.47Z"/>
  <g>
    <path d="M141.91,296.23v-32.95h18.84v1.9h-16.78v13.49h15.68v1.92h-15.68v13.73h17.09v1.9h-19.15Z"/>
    <path d="M175.83,296.67c-2.74,0-4.93-.84-6.58-2.51-1.64-1.67-2.46-3.98-2.46-6.91v-1.59h2.06v1.59c0,2.36.62,4.2,1.88,5.53,1.25,1.33,2.96,1.99,5.11,1.99s3.86-.66,5.11-1.99c1.25-1.33,1.88-3.17,1.88-5.53v-23.97h2.06v23.97c0,2.93-.82,5.24-2.46,6.91-1.64,1.67-3.84,2.51-6.58,2.51Z"/>
    <path d="M193.38,296.23v-32.95h18.84v1.9h-16.78v13.49h15.68v1.92h-15.68v13.73h17.09v1.9h-19.15Z"/>
    <path d="M219.85,296.23v-32.95h2.9l10.3,24.46c.21.49.42,1.02.65,1.6.23.58.46,1.18.7,1.8.24.62.46,1.23.69,1.85.22.61.44,1.21.66,1.78h-.66c.21-.56.42-1.14.65-1.75s.46-1.22.7-1.85c.24-.63.47-1.23.7-1.82.23-.59.45-1.13.65-1.61l10.26-24.46h2.9v32.95h-2.03v-25c0-.69,0-1.39.02-2.11.02-.72.03-1.44.03-2.17,0-.72.01-1.43.01-2.12h.35c-.28.75-.56,1.5-.84,2.26-.28.75-.56,1.49-.84,2.2-.28.71-.55,1.4-.82,2.06-.27.66-.52,1.27-.75,1.85l-9.75,23.04h-1.86l-9.77-23.04c-.24-.56-.49-1.17-.75-1.82-.26-.66-.54-1.34-.82-2.06-.28-.71-.56-1.45-.85-2.2s-.58-1.51-.87-2.28h.38c.01.66.03,1.35.03,2.07,0,.72.01,1.44.02,2.17,0,.73.01,1.44.02,2.13,0,.69,0,1.36,0,1.99v23.04h-2.01Z"/>
    <path d="M259.91,296.23v-32.95h10.41c2.06,0,3.84.42,5.34,1.27s2.65,2.01,3.46,3.49,1.22,3.18,1.22,5.1-.41,3.59-1.22,5.07-1.97,2.64-3.47,3.48c-1.5.84-3.29,1.26-5.35,1.26h-9.04v-1.88h9c1.67,0,3.1-.34,4.29-1.02,1.19-.68,2.12-1.61,2.76-2.81.65-1.19.97-2.56.97-4.11s-.33-2.94-.97-4.13c-.65-1.19-1.57-2.13-2.77-2.81-1.2-.68-2.63-1.02-4.28-1.02h-8.29v31.04h-2.06Z"/>
    <path d="M287.4,296.23v-32.95h2.08v31.04h16.19v1.9h-18.26Z"/>
    <path d="M323.51,296.67c-2.76,0-5.19-.7-7.3-2.11-2.11-1.41-3.76-3.38-4.94-5.93s-1.78-5.49-1.78-8.86.6-6.35,1.79-8.89c1.19-2.54,2.84-4.51,4.94-5.93,2.1-1.42,4.53-2.12,7.29-2.12s5.17.71,7.27,2.12c2.11,1.42,3.75,3.39,4.93,5.93s1.77,5.5,1.77,8.89-.59,6.33-1.77,8.87-2.82,4.51-4.93,5.91c-2.11,1.41-4.53,2.11-7.27,2.11ZM323.51,294.7c2.31,0,4.37-.61,6.17-1.83,1.8-1.22,3.21-2.95,4.23-5.19,1.03-2.23,1.54-4.87,1.54-7.9s-.51-5.7-1.54-7.94c-1.02-2.24-2.44-3.97-4.23-5.2-1.8-1.22-3.85-1.83-6.17-1.83s-4.38.61-6.18,1.82c-1.81,1.22-3.22,2.94-4.26,5.19-1.03,2.24-1.55,4.89-1.55,7.96s.51,5.65,1.54,7.88c1.02,2.23,2.44,3.97,4.25,5.2,1.81,1.23,3.87,1.85,6.2,1.85Z"/>
    <path d="M359.06,263.28v32.95h-2.06v-32.95h2.06ZM366.16,296.23h-8.03v-1.9h7.94c2.93,0,5.41-.59,7.42-1.76,2.01-1.17,3.53-2.85,4.55-5.04s1.54-4.81,1.54-7.86-.49-5.61-1.48-7.77c-.99-2.16-2.43-3.82-4.33-4.98-1.9-1.16-4.23-1.74-6.99-1.74h-8.71v-1.9h8.8c3.1,0,5.74.65,7.94,1.96,2.2,1.3,3.88,3.18,5.05,5.63,1.17,2.45,1.76,5.38,1.76,8.8s-.6,6.43-1.81,8.91-2.97,4.37-5.27,5.68-5.1,1.97-8.37,1.97Z"/>
    <path d="M388.91,296.23v-32.95h18.84v1.9h-16.78v13.49h15.68v1.92h-15.68v13.73h17.09v1.9h-19.15Z"/>
    <path d="M159.21,350.57v-32.95h10.41c2.06,0,3.84.42,5.34,1.27s2.65,2.01,3.46,3.49,1.22,3.18,1.22,5.1-.41,3.59-1.22,5.07-1.97,2.64-3.47,3.48c-1.5.84-3.29,1.26-5.35,1.26h-9.04v-1.88h9c1.67,0,3.09-.34,4.29-1.02,1.19-.68,2.12-1.61,2.76-2.81.65-1.19.97-2.56.97-4.11s-.32-2.94-.97-4.13c-.65-1.19-1.57-2.13-2.78-2.81-1.2-.68-2.63-1.02-4.28-1.02h-8.29v31.04h-2.06Z"/>
    <path d="M186.69,350.57v-32.95h10.44c2.06,0,3.84.41,5.34,1.22s2.65,1.94,3.46,3.39c.81,1.45,1.21,3.14,1.21,5.05s-.4,3.57-1.21,5c-.81,1.43-1.97,2.55-3.47,3.35-1.5.8-3.29,1.21-5.35,1.21h-9.29v-1.92h9.26c1.65,0,3.07-.31,4.27-.94,1.19-.63,2.12-1.51,2.76-2.66.65-1.15.97-2.49.97-4.02s-.33-2.94-.97-4.1-1.57-2.06-2.76-2.7c-1.19-.64-2.62-.96-4.29-.96h-8.31v31.04h-2.06ZM206,350.57l-8.03-14.95h2.32l8.07,14.95h-2.37Z"/>
    <path d="M227,351.01c-2.76,0-5.19-.7-7.3-2.11s-3.75-3.38-4.94-5.93c-1.19-2.54-1.78-5.49-1.78-8.86s.6-6.35,1.79-8.89,2.84-4.51,4.94-5.93c2.1-1.42,4.53-2.12,7.29-2.12s5.17.71,7.27,2.12c2.11,1.42,3.75,3.39,4.93,5.93,1.18,2.54,1.77,5.5,1.77,8.89s-.59,6.33-1.77,8.87c-1.18,2.54-2.82,4.51-4.93,5.91s-4.53,2.11-7.27,2.11ZM227,349.04c2.31,0,4.37-.61,6.17-1.83s3.21-2.95,4.23-5.19c1.02-2.23,1.54-4.87,1.54-7.9s-.51-5.7-1.54-7.94-2.44-3.97-4.23-5.2c-1.8-1.22-3.86-1.83-6.17-1.83s-4.37.61-6.18,1.82c-1.8,1.22-3.22,2.94-4.26,5.19s-1.55,4.89-1.55,7.96.51,5.65,1.54,7.88c1.03,2.23,2.44,3.97,4.25,5.2,1.81,1.23,3.87,1.85,6.2,1.85Z"/>
    <path d="M248.3,350.57v-32.95h10.75c2,0,3.71.35,5.12,1.06s2.48,1.7,3.22,2.96c.74,1.27,1.11,2.76,1.11,4.47,0,1.33-.23,2.5-.67,3.53-.45,1.02-1.07,1.88-1.86,2.55-.79.68-1.7,1.16-2.73,1.44v.15c1.11.1,2.16.5,3.15,1.19s1.81,1.63,2.44,2.81c.63,1.18.95,2.56.95,4.13,0,1.71-.38,3.21-1.13,4.51-.75,1.3-1.86,2.31-3.33,3.04-1.47.73-3.28,1.09-5.43,1.09h-11.59ZM250.35,332.9h9.38c1.42,0,2.62-.3,3.63-.91,1-.6,1.77-1.42,2.31-2.43.54-1.02.81-2.15.81-3.4,0-2.05-.66-3.67-1.97-4.85-1.31-1.19-3.14-1.78-5.48-1.78h-8.67v13.38ZM250.35,348.67h9.51c2.52,0,4.46-.62,5.83-1.87,1.36-1.25,2.05-2.87,2.05-4.88,0-1.39-.33-2.62-1-3.7-.66-1.08-1.58-1.93-2.76-2.54-1.18-.61-2.53-.92-4.05-.92h-9.57v13.91Z"/>
    <path d="M277.19,350.57v-32.95h2.08v31.04h16.19v1.9h-18.26Z"/>
    <path d="M302.25,350.57v-32.95h18.84v1.9h-16.78v13.49h15.68v1.92h-15.68v13.73h17.09v1.9h-19.15Z"/>
    <path d="M328.71,350.57v-32.95h2.9l10.3,24.46c.21.49.42,1.02.65,1.6.23.58.46,1.18.7,1.8s.46,1.23.69,1.85c.22.61.44,1.21.66,1.78h-.66c.21-.56.42-1.14.65-1.75s.46-1.22.7-1.85c.23-.63.47-1.23.7-1.82.23-.59.45-1.13.65-1.61l10.26-24.46h2.9v32.95h-2.03v-25c0-.69,0-1.39.02-2.11s.03-1.44.03-2.17c0-.72.01-1.43.01-2.12h.35c-.28.75-.56,1.5-.84,2.26-.28.75-.56,1.49-.84,2.2s-.55,1.4-.82,2.06c-.26.66-.52,1.27-.75,1.85l-9.75,23.04h-1.86l-9.77-23.04c-.24-.56-.49-1.17-.75-1.82-.26-.66-.54-1.34-.82-2.06s-.56-1.45-.85-2.2c-.29-.75-.58-1.51-.87-2.28h.38c.01.66.03,1.35.03,2.07,0,.72.01,1.44.02,2.17,0,.73.01,1.44.02,2.13,0,.69.01,1.36.01,1.99v23.04h-2.01Z"/>
    <path d="M365.44,350.57l12.21-32.95h2.54l12.25,32.95h-2.19l-8.69-23.55c-.44-1.19-.9-2.48-1.38-3.86s-1-2.93-1.56-4.65h.58c-.56,1.72-1.08,3.28-1.57,4.67-.49,1.39-.94,2.67-1.37,3.85l-8.62,23.55h-2.19ZM370.7,340.2v-1.88h16.47v1.88h-16.47Z"/>
    <path d="M118.78,404.91v-32.95h10.44c2.06,0,3.84.41,5.34,1.22,1.5.81,2.65,1.94,3.46,3.39s1.22,3.14,1.22,5.05-.41,3.57-1.22,5c-.81,1.43-1.97,2.55-3.47,3.35-1.5.8-3.29,1.21-5.35,1.21h-9.29v-1.92h9.27c1.65,0,3.07-.31,4.27-.94,1.19-.63,2.12-1.51,2.76-2.66.65-1.15.97-2.49.97-4.02s-.32-2.94-.97-4.1-1.57-2.06-2.76-2.7c-1.19-.64-2.62-.96-4.29-.96h-8.31v31.04h-2.06ZM138.08,404.91l-8.03-14.95h2.32l8.07,14.95h-2.37Z"/>
    <path d="M146.77,404.91v-32.95h18.84v1.9h-16.78v13.49h15.68v1.92h-15.68v13.73h17.09v1.9h-19.15Z"/>
    <path d="M173.24,404.91v-32.95h10.41c2.06,0,3.84.42,5.34,1.27s2.65,2.01,3.46,3.49,1.22,3.18,1.22,5.1-.41,3.59-1.22,5.07-1.97,2.64-3.47,3.48c-1.5.84-3.29,1.26-5.35,1.26h-9.04v-1.88h9c1.67,0,3.09-.34,4.29-1.02,1.19-.68,2.12-1.61,2.76-2.81.65-1.19.97-2.56.97-4.11s-.32-2.94-.97-4.13c-.65-1.19-1.57-2.13-2.78-2.81-1.2-.68-2.63-1.02-4.28-1.02h-8.29v31.04h-2.06Z"/>
    <path d="M200.72,404.91v-32.95h2.08v31.04h16.19v1.9h-18.26Z"/>
    <path d="M222.44,404.91l12.21-32.95h2.54l12.25,32.95h-2.19l-8.69-23.55c-.44-1.19-.9-2.48-1.38-3.86s-1-2.93-1.56-4.65h.57c-.56,1.72-1.08,3.28-1.57,4.67-.49,1.39-.94,2.67-1.37,3.85l-8.62,23.55h-2.19ZM227.7,394.54v-1.88h16.47v1.88h-16.47Z"/>
    <path d="M255.07,404.91v-32.95h2.28l16.61,23.73c.49.68.99,1.41,1.51,2.2.52.79,1.06,1.61,1.61,2.47s1.1,1.72,1.65,2.61l-.42.07c-.03-.9-.06-1.79-.09-2.68-.03-.88-.05-1.74-.07-2.58-.01-.83-.02-1.61-.02-2.33v-23.48h2.06v32.95h-2.28l-16.1-22.91c-.53-.78-1.07-1.58-1.61-2.4-.55-.82-1.12-1.69-1.72-2.62-.61-.93-1.26-1.94-1.97-3.03l.44-.09c.03,1.06.06,2.08.09,3.05.03.97.05,1.88.07,2.73.01.85.02,1.62.02,2.33v22.93h-2.06Z"/>
    <path d="M286.98,373.86v-1.9h23.44v1.9h-10.68v31.04h-2.06v-31.04h-10.7Z"/>
    <path d="M317.2,404.91v-32.95h18.84v1.9h-16.78v13.49h15.68v1.92h-15.68v13.73h17.09v1.9h-19.15Z"/>
    <path d="M340.33,404.91l12.21-32.95h2.54l12.25,32.95h-2.19l-8.69-23.55c-.44-1.19-.9-2.48-1.38-3.86s-1-2.93-1.56-4.65h.58c-.56,1.72-1.08,3.28-1.57,4.67-.49,1.39-.94,2.67-1.37,3.85l-8.62,23.55h-2.19ZM345.6,394.54v-1.88h16.47v1.88h-16.47Z"/>
    <path d="M375.03,371.96v32.95h-2.06v-32.95h2.06ZM382.12,404.91h-8.03v-1.9h7.94c2.93,0,5.41-.59,7.42-1.76,2.01-1.17,3.53-2.85,4.55-5.04,1.02-2.19,1.54-4.81,1.54-7.86s-.49-5.61-1.48-7.77c-.99-2.16-2.43-3.82-4.33-4.98-1.9-1.16-4.23-1.74-6.99-1.74h-8.71v-1.9h8.8c3.1,0,5.74.65,7.94,1.96,2.2,1.3,3.88,3.18,5.05,5.63,1.17,2.45,1.76,5.38,1.76,8.8s-.6,6.43-1.81,8.91c-1.21,2.48-2.97,4.37-5.27,5.68-2.31,1.31-5.1,1.97-8.37,1.97Z"/>
    <path d="M417.21,405.35c-2.76,0-5.19-.7-7.3-2.11-2.11-1.41-3.75-3.38-4.94-5.93s-1.78-5.49-1.78-8.86.6-6.35,1.79-8.89c1.19-2.54,2.84-4.51,4.94-5.93,2.1-1.42,4.53-2.12,7.29-2.12s5.17.71,7.28,2.12c2.11,1.42,3.75,3.39,4.93,5.93,1.18,2.54,1.77,5.5,1.77,8.89s-.59,6.33-1.77,8.87c-1.18,2.54-2.82,4.51-4.93,5.91-2.11,1.41-4.53,2.11-7.28,2.11ZM417.21,403.38c2.31,0,4.37-.61,6.17-1.83,1.8-1.22,3.21-2.95,4.23-5.19,1.02-2.23,1.54-4.87,1.54-7.9s-.51-5.7-1.54-7.94c-1.03-2.24-2.44-3.97-4.23-5.2-1.8-1.22-3.86-1.83-6.17-1.83s-4.37.61-6.18,1.82c-1.81,1.22-3.22,2.94-4.26,5.19-1.03,2.24-1.55,4.89-1.55,7.96s.51,5.65,1.54,7.88c1.02,2.23,2.44,3.97,4.25,5.2,1.8,1.23,3.87,1.85,6.2,1.85Z"/>
  </g>
</svg>