<?xml version="1.0" encoding="UTF-8"?>
<svg id="Capa_1" data-name="Capa 1" xmlns="http://www.w3.org/2000/svg" viewBox="0 0 566.93 566.93">
  <defs>
    <style>
      .cls-1 {
        fill: #fff;
      }

      .cls-1, .cls-2 {
        stroke: #000;
      }

      .cls-1, .cls-2, .cls-3 {
        stroke-linecap: round;
        stroke-linejoin: round;
      }

      .cls-2 {
        fill: none;
      }

      .cls-4 {
        font-family: Inter-Thin, Inter;
        font-size: 55px;
        font-variation-settings: 'opsz' 14, 'wght' 100;
        font-weight: 200;
      }

      .cls-3 {
        fill: #ff4e00;
        stroke: #ff4e00;
      }
    </style>
  </defs>
  <g>
    <rect class="cls-1" x="127.46" y="148.42" width="250.43" height="310.34" transform="translate(64.36 -43.61) rotate(11.3)"/>
    <rect class="cls-1" x="160.1" y="107.57" width="250.43" height="310.34"/>
  </g>
  <path class="cls-2" d="M236.24,107.1l-4.1-27.64c-2.76-18.34-37.6-16.09-36.21,5.54l7.81,60.37c3.73,18.12,31.79,12.29,29.82-4.56l-6.08-40.95c-2.43-12.12-19.43-10.29-17.79,3.3l5.65,38.36"/>
  <line class="cls-2" x1="243" y1="195.27" x2="355.44" y2="195.27"/>
  <line class="cls-2" x1="243" y1="257.41" x2="355.44" y2="257.41"/>
  <line class="cls-2" x1="243" y1="320.78" x2="355.44" y2="320.78"/>
  <polygon class="cls-3" points="296.66 356.69 333.06 388.85 376.65 283.09 363.07 283.09 328.06 366.7 305.19 345.98 296.66 356.69"/>
  <text class="cls-4" transform="translate(204.6 215.99)"><tspan x="0" y="0">1</tspan></text>
  <text class="cls-4" transform="translate(201.23 272.94)"><tspan x="0" y="0">2</tspan></text>
  <text class="cls-4" transform="translate(201.23 332.7)"><tspan x="0" y="0">3</tspan></text>
</svg>