<?xml version="1.0" encoding="UTF-8"?>
<svg id="Capa_1" data-name="Capa 1" xmlns="http://www.w3.org/2000/svg" viewBox="0 0 566.93 566.93">
  <defs>
    <style>
      .cls-1, .cls-2, .cls-3, .cls-4, .cls-5 {
        stroke-linecap: round;
      }

      .cls-1, .cls-2, .cls-3, .cls-6, .cls-7 {
        fill: #fff;
      }

      .cls-1, .cls-2, .cls-4, .cls-6, .cls-8 {
        stroke: #000;
      }

      .cls-1, .cls-3, .cls-4, .cls-5 {
        stroke-linejoin: round;
      }

      .cls-2, .cls-6, .cls-7, .cls-8 {
        stroke-miterlimit: 10;
      }

      .cls-9 {
        fill: #080717;
      }

      .cls-10, .cls-5 {
        fill: #ff4e00;
      }

      .cls-3, .cls-7 {
        stroke: #020202;
      }

      .cls-8 {
        fill: none;
      }

      .cls-5 {
        stroke: #ff4e00;
      }
    </style>
  </defs>
  <polygon class="cls-6" points="459.5 282.87 402.56 283.23 375.25 235.35 418.16 216.16 459.5 282.87"/>
  <path class="cls-6" d="M405.14,277.21c5.32,1.44,35.76-31.86,47.3-29.23,31.29,7.13,31.29,23.47,45.55,45.2l45.77,81.95c8.67,15.67,6.08,35.86-6.11,47.6h0c-8.87,8.54-21.23,10.97-32.39,6.35l-162.67-67.29,3.29-64.25c1.51-29.45,14.78-47.99,40.49-42.7.23.05-.23-.05,0,0l18.77,22.38Z"/>
  <polygon class="cls-10" points="385.63 349.76 379.47 359.62 336.34 314.58 342.5 304.73 385.63 349.76"/>
  <polygon class="cls-6" points="219.68 362.28 116.58 362.28 36.25 429.3 218.11 429.3 219.68 362.28"/>
  <polygon class="cls-6" points="375.11 361.67 262.82 362.28 205.69 427.4 378.24 428.9 375.11 361.67"/>
  <line class="cls-8" x1="400.31" y1="353.53" x2="406.33" y2="284.79"/>
  <path class="cls-7" d="M453.53,366.36c.07-.3.04-.61-.07-.86-.11-.25-.31-.43-.53-.48l-57-13.16c-1.02-5.41-2.9-14.31-6.29-29.14-.5-2.2-1.75-3.86-3.43-4.56l-.82-.34-.3-1.38c-.63-2.86-2.53-4.8-4.88-4.97l-1.01-2.38c-1.29-3.07-4.19-4.33-6.9-3l-.72.37s-.05-.01-.07-.01l-18.08,1.43c-.19.01-.37.11-.53.27l-18.06,18.53c-.31.32-.45.85-.34,1.3.37,1.51,1.53,3.81,3.68,4.71.95.39,2.09.52,3.44.18,1.4-.35,2.61-.84,3.66-1.36l-6.57,9.6c-.32.47-.33,1.16-.01,1.56.34.43,2.65,3.26,5.11,4.28.9.38,1.82.49,2.68.17.66,1.19,1.66,2.41,2.97,2.96,1.05.44,2.29.43,3.69-.4,1.09-.64,2.16-1.47,3.17-2.35-.08.31-.09.63.03.9.48,1.03,1.27,2.26,2.26,3.07,0,.04,0,.08,0,.12.14.6,3.57,14.73,9.03,18.82,6.1,4.57,15.71,8.58,16.11,8.75l60.22,25.02c.23.09.48.05.71-.11.22-.16.39-.44.46-.75l8.37-36.8Z"/>
  <polygon class="cls-10" points="404.34 368.09 398.18 377.95 355.04 332.91 361.2 323.05 404.34 368.09"/>
  <path class="cls-9" d="M283.93,288.75c32.93,30.89,69.58,2.16,61.02,20.55-8.56,18.39-37.91,13.81-65.55-10.24-27.64-24.05-43.1-58.45-34.54-76.85,8.56-18.39-.53,29.39,39.06,66.53Z"/>
  <path class="cls-10" d="M311.18,230.63c27.59,23.43,43.5,55.82,35.52,72.35-7.97,16.53-36.81,10.93-64.4-12.5-27.59-23.43-43.5-55.82-35.52-72.35,7.97-16.53,36.81-10.93,64.4,12.5ZM254.82,223.21c-6.46,13.38,7.35,40.4,30.83,60.34,23.48,19.94,47.76,25.26,54.21,11.87,6.46-13.38-7.35-40.4-30.83-60.34-23.48-19.94-47.76-25.26-54.21-11.87Z"/>
  <path class="cls-3" d="M379.72,311.01l-18.7,4.87-16.47,15.86-6.67,9.86c-.06,4.29,7.75,6.08,7.75,6.08,2.72,5.5,9.22,1.27,9.22,1.27l7.67-9.16s14.35-5.14,15.72-5.57,3.98,5.73,3.98,5.73"/>
  <polyline class="cls-3" points="452.1 364.84 462.45 367.22 484.42 372.3"/>
  <line class="cls-7" x1="456.39" y1="408.57" x2="464.48" y2="367.44"/>
  <path class="cls-9" d="M366.76,160.24s-11.15,26.52-17.78,26.56c-6.63.04-24.29-2.8-26.4-14.52-2.11-11.72,2.99-9.45,8.05-10.15,5.06-.71.53-12.49,3.61-13.42,3.08-.93,7.05-.06,14.8,2.52,7.74,2.57,17.73,9.01,17.73,9.01Z"/>
  <path class="cls-6" d="M428.24,204.13c-.27-25.69-21.39-48.3-47.18-51.77-42.3-5.69-48.37,30.11-47.03,37.73.31,1.79.61,3.52.89,5.19.13,2.82.5,5.61,1.11,8.33.51,5.94.02,10.55-2.72,13.16-4.19,3.99,21.13,44.27,49.51,28.68"/>
  <path class="cls-9" d="M395.17,137.9c-18.03-2.03-33.84,5.18-43.27,17.84,4.68-.71,9.57-.85,14.61-.28,34.24,3.86,62.3,37.19,62.69,74.46.02,2.07.11,1.07-.04,3.08,12.17-8.31,19.73-19.37,19.55-36.2-.3-29.23-24.27-55.6-53.54-58.89Z"/>
  <path class="cls-9" d="M367.68,178.63c-1.99-6.94,6.34-9.37-.63-10.32-13.19-1.8-23.37-12.63-23.37-12.63,20.8-17.07,66.7,10.12,66.7,10.12l21.1,53.11-2.32,14.09-8.17,3.31c-4.3,1.35-9.38-.31-12.51-4.1l-16.38-19.8c.25.05.51.09.77.12,6.16.69,11.11-3.56,11.04-9.51-.06-5.94-5.11-11.33-11.27-12.02-6.16-.69-11.11,3.56-11.04,9.51,0,.03,0,.06,0,.1-1.59.05-5.41-.13-5.72-3.08-.39-3.74-6.22-11.96-8.21-18.9Z"/>
  <path class="cls-4" d="M382.04,245.83l8.74,15.33c4.8-5.45,7.63-12.67,7.55-20.87-.03-3.28-.54-6.51-1.44-9.62-2.93,6.72-8.18,12.03-14.85,15.17Z"/>
  <polygon class="cls-1" points="451.43 247.38 439.09 248.54 406.33 277.6 386.08 253.47 375.25 254.11 386.22 295.15 406.33 283.47 423.82 296.47 451.43 247.38"/>
  <polygon class="cls-6" points="282.99 371.09 181.44 370.8 89.29 443.11 253.68 445.14 282.99 371.09"/>
  <path class="cls-5" d="M417.9,391.06l-1.91,2.81c-3,4.43-8.69,4.32-12.7-.25l-27.8-31.66c-.49-.56-.54-1.38-.13-2l10.88-16.05c.6-.89,1.88-.97,2.59-.16l27.23,31.02c4.01,4.57,4.83,11.87,1.82,16.3Z"/>
  <polyline class="cls-3" points="385.63 317.16 354.51 331.45 345.64 347.68"/>
  <line class="cls-1" x1="235.79" y1="427.4" x2="138.95" y2="427.4"/>
  <line class="cls-2" x1="249.68" y1="409.62" x2="155.52" y2="409.62"/>
  <line class="cls-2" x1="260.03" y1="393.72" x2="167.65" y2="393.72"/>
</svg>