<?xml version="1.0" encoding="UTF-8"?>
<svg id="Capa_1" data-name="Capa 1" xmlns="http://www.w3.org/2000/svg" viewBox="0 0 566.93 566.93">
  <defs>
    <style>
      .cls-1 {
        stroke: #000;
      }

      .cls-1, .cls-2, .cls-3, .cls-4 {
        stroke-linecap: round;
        stroke-linejoin: round;
      }

      .cls-1, .cls-5 {
        fill: #fff;
      }

      .cls-6, .cls-4 {
        fill: #ff4e00;
      }

      .cls-2 {
        stroke: #020202;
      }

      .cls-3 {
        fill: none;
      }

      .cls-3, .cls-5 {
        stroke: #1d1d1b;
      }

      .cls-5 {
        stroke-miterlimit: 10;
        stroke-width: .5px;
      }

      .cls-4 {
        stroke: #ff4e00;
      }
    </style>
  </defs>
  <path class="cls-4" d="M111.4,326.81l-28.21,10.72c-4.86,15.68,7.65,22.51,7.65,22.51l31.86-9.83-11.3-23.39Z"/>
  <path class="cls-1" d="M106.23,323.58l321.3-143.84,47.16,108.12-357.52,71.51s-30.18-9.24-10.95-35.79Z"/>
  <ellipse cx="451.48" cy="231.51" rx="61.86" ry="61.4"/>
  <path class="cls-6" d="M242.65,263.02l20.18-8.95s-30.15,42.58,22.78,71.08l-26.6,5.44s-40.9-27.84-16.36-67.57Z"/>
  <ellipse class="cls-5" cx="452.84" cy="231.51" rx="48.91" ry="48.54"/>
  <path class="cls-1" d="M117,318.75s-19.58,23.39,12.65,38.12"/>
  <path class="cls-3" d="M381.89,200.18s-48.69,67.19,30.98,100.05"/>
  <path class="cls-1" d="M418.33,243.12s20.92-50.12,71.19-16.52c0,0-23,55.8-71.19,16.52Z"/>
  <path d="M454.39,231.31c-.13.04-.25.1-.38.13-3.02.7-6.03-1.12-6.72-4.07-.1-.43-.13-.85-.13-1.27-1.91-.5-3.96-.55-6.02-.07-6.67,1.55-10.83,8.08-9.31,14.59,1.52,6.51,8.17,10.54,14.83,8.99,6.67-1.55,10.83-8.08,9.31-14.59-.32-1.35-.87-2.59-1.58-3.7Z"/>
  <polygon class="cls-2" points="482.3 209.54 484.74 210.95 479.46 220.47 477.01 219.06 482.3 209.54"/>
  <polygon class="cls-2" points="424.92 231.4 423.03 233.48 415.05 226.01 416.94 223.93 424.92 231.4"/>
  <polygon class="cls-2" points="449.5 215.78 446.78 216.41 444.28 205.73 447 205.1 449.5 215.78"/>
  <line class="cls-1" x1="410.01" y1="139.64" x2="421.18" y2="162.06"/>
  <line class="cls-1" x1="472.58" y1="129.89" x2="468.1" y2="154.51"/>
  <line class="cls-1" x1="522.44" y1="154.4" x2="504.25" y2="171.71"/>
</svg>