<?xml version="1.0" encoding="UTF-8"?>
<svg id="Capa_1" data-name="Capa 1" xmlns="http://www.w3.org/2000/svg" viewBox="0 0 566.93 566.93">
  <defs>
    <style>
      .cls-1 {
        fill: #fff;
      }

      .cls-1, .cls-2 {
        stroke: #000;
      }

      .cls-1, .cls-2, .cls-3 {
        stroke-linecap: round;
        stroke-linejoin: round;
      }

      .cls-2 {
        fill: none;
      }

      .cls-3 {
        fill: #ff4e00;
        stroke: #ff4e00;
      }
    </style>
  </defs>
  <rect class="cls-1" x="102.38" y="151.88" width="344.86" height="284.77" rx="34.91" ry="34.91"/>
  <g>
    <path class="cls-2" d="M182.73,167.56c-30.85-16.49,12.07-44.12,23.76-16"/>
    <path class="cls-2" d="M354.08,167.56c-30.85-16.49,12.07-44.12,23.76-16"/>
    <path class="cls-2" d="M268.41,167.56c-30.85-16.49,12.07-44.12,23.76-16"/>
  </g>
  <line class="cls-1" x1="102.38" y1="196.45" x2="447.24" y2="196.45"/>
  <rect class="cls-1" x="141.75" y="239.11" width="30" height="30"/>
  <rect class="cls-3" x="220.15" y="239.11" width="30" height="30"/>
  <rect class="cls-1" x="299.99" y="239.11" width="30" height="30"/>
  <rect class="cls-1" x="379.83" y="239.11" width="30" height="30"/>
  <rect class="cls-1" x="141.75" y="301.1" width="30" height="30"/>
  <rect class="cls-1" x="220.15" y="301.1" width="30" height="30"/>
  <rect class="cls-1" x="299.99" y="301.1" width="30" height="30"/>
  <rect class="cls-1" x="379.83" y="301.1" width="30" height="30"/>
  <rect class="cls-1" x="142.65" y="363.09" width="30" height="30"/>
  <rect class="cls-1" x="221.05" y="363.09" width="30" height="30"/>
  <rect class="cls-3" x="300.89" y="363.09" width="30" height="30"/>
  <rect class="cls-1" x="380.73" y="363.09" width="30" height="30"/>
</svg>