<?xml version="1.0" encoding="UTF-8"?>
<svg id="Capa_1" data-name="Capa 1" xmlns="http://www.w3.org/2000/svg" viewBox="0 0 566.93 566.93">
  <defs>
    <style>
      .cls-1 {
        fill: #1d1d1b;
      }

      .cls-2 {
        fill: #ff4e00;
      }

      .cls-3 {
        fill: #fff;
      }
    </style>
  </defs>
  <g>
    <path class="cls-3" d="M481.91,293.1c15.69-60.88-20.54-124.71-81.75-139.1-55.84-13.13-111.66,18.22-130.47,70.91-.05.15-.25.11-.23-.05,5.65-50.54-23.91-98.64-71.34-116.52-66.13-24.93-137.72,19.05-149.99,88.65-27.59,156.5,152.7,303.42,156.37,309.3.04.06.11.08.18.04,6.06-3.41,232.97-41.51,277.23-213.23Z"/>
    <path d="M204.61,506.85c-.21,0-.41-.1-.53-.29-.35-.56-2.87-2.9-6.35-6.15-16.39-15.28-59.94-55.87-96.49-110.37-46.05-68.67-64.09-133.65-53.6-193.13,6.07-34.47,26.91-64.12,57.17-81.36,28.81-16.41,62.88-19.21,93.5-7.67,46.96,17.7,76.21,64.33,71.96,114.1,20.08-51.95,75.43-81.3,130.02-68.46,28.87,6.79,53.38,24.78,69.02,50.65,16.06,26.57,20.84,59.03,13.1,89.06l-.48-.12.48.12c-16.91,65.6-62.15,119.47-134.45,160.12-57.27,32.2-113.96,46.11-135.3,51.35-4.17,1.02-7.18,1.76-7.72,2.07-.1.06-.21.08-.31.08ZM159.82,101.86c-18.81,0-37.58,4.9-54.53,14.55-30,17.09-50.65,46.49-56.68,80.67-10.44,59.22,7.54,123.95,53.45,192.4,36.48,54.4,79.97,94.93,96.34,110.19,3.75,3.49,5.66,5.28,6.32,6.09.91-.36,3.21-.93,7.68-2.03,21.3-5.23,77.9-19.12,135.05-51.25,72.06-40.51,117.13-94.18,133.97-159.5h0c7.67-29.77,2.94-61.95-12.98-88.29-15.5-25.64-39.79-43.47-68.39-50.19-55.06-12.95-110.9,17.4-129.88,70.59-.11.31-.41.48-.73.41-.31-.07-.51-.36-.47-.69,5.63-50.41-23.57-98.11-71.02-116-12.33-4.65-25.24-6.95-38.12-6.95Z"/>
  </g>
  <g>
    <path class="cls-2" d="M434.76,278.65c12.21-47.36-15.98-97.02-63.6-108.21-43.44-10.22-86.87,14.17-101.5,55.17-.04.12-.19.08-.18-.04,4.39-39.32-18.6-76.74-55.5-90.65-51.45-19.39-107.14,14.82-116.69,68.96-21.46,121.75,118.79,236.05,121.65,240.62.03.05.09.06.14.03,4.72-2.65,181.24-32.29,215.67-165.88Z"/>
    <path class="cls-1" d="M219.03,445.05c-.2,0-.4-.1-.51-.28-.26-.42-2.22-2.24-4.92-4.77-12.75-11.89-46.64-43.48-75.08-85.88-35.84-53.44-49.88-104.02-41.72-150.32,4.73-26.85,20.96-49.94,44.53-63.37,22.44-12.78,48.98-14.96,72.83-5.97,36.34,13.7,59.07,49.64,56.11,88.13,15.87-40.03,58.73-62.57,101.01-52.63,22.49,5.29,41.58,19.3,53.76,39.45,12.51,20.7,16.23,45.98,10.2,69.37l-.48-.12.48.12c-13.16,51.06-48.37,93-104.65,124.64-44.57,25.06-88.68,35.88-105.28,39.96-3.24.79-5.57,1.37-5.98,1.6-.09.05-.2.08-.3.08ZM218.84,444.1h0s0,0,0,0ZM184.19,129.99c-14.61,0-29.2,3.81-42.36,11.31-23.31,13.28-39.36,36.12-44.04,62.68-8.12,46.04,5.87,96.37,41.56,149.59,28.38,42.31,62.2,73.84,74.93,85.71,2.89,2.69,4.32,4.03,4.88,4.69.76-.28,2.48-.71,5.91-1.55,16.57-4.07,60.58-14.87,105.03-39.86,56.03-31.5,91.08-73.23,104.17-124.02,5.96-23.13,2.29-48.14-10.09-68.6-12.04-19.92-30.92-33.77-53.14-39-42.78-10.06-86.16,13.52-100.91,54.85-.1.29-.4.46-.69.39-.3-.07-.49-.34-.45-.65,4.38-39.17-18.31-76.23-55.18-90.12-9.58-3.61-19.61-5.4-29.62-5.4Z"/>
  </g>
</svg>