<?xml version="1.0" encoding="UTF-8"?>
<svg id="Capa_1" data-name="Capa 1" xmlns="http://www.w3.org/2000/svg" viewBox="0 0 566.93 566.93">
  <defs>
    <style>
      .cls-1 {
        fill: #fff;
        stroke: #000;
      }

      .cls-1, .cls-2 {
        stroke-linecap: round;
        stroke-linejoin: round;
      }

      .cls-2 {
        fill: #ff4e00;
        stroke: #ff4e00;
      }
    </style>
  </defs>
  <path class="cls-1" d="M416.33,251.93h-187.92c-8.06,0-14.59,6.53-14.59,14.59v89.28c0,8.06,6.53,14.59,14.59,14.59h132.09l10.5,33.82,7.56-33.82h37.76c8.06,0,14.59-6.53,14.59-14.59v-89.28c0-8.06-6.53-14.59-14.59-14.59Z"/>
  <line class="cls-1" x1="253.42" y1="298.86" x2="391.31" y2="298.97"/>
  <line class="cls-1" x1="256.76" y1="333.64" x2="394.65" y2="333.75"/>
  <path class="cls-2" d="M318.5,168.06h-186.53c-8.06,0-14.59,6.53-14.59,14.59v89.28c0,8.06,6.53,14.59,14.59,14.59h37.43l7.51,33.82,10.44-33.82h131.15c8.06,0,14.59-6.53,14.59-14.59v-89.28c0-8.06-6.53-14.59-14.59-14.59Z"/>
  <line class="cls-1" x1="156.16" y1="207.91" x2="294.04" y2="208.02"/>
  <line class="cls-1" x1="157.34" y1="242.81" x2="295.22" y2="242.91"/>
</svg>