<?xml version="1.0" encoding="UTF-8"?>
<svg id="Capa_1" data-name="Capa 1" xmlns="http://www.w3.org/2000/svg" viewBox="0 0 566.93 566.93">
  <defs>
    <style>
      .cls-1 {
        fill: #fff;
      }

      .cls-1, .cls-2, .cls-3 {
        stroke: #000;
      }

      .cls-1, .cls-2, .cls-4 {
        stroke-linecap: round;
      }

      .cls-1, .cls-4 {
        stroke-linejoin: round;
      }

      .cls-2, .cls-3 {
        stroke-miterlimit: 10;
      }

      .cls-3 {
        fill: none;
      }

      .cls-5 {
        font-family: Inter-Thin, Inter;
        font-size: 172.54px;
        font-variation-settings: 'opsz' 14, 'wght' 100;
        font-weight: 200;
      }

      .cls-4 {
        fill: #ff4e00;
        stroke: #ff4e00;
      }
    </style>
  </defs>
  <path class="cls-1" d="M370.7,237.46c-71.54,0-129.53,57.99-129.53,129.53,0,36.24,14.89,68.99,38.87,92.5l-24.31,44.74,57.28-21.25c17.37,8.66,36.96,13.54,57.69,13.54,71.54,0,129.53-57.99,129.53-129.53s-57.99-129.53-129.53-129.53Z"/>
  <path class="cls-4" d="M240.14,121.49c71.54-.55,129.97,56.99,130.53,128.53.28,36.24-14.36,69.11-38.16,92.8l24.66,44.55-57.44-20.81c-17.31,8.79-36.86,13.82-57.59,13.98-71.54.55-129.97-56.99-130.53-128.53-.55-71.54,56.99-129.97,128.53-130.53Z"/>
  <circle class="cls-3" cx="240.14" cy="250.59" r="95.2"/>
  <text class="cls-5" transform="translate(202.01 311)"><tspan x="0" y="0">?</tspan></text>
  <line class="cls-2" x1="358.99" y1="153.1" x2="381.99" y2="127.11"/>
  <line class="cls-2" x1="377.8" y1="187.8" x2="412.17" y2="183.01"/>
  <path class="cls-2" d="M329.17,127.56l16.55-30.5-16.55,30.5Z"/>
</svg>