<?xml version="1.0" encoding="UTF-8"?>
<svg id="Capa_1" data-name="Capa 1" xmlns="http://www.w3.org/2000/svg" viewBox="0 0 566.93 566.93">
  <defs>
    <style>
      .cls-1 {
        fill: none;
        stroke: #080717;
      }

      .cls-1, .cls-2 {
        stroke-miterlimit: 10;
      }

      .cls-3 {
        stroke-linecap: round;
        stroke-linejoin: round;
      }

      .cls-3, .cls-2 {
        stroke: #000;
      }

      .cls-3, .cls-2, .cls-4 {
        fill: #fff;
      }

      .cls-5 {
        fill: #080717;
      }

      .cls-6 {
        fill: #ff4e00;
      }

      .cls-7 {
        fill: #1d1d1b;
        font-family: Inter-Regular, Inter;
        font-size: 23.39px;
        font-variation-settings: 'opsz' 14, 'wght' 400;
      }
    </style>
  </defs>
  <path class="cls-1" d="M307.46,364.71c91.99-15.95,1.12-199.86-88.63-47.39-5.87,9.98-28.73,7.39-52.39,30.17-45.75,44.05,128.19,97.35,109.03,14.99,0,0,2.9,7.27,31.99,2.22Z"/>
  <path class="cls-5" d="M311.84,366.54c91.99-15.95,1.12-199.86-88.63-47.39-5.87,9.98-28.73,7.39-52.39,30.17-45.75,44.05,128.19,97.35,109.03,14.99,0,0,2.9,7.27,31.99,2.22Z"/>
  <path class="cls-3" d="M367.24,301.77s-3.43,56.55-21.38,75.76c-16.06,17.18-29.36,23.72-29.36,23.72,0,0-87.94,14.92-108.12-20.55-9.95-17.49,0-101.97,0-101.97l-45.25-10.39s-29.62,102.75-8.89,142.66c18.01,34.66,66.49,51.52,66.49,51.52v58.54s121.07,0,121.07,0v-62.94s32.82-8.76,48.52-32.98c31-47.81,22.13-123.37,22.13-123.37h-45.21Z"/>
  <path class="cls-3" d="M367.24,301.77l2.54-53.76-4.14-73.94,36.47-6.07,4.78,10.73,5.4,14.46c4.31,11.55,3.45,23.95-2.44,35.03l.45,22.62,2.15,50.91h-45.21Z"/>
  <polygon class="cls-2" points="308.26 401.25 307.5 320.97 258.55 320.16 259.3 401.25 283.41 414.79 308.26 401.25"/>
  <path class="cls-4" d="M292.32,357.17c10.95.67,34.52-.5,43.8-12.16,14.43-18.14-11.6-51.77-24.78-60.94-13.17-9.17-27.81-21.48-57.49,4.77-29.67,26.26-.2,25.45-.2,25.45,0,0,7.54,9.51,4.77,15.04-2.77,5.53-24.43,24.27,33.89,27.84Z"/>
  <path class="cls-5" d="M239.82,336.14c.44.62.92,1.22,1.43,1.8,4.82-1.42,9.62-3.39,14.23-6,23.16-13.06,32.9-36.24,21.76-51.77-2.78-3.88-6.61-6.92-11.15-9.09-26.43,22.59-38.01,48.71-26.28,65.06Z"/>
  <path class="cls-4" d="M270.29,331.82c3.81,5.31,2.04,12.35-3.95,15.72-5.99,3.38-13.93,1.81-17.73-3.5-3.81-5.31-2.04-12.35,3.95-15.72,5.99-3.38,13.93-1.81,17.73,3.5Z"/>
  <path class="cls-3" d="M252.77,333.07s-5.96,6.91,2.18,9.72"/>
  <path class="cls-1" d="M341.79,274.19s-17.02-15.05-37.95-12.84"/>
  <circle class="cls-2" cx="252.21" cy="349.96" r="4.46"/>
  <rect class="cls-6" x="203.32" y="80.73" width="190.26" height="122.89" rx="8.98" ry="8.98" transform="translate(553.46 352.53) rotate(-165.95)"/>
  <path class="cls-3" d="M394.48,169.3l-32.74,5.73c-.61.11-1.09.52-1.22,1.04-.57,2.28-.55,6.53,2.5,9.08l-7.61,1.26c-.69.11-1.21.6-1.27,1.2-.04.34-.8,8.44,6.16,10.78-.06,1.64.16,4.7,2.24,6.95,1.22,1.32,2.9,2.14,4.95,2.47-.35,1.97,0,4.58,2.7,6.43,2.63,1.8,12.93,1.51,17.56,1.18-1.27,1.4-6.47,5.6-3.94,7.89"/>
  <line class="cls-3" x1="390.53" y1="180.74" x2="363.01" y2="185.15"/>
  <line class="cls-3" x1="360.29" y1="198.38" x2="391.84" y2="192.71"/>
  <line class="cls-3" x1="367.24" y1="207.91" x2="398.78" y2="202.24"/>
  <g>
    <path class="cls-3" d="M211.74,184.57l6.14,23.34-9.52,70.82-45.25-10.39,14.7-51.28-9.03-23.72c-4.13-11.85-3.1-24.24,2.92-35l7.54-13.47,6.36-9.88,7.35,2.41,31.49,10.65c.59.2,1,.68,1.05,1.21.21,2.34-.45,6.54-3.86,8.59l7.33,2.4c.66.22,1.1.78,1.07,1.38-.02.35-.5,8.46-7.73,9.72-.19,1.63-.87,4.62-3.27,6.52-1.41,1.12-3.19,1.67-5.27,1.69.05,2-.7,4.53-3.65,5.94-2.88,1.38-13.01-.47-17.53-1.51,1.04,1.58,5.54,6.52,2.69,8.4"/>
    <line class="cls-3" x1="195.11" y1="149.33" x2="221.63" y2="157.88"/>
    <line class="cls-3" x1="222.31" y1="171.37" x2="192" y2="160.96"/>
    <line class="cls-3" x1="214" y1="179.74" x2="183.68" y2="169.33"/>
  </g>
  <path class="cls-4" d="M304.59,187.68l-15.42-12.88-21.76,8.87c-.56.23-1.24.14-1.68-.21-.45-.35-.57-.89-.3-1.35l11.2-18.89-20.14-18.9c-.44-.42-.47-1.02-.07-1.46s1.13-.6,1.76-.38l24.64,8.6,14.98-16.72c.36-.4.98-.58,1.57-.45.59.13,1.02.53,1.08,1.02l2.44,19.54,23.08,3.38c.59.09,1.06.46,1.17.93s-.14.96-.65,1.22l-20.53,10.48,1.14,16.3c.03.49-.31.95-.88,1.14-.19.07-.39.1-.58.1-.39,0-.77-.13-1.05-.36ZM301.29,156.64c-.64-.09-1.13-.52-1.19-1.04l-2.17-17.33-13.41,14.97c-.4.45-1.14.61-1.77.39l-19.89-6.94,16.62,15.6c.38.35.46.85.21,1.27l-9.76,16.46,18.89-7.7c.58-.24,1.27-.14,1.71.23l13.44,11.22-.96-13.83c-.03-.43.23-.83.68-1.06l18.1-9.24-20.49-3Z"/>
  <polygon class="cls-3" points="308.44 393.68 285.61 410.11 259.14 393.62 250.67 400.71 272.29 441.18 284.9 425.16 300.42 441.18 316.49 401.25 308.44 393.68"/>
  <line class="cls-3" x1="284.9" y1="425.16" x2="283.41" y2="521.07"/>
  <line class="cls-3" x1="412.63" y1="311.96" x2="366.31" y2="311.96"/>
  <circle class="cls-3" cx="408.17" cy="306.54" r="2.04"/>
  <circle class="cls-3" cx="167.34" cy="274.19" r="2.04"/>
  <line class="cls-3" x1="206.35" y1="287.87" x2="161.1" y2="277.48"/>
  <text class="cls-7" transform="translate(240.44 99.69) rotate(15.47)"><tspan x="0" y="0">PROBLEMAS</tspan></text>
</svg>