<?xml version="1.0" encoding="UTF-8"?>
<svg id="Capa_1" data-name="Capa 1" xmlns="http://www.w3.org/2000/svg" xmlns:xlink="http://www.w3.org/1999/xlink" viewBox="0 0 1481.21 566.93">
  <defs>
    <style>
      .cls-1, .cls-2, .cls-3, .cls-4, .cls-5, .cls-6 {
        fill: none;
      }

      .cls-2 {
        stroke: #080717;
      }

      .cls-2, .cls-7, .cls-8, .cls-9, .cls-5, .cls-10, .cls-11 {
        stroke-miterlimit: 10;
      }

      .cls-12, .cls-13, .cls-7, .cls-14, .cls-8, .cls-9, .cls-15, .cls-16 {
        fill: #fff;
      }

      .cls-12, .cls-13, .cls-3, .cls-14, .cls-4, .cls-6, .cls-17, .cls-16, .cls-18 {
        stroke-linejoin: round;
      }

      .cls-12, .cls-13, .cls-3, .cls-6, .cls-17, .cls-16, .cls-18 {
        stroke-linecap: round;
      }

      .cls-12, .cls-3, .cls-9, .cls-5, .cls-10, .cls-11, .cls-18 {
        stroke: #000;
      }

      .cls-13, .cls-14, .cls-4 {
        stroke: #0a0a0a;
      }

      .cls-19 {
        fill: #080717;
      }

      .cls-7, .cls-16 {
        stroke: #1d1d1b;
      }

      .cls-8 {
        stroke: #ffd008;
      }

      .cls-10 {
        fill: url(#Motivo_nuevo_2);
      }

      .cls-11 {
        fill: url(#Motivo_nuevo_5);
      }

      .cls-6, .cls-17 {
        stroke: #fff;
      }

      .cls-17, .cls-20 {
        fill: #ffd008;
      }

      .cls-18 {
        fill: #0c0c0c;
      }
    </style>
    <pattern id="Motivo_nuevo_5" data-name="Motivo nuevo 5" x="0" y="0" width="42.82" height="28.54" patternTransform="translate(2974.03 2243.76)" patternUnits="userSpaceOnUse" viewBox="0 0 42.82 28.54">
      <g>
        <rect class="cls-1" width="42.82" height="28.54"/>
        <circle class="cls-7" cx="42.82" cy="28.54" r=".79"/>
        <circle class="cls-7" cx="0" cy="28.54" r=".79"/>
        <circle class="cls-7" cx="42.82" cy="0" r=".79"/>
        <circle class="cls-7" cx="21.41" cy="14.27" r=".79"/>
        <circle class="cls-7" cx="0" cy="0" r=".79"/>
      </g>
    </pattern>
    <pattern id="Motivo_nuevo_2" data-name="Motivo nuevo 2" x="0" y="0" width="22.68" height="25.51" patternTransform="translate(2999.68 2243.86)" patternUnits="userSpaceOnUse" viewBox="0 0 22.68 25.51">
      <g>
        <rect class="cls-1" width="22.68" height="25.51"/>
        <rect x="-103.61" y="8.37" width="105.17" height="8.76"/>
        <rect x="-97.94" y="8.37" width="105.17" height="8.76"/>
        <rect x="-92.27" y="8.37" width="105.17" height="8.76"/>
        <rect x="-86.6" y="8.37" width="105.17" height="8.76"/>
        <rect x="-80.93" y="8.37" width="105.17" height="8.76"/>
        <rect x="-75.26" y="8.37" width="105.17" height="8.76"/>
        <rect x="-69.6" y="8.37" width="105.17" height="8.76"/>
        <rect x="-63.93" y="8.37" width="105.17" height="8.76"/>
        <rect x="-58.26" y="8.37" width="105.17" height="8.76"/>
        <rect x="-52.59" y="8.37" width="105.17" height="8.76"/>
        <rect x="-46.92" y="8.37" width="105.17" height="8.76"/>
        <rect x="-41.25" y="8.37" width="105.17" height="8.76"/>
        <rect x="-35.58" y="8.37" width="105.17" height="8.76"/>
        <rect x="-29.91" y="8.37" width="105.17" height="8.76"/>
        <rect x="-24.24" y="8.37" width="105.17" height="8.76"/>
        <rect x="-18.57" y="8.37" width="105.17" height="8.76"/>
        <rect x="-12.9" y="8.37" width="105.17" height="8.76"/>
        <rect x="-7.23" y="8.37" width="105.17" height="8.76"/>
        <rect x="-1.56" y="8.37" width="105.17" height="8.76"/>
        <rect x="4.11" y="8.37" width="105.17" height="8.76"/>
        <rect x="9.77" y="8.37" width="105.17" height="8.76"/>
        <rect x="15.44" y="8.37" width="105.17" height="8.76"/>
        <rect x="21.11" y="8.37" width="105.17" height="8.76"/>
      </g>
    </pattern>
  </defs>
  <rect class="cls-12" x="1197.11" y="243.5" width="46.95" height="66.83" rx="11.51" ry="11.51"/>
  <rect class="cls-12" x="1105.3" y="383.47" width="134.53" height="13.25" rx="6.62" ry="6.62"/>
  <path class="cls-12" d="M974.87,291.3l-528.75,59.35c-12.51,1.4-23.39-7.74-23.39-19.67V76.55c0-10.8,8.93-19.7,20.28-20.22l532.87-24.48c11.63-.53,21.26,8.57,21.06,19.91l-3.86,220.04c-.17,9.96-8,18.35-18.2,19.49Z"/>
  <polygon class="cls-12" points="595.87 228.22 525.77 236.58 525.77 142.94 596.84 138.05 595.87 228.22"/>
  <g>
    <path class="cls-20" d="M560.11,151.44c-1.68,0-3.05-1.37-3.05-3.05s1.37-3.05,3.05-3.05,3.05,1.37,3.05,3.05-1.37,3.05-3.05,3.05Z"/>
    <path class="cls-20" d="M560.11,145.83c1.41,0,2.55,1.14,2.55,2.55s-1.14,2.55-2.55,2.55-2.55-1.14-2.55-2.55,1.14-2.55,2.55-2.55M560.11,144.83c-1.96,0-3.55,1.59-3.55,3.55s1.59,3.55,3.55,3.55,3.55-1.59,3.55-3.55-1.59-3.55-3.55-3.55h0Z"/>
  </g>
  <polygon class="cls-12" points="665.8 170.6 665.8 282.29 755.03 270.64 755.03 163.8 665.8 170.6"/>
  <path class="cls-14" d="M1075.15,241.98s-22.83-14.46-22.36-19.35c.32-3.3,9.78,2.68,9.78,2.68,0,0-15.3-14.35-13.25-17.67,1.25-2.02,12.79,8.83,12.79,8.83,0,0-13.9-15.93-9.64-15.93s14.04,12.3,14.04,12.3c0,0-12.3-14.2-8.2-15.14s9.08,9.29,12.46,11.99c1.18.94,6.47,2.37,5.68-2.05-.79-4.42-4.42-11.34.07-9.99s25.98,68.8,26.88,79.26l-24.51-1.41-3.74-33.52Z"/>
  <polygon class="cls-18" points="849.99 473.37 897.09 473.37 900.33 326.6 908.34 473.37 962.92 473.37 940.41 252.78 866.38 252.78 849.99 473.37"/>
  <path class="cls-14" d="M863.75,266.22l80.78-.66,1.16,15.83h26.36s5.08-141.71-60.31-141.66c-63.7.05-44.21,57.04-70.64,65.1-18.19,5.55-36.99-10.73-38.47-18.86l-19.92,14.86s34.37,73.81,81.32,28.41l-.27,36.98Z"/>
  <path class="cls-4" d="M944.53,265.56s-8.32-72.53-16.49-85.03"/>
  <path class="cls-14" d="M864.02,229.24s1.2-52.52,4.73-62.58"/>
  <path class="cls-14" d="M920.96,140.75l-3.23-30.62s12.18,5.24,13.14-3.15-29.94-75.62-53.59-15.27c0,0-5.31,15.34-2.85,25.12,3.58,14.21,16.06,14.23,21.28,8.41l-2.08,21.84s6.35,16.52,27.33-6.33Z"/>
  <path class="cls-18" d="M876.06,95.35c5.2-18.44,22.54-29.63,25.74-27.33,1.16.83.29,3.32,2.46,5.62,2,2.12,4.09,1.45,5.94,2.5,5.61,3.2,3.73,19.38.52,30.23-1.82,6.16,5.79-9.29,7.89-8.76,2.49-.02,11.84,10.87-.88,12.51.98,18.55,26.91,13.63,28.23,3.31,2.24-17.5,9.02-15.07,1.28-24.16s4.63-19.54-15.81-22.94c0,0-4.51.08-6.18-4.19-1.66-4.27-6.59-5.93-9.94-5.52s-6.6.67-8.44-.86-4.47-6.66-13.06-2.26c-8.59,4.39-7.78,9.16-7.78,9.16,0,0-.09,4.8-2.86,1.83s-8.95.4-8.61,4.73c.21,2.72,4,6.86-1.21,9.21-3.1,1.4-4.19-.26-6.53-.06-4.97.43-10.21,5.13-5.2,11.4,4.15,5.19,12.26,4.38,14.45,5.56"/>
  <path class="cls-3" d="M884.7,66.81c2.52-2.17-3.33-19.69-13.21.14"/>
  <path class="cls-18" d="M849.99,473.37l33.55-4.88,6.29,26.74h-79.95s-15.46-7.55,40.1-21.86Z"/>
  <path class="cls-18" d="M925.55,473.37l33.55-4.88,6.29,26.74h-79.95s-15.46-7.55,40.1-21.86Z"/>
  <path class="cls-14" d="M949.59,281.39s-9.49,14.76-6.06,18.14c1.4,1.38,6.57-8.42,8.15-6.74,1.72,1.83-4.41,16.96-1.76,18.26,3.26,1.6,6.2-12.28,6.52-13.53.11-.44-1.31,11.38-2.17,13.2-1.12,2.36,1.32,4.79,3.12,3.3,2.82-2.33,3.81-12.78,3.92-13.64s-.43,11.31-.54,12.79c-.23,3.16,2.88,3.46,3.7,1.45.82-2.01,2.43-13.94,1.75-16.24,0,0,.58,6.96.34,10.43-.25,3.44,2.39,2.7,3,.09.62-2.69-1.15-27.51-1.15-27.51h-18.81Z"/>
  <path class="cls-9" d="M1161.86,210.2h23.78s-2.16,17.78,0,18.24c2.16.46,5.71,0,5.71,0l-11.42,25.59h-21.69l-3.69-21.92s10.56-9.35,7.31-21.92Z"/>
  <path class="cls-9" d="M1205.88,473.68l1.52,43.11h-7.12l-1.5-10.03-2.59,10.03h-49.43c-1.65-5.1,13.66-8.55,21.62-17.18,7.96-8.63,8.58-22.44,8.58-22.44l28.92-3.49Z"/>
  <path class="cls-9" d="M1148.72,473.68l1.52,43.11h-7.12l-1.5-10.03-2.59,10.03h-49.43c-1.65-5.1,13.66-8.55,21.62-17.18,7.96-8.63,8.58-22.44,8.58-22.44l28.92-3.49Z"/>
  <path class="cls-7" d="M1157.26,228.44c-38.95-.06-37.39,56.27-37.39,56.27l25.58,1.65-3.91,48.72c9.33,12.56,16.81-1.31,16.81-1.31,11.97,15.48,22.38.26,22.38.26,11.03,16.41,24.66-1.3,24.66-1.3,10.7,11.83,20.54-.59,20.54-.59l-8.94-48.52,17.2-1.18c-.9-51.97-42.83-54.01-42.83-54.01l-17.49,22.38-16.6-22.38Z"/>
  <path class="cls-19" d="M1141.34,156.31c.67-1.88,2.04-3.42,3.86-4.32,1.43-.72,3.01-.96,4.55-.75-.09-.35-.18-.69-.22-1.05-.2-1.95.39-3.89,1.67-5.45,2.33-2.85,6.34-3.71,9.55-2.05.01,0,.03.02.04.03.24-2.24,1.5-4.39,3.63-5.68,2.32-1.41,5.22-1.53,7.57-.32.78.4,1.47.95,2.05,1.6.16-.33.32-.65.53-.96,1.14-1.66,2.86-2.81,4.84-3.24,1.74-.37,3.56-.14,5.1.66,1.59.82,2.75,2.17,3.37,3.79,1.66-1.62,4.02-2.53,6.48-2.21.88.11,1.71.37,2.48.77,2.39,1.23,3.83,3.66,3.85,6.27,2.11-.98,4.61-1.04,6.77.08,3.26,1.68,4.62,5.44,3.41,8.8,1.45-.15,2.92.1,4.24.78.77.4,1.45.92,2.03,1.56,1.32,1.45,1.96,3.34,1.81,5.31-.12,1.54-.73,2.99-1.72,4.18.56.14,1.11.33,1.63.6,1.55.8,2.74,2.12,3.37,3.72.72,1.82.65,3.83-.18,5.65-.65,1.43-1.72,2.59-3.06,3.4,1.91,1.3,3.09,3.44,3.12,5.78.02,1.97-.74,3.85-2.15,5.31-1.11,1.14-2.52,1.89-4.05,2.21,1.3,1.84,1.71,4.24.89,6.53-.67,1.88-2.04,3.42-3.86,4.33-1.43.72-3.01.96-4.55.75.56,2.17.12,4.59-1.45,6.51-2.33,2.85-6.34,3.71-9.55,2.05-.02,0-.03-.02-.04-.03-.24,2.24-1.5,4.39-3.63,5.68-2.32,1.41-5.22,1.53-7.57.32-.78-.4-1.47-.95-2.05-1.6-.16.33-.32.65-.53.96-1.14,1.66-2.86,2.81-4.84,3.24-1.74.37-3.56.14-5.1-.66-1.58-.82-2.75-2.17-3.37-3.79-1.66,1.62-4.02,2.53-6.48,2.21-.88-.11-1.71-.37-2.48-.77-2.39-1.24-3.84-3.66-3.86-6.27-2.11.98-4.61,1.04-6.77-.08-3.26-1.68-4.62-5.44-3.41-8.8-1.45.15-2.92-.1-4.24-.78-.77-.4-1.45-.92-2.03-1.56-1.32-1.45-1.96-3.34-1.81-5.31.12-1.54.73-2.99,1.72-4.18-.56-.14-1.11-.33-1.63-.6-1.55-.8-2.74-2.12-3.37-3.72-1.32-3.36.13-7.16,3.25-9.05-1.92-1.3-3.1-3.44-3.13-5.78-.03-1.97.74-3.85,2.15-5.31,1.11-1.14,2.52-1.89,4.05-2.21-1.3-1.84-1.71-4.24-.89-6.53Z"/>
  <path class="cls-19" d="M1143.85,146.72c-4.21,5.73-2.84,13.69,3.07,17.78,5.91,4.09,14.11,2.75,18.32-2.98,4.21-5.73,2.84-13.69-3.07-17.78-5.91-4.09-14.11-2.75-18.32,2.98Z"/>
  <path class="cls-9" d="M1169.73,221.29h0c-9.72-.41-17.64-7.38-17.7-15.57l-.22-30.31c-.06-8.19,7.77-14.49,17.49-14.08h0c9.72.41,17.64,7.38,17.7,15.57l.22,30.31c.06,8.19-7.77,14.49-17.49,14.08Z"/>
  <path class="cls-19" d="M1196.29,166.41c1.49,1.95,2.69,4.01,3.63,6.1-1.21,2.97-3.15,5.58-5.83,7.51-9.26,6.67-23.68,3.02-32.22-8.14-1.49-1.95-2.69-4.01-3.63-6.1,1.22-2.97,3.15-5.58,5.83-7.51,9.26-6.67,23.68-3.02,32.22,8.14Z"/>
  <ellipse class="cls-15" cx="1097.43" cy="188.73" rx="5.97" ry="6.3"/>
  <path class="cls-2" d="M1160.75,142.68s-11.73-6.89-17.38-4.2c-7.93,3.77-6.4,14.14-6.4,14.14"/>
  <path class="cls-11" d="M1157.26,228.44c-38.95-.06-37.39,56.27-37.39,56.27l25.58,1.65-3.91,48.72c9.33,12.56,16.81-1.31,16.81-1.31,11.97,15.48,22.38.26,22.38.26,11.03,16.41,24.66-1.3,24.66-1.3,10.7,11.83,20.54-.59,20.54-.59l-8.94-48.52,17.2-1.18c-.9-51.97-42.83-54.01-42.83-54.01l-17.49,22.38-16.6-22.38Z"/>
  <path d="M1218.09,484.84l-72.78-96.18s68.62,6.37,81.65-7.75c7.87-8.53-4.42-44-4.42-44-7.93,14.45-20.48,2.11-20.48,2.11-12.2,13.22-24.15.18-24.15.18-9.92,14.01-20.53-.63-20.53-.63-7.24,10.82-17.51-.69-17.51-.69,0,0-59.4,11.31-67.09,26.09-16.82,32.38,36.29,123.91,36.29,123.91,0,0,3.13,14.38,21.52,3.31,0,0,13.8,14.41,26.83-2.33,0,0,12.81,16.37,25.66,1.54,0,0,12.12,12.79,21.61-.8,0,0,10.98,7.36,13.38-4.77Z"/>
  <g>
    <rect class="cls-14" x="392.99" y="269.34" width="29.88" height="7.06" rx="3.53" ry="3.53"/>
    <path class="cls-18" d="M497.76,358.58l4.55,41.25s59.42-9.06,74.48,1.89c22.17,16.12,38.38,92.11,38.38,92.11l40.37-.86s-23.03-114.73-54.64-130.61c-19.65-9.87-103.15-3.77-103.15-3.77Z"/>
    <g>
      <path class="cls-20" d="M423.29,395.58c-.38-7.33-4.93-96.45-3.66-126.76.15-3.64,8.44-9.68,17-9.68,5.46,0,12.51,2.5,15.13,14.39.78,3.53,1.56,7.82,2.38,12.37,5.73,31.53,15.31,84.3,59.33,84.3.64,0,1.3-.01,1.96-.03,2.63-.09,5.17-.14,7.54-.14,17.16,0,27.7,2.39,32.24,7.31,3.55,3.85,3.15,8.87,2.76,13.73-.12,1.5-.24,3.04-.25,4.52h-134.43Z"/>
      <path class="cls-20" d="M436.63,259.64c5.27,0,12.09,2.43,14.64,14,.78,3.52,1.55,7.81,2.38,12.35,5.75,31.68,15.38,84.71,59.82,84.71.65,0,1.31-.01,1.97-.03,2.63-.09,5.16-.14,7.53-.14,17.01,0,27.44,2.34,31.87,7.15,3.41,3.69,3.03,8.38,2.63,13.35-.11,1.34-.22,2.72-.24,4.06h-133.46c-.52-10.04-4.88-96.5-3.64-126.24.13-3.03,7.85-9.2,16.5-9.2M436.63,258.64c-8.59,0-17.34,6.15-17.5,10.16-1.33,31.85,3.69,127.28,3.69,127.28h135.41c-.22-11.49,8.03-26.55-35.26-26.55-2.37,0-4.88.04-7.56.14-.65.02-1.3.03-1.94.03-49.98,0-55.11-68.52-61.22-96.27-2.45-11.12-8.99-14.78-15.62-14.78h0Z"/>
    </g>
    <path class="cls-14" d="M514.97,366.81l7.4-2.47s6.86,9.57,10.3,11.83,3.92-2.14,3.92-2.14l-3.91-12.78s3.27,10.72,7.03,13.82c4.4,3.63,4.63-2.47,4.63-2.47l-3.07-13.26s2.14,11.63,4.85,14.38c3.04,3.1,4.85-1.12,4.85-1.12,0,0,.78-17.64-6.25-24.08s-29.31-1.7-29.31-1.7l-.44,19.99"/>
    <circle class="cls-14" cx="582.23" cy="501.85" r="29.87"/>
    <path class="cls-14" d="M578.74,276.27s-8.83-12.55-7.18-16.46c1.65-3.91,9.57,4.2,9.57,4.2,0,0-4.43-24.38-1.13-25.2,3.29-.82,7.02,17.48,7.02,17.48,0,0-1.25-20.16,1.84-19.75s4.68,20.45,4.68,20.45c0,0,1.66-20.22,3.14-20.46,4.61-.75,3.94,15.68,3.94,18.98s2.83-13.98,6.26-10.68c1.36,1.3-.49,15.65-2.08,32.64l-26.06-1.2Z"/>
    <path class="cls-13" d="M581.13,264.01s4.15-2.25,7.4,1.89"/>
    <path class="cls-18" d="M615.18,493.83v18.26h65.37s-5.09-17.62-25-19.13c-19.92-1.51-40.37.86-40.37.86Z"/>
    <g>
      <path class="cls-20" d="M617.63,522.66c-2.78,0-5.03-2.26-5.03-5.03s2.26-5.03,5.03-5.03h60.47c2.78,0,5.03,2.26,5.03,5.03s-2.26,5.03-5.03,5.03h-60.47Z"/>
      <path class="cls-20" d="M678.1,513.09c2.5,0,4.53,2.03,4.53,4.53s-2.03,4.53-4.53,4.53h-60.47c-2.5,0-4.53-2.03-4.53-4.53s2.03-4.53,4.53-4.53h60.47M678.1,512.09h-60.47c-3.04,0-5.53,2.49-5.53,5.53s2.49,5.53,5.53,5.53h60.47c3.04,0,5.53-2.49,5.53-5.53s-2.49-5.53-5.53-5.53h0Z"/>
    </g>
    <line class="cls-14" x1="582.23" y1="471.98" x2="582.23" y2="531.72"/>
    <line class="cls-14" x1="552.36" y1="501.85" x2="612.09" y2="501.85"/>
    <line class="cls-14" x1="562.85" y1="479.13" x2="602.74" y2="523.55"/>
    <line class="cls-14" x1="559.92" y1="521.7" x2="603.82" y2="481.22"/>
    <g>
      <path class="cls-20" d="M582.23,510.93c-5.29,0-9.59-4.3-9.59-9.59s4.3-9.59,9.59-9.59,9.59,4.3,9.59,9.59-4.3,9.59-9.59,9.59Z"/>
      <path class="cls-20" d="M582.23,492.25c5.01,0,9.09,4.08,9.09,9.09s-4.08,9.09-9.09,9.09-9.09-4.08-9.09-9.09,4.08-9.09,9.09-9.09M582.23,491.25c-5.57,0-10.09,4.52-10.09,10.09s4.52,10.09,10.09,10.09,10.09-4.52,10.09-10.09-4.52-10.09-10.09-10.09h0Z"/>
    </g>
    <path class="cls-14" d="M563.8,451.94c0,46.42-37.63,84.05-84.05,84.05s-84.05-37.63-84.05-84.05c0-15.61,4.25-30.23,11.67-42.75,14.63-24.72,41.57-41.3,72.39-41.3,46.42,0,84.05,37.63,84.05,84.05Z"/>
    <line class="cls-14" x1="542.39" y1="507.96" x2="417.1" y2="395.91"/>
    <line class="cls-14" x1="541.54" y1="395.66" x2="411.25" y2="501.85"/>
    <line class="cls-14" x1="477.64" y1="367.9" x2="475.16" y2="535.97"/>
    <line class="cls-14" x1="563.79" y1="448.8" x2="395.7" y2="448.71"/>
    <g>
      <path class="cls-20" d="M476.4,458.39c-5.29,0-9.59-4.3-9.59-9.59s4.3-9.59,9.59-9.59,9.59,4.3,9.59,9.59-4.3,9.59-9.59,9.59Z"/>
      <path class="cls-20" d="M476.4,439.71c5.01,0,9.09,4.08,9.09,9.09s-4.08,9.09-9.09,9.09-9.09-4.08-9.09-9.09,4.08-9.09,9.09-9.09M476.4,438.71c-5.57,0-10.09,4.52-10.09,10.09s4.52,10.09,10.09,10.09,10.09-4.52,10.09-10.09-4.52-10.09-10.09-10.09h0Z"/>
    </g>
    <path class="cls-18" d="M453.08,188.56s16.99,8.53,6.63,20.33c-10.37,11.79-11.22,2.64-23.39,7.18-4.9,1.83-12.16,24.6-30.58,16.18-6.35-2.9-11.42-5.4-14.38-11.07-3.1-5.93,9.69,5.94,15.19.73,5.5-5.21,28.81-41.75,46.53-33.34Z"/>
    <path class="cls-15" d="M515.3,347.2v22.85s-54.92,9.62-75.76-6.01c-16.67-12.5,3.86-103.18,31.37-107.44,56.81-8.81,71.85,69.19,100.91,39.3,4.5-4.63,6.81-10.02,6.81-19.24l26.06,1.2s-15.23,98.61-91.8,38.48l2.41,30.87Z"/>
    <path class="cls-5" d="M515.3,347.2v22.85s-54.92,9.62-75.76-6.01c-16.67-12.5,3.86-103.18,31.37-107.44,56.81-8.81,71.85,69.19,100.91,39.3,4.5-4.63,6.81-10.02,6.81-19.24l26.06,1.2s-15.23,98.61-91.8,38.48l2.41,30.87Z"/>
    <path class="cls-10" d="M515.3,347.51v22.85s-54.92,9.62-75.76-6.01c-16.67-12.5,3.86-103.18,31.37-107.44,56.81-8.81,71.85,69.19,100.91,39.3,4.5-4.63,6.81-10.02,6.81-19.24l26.06,1.2s-15.23,98.61-91.8,38.48l2.41,30.87Z"/>
    <path class="cls-14" d="M467.12,257.53l6.06-26.92s-10.12,3.06-10.12-3.68,30.51-57.2,43.82-7.28c0,0,2.83,12.63,0,20.15-4.11,10.93-15.81,11.39-19.43,6.32l3.33,13.26s-5.64,11.01-23.66-1.85Z"/>
    <path class="cls-18" d="M473.18,230.61s-11.02,3.52-8.63-6.32c0,0,2.22-5.2,6.28-2.08,0,0,7.3-23.8,14.76-22.62,4.59.72,5.42,2.98,5.42,2.98,0,0,3.74-3.93,5.18-2.76,1.44,1.17,5.83,6.71,6.82,8.94.99,2.24.86-6.98-1.98-10.91s-8.26-6.03-21.94-6.38c-10.48-.27-33.05,9.07-26.41,32.51,6.28,22.16,19.25,15.87,19.25,15.87"/>
    <path class="cls-4" d="M515.04,347.07s-67.29,5.27-49.46-39.6"/>
  </g>
  <g>
    <path class="cls-20" d="M836.59,367.23c-2.87,0-4.38-2.08-4.6-4.13s.82-4.4,3.62-5.01l142.37-30.61c.32-.07.65-.1.97-.1h267.16c2.69,0,4.23,1.93,4.56,3.84.33,1.91-.47,4.24-3.01,5.14l-86.3,30.61c-.5.18-1.02.27-1.55.27h-323.24Z"/>
    <path class="cls-20" d="M1246.13,327.87c2.56,0,3.79,1.84,4.06,3.42.27,1.58-.27,3.73-2.68,4.58l-86.3,30.61c-.44.16-.91.24-1.38.24h-323.24c-2.56,0-3.9-1.85-4.1-3.69-.19-1.84.73-3.93,3.23-4.47l142.37-30.61c.28-.06.58-.09.87-.09h267.16M1246.13,326.87h-267.16c-.36,0-.72.04-1.08.11l-142.37,30.61c-6.01,1.29-5.07,10.13,1.08,10.13h323.24c.58,0,1.16-.1,1.71-.29l86.3-30.61c5.42-1.92,4.04-9.95-1.71-9.95h0Z"/>
  </g>
  <g>
    <rect class="cls-20" x="1236.93" y="332.45" width="7.02" height="160.02"/>
    <path class="cls-20" d="M1243.45,332.95v159.02h-6.02v-159.02h6.02M1244.45,331.95h-8.02v161.02h8.02v-161.02h0Z"/>
  </g>
  <g>
    <rect class="cls-20" x="1153.93" y="368.23" width="7.02" height="160.02"/>
    <path class="cls-20" d="M1160.45,368.73v159.02h-6.02v-159.02h6.02M1161.45,367.73h-8.02v161.02h8.02v-161.02h0Z"/>
  </g>
  <g>
    <rect class="cls-20" x="839.83" y="368.23" width="7.02" height="160.02"/>
    <path class="cls-20" d="M846.35,368.73v159.02h-6.02v-159.02h6.02M847.35,367.73h-8.02v161.02h8.02v-161.02h0Z"/>
  </g>
  <g>
    <rect class="cls-20" x="978.6" y="327.37" width="7.02" height="160.02"/>
    <path class="cls-20" d="M985.12,327.87v159.02h-6.02v-159.02h6.02M986.12,326.87h-8.02v161.02h8.02v-161.02h0Z"/>
  </g>
  <polygon class="cls-13" points="991.33 249.8 939.89 262.48 942.44 350.66 999.2 353.85 1035.76 338.19 1033.63 252.94 991.33 249.8"/>
  <polyline class="cls-13" points="945.19 264.2 990.27 267.33 1029.21 254.8"/>
  <polyline class="cls-13" points="950.44 341.42 998.99 343.62 1030.11 331.2"/>
  <polygon class="cls-13" points="933 326.04 940.93 322.58 978.1 324.31 970.59 329.23 933 326.04"/>
  <polygon class="cls-13" points="1035.01 279.6 1046.04 279.94 990.27 301.82 951.94 298.52 967.37 293.1 990.27 294.31 1035.01 279.6"/>
  <polyline class="cls-13" points="972.85 335.71 998.99 336.81 1013.37 331.2"/>
  <line class="cls-13" x1="945.06" y1="345.64" x2="989.31" y2="348.07"/>
  <line class="cls-13" x1="999.81" y1="273.5" x2="1030.11" y2="263.25"/>
  <line class="cls-13" x1="1016.95" y1="273.87" x2="1033.38" y2="268.75"/>
  <line class="cls-13" x1="941.55" y1="279.6" x2="978.1" y2="282.13"/>
  <line class="cls-13" x1="1001.42" y1="304.6" x2="1034.56" y2="291.48"/>
  <line class="cls-13" x1="964.44" y1="317.49" x2="996.34" y2="319.53"/>
  <path class="cls-19" d="M1145.42,344.03h-84.03c-3.91,0-6.77-3.22-6.38-7.18l5.69-57.58c.38-3.87,3.82-7,7.68-7h82.87c3.86,0,6.74,3.13,6.43,7l-4.59,57.58c-.32,3.96-3.75,7.18-7.66,7.18Z"/>
  <path class="cls-19" d="M1144.4,344.01l-82.4-.66c-2.01-.02-1.3-1.7,1.69-3.83l13.07-9.32c3.62-2.58,8.55-4.73,10.85-4.7l92.22,1.29c2.16.03,1.31,2.08-.7,3.11l-27.73,12.53c-4.54,2.05-5.1,1.6-7,1.58Z"/>
  <line class="cls-6" x1="1152.12" y1="339.61" x2="1177.02" y2="328.74"/>
  <circle class="cls-6" cx="1100.77" cy="308.16" r="6.77"/>
  <path class="cls-9" d="M1193.73,318.97c-7.38,2.4-17.33,8.73-17.33,8.73-10.82,5.71-16.13,15.25-16.35,15.65-.79,1.45-.25,3.23,1.22,3.97,1.46.75,3.3.18,4.1-1.27.02-.03.64-1.13,1.85-2.75-1.38,3.81-1.46,6.63-1.47,6.83-.03,1.63,1.28,2.94,2.94,2.95,1.18,0,2.21-.65,2.74-1.61.22-.4.35-.85.36-1.32,0-.02.04-.79.29-2.01.02,1.18.12,1.93.13,2.03.24,1.6,1.77,2.68,3.42,2.41.99-.16,1.79-.76,2.23-1.57.3-.54.43-1.17.34-1.82,0-.06-.67-5.22,2.29-11.1-1.92,4.77-1.39,8.53-1.36,8.74.24,1.6,1.76,2.66,3.4,2.41.99-.15,1.8-.76,2.24-1.57.29-.54.42-1.16.34-1.8-.02-.14-.33-2.75,1.16-6.13l9.11-2.03s21.62-4.33,36.71-10.93c5.68-2.48,2.08-44.32,2.08-44.32l-17.2,1.18-1.12,27.7s-14.74,5.24-22.12,7.64Z"/>
  <path class="cls-16" d="M795.13,160.22l-.51-22.44s-2.52-1.37-3.2.06c-.68,1.43-3.47,9.76-3.47,9.76,0,0,6.5,14.04,7.18,12.62Z"/>
  <path class="cls-16" d="M776.33,146.12s-8.41-5.4-6.67-8.38c.95-1.63,17.49,5.1,17.49,5.1,0,0,4.72,4.82,5.92,7.47,1.2,2.65,2.28,5.16,2.32,8.18.04,3.02.6,10.37.6,10.37"/>
  <g>
    <polygon class="cls-20" points="736.86 158.07 740.23 152.01 766.25 149.18 769.7 180.88 739.7 184.15 736.86 158.07"/>
    <path class="cls-15" d="M765.8,149.73l3.35,30.71-29.01,3.16-2.77-25.43,3.17-5.69,25.26-2.75M766.69,148.62l-26.77,2.92-3.58,6.42,2.92,26.74,31-3.38-3.57-32.7h0Z"/>
  </g>
  <polygon class="cls-17" points="740.32 152.04 741 157.7 736.88 158.15 740.32 152.04"/>
  <path class="cls-16" d="M763.75,154.19c1.42.23,2.81,1.16,3.71,1.87,1.82,1.42,9.03,9.52,10.08,10.89.98.62,2.07.53,3.13-1.79,1.91-4.16-2.51-10.55-2.51-10.55,0,0-10.63-2.61-12.14-3.18-3.48-1.32-1.16-5.24-1.16-5.24l15.78-.08c2.35-.01,4.54,1.16,5.86,3.14,1.55,2.33,3.77,5.89,6.2,10.53,1.15,2.19,1.94,4.32,2.47,6.29l.75,2.3c.28.56,3.95,12.25,6.69,17.6l-19.92,14.86-6.42-14.14c-5.52-6.88-10.13-17.62-11.27-21.56-1.15-3.94-5.22-7.59-4.76-10.03.21-1.11,1.86-1.18,3.5-.91Z"/>
  <g>
    <g>
      <polygon class="cls-20" points="657.59 219.59 661.36 213.77 687.5 212.68 688.84 244.54 658.69 245.8 657.59 219.59"/>
      <path class="cls-15" d="M687.03,213.2l1.29,30.87-29.15,1.22-1.07-25.56,3.54-5.46,25.39-1.06M687.98,212.16l-26.91,1.13-4,6.17,1.13,26.88,31.15-1.3-1.38-32.86h0Z"/>
    </g>
    <polygon class="cls-17" points="661.44 213.8 661.74 219.49 657.61 219.67 661.44 213.8"/>
  </g>
  <g>
    <g>
      <polygon class="cls-20" points="559.22 107.3 563.17 101.6 589.34 101.31 589.69 133.2 559.51 133.54 559.22 107.3"/>
      <path class="cls-15" d="M588.84,101.82l.34,30.89-29.18.32-.28-25.58,3.71-5.35,25.41-.28M589.83,100.81l-26.93.3-4.18,6.04.3,26.9,31.18-.35-.37-32.89h0Z"/>
    </g>
    <polygon class="cls-17" points="563.25 101.64 563.38 107.34 559.24 107.38 563.25 101.64"/>
  </g>
  <g>
    <g>
      <polygon class="cls-20" points="577.18 158.7 579.13 126.87 609.25 128.71 607.65 154.9 603.31 160.3 577.18 158.7"/>
      <path class="cls-15" d="M579.59,127.4l29.13,1.78-1.56,25.53-4.08,5.07-25.36-1.55,1.88-30.83M578.66,126.34l-2,32.83,26.88,1.64,4.61-5.72,1.64-26.85-31.12-1.9h0Z"/>
    </g>
    <polygon class="cls-17" points="603.23 160.26 603.51 154.56 607.64 154.82 603.23 160.26"/>
  </g>
  <polygon class="cls-12" points="725.2 191.17 643.66 200.89 643.66 91.95 726.34 86.26 725.2 191.17"/>
  <g>
    <path class="cls-20" d="M683.61,100.82c-2,0-3.63-1.63-3.63-3.63s1.63-3.63,3.63-3.63,3.63,1.63,3.63,3.63-1.63,3.63-3.63,3.63Z"/>
    <path class="cls-20" d="M683.61,94.06c1.73,0,3.13,1.41,3.13,3.13s-1.41,3.13-3.13,3.13-3.13-1.41-3.13-3.13,1.41-3.13,3.13-3.13M683.61,93.06c-2.28,0-4.13,1.85-4.13,4.13s1.85,4.13,4.13,4.13,4.13-1.85,4.13-4.13-1.85-4.13-4.13-4.13h0Z"/>
  </g>
  <line class="cls-12" x1="656.89" y1="122.61" x2="715.34" y2="117.43"/>
  <line class="cls-12" x1="656.89" y1="145.67" x2="715.34" y2="140.45"/>
  <line class="cls-12" x1="656.89" y1="168.12" x2="715.34" y2="162.43"/>
  <circle class="cls-8" cx="723.27" cy="240.73" r="22.67"/>
  <polyline class="cls-3" points="749.52 228.56 739.92 238.52 749.52 247.11"/>
  <path class="cls-3" d="M739.92,238.52s47.52-5.74,67.28,16.97"/>
  <polyline class="cls-3" points="697.48 247.11 713.88 247.51 713.88 261.95"/>
  <path class="cls-3" d="M713.88,247.51s-29.22,12.37-35.11,57.15"/>
  <line class="cls-12" x1="538.84" y1="175.64" x2="587.91" y2="171.29"/>
  <line class="cls-12" x1="538.84" y1="184.7" x2="587.91" y2="180.35"/>
  <line class="cls-12" x1="539.13" y1="193.64" x2="571.36" y2="190.86"/>
  <g>
    <g>
      <polygon class="cls-20" points="745.12 100.11 745.12 68.22 775.31 68.22 775.31 94.46 771.3 100.11 745.12 100.11"/>
      <path class="cls-15" d="M774.81,68.72v25.58s-3.77,5.31-3.77,5.31h-25.41v-30.89h29.18M775.81,67.72h-31.18v32.89h26.93l4.25-5.99v-26.9h0Z"/>
    </g>
    <polygon class="cls-17" points="771.21 100.08 771.15 94.38 775.29 94.38 771.21 100.08"/>
  </g>
  <g>
    <g>
      <polygon class="cls-20" points="749.1 296.87 743.65 292.59 744.91 266.45 776.77 267.98 775.31 298.13 749.1 296.87"/>
      <path class="cls-15" d="M745.39,266.97l30.86,1.49-1.41,29.15-25.55-1.23-5.12-4.02,1.22-25.38M744.44,265.92l-1.3,26.9,5.78,4.54,26.87,1.3,1.5-31.14-32.85-1.58h0Z"/>
    </g>
    <polygon class="cls-17" points="743.69 292.51 749.39 292.72 749.19 296.85 743.69 292.51"/>
  </g>
  <rect x="1222.21" y="396.11" width="6.65" height="96.86"/>
</svg>