<?xml version="1.0" encoding="UTF-8"?>
<svg id="Capa_1" data-name="Capa 1" xmlns="http://www.w3.org/2000/svg" viewBox="0 0 566.93 566.93">
  <defs>
    <style>
      .cls-1 {
        fill: #fff;
        stroke: #000;
        stroke-miterlimit: 10;
      }

      .cls-2 {
        fill: #ffd008;
      }
    </style>
  </defs>
  <path class="cls-1" d="M505.36,234.24h0c5.74-13.32,8.93-27.93,8.93-43.26,0-62.18-52.17-112.58-116.53-112.58-38.74,0-73.04,18.28-94.23,46.38-21.19-28.1-55.49-46.38-94.23-46.38-64.36,0-116.53,50.4-116.53,112.58,0,15.33,3.18,29.94,8.93,43.26h0s.01.02.04.07c5.12,11.86,13.05,22.03,19.99,32.36,26.89,36.47,88.41,94.49,181.81,168.65,0,0,166.48-140.78,189.08-178.99,5.05-6.82,11.23-18.73,12.73-22.04.01-.02.02-.04.03-.06Z"/>
  <g>
    <path class="cls-2" d="M303.51,376.77c-55.81-47.79-96.13-88.11-113.54-113.56-.93-1.5-1.91-3.02-2.89-4.54-3.46-5.38-7.04-10.93-9.54-17.11l-.07-.17c-3.69-9.22-5.56-18.99-5.56-29.04,0-41.67,32.54-75.56,72.54-75.56,23.1,0,45.02,11.63,58.66,31.12l.41.59.41-.59c13.63-19.49,35.56-31.12,58.65-31.12,40,0,72.54,33.9,72.54,75.56,0,10.05-1.87,19.82-5.56,29.04l-.09.22c-1.17,2.71-4.85,10.23-7.85,14.61-13.6,24.77-111.66,114.65-118.12,120.55Z"/>
    <path d="M362.59,137.29c39.72,0,72.04,33.67,72.04,75.06,0,9.98-1.86,19.69-5.52,28.85l-.03.07c-.99,2.34-4.84,10.26-7.86,14.67l-.03.04-.02.04c-13.34,24.31-108.8,111.96-117.66,120.08-55.61-47.64-95.77-87.81-113.09-113.14-.95-1.53-1.95-3.07-2.91-4.57-3.42-5.31-6.95-10.79-9.42-16.85l-.13-.34c-3.67-9.16-5.52-18.87-5.52-28.85,0-41.39,32.32-75.06,72.04-75.06,11.54,0,23.01,2.91,33.18,8.43,9.84,5.34,18.51,13.11,25.06,22.48l.82,1.17.82-1.17c6.56-9.37,15.22-17.15,25.06-22.48,10.17-5.51,21.64-8.43,33.18-8.43M362.59,136.29c-24.28,0-45.78,12.35-59.06,31.34-13.28-18.99-34.78-31.34-59.06-31.34-40.34,0-73.04,34.05-73.04,76.06,0,10.36,2,20.23,5.6,29.23h0s0,.02.02.05c3.21,8.01,8.18,14.88,12.53,21.87,16.86,24.64,55.41,63.84,113.96,113.95,0,0,104.35-95.12,118.52-120.93,3.16-4.61,7.04-12.66,7.98-14.89,0-.01.01-.03.02-.04h0c3.6-9,5.6-18.87,5.6-29.23,0-42.01-32.7-76.06-73.04-76.06h0Z"/>
  </g>
</svg>