<?xml version="1.0" encoding="UTF-8"?>
<svg id="Capa_1" data-name="Capa 1" xmlns="http://www.w3.org/2000/svg" viewBox="0 0 566.93 566.93">
  <defs>
    <style>
      .cls-1 {
        fill: #ffde00;
      }

      .cls-2 {
        fill: #ffd008;
      }

      .cls-3 {
        fill: #fff;
        stroke: #1d1d1b;
        stroke-linecap: round;
        stroke-linejoin: round;
      }
    </style>
  </defs>
  <g>
    <path class="cls-2" d="M257.88,489.2c-50.76,0-92.06-14.64-92.06-32.65s41.3-32.65,92.06-32.65,92.06,14.64,92.06,32.65-41.3,32.65-92.06,32.65Z"/>
    <path class="cls-1" d="M257.88,424.41c24.61,0,47.73,3.43,65.11,9.65,16.81,6.02,26.45,14.22,26.45,22.5s-9.64,16.48-26.45,22.5c-17.38,6.22-40.5,9.65-65.11,9.65s-47.73-3.43-65.11-9.65c-16.81-6.02-26.45-14.22-26.45-22.5s9.64-16.48,26.45-22.5c17.38-6.22,40.5-9.65,65.11-9.65M257.88,423.41c-51.12,0-92.56,14.84-92.56,33.15s41.44,33.15,92.56,33.15,92.56-14.84,92.56-33.15-41.44-33.15-92.56-33.15h0Z"/>
  </g>
  <g>
    <path class="cls-3" d="M298.05,465.11c-1.64-35.39,54.07-104.69,54.48-122.37l1.83-79.76c.57-24.81-17.65-45.52-37.13-42.2l-55.46,14.12s-8.04-33.38-14.86-63.33c-6.93-30.46-18.58-41.46-27.26-41.46-15.41-.52-23.46,17.3-18.66,28.4,8.03,18.58,16.95,60.16,16.43,85.98-1.9,94.03-16.43,207.47-16.43,207.47,41.42,25.56,97.05,13.15,97.05,13.15Z"/>
    <path class="cls-3" d="M257.38,343.56s-29.41,18.01,3.64,28.58c33.05,10.57,83.17-4.98,83.17-4.98,22.23-16.65,9.86-42.9,9.86-42.9,14.74-16.79-.35-41.22-.35-41.22,17.49-20.96-5.93-45.57-5.93-45.57"/>
  </g>
  <path class="cls-3" d="M310.35,253.42s-71.23,18.38-72.95,34.91c-1.71,16.41,16.78,38.79,116.31-5.3"/>
  <path class="cls-3" d="M259.2,308.8s-31.07,26.37,4.14,37.88c0,0,49.53-1.55,90.71-22.42"/>
  <path class="cls-3" d="M294.06,376.34c-28.6-.52-42.81,23.92-2.23,25.53,33.65,1.34,58.73-1.71,58.61-12.77-.12-11.05-7.78-20.93-7.78-20.93,0,0-36.31,8.39-48.6,8.16Z"/>
  <path class="cls-3" d="M311.83,110.22l-17.03,8.58c-5.12,2.58-8.9,7.21-10.41,12.74l-6.92,25.43-6.92-25.43c-1.5-5.53-5.29-10.16-10.41-12.74l-17.03-8.58,17.03-8.58c5.12-2.58,8.9-7.21,10.41-12.74l6.92-25.43,6.92,25.43c1.5,5.53,5.29,10.16,10.41,12.74l17.03,8.58Z"/>
</svg>