<?xml version="1.0" encoding="UTF-8"?>
<svg id="Capa_1" data-name="Capa 1" xmlns="http://www.w3.org/2000/svg" viewBox="0 0 566.93 566.93">
  <defs>
    <style>
      .cls-1 {
        fill: #fff;
        stroke: #000;
        stroke-linecap: round;
        stroke-linejoin: round;
      }

      .cls-2 {
        fill: #ffd008;
      }
    </style>
  </defs>
  <rect class="cls-1" x="233.65" y="135.3" width="198.61" height="226.7"/>
  <line class="cls-1" x1="274.15" y1="178.21" x2="418.92" y2="178.21"/>
  <rect class="cls-1" x="178.19" y="100.17" width="198.61" height="226.7"/>
  <line class="cls-1" x1="205.38" y1="135.3" x2="350.15" y2="135.3"/>
  <line class="cls-1" x1="205.38" y1="170.14" x2="350.15" y2="170.14"/>
  <path class="cls-2" d="M455.73,215.94H199.5v-20.2c0-5.22-4.84-9.45-10.81-9.45h-103.01c-5.97,0-10.81,4.23-10.81,9.45v239.73c0,8.55,7.92,15.47,17.69,15.47h363.16c9.77,0,17.69-6.93,17.69-15.47v-204.05c0-8.55-7.92-15.47-17.69-15.47Z"/>
  <g>
    <path d="M141.9,291.44v-32.95h18.84v1.9h-16.78v13.49h15.68v1.92h-15.68v13.73h17.09v1.9h-19.15Z"/>
    <path d="M175.82,291.89c-2.74,0-4.93-.84-6.58-2.51s-2.47-3.98-2.47-6.91v-1.59h2.06v1.59c0,2.36.63,4.2,1.88,5.53,1.25,1.33,2.96,1.99,5.11,1.99s3.85-.66,5.11-1.99c1.25-1.33,1.88-3.17,1.88-5.53v-23.97h2.06v23.97c0,2.93-.82,5.24-2.47,6.91s-3.84,2.51-6.58,2.51Z"/>
    <path d="M193.37,291.44v-32.95h18.84v1.9h-16.78v13.49h15.68v1.92h-15.68v13.73h17.09v1.9h-19.15Z"/>
    <path d="M219.84,291.44v-32.95h2.9l10.3,24.46c.21.49.42,1.02.65,1.6s.46,1.18.7,1.8.46,1.24.69,1.85.44,1.21.66,1.78h-.66c.21-.56.42-1.14.65-1.75s.46-1.22.7-1.85c.24-.63.47-1.23.7-1.82.23-.59.45-1.13.65-1.61l10.26-24.46h2.9v32.95h-2.03v-25c0-.69,0-1.39.02-2.11.01-.72.03-1.44.03-2.17,0-.72.01-1.43.01-2.12h.35c-.28.75-.56,1.5-.84,2.26-.28.75-.56,1.49-.84,2.2-.28.71-.55,1.4-.82,2.06-.27.66-.52,1.27-.75,1.85l-9.75,23.04h-1.86l-9.77-23.04c-.24-.56-.49-1.17-.75-1.82-.27-.66-.54-1.34-.82-2.06-.28-.71-.56-1.45-.85-2.2-.29-.75-.58-1.51-.87-2.28h.38c.01.66.03,1.35.03,2.07,0,.72.01,1.44.02,2.17,0,.73.01,1.44.02,2.13,0,.69.01,1.36.01,1.99v23.04h-2.01Z"/>
    <path d="M259.9,291.44v-32.95h10.41c2.06,0,3.84.42,5.34,1.27s2.65,2.01,3.46,3.49,1.22,3.18,1.22,5.1-.41,3.59-1.22,5.07-1.97,2.64-3.47,3.48c-1.5.84-3.29,1.26-5.35,1.26h-9.04v-1.88h9c1.67,0,3.1-.34,4.29-1.02,1.19-.68,2.11-1.61,2.76-2.81.65-1.19.97-2.57.97-4.11s-.32-2.94-.97-4.13c-.65-1.19-1.57-2.13-2.77-2.81-1.2-.68-2.63-1.02-4.28-1.02h-8.29v31.04h-2.06Z"/>
    <path d="M287.39,291.44v-32.95h2.08v31.04h16.19v1.9h-18.26Z"/>
    <path d="M323.5,291.89c-2.76,0-5.19-.7-7.3-2.11-2.11-1.41-3.76-3.38-4.94-5.93s-1.78-5.49-1.78-8.86.6-6.35,1.79-8.89,2.84-4.51,4.94-5.93,4.53-2.12,7.29-2.12,5.17.71,7.27,2.12,3.75,3.39,4.93,5.93c1.18,2.54,1.77,5.5,1.77,8.89s-.59,6.33-1.77,8.87c-1.18,2.54-2.82,4.51-4.93,5.91-2.11,1.41-4.53,2.11-7.27,2.11ZM323.5,289.92c2.31,0,4.37-.61,6.17-1.83s3.21-2.95,4.23-5.18c1.02-2.23,1.54-4.87,1.54-7.91s-.51-5.7-1.54-7.94c-1.02-2.24-2.44-3.97-4.23-5.2s-3.85-1.83-6.17-1.83-4.37.61-6.18,1.82c-1.81,1.22-3.22,2.95-4.26,5.19-1.03,2.24-1.55,4.89-1.55,7.96s.51,5.65,1.54,7.88,2.44,3.97,4.25,5.2c1.81,1.23,3.87,1.85,6.2,1.85Z"/>
    <path d="M359.05,258.5v32.95h-2.06v-32.95h2.06ZM366.15,291.44h-8.03v-1.9h7.94c2.93,0,5.41-.59,7.42-1.76,2.01-1.17,3.53-2.85,4.55-5.04,1.02-2.19,1.54-4.81,1.54-7.86s-.49-5.61-1.48-7.77c-.99-2.16-2.43-3.82-4.33-4.97-1.9-1.16-4.23-1.74-6.99-1.74h-8.71v-1.9h8.8c3.1,0,5.74.65,7.94,1.96s3.88,3.18,5.05,5.63c1.17,2.45,1.76,5.38,1.76,8.8s-.6,6.43-1.81,8.91-2.97,4.37-5.27,5.68c-2.31,1.31-5.1,1.97-8.37,1.97Z"/>
    <path d="M388.9,291.44v-32.95h18.84v1.9h-16.78v13.49h15.68v1.92h-15.68v13.73h17.09v1.9h-19.15Z"/>
    <path d="M150.51,345.79v-32.95h10.41c2.06,0,3.84.42,5.34,1.27s2.65,2.01,3.46,3.49,1.22,3.18,1.22,5.1-.41,3.59-1.22,5.07-1.97,2.64-3.47,3.48c-1.5.84-3.29,1.26-5.35,1.26h-9.04v-1.88h9c1.67,0,3.1-.34,4.29-1.02,1.19-.68,2.11-1.61,2.76-2.81.65-1.19.97-2.57.97-4.11s-.32-2.94-.97-4.13c-.65-1.19-1.57-2.13-2.77-2.81-1.2-.68-2.63-1.02-4.28-1.02h-8.29v31.04h-2.06Z"/>
    <path d="M177.99,345.79v-32.95h10.44c2.06,0,3.84.41,5.34,1.22,1.5.81,2.65,1.94,3.46,3.39.81,1.45,1.22,3.14,1.22,5.05s-.41,3.57-1.22,5c-.81,1.43-1.97,2.55-3.47,3.35-1.5.8-3.29,1.21-5.35,1.21h-9.29v-1.92h9.26c1.65,0,3.07-.31,4.27-.94,1.19-.63,2.12-1.51,2.76-2.66.65-1.15.97-2.49.97-4.02s-.32-2.94-.97-4.1-1.57-2.06-2.76-2.7c-1.19-.64-2.62-.96-4.29-.96h-8.31v31.04h-2.06ZM197.3,345.79l-8.03-14.95h2.32l8.07,14.95h-2.37Z"/>
    <path d="M218.3,346.23c-2.76,0-5.19-.7-7.3-2.11-2.11-1.41-3.76-3.38-4.94-5.93s-1.78-5.49-1.78-8.86.6-6.35,1.79-8.89,2.84-4.51,4.94-5.93,4.53-2.12,7.29-2.12,5.17.71,7.27,2.12,3.75,3.39,4.93,5.93c1.18,2.54,1.77,5.5,1.77,8.89s-.59,6.33-1.77,8.87c-1.18,2.54-2.82,4.51-4.93,5.91-2.11,1.41-4.53,2.11-7.27,2.11ZM218.3,344.26c2.31,0,4.37-.61,6.17-1.83s3.21-2.95,4.23-5.18c1.02-2.23,1.54-4.87,1.54-7.91s-.51-5.7-1.54-7.94c-1.02-2.24-2.44-3.97-4.23-5.2s-3.85-1.83-6.17-1.83-4.37.61-6.18,1.82c-1.81,1.22-3.22,2.95-4.26,5.19-1.03,2.24-1.55,4.89-1.55,7.96s.51,5.65,1.54,7.88,2.44,3.97,4.25,5.2c1.81,1.23,3.87,1.85,6.2,1.85Z"/>
    <path d="M239.6,345.79v-32.95h10.41c2.06,0,3.84.42,5.34,1.27s2.65,2.01,3.46,3.49,1.22,3.18,1.22,5.1-.41,3.59-1.22,5.07-1.97,2.64-3.47,3.48c-1.5.84-3.29,1.26-5.35,1.26h-9.04v-1.88h9c1.67,0,3.1-.34,4.29-1.02,1.19-.68,2.11-1.61,2.76-2.81.65-1.19.97-2.57.97-4.11s-.32-2.94-.97-4.13c-.65-1.19-1.57-2.13-2.77-2.81-1.2-.68-2.63-1.02-4.28-1.02h-8.29v31.04h-2.06Z"/>
    <path d="M278.8,346.27c-2.36,0-4.46-.51-6.3-1.53-1.84-1.02-3.29-2.4-4.33-4.16-1.05-1.75-1.57-3.75-1.57-5.99v-21.76h2.08v21.65c0,1.89.43,3.57,1.29,5.05s2.06,2.65,3.58,3.49c1.53.85,3.28,1.27,5.25,1.27s3.74-.42,5.26-1.27c1.52-.85,2.71-2.01,3.57-3.49s1.29-3.17,1.29-5.05v-21.65h2.06v21.76c0,2.24-.52,4.24-1.56,5.99s-2.48,3.14-4.31,4.16c-1.84,1.02-3.94,1.53-6.31,1.53Z"/>
    <path d="M299.47,345.79v-32.95h18.84v1.9h-16.78v13.49h15.68v1.92h-15.68v13.73h17.09v1.9h-19.15Z"/>
    <path d="M335.23,346.32c-2.14,0-4-.36-5.59-1.09-1.59-.73-2.84-1.75-3.75-3.06-.91-1.31-1.41-2.83-1.51-4.55h2.1c.09,1.39.51,2.59,1.27,3.6.76,1.02,1.78,1.8,3.06,2.34,1.28.55,2.76.82,4.42.82,1.77,0,3.32-.3,4.67-.9,1.34-.6,2.39-1.43,3.14-2.51s1.13-2.33,1.13-3.76c0-1.12-.27-2.09-.8-2.91-.53-.82-1.32-1.53-2.38-2.14-1.05-.61-2.39-1.16-4.01-1.65l-3.78-1.13c-2.67-.8-4.68-1.87-6.03-3.23s-2.02-3.03-2.02-5.02c0-1.71.45-3.22,1.35-4.54.9-1.32,2.12-2.35,3.67-3.11s3.31-1.13,5.28-1.13,3.74.38,5.24,1.15c1.5.77,2.7,1.81,3.58,3.14.88,1.33,1.37,2.84,1.46,4.55h-2.06c-.16-2.06-.99-3.73-2.48-5.01-1.49-1.27-3.42-1.91-5.79-1.91-1.58,0-2.99.29-4.23.87-1.25.58-2.22,1.39-2.93,2.41-.71,1.03-1.06,2.19-1.06,3.5,0,1.09.28,2.05.83,2.87.55.83,1.34,1.53,2.35,2.11s2.2,1.08,3.56,1.49l3.65,1.06c1.3.38,2.47.83,3.53,1.35,1.05.52,1.96,1.12,2.72,1.8.76.69,1.34,1.48,1.76,2.38.41.9.62,1.92.62,3.07,0,1.75-.45,3.32-1.35,4.69s-2.17,2.45-3.81,3.24c-1.64.79-3.58,1.18-5.8,1.18Z"/>
    <path d="M351.21,314.74v-1.9h23.44v1.9h-10.68v31.04h-2.06v-31.04h-10.7Z"/>
    <path d="M374.12,345.79l12.21-32.95h2.54l12.25,32.95h-2.19l-8.69-23.55c-.44-1.19-.9-2.48-1.38-3.86-.48-1.38-1-2.93-1.56-4.65h.57c-.56,1.72-1.08,3.28-1.57,4.67-.49,1.39-.94,2.67-1.37,3.85l-8.62,23.55h-2.19ZM379.38,335.42v-1.88h16.47v1.88h-16.47Z"/>
    <path d="M130.45,367.18v32.95h-2.06v-32.95h2.06ZM137.55,400.13h-8.03v-1.9h7.94c2.93,0,5.41-.59,7.42-1.76s3.53-2.85,4.55-5.04c1.02-2.19,1.54-4.81,1.54-7.86s-.49-5.61-1.48-7.77c-.99-2.16-2.43-3.82-4.33-4.98-1.9-1.16-4.23-1.74-6.99-1.74h-8.71v-1.9h8.8c3.1,0,5.74.65,7.94,1.96,2.2,1.3,3.88,3.18,5.05,5.63s1.76,5.38,1.76,8.8-.6,6.43-1.81,8.91-2.97,4.37-5.27,5.68c-2.31,1.31-5.1,1.97-8.37,1.97Z"/>
    <path d="M160.3,400.13v-32.95h18.84v1.9h-16.78v13.49h15.68v1.92h-15.68v13.73h17.09v1.9h-19.15Z"/>
    <path d="M208.26,400.66c-2.14,0-4-.37-5.59-1.09s-2.84-1.75-3.75-3.06c-.91-1.31-1.41-2.83-1.51-4.55h2.1c.09,1.39.51,2.59,1.27,3.6.76,1.02,1.78,1.8,3.06,2.34,1.28.55,2.76.82,4.42.82,1.77,0,3.32-.3,4.67-.9,1.34-.6,2.39-1.43,3.14-2.51.75-1.08,1.13-2.33,1.13-3.76,0-1.12-.27-2.09-.8-2.91-.53-.82-1.32-1.53-2.38-2.15-1.05-.61-2.39-1.16-4.01-1.65l-3.78-1.13c-2.67-.8-4.68-1.87-6.03-3.23-1.35-1.36-2.02-3.03-2.02-5.02,0-1.71.45-3.22,1.35-4.54.9-1.32,2.12-2.36,3.67-3.11,1.55-.75,3.31-1.13,5.28-1.13s3.74.38,5.24,1.15,2.7,1.81,3.58,3.14c.88,1.33,1.37,2.85,1.46,4.55h-2.06c-.16-2.06-.99-3.73-2.48-5.01-1.49-1.27-3.42-1.91-5.79-1.91-1.58,0-2.99.29-4.23.87s-2.22,1.39-2.93,2.41-1.06,2.19-1.06,3.5c0,1.09.28,2.05.83,2.87.55.83,1.34,1.53,2.35,2.11,1.02.58,2.2,1.08,3.56,1.49l3.65,1.06c1.3.38,2.47.83,3.53,1.35,1.05.52,1.96,1.12,2.72,1.8.76.69,1.34,1.48,1.76,2.38.41.9.62,1.92.62,3.07,0,1.75-.45,3.32-1.35,4.69s-2.17,2.45-3.81,3.24c-1.64.79-3.58,1.18-5.8,1.18Z"/>
    <path d="M238.98,400.57c-2.76,0-5.19-.7-7.3-2.11-2.11-1.41-3.76-3.38-4.94-5.93s-1.78-5.5-1.78-8.86.6-6.35,1.79-8.89,2.84-4.51,4.94-5.93c2.1-1.42,4.53-2.12,7.29-2.12s5.17.71,7.27,2.12c2.11,1.42,3.75,3.39,4.93,5.93,1.18,2.54,1.77,5.5,1.77,8.89s-.59,6.33-1.77,8.87c-1.18,2.54-2.82,4.51-4.93,5.92-2.11,1.41-4.53,2.11-7.27,2.11ZM238.98,398.6c2.31,0,4.37-.61,6.17-1.83s3.21-2.95,4.23-5.19,1.54-4.87,1.54-7.9-.51-5.7-1.54-7.94c-1.02-2.24-2.44-3.97-4.23-5.2-1.8-1.22-3.85-1.83-6.17-1.83s-4.37.61-6.18,1.82-3.22,2.94-4.26,5.19c-1.03,2.24-1.55,4.89-1.55,7.96s.51,5.65,1.54,7.88c1.02,2.23,2.44,3.97,4.25,5.2,1.81,1.23,3.87,1.85,6.2,1.85Z"/>
    <path d="M260.27,400.13v-32.95h2.08v31.04h16.19v1.9h-18.26Z"/>
    <path d="M297.04,400.61c-2.36,0-4.46-.51-6.3-1.53-1.84-1.02-3.29-2.4-4.33-4.16-1.05-1.75-1.57-3.75-1.57-5.99v-21.76h2.08v21.65c0,1.89.43,3.57,1.29,5.05s2.06,2.65,3.58,3.49c1.53.85,3.28,1.27,5.25,1.27s3.74-.42,5.26-1.27c1.52-.85,2.71-2.01,3.57-3.49s1.29-3.17,1.29-5.05v-21.65h2.06v21.76c0,2.24-.52,4.24-1.56,5.99-1.04,1.75-2.48,3.14-4.31,4.16-1.84,1.02-3.94,1.53-6.31,1.53Z"/>
    <path d="M330.07,400.57c-2.76,0-5.19-.7-7.3-2.11-2.11-1.41-3.76-3.38-4.95-5.9-1.19-2.53-1.79-5.49-1.79-8.88s.6-6.38,1.79-8.91,2.84-4.51,4.95-5.92c2.11-1.41,4.54-2.11,7.3-2.11,1.84,0,3.5.3,4.99.91s2.77,1.42,3.86,2.45c1.09,1.03,1.97,2.19,2.64,3.47s1.12,2.6,1.36,3.96h-2.08c-.24-1.13-.65-2.23-1.23-3.28s-1.33-2-2.24-2.83-1.98-1.49-3.21-1.98c-1.22-.49-2.59-.73-4.09-.73-2.18,0-4.18.58-6,1.75-1.82,1.16-3.28,2.86-4.37,5.08-1.09,2.23-1.64,4.94-1.64,8.14s.55,5.93,1.65,8.16c1.1,2.23,2.55,3.91,4.37,5.05,1.81,1.14,3.81,1.71,5.99,1.71,1.5,0,2.87-.24,4.09-.73,1.22-.49,2.29-1.15,3.21-1.99s1.66-1.78,2.24-2.83.99-2.14,1.23-3.27h2.08c-.24,1.34-.69,2.65-1.36,3.92s-1.55,2.43-2.63,3.47c-1.08,1.04-2.37,1.86-3.86,2.48-1.49.61-3.15.92-5,.92Z"/>
    <path d="M352.16,367.18v32.95h-2.06v-32.95h2.06Z"/>
    <path d="M373.48,400.57c-2.76,0-5.19-.7-7.3-2.11-2.11-1.41-3.76-3.38-4.94-5.93s-1.78-5.5-1.78-8.86.6-6.35,1.79-8.89,2.84-4.51,4.94-5.93c2.1-1.42,4.53-2.12,7.29-2.12s5.17.71,7.27,2.12c2.11,1.42,3.75,3.39,4.93,5.93,1.18,2.54,1.77,5.5,1.77,8.89s-.59,6.33-1.77,8.87c-1.18,2.54-2.82,4.51-4.93,5.92-2.11,1.41-4.53,2.11-7.27,2.11ZM373.48,398.6c2.31,0,4.37-.61,6.17-1.83s3.21-2.95,4.23-5.19,1.54-4.87,1.54-7.9-.51-5.7-1.54-7.94c-1.02-2.24-2.44-3.97-4.23-5.2-1.8-1.22-3.85-1.83-6.17-1.83s-4.37.61-6.18,1.82-3.22,2.94-4.26,5.19c-1.03,2.24-1.55,4.89-1.55,7.96s.51,5.65,1.54,7.88c1.02,2.23,2.44,3.97,4.25,5.2,1.81,1.23,3.87,1.85,6.2,1.85ZM372.55,363.77l3.18-6.28h2.32l-3.76,6.28h-1.75Z"/>
    <path d="M394.77,400.13v-32.95h2.28l16.61,23.73c.49.68.99,1.41,1.51,2.2.52.79,1.06,1.61,1.61,2.47.55.86,1.1,1.72,1.65,2.61l-.42.07c-.03-.9-.06-1.79-.09-2.68-.03-.88-.05-1.74-.07-2.58-.01-.83-.02-1.61-.02-2.33v-23.48h2.06v32.95h-2.28l-16.1-22.91c-.53-.78-1.07-1.58-1.61-2.4-.55-.82-1.12-1.69-1.73-2.62s-1.26-1.94-1.97-3.03l.44-.09c.03,1.06.06,2.08.09,3.05.03.97.05,1.88.07,2.73.01.85.02,1.62.02,2.33v22.93h-2.06Z"/>
  </g>
</svg>