<?xml version="1.0" encoding="UTF-8"?>
<svg id="Capa_1" data-name="Capa 1" xmlns="http://www.w3.org/2000/svg" viewBox="0 0 566.93 566.93">
  <defs>
    <style>
      .cls-1 {
        stroke: #000;
      }

      .cls-1, .cls-2, .cls-3, .cls-4, .cls-5, .cls-6 {
        fill: #fff;
      }

      .cls-1, .cls-2, .cls-7, .cls-8, .cls-5 {
        stroke-linecap: round;
        stroke-linejoin: round;
      }

      .cls-9, .cls-10, .cls-2, .cls-4, .cls-6 {
        stroke: #020202;
      }

      .cls-9, .cls-10, .cls-4, .cls-6 {
        stroke-miterlimit: 10;
      }

      .cls-9, .cls-10, .cls-7, .cls-8 {
        fill: none;
      }

      .cls-10 {
        stroke-dasharray: 12.83 12.83;
      }

      .cls-7 {
        stroke: #fff;
      }

      .cls-8 {
        stroke: #010100;
      }

      .cls-11 {
        fill: #010100;
        font-size: 26.92px;
      }

      .cls-12 {
        fill: #ffd008;
      }

      .cls-5 {
        stroke: #1d1d1b;
      }

      .cls-6 {
        stroke-dasharray: 12;
      }
    </style>
  </defs>
  <rect class="cls-4" x="70.53" y="84.18" width="431.99" height="308.55" rx="18.7" ry="18.7"/>
  <text></text>
  <text class="cls-11" transform="translate(217.71 126.92) scale(1.04 1)"><tspan x="0" y="0">PRIORIZAR</tspan></text>
  <line class="cls-8" x1="117.61" y1="144.49" x2="109" y2="136.19"/>
  <polyline class="cls-8" points="438.63 342.5 447.95 349.6 109 349.6 109 136.19 100.78 145.22"/>
  <line class="cls-8" x1="438.63" y1="357.76" x2="447.95" y2="349.6"/>
  <g>
    <path class="cls-3" d="M274.37,154.55c.48,10.14,0,178.84,0,178.84"/>
    <g>
      <path class="cls-9" d="M274.37,154.55c.04.88.08,2.95.1,6"/>
      <path class="cls-10" d="M274.54,173.38c.12,36.98-.06,116.85-.14,147.6"/>
      <path class="cls-9" d="M274.38,327.4c-.01,3.84-.02,6-.02,6"/>
    </g>
  </g>
  <line class="cls-6" x1="149.21" y1="230.72" x2="419.46" y2="230.72"/>
  <g>
    <rect class="cls-12" x="180.17" y="166.04" width="46.1" height="46.1"/>
    <path class="cls-12" d="M225.77,166.54v45.1h-45.1v-45.1h45.1M226.77,165.54h-47.1v47.1h47.1v-47.1h0Z"/>
  </g>
  <g>
    <path class="cls-5" d="M129.49,178.35l6.94-33.39s4.87-1.48,5.7.81c.83,2.28,3.59,15.35,3.59,15.35,0,0-15.39,19.51-16.22,17.23Z"/>
    <path class="cls-5" d="M166.89,161.51s16.5-6.18,14.18-11.02c-1.27-2.64-32.64,3.7-32.64,3.7,0,0-9.73,6.15-12.59,9.83-2.86,3.69-5.46,7.2-6.35,11.7-.88,4.5-3.86,15.36-3.86,15.36"/>
    <path class="cls-5" d="M187.22,176.37c-2.61.03-5.33,1.1-7.14,1.96-3.64,1.71-18.69,12.19-20.94,14-1.92.71-3.84.33-5.12-3.38-2.29-6.63,7.32-15.18,7.32-15.18,0,0,19.71-1.51,22.57-2.03,6.57-1.19,3.48-7.56,3.48-7.56l-28.2-3.66c-4.19-.54-8.43.71-11.32,3.38-3.39,3.13-8.32,7.96-13.92,14.33-2.65,3.01-4.62,6.02-6.1,8.83l-1.97,3.27c-.64.78-7.47,16.67-13.81,24.03-12.18,14.16-32.31,30.59-49.1,34.94-9.19,2.38-18.38,5-29.58,7.31,0,0,8.4,37.55,8.06,36.79l.34.76c45.4,3.9,78.77-29.85,104.07-59.92l-.12.39,5-5.99,5.37-6.54c11.72-9.04,22.84-24.04,25.95-29.66,3.11-5.62,11.37-10.16,11.2-13.91-.08-1.7-3-2.18-6.02-2.15Z"/>
  </g>
  <g>
    <path class="cls-1" d="M548.05,344.84l-107.27-27.63-.41.02c-9.99.48-19.79-2.68-27.59-8.9l-10.91-8.7c-2.22-1.77-1.47-5.33,1.28-6.08l.39-.11c2.45-.67,5.05-.55,7.42.34l11.73,4.41.96-4.42-12.8-18.49-11.72-5.67c-2.07-1-3.6-2.86-4.2-5.09l-.14-.51c-.5-1.87,1.13-3.62,3.03-3.26l6.67,1.28-1.55-2.73c-1.24-2.17.74-4.78,3.16-4.18l8.64,2.15-1.28-2.84c-1.02-2.25,1.29-4.59,3.55-3.6l7.8,3.43-1.76-2.94c-.92-1.53-1.18-3.37-.72-5.11.59-2.26,2.32-4.05,4.55-4.72l.79-.24,34.9,47.1,85.46,8.04v48.43Z"/>
    <polyline class="cls-1" points="404.52 262.04 421.57 266.59 437.29 286.6"/>
    <polyline class="cls-1" points="414.76 257.29 434.88 262.04 444.04 277.43"/>
    <line class="cls-1" x1="424.83" y1="254.27" x2="440.27" y2="258.24"/>
  </g>
  <line class="cls-5" x1="157.77" y1="252.65" x2="226.25" y2="252.65"/>
  <line class="cls-5" x1="157.77" y1="265.47" x2="226.25" y2="265.47"/>
  <g>
    <polygon class="cls-12" points="308.43 197.1 296.02 190.13 295.65 152.51 338.06 152.51 337.75 197.43 308.43 197.1"/>
    <path class="cls-12" d="M337.55,153.01l-.3,43.91-28.69-.33-12.05-6.76-.36-36.82h41.4M338.56,152.01h-43.42l.38,38.41,12.78,7.17,29.95.34.31-45.92h0Z"/>
  </g>
  <polyline class="cls-7" points="295.52 190.3 305.91 188.29 307.7 197.5"/>
  <g>
    <polygon class="cls-12" points="364.61 219.62 352.19 212.65 351.82 175.04 394.23 175.04 393.92 219.95 364.61 219.62"/>
    <path class="cls-12" d="M393.73,175.54l-.3,43.91-28.69-.33-12.05-6.76-.36-36.82h41.4M394.73,174.54h-43.42l.38,38.41,12.78,7.17,29.95.34.31-45.92h0Z"/>
  </g>
  <polyline class="cls-7" points="351.31 212.83 361.7 210.82 363.49 220.02"/>
  <g>
    <g>
      <polygon class="cls-12" points="367.73 325.76 355.31 318.8 354.94 281.18 397.35 281.18 397.04 326.1 367.73 325.76"/>
      <path class="cls-12" d="M396.84,281.68l-.3,43.91-28.69-.33-12.05-6.76-.36-36.82h41.4M397.85,280.68h-43.42l.38,38.41,12.78,7.17,29.95.34.31-45.92h0Z"/>
    </g>
    <polyline class="cls-7" points="354.81 318.97 365.2 316.96 366.99 326.17"/>
  </g>
  <g>
    <polygon class="cls-12" points="306.09 325.76 293.67 318.8 293.3 281.18 335.71 281.18 335.41 326.1 306.09 325.76"/>
    <path class="cls-12" d="M335.21,281.68l-.3,43.91-28.69-.33-12.05-6.76-.36-36.82h41.4M336.22,280.68h-43.42l.38,38.41,12.78,7.17,29.95.34.31-45.92h0Z"/>
  </g>
  <polyline class="cls-7" points="293.18 318.97 303.56 316.96 305.35 326.17"/>
  <g>
    <polygon class="cls-12" points="171.07 325.76 158.65 318.8 158.28 281.18 200.69 281.18 200.38 326.1 171.07 325.76"/>
    <path class="cls-12" d="M200.18,281.68l-.3,43.91-28.69-.33-12.05-6.76-.36-36.82h41.4M201.19,280.68h-43.42l.38,38.41,12.78,7.17,29.95.34.31-45.92h0Z"/>
  </g>
  <polyline class="cls-7" points="158.15 318.97 168.54 316.96 170.33 326.17"/>
  <g>
    <g>
      <polygon class="cls-12" points="416.41 192.06 403.99 185.09 403.62 147.47 446.03 147.47 445.73 192.39 416.41 192.06"/>
      <path class="cls-12" d="M445.53,147.97l-.3,43.91-28.69-.33-12.05-6.76-.36-36.82h41.4M446.54,146.97h-43.42l.38,38.41,12.78,7.17,29.95.34.31-45.92h0Z"/>
    </g>
    <polyline class="cls-7" points="403.5 185.26 413.88 183.25 415.67 192.46"/>
  </g>
  <g>
    <path class="cls-2" d="M549.37,108.43c-.12-.28-.33-.5-.58-.61-.25-.11-.53-.12-.76,0l-58.11,29.12c-4.18-3.43-11.22-8.96-23.19-17.97-1.77-1.34-3.88-1.75-5.78-1.13l-.93.3-1.1-.85c-2.28-1.76-5.13-1.93-7.3-.45l-2.33-1.13c-3-1.46-6.31-.43-7.89,2.45l-.41.78s-.05.02-.07.04l-15.04,13.53c-.16.14-.26.34-.3.57l-4.65,26.59c-.08.46.12.95.49,1.23,1.24.9,3.65,1.86,6.09,1.07,1.07-.35,2.15-1.04,3.14-2.23,1.02-1.23,1.79-2.44,2.4-3.56l.04,11.87c0,.58.41,1.11.93,1.2.56.1,4.31.67,7.09-.24,1.02-.33,1.9-.88,2.46-1.71,1.3.46,2.93.7,4.4.22,1.19-.39,2.27-1.25,3-2.84.57-1.24,1.01-2.61,1.36-3.98.12.29.3.54.57.67,1.04.46,2.49.86,3.85.79.03.03.05.06.08.09.49.36,12.06,8.82,19.35,8.19,8.14-.7,19.02-4.23,19.48-4.38l68.13-22.26c.26-.08.46-.29.55-.57.1-.28.08-.6-.05-.89l-14.93-33.91Z"/>
    <polyline class="cls-2" points="459.18 121.71 447.35 134.31 441.48 155.18 443.57 167.29"/>
    <path class="cls-2" d="M467.85,140.19s-2.53-3.5-5.1-3.22c-2.56.28-8.87,14.28-8.87,14.28l-1.55,9.45"/>
    <polyline class="cls-2" points="433.05 156.17 436.16 136.08 447.62 121.71"/>
  </g>
</svg>