<svg viewBox="243.77989999999997 124.7246 333.35483999999997 335.62255999999996" xmlns:xlink="http://www.w3.org/1999/xlink" xmlns="http://www.w3.org/2000/svg" data-name="Capa 1" id="Capa_1" style="max-height: 500px" width="333.35483999999997" height="335.62255999999996">
  <defs>
    <style>
      .cls-1, .cls-2, .cls-3, .cls-4, .cls-5, .cls-6 {
        fill: none;
      }

      .cls-2, .cls-7, .cls-8, .cls-9, .cls-5, .cls-10 {
        stroke-miterlimit: 10;
      }

      .cls-2, .cls-4 {
        stroke: #080717;
      }

      .cls-11 {
        fill: url(#lunares);
      }

      .cls-11, .cls-12, .cls-3, .cls-13, .cls-4, .cls-6, .cls-14 {
        stroke-linejoin: round;
      }

      .cls-11, .cls-12, .cls-3, .cls-8, .cls-5, .cls-10 {
        stroke: #000;
      }

      .cls-11, .cls-12, .cls-3, .cls-4, .cls-6, .cls-14 {
        stroke-linecap: round;
      }

      .cls-12, .cls-7, .cls-13, .cls-8, .cls-15, .cls-9 {
        fill: #fff;
      }

      .cls-7 {
        stroke: #1d1d1b;
      }

      .cls-13, .cls-9 {
        stroke: #020202;
      }

      .cls-6, .cls-14 {
        stroke: #fff;
      }

      .cls-14, .cls-16 {
        fill: #ffd008;
      }
    </style>
    <pattern viewBox="0 0 28.35 28.35" patternUnits="userSpaceOnUse" patternTransform="translate(6829.86 3206.3)" height="28.35" width="28.35" y="0" x="0" id="lunares">
      <g>
        <rect height="28.35" width="28.35" y="0" class="cls-1"/>
        <circle r="5.02" cy="0" cx="21.26"/>
        <circle r="5.02" cy="0" cx="7.09"/>
        <circle r="5.02" cy="14.17" cx="28.35"/>
        <circle r="5.02" cy="14.17" cx="14.17"/>
        <circle r="5.02" cy="14.17" cx="0"/>
        <circle r="5.02" cy="28.35" cx="21.26"/>
        <circle r="5.02" cy="28.35" cx="7.09"/>
      </g>
    </pattern>
  </defs>
  <g>
    <path d="M435,203.82c4.2-10.92-1.55-23.64-13.61-28.73-12.06-5.09-25.52-.47-30.07,10.31-5.22,12.38,4.12,22.16,4.12,22.16l-2.56,6.07,20.82,8.78,2.56-6.07s14.15-.59,18.74-12.52Z" class="cls-3"/>
    <rect transform="translate(117.97 -138.52) rotate(22.87)" height="3.29" width="22.59" y="220.75" x="390.15" class="cls-3"/>
    <line y2="197.6" x2="417.42" y1="193.57" x1="407.87" class="cls-3"/>
    <line y2="217.45" x2="403.63" y1="196.13" x1="412.48" class="cls-3"/>
    <path d="M399.85,185s3.26-7.32,12.85-5.23" class="cls-3"/>
  </g>
  <g>
    <polygon points="250.31 267.19 250.31 237.01 276.55 237.01 282.2 241.02 282.2 267.19 250.31 267.19" class="cls-16"/>
    <path d="M276.39,237.51l5.31,3.77v25.41h-30.89v-29.18h25.58M276.71,236.51h-26.9v31.18h32.89v-26.93l-5.99-4.25h0Z" class="cls-15"/>
  </g>
  <polygon points="282.17 241.1 276.47 241.16 276.47 237.02 282.17 241.1" class="cls-14"/>
  <g>
    <g>
      <polygon points="304.3 255.75 316.08 227.97 339.56 237.93 343.05 243.76 332.83 267.85 304.3 255.75" class="cls-16"/>
      <path d="M316.35,228.63l22.87,9.7,3.28,5.47-9.93,23.4-27.61-11.71,11.39-26.86M315.82,227.31l-12.17,28.7,29.45,12.49,10.51-24.79-3.71-6.19-24.09-10.22h0Z" class="cls-15"/>
    </g>
    <polygon points="343.05 243.49 337.76 242.19 339.73 237.95 343.05 243.49" class="cls-14"/>
  </g>
  <g>
    <g>
      <polygon points="359.12 305.6 353.67 301.53 353.95 275.36 384.94 275.69 384.61 305.87 359.12 305.6" class="cls-16"/>
      <path d="M354.45,275.86l29.99.33-.32,29.18-24.83-.27-5.11-3.82.28-25.42M353.46,274.85l-.29,26.93,5.78,4.31,26.16.28.34-31.18-31.99-.35h0Z" class="cls-15"/>
    </g>
    <polygon points="353.74 301.59 359.13 301.43 359.13 305.49 353.74 301.59" class="cls-14"/>
  </g>
  <g>
    <polygon points="283.09 344.88 278.15 319.17 308.46 313.35 314.15 342.99 289.22 347.78 283.09 344.88" class="cls-16"/>
    <path d="M308.06,313.94l5.5,28.66-24.28,4.66-5.75-2.72-4.8-24.96,29.32-5.63M308.85,312.77l-31.28,6.01,5.08,26.45,6.5,3.08,25.58-4.92-5.88-30.62h0Z" class="cls-15"/>
  </g>
  <polyline points="289.15 347.47 288.34 343.68 283.02 344.55" class="cls-6"/>
  <g>
    <polygon points="307.56 321.13 302.2 316.84 303.53 290.7 334.96 292.3 333.42 322.44 307.56 321.13" class="cls-16"/>
    <path d="M304,291.23l30.43,1.55-1.48,29.14-25.2-1.28-5.04-4.03,1.29-25.38M303.05,290.18l-1.37,26.89,5.69,4.55,26.52,1.35,1.58-31.14-32.43-1.65h0Z" class="cls-15"/>
  </g>
  <polyline points="309.04 320.72 309.26 316.41 302.67 316.14" class="cls-6"/>
  <line y2="168.18" x2="386.59" y1="156.77" x1="376.5" class="cls-3"/>
  <line y2="164.74" x2="423.08" y1="150.16" x1="428.7" class="cls-3"/>
  <line y2="190.08" x2="448.51" y1="183.4" x1="463.42" class="cls-3"/>
  <g>
    <path d="M207.74,246.93c2.78-8.47,6.54-22.93,1.27-33.93-7.96-16.64-35.82-26.75-49.23-6.12-15.22,23.42-4.44,29.05-9.68,36.69-5.24,7.64-15.66,1.1-18.24,12.5-3.5,15.45,10.56,30.12,28.61,18.12,18.84-12.52,39.97-5.05,47.27-27.27Z" class="cls-5"/>
    <path d="M89.91,244.25s18.24,39.18,32.02,43.02c21.48,5.99,40.64-15.41,40.64-15.41,3.06-1.26,5.85-2.2,8.4-2.87,4.51-1.36,9.95-2.37,14.84-1.53,7.25,1.24,57.37,12.93,57.7,98.12l-21.04-.38s-.27-37.46-12.61-49.67c-5.21-5.15,0,50.04,0,50.04h-59.15c-.85-9.14-3.27-56.01-3.27-56.01-21.61,6.76-37.42.35-42.11-3.4-15.74-12.6-28.99-51.78-28.99-51.78l13.56-10.14Z" class="cls-12"/>
    <path d="M209.67,247.6c2.78-8.47,6.54-22.93,1.27-33.93-7.96-16.64-35.82-26.75-49.23-6.12-15.22,23.42-4.44,29.05-9.68,36.69-5.24,7.64-15.66,1.1-18.24,12.5-3.5,15.45,10.56,30.12,28.61,18.12,18.84-12.52,39.97-5.05,47.27-27.27Z"/>
    <path d="M189.78,288.08l-4.33-1.25c-8.31-2.4-14.34-11.27-13.94-20.52l1.05-24.27,22.72,6.55-1.58,36.4c-.1,2.23-1.92,3.66-3.92,3.08Z" class="cls-9"/>
    <path d="M162.41,240.34c3.18,14.68,12.26,21.65,12.26,21.65,2.29,1.84,4.91,2.94,7.64,3.22h0c9.3.94,17.68-7.75,18.78-19.49l1.5-16.01c.84-8.99-2.87-17.53-9.29-21.33h0l-6.41.21c-11.84,4.22-12.83,16.96-24.35,17.45h0l-.14,14.31Z" class="cls-13"/>
    <circle r="1.5" cy="256.75" cx="80.26" class="cls-8"/>
    <line y2="263.16" x2="79.54" y1="252.02" x1="93.63" class="cls-12"/>
    <line y2="365.58" x2="182.69" y1="289.48" x1="184.09" class="cls-3"/>
    <circle r="5.4" cy="231.57" cx="161.94" class="cls-15"/>
    <circle r="5.4" cy="232.43" cx="202.64" class="cls-15"/>
    <ellipse transform="translate(-59.8 53.71) rotate(-16.09)" ry="2.84" rx="2.92" cy="238.42" cx="160.12" class="cls-9"/>
    <path d="M205.3,213.3c3.31,5.74,3.21,12-.23,13.99s-8.91-1.06-12.23-6.8c-3.31-5.74-7.85-14.2-4.41-16.18,3.44-1.99,13.55,3.26,16.86,9Z"/>
    <path d="M161.71,228.95s-4.04.79-2.66,4.32" class="cls-4"/>
    <path d="M204.8,229.63s2.49,1.61.91,4.48" class="cls-4"/>
    <ellipse transform="translate(-58.29 65.94) rotate(-16.09)" ry="2.84" rx="2.92" cy="239.19" cx="204.15" class="cls-9"/>
    <polygon points="167.45 272.98 171.99 271.65 184.09 282.59 194.35 270.12 198.67 271.77 191.68 296.74 184.09 289.48 176.21 296.25 167.45 272.98" class="cls-12"/>
    <path d="M76.35,254.39l-2.6-12.19-20.8,2.13-11.44-9.23c-.85-.55-.72-1.94-.34-2.86h0c.84-2.04,2.71-.64,4.6.56l8.17,5.18,17.18-13.94-8.11-1.99c-1.53-.38-2.5-2.36-1.91-3.92h0c.28-.75.88-1.24,1.6-1.32l6.28-.67c8.67-.93,15.14,6.49,16.73,16.85l4,11.25-13.37,10.14Z" class="cls-7"/>
    <path d="M66.09,237.47l-9.37-10.42c-1.54-1.79-3.88-1.98-5.26-.44-.62.69-.57,1.93.11,2.74l8.59,10.22-10.24-10.73c-1.66-1.63-3.97-1.58-5.21.11-.56.77-.41,2,.33,2.75l9.07,8.71" class="cls-7"/>
    <path d="M73.75,227.99s-3.56-.26-3.89,5.09l-5.58,2.38" class="cls-2"/>
  </g>
  <g>
    <g>
      <path d="M385.66,345.33l-66.68-6.07,1.51-11.4,66.73,6.03c.47.04.81.34,1,.59.58.72.83,1.96.66,3.22l-.55,4.15c-.26,1.92-1.41,3.49-2.57,3.49h-.11Z" class="cls-16"/>
      <path d="M320.93,328.4l66.25,5.99c.24.02.46.16.66.41.49.62.71,1.71.56,2.85l-.55,4.15c-.24,1.8-1.28,3.05-2.07,3.05-.02,0-.04,0-.06,0l-66.16-6.02,1.38-10.41M320.06,327.31l-1.65,12.4,67.2,6.12c.05,0,.1,0,.15,0,1.42,0,2.77-1.71,3.06-3.92l.55-4.15c.3-2.29-.64-4.25-2.12-4.38l-67.21-6.07h0Z" class="cls-16"/>
    </g>
    <line y2="333.78" x2="323.7" y1="339.42" x1="383.23" class="cls-3"/>
    <path d="M387.39,333.37l-1.65,12.44,2.3.2c1.47.13,2.91-1.62,3.22-3.91l.55-4.15c.3-2.29-.64-4.25-2.12-4.38l-2.3-.2Z"/>
    <polygon points="313.46 336.04 314.26 329.97 307.97 332.49 313.46 336.04" class="cls-10"/>
    <polygon points="320.03 327.53 318.44 339.51 307.97 332.49 320.03 327.53" class="cls-3"/>
  </g>
  <path d="M354.01,346.62c-3.8-.14-7.58-.19-10.2-.71-7.48-1.47-9.75-2.43-8.68-4.69.95-2.02,18.68-.11,18.68-.11l-14.55-.92c-10.89-2.84-6-5.2-5.19-5.35,3.22-.63,19.69.02,19.69.02l-.35-3.04s-2.28,1.9-7.97,2.63c-5.69.73-5.03-2.4-3.78-2.9,2.31-.92,11.07-4.53,11.92-4.59s2.54-.58,4.19,1.43c1.65,2.02,5.24,8.54,5.16,16.23,0,0-3.22,57.14,13.39,49.46,16.61-7.68,26.55-21.37,26.55-21.37l20.57,13.3s-29.75,30.57-45.58,33.42c-23.6,4.24-26.01-12.78-30.67-30.01-2.85-10.53-3.38-43.5-3.38-43.5" class="cls-12"/>
  <path d="M498.51,388.45s16.51-1.96,18.94-3.72l15.91,50.27-17.78.28-17.07-46.83Z" class="cls-15"/>
  <path d="M498.28,388.45c2.55.61,19.18-1.14,20.24-5.1l-2.25-9.8-5.7-10.77c-7.67-10.02-32.61-16.86-43.34-10.53l-3.05,1.8-9.95-4.68c-4.24-7.19-15.69-2.29-23.63-.44-8.5,1.97-27.73,20.76-27.73,20.76,0,11.18,20.42,20.74,20.42,20.74l9.21-7.68-1.83,52.53h84.67l-17.07-46.83Z" class="cls-15"/>
  <path d="M498.28,388.45c2.55.61,19.18-1.14,20.24-5.1l-2.25-9.8-5.7-10.77c-7.67-10.02-32.61-16.86-43.34-10.53l-3.05,1.8-9.95-4.68c-4.24-7.19-15.69-2.29-23.63-.44-8.5,1.97-27.73,20.76-27.73,20.76,0,11.18,20.42,20.74,20.42,20.74l9.21-7.68-1.83,52.53h84.67l-17.07-46.83Z" class="cls-11"/>
  <path d="M474.97,301.44c-.69-.9-1.4-1.55-2.16-1.98-2.44-1.39-4.78-.23-7.04.89-2.16,1.07-4.21,2.08-6.29.9-4.73-2.75-11.33-12.07-8.91-25.36l.22-1.19-1.19-.13c-.17-.02-.35-.03-.54-.05h-.07s-.07,0-.07,0c-.77.05-1.83.15-2.89.25h-.08s-.08.03-.08.03c-2.8.72-36.43,59.6,4.65,56.12,0,0,.59,17.27.62,17.67,0,0-1.44,17.97,8.56,15.1s16.64-18.85,16.64-18.85l.18-19.24-6.04.72c-.03-.45-.12-.92-.31-1.42-.78-2.03-2.68-3.88-4.35-5.52-1.32-1.29-2.82-2.76-2.64-3.43.05-.18.34-.62,2.02-.94,5.53-1.05,9.18-4.84,10.33-8.13.73-2.08.53-4.01-.56-5.43Z" class="cls-12"/>
  <path d="M472.79,360.83s-15.08-12.1-12.33-20.32c2.75-8.21,11.15-10.45,9.22-15.44-1.93-4.99-11.46-9.31-4.59-10.62,7.85-1.49,12.33-8.95,9.47-12.69-5.11-6.67-10.08,3-15.33-.06-10.45-6.08-10.16-21.77-9.04-26.68.04-.16-4.51.31-4.51.31,0,0,1.59-9.14,6.01-7.62,4.42,1.51,2.03,4.06,11.59,3.25,9.55-.81,20.63.2,25.27,7.4,8.62,13.37-6.55,25.1,4.34,30.68,10.89,5.59,17.3,1.25,14.49,11.41-2.81,10.16,12.66,10.63,11.01,15.85-2.61,8.27-45.61,24.51-45.61,24.51Z"/>
  <ellipse transform="translate(-16.6 26.3) rotate(-3.34)" ry="5.35" rx="3.13" cy="297.37" cx="442.06" class="cls-12"/>
  <ellipse transform="translate(-16.5 25.81) rotate(-3.34)" ry="5.35" rx="3.13" cy="295.41" cx="433.75" class="cls-12"/>
  <line y2="297.31" x2="445.2" y1="300.09" x1="456.94" class="cls-12"/>
  <line y2="295.34" x2="436.89" y1="295.77" x1="439.01" class="cls-12"/>
  <polyline points="517.88 385.16 533.8 435.28 515.35 435.28" class="cls-3"/>
  <path d="M470.49,301.82s5.14,3.12,0,6.93" class="cls-3"/>
  <line y2="327.51" x2="351.9" y1="331.54" x1="341.67" class="cls-7"/>
  <path d="M341.92,329.05s-.65-2.15-.64-2.89c.03-2.08,3.89-4.26,7.03-1.71.88.72,2.02,3.63,2.02,3.63l-4.42,1.73-4-.77Z" class="cls-12"/>
</svg>