<?xml version="1.0" encoding="UTF-8"?>
<svg id="Capa_1" data-name="Capa 1" xmlns="http://www.w3.org/2000/svg" viewBox="0 0 566.93 566.93">
  <defs>
    <style>
      .cls-1 {
        stroke: #ffd008;
      }

      .cls-1, .cls-2 {
        fill: none;
      }

      .cls-1, .cls-2, .cls-3 {
        stroke-miterlimit: 10;
      }

      .cls-4 {
        fill: #fff;
        stroke-linecap: round;
        stroke-linejoin: round;
      }

      .cls-4, .cls-2, .cls-3 {
        stroke: #000;
      }

      .cls-5 {
        fill: #ffd008;
      }
    </style>
  </defs>
  <circle class="cls-3" cx="105.41" cy="265.47" r="6.27"/>
  <rect class="cls-3" x="389.67" y="247.97" width="17.79" height="17.79" transform="translate(496.98 -206.98) rotate(69.18)"/>
  <path class="cls-5" d="M239.93,179.59l-.04-.02c4.4-8.26,2.75-17.83-3.73-21.33-6.56-3.55-15.77.39-20.38,8.72h0c-2.71,4.39-7.72,6.33-11.25,4.3-3.52-2.03-4.36-7.31-1.94-11.86h.02c4.36-7.56,3.08-16.59-2.83-20l-3.76,5.97c3.3,1.9,4.02,6.93,1.6,11.16l.04.02c-4.53,8.19-3.08,17.84,3.3,21.51,6.47,3.72,15.7,0,20.45-8.26h0c2.62-4.54,7.68-6.67,11.3-4.71,3.58,1.93,4.52,7.17,2.18,11.75h-.02c-4.23,7.63-2.78,16.59,3.23,19.83l3.66-6.04c-3.35-1.81-4.17-6.8-1.83-11.07Z"/>
  <path class="cls-5" d="M399.01,206.97l.02-.04c7.75,4.39,16.9,3.05,20.39-3.03,3.54-6.16.01-15.02-7.8-19.61h0c-4.11-2.69-5.84-7.5-3.82-10.81s7.07-3.97,11.33-1.56v.02c7.09,4.33,15.72,3.34,19.1-2.21l-5.59-3.73c-1.89,3.1-6.7,3.66-10.66,1.26l-.02.04c-7.68-4.52-16.9-3.37-20.56,2.62-3.7,6.06-.38,14.94,7.36,19.67h0c4.26,2.59,6.15,7.46,4.2,10.86-1.93,3.36-6.94,4.13-11.24,1.79v-.02c-7.16-4.22-15.72-3.05-18.96,2.59l5.66,3.63c1.81-3.15,6.57-3.81,10.58-1.47Z"/>
  <path class="cls-2" d="M149.66,282.17s21.23,20.27,33.46-1.39c9.28-16.44-8.47-20.32-12.16-8.31-2.71,8.83,1.85,35.54,31.05,28.14"/>
  <path class="cls-2" d="M189.22,340.41s116.67-12.31,160.13,86.91"/>
  <path class="cls-2" d="M389.71,277.88s-36.58,40.3-12.58,105.81"/>
  <path class="cls-2" d="M362.95,179.44s-17.57,9.69-4.23,46.3"/>
  <circle class="cls-3" cx="480.36" cy="177.76" r="6.27"/>
  <circle class="cls-3" cx="312.44" cy="180.4" r="6.27"/>
  <rect class="cls-3" x="193.86" y="211.39" width="17.79" height="17.79" transform="translate(367.81 -29.5) rotate(76.08)"/>
  <path class="cls-2" d="M227.49,234.17s55.72,11.88,84,59.51"/>
  <circle class="cls-3" cx="332.71" cy="335.61" r="6.27"/>
  <g>
    <line class="cls-4" x1="382.12" y1="149.64" x2="371.4" y2="169.4"/>
    <line class="cls-4" x1="367.17" y1="153.81" x2="387.09" y2="164.61"/>
  </g>
  <line class="cls-4" x1="161.69" y1="320.38" x2="159.68" y2="342.78"/>
  <line class="cls-4" x1="149.62" y1="330.14" x2="172.2" y2="332.16"/>
  <path class="cls-5" d="M145.58,373.5l-.04-.03c-5.5,8.87-15.52,12.71-22.37,8.5-6.94-4.26-8.17-15.27-2.71-24.38h0c2.72-5.07,1.86-10.95-1.99-13.17-3.84-2.21-9.34-.03-12.37,4.85h.02c-4.86,8.45-14.18,12.34-20.63,8.62l3.66-6.97c3.6,2.07,8.79-.08,11.52-4.78l.04.03c5.36-8.96,15.35-13.03,22.32-9.02,7.06,4.06,8.5,14.98,3.19,24.19h0c-2.92,5.06-2.2,11.09,1.63,13.44,3.78,2.32,9.29.26,12.4-4.56h-.02c5-8.37,14.34-12.05,20.69-8.15l-3.78,6.91c-3.54-2.17-8.75-.13-11.55,4.52Z"/>
  <path class="cls-2" d="M312.88,147.43s14.77-25.37-9.14-32.22c-18.15-5.2-17.79,12.97-5.25,13.76,9.22.58,34.13-10.07,20.13-36.74"/>
  <g>
    <line class="cls-4" x1="148.27" y1="200.52" x2="137.55" y2="220.29"/>
    <line class="cls-4" x1="133.32" y1="204.69" x2="153.25" y2="215.5"/>
  </g>
  <circle class="cls-3" cx="208.27" cy="105.56" r="6.27"/>
  <polyline class="cls-1" points="237.9 313.37 255.79 301.89 255.79 320.98 271.9 311.43 274.23 331.58"/>
  <polyline class="cls-1" points="322.52 247.1 302.59 239.71 317.84 228.23 300.53 221.1 315.22 207.12"/>
  <polyline class="cls-1" points="444.27 280.98 440.57 301.92 426.54 288.96 422.63 307.27 406.25 295.32"/>
</svg>