<?xml version="1.0" encoding="UTF-8"?>
<svg id="Capa_1" data-name="Capa 1" xmlns="http://www.w3.org/2000/svg" viewBox="0 0 566.93 566.93">
  <defs>
    <style>
      .cls-1, .cls-2, .cls-3, .cls-4, .cls-5 {
        stroke-linejoin: round;
      }

      .cls-1, .cls-2, .cls-3, .cls-5 {
        stroke-linecap: round;
      }

      .cls-1, .cls-6, .cls-4, .cls-5, .cls-7 {
        fill: #fff;
      }

      .cls-1, .cls-3, .cls-8 {
        stroke: #000;
      }

      .cls-2 {
        stroke: #ffd008;
      }

      .cls-2, .cls-9 {
        fill: #ffd008;
      }

      .cls-6 {
        stroke: #1d1d1b;
      }

      .cls-6, .cls-7, .cls-8 {
        stroke-miterlimit: 10;
      }

      .cls-3, .cls-8 {
        fill: none;
      }

      .cls-4, .cls-5, .cls-7 {
        stroke: #020202;
      }
    </style>
  </defs>
  <path class="cls-5" d="M153.48,471.6h261.97s5.09-54.12-26.79-85.46c-29.06-28.58-75.53-39.95-117.32-36.57-33.04,2.68-93.53,5.19-114.11,60.72-10.86,29.3-3.75,61.3-3.75,61.3Z"/>
  <path class="cls-8" d="M346.46,288.89c7.68-23.42,18.08-63.42,3.53-93.84-22.02-46.04-99.08-73.98-136.16-16.93-42.1,64.78-12.29,80.36-26.78,101.5-14.5,21.13-43.31,3.05-50.46,34.59-9.69,42.74,29.22,83.3,79.14,50.12,52.11-34.63,110.57-13.96,130.74-75.43Z"/>
  <path d="M351.77,290.75c7.68-23.42,18.08-63.42,3.53-93.84-22.02-46.04-99.08-73.98-136.16-16.93-42.1,64.78-12.29,80.36-26.78,101.5-14.5,21.13-43.31,3.05-50.46,34.59-9.69,42.74,29.22,83.3,79.14,50.12,52.11-34.63,110.57-13.96,130.74-75.43Z"/>
  <path class="cls-7" d="M246.24,342.5l1.67-38.45h63.62l-3.91,90.12c-10.33,4.06-65.82,16.12-61.38-51.67Z"/>
  <path class="cls-4" d="M221.07,270.67c8.79,40.61,33.91,59.87,33.91,59.87,6.32,5.08,13.57,8.14,21.12,8.9h0c25.73,2.6,48.91-21.44,51.95-53.9l4.16-44.28c2.34-24.87-7.95-48.48-25.69-59h0l-17.72.58c-32.74,11.67-35.48,46.92-67.34,48.26h0l-.39,39.58Z"/>
  <ellipse class="cls-7" cx="216.16" cy="279.88" rx="8.08" ry="7.86" transform="translate(-69.1 70.86) rotate(-16.09)"/>
  <path d="M339.7,195.87c9.17,15.88,8.89,33.2-.62,38.69-9.51,5.49-24.65-2.93-33.82-18.8-9.17-15.88-21.71-39.28-12.2-44.77,9.51-5.49,37.47,9.01,46.64,24.88Z"/>
  <ellipse class="cls-7" cx="334.57" cy="279.88" rx="8.08" ry="7.86" transform="translate(-64.46 103.68) rotate(-16.09)"/>
  <polygon class="cls-1" points="231.81 356.19 246.18 349.93 279.09 385.24 309.58 346.14 323.59 351.71 306.2 421.9 279.65 401.14 254.86 424.93 231.81 356.19"/>
  <line class="cls-1" x1="279.64" y1="401.14" x2="279.64" y2="471.6"/>
  <path class="cls-2" d="M323.59,146.17h-9.4v163.33c-.49,7.01-5.23,10.87-12.66,11.51-7.43.64-13.91-4.07-14.46-10.52-.15-1.73.14-3.4.79-4.95l-9.42.46c-.62,2.14-.87,4.4-.67,6.72.97,11.21,11.99,19.42,24.63,18.33,12.36-1.07,21.65-10.64,21.15-21.55h.05v-163.33Z"/>
  <g>
    <path class="cls-6" d="M215.2,228.87s11.22-12.5,18.21-11.05c6.99,1.45,95.83-.12,95.83-.12,0,0,49.26,28.16,0,60.03,0,0-17.8,9.56-33.12-11.68-15.32-21.25-23.6-12.11-26.08-8.92s-23.39,31.42-44.29,19.32c-20.91-12.1-21.53-32.07-10.56-47.58Z"/>
    <g>
      <path class="cls-9" d="M238.72,282.97c-18.3,0-33.2-15.29-33.2-34.09s13.99-33.32,31.86-34.09h36.2c16.86,0,36.38-.14,43.73-.19,1.85-.01,3-.02,3.25-.02,18.3,0,33.2,15.29,33.2,34.09s-14.89,34.09-33.2,34.09c-12.57,0-22.48-6.19-30.3-18.91-3.01-5.23-6.48-7.89-10.29-7.89-6.27,0-11.13,7.29-11.17,7.37-8.89,13.77-17.89,19.65-30.08,19.65ZM240.39,218.78c-17.1.65-30.49,13.43-30.49,29.09s14.25,29.09,31.77,29.09c10.9,0,20.05-11.72,24.45-17.36.76-.97,1.35-1.73,1.79-2.22.22-.27,5.01-6.09,11.79-6.09,4.33,0,8.57,2.36,12.59,7.01.87,1.14,1.71,2.25,2.5,3.29,7.64,10.11,11.48,15.18,22.82,15.18,17.52,0,31.77-13.05,31.77-29.09s-14.25-29.09-31.77-29.09c-.23,0-1.3,0-3.02.02-6.82.04-24.93.16-40.57.16h-33.61s-.01,0-.02,0Z"/>
      <path class="cls-9" d="M320.56,215.08c18.03,0,32.7,15.07,32.7,33.59s-14.67,33.59-32.7,33.59c-12.38,0-22.15-6.11-29.86-18.65-3.12-5.41-6.73-8.15-10.73-8.15-6.6,0-11.56,7.54-11.58,7.58-8.8,13.63-17.67,19.44-29.67,19.44-18.03,0-32.7-15.07-32.7-33.59s13.78-32.84,31.34-33.59h36.22c16.86,0,36.39-.14,43.74-.19,1.85-.01,3-.02,3.24-.02M241.67,277.45c11.14,0,20.4-11.86,24.84-17.55.75-.96,1.34-1.72,1.76-2.19.01-.01.03-.03.04-.04.19-.24,4.84-5.88,11.39-5.88,4.17,0,8.27,2.29,12.19,6.81.88,1.15,1.71,2.25,2.5,3.29,7.74,10.24,11.63,15.38,23.22,15.38,17.79,0,32.27-13.27,32.27-29.59s-14.47-29.59-32.27-29.59c-.23,0-1.3,0-3.02.02-6.82.04-24.93.16-40.57.16h-33.64c-17.37.66-30.97,13.66-30.97,29.59s14.47,29.59,32.27,29.59M320.56,214.08c-1.25,0-26,.21-46.98.21h-36.22c-17.98.77-32.34,15.95-32.34,34.59s15.09,34.59,33.7,34.59c13.49,0,22.4-7.34,30.51-19.9.01-.02,4.73-7.12,10.74-7.12,3.1,0,6.55,1.9,9.87,7.65,7.58,12.35,17.53,19.15,30.73,19.15,18.61,0,33.7-15.48,33.7-34.59s-15.09-34.59-33.7-34.59h0ZM241.67,276.45c-17.27,0-31.27-12.8-31.27-28.59s13.32-27.95,30.01-28.59h33.61c19.47,0,42.43-.18,43.59-.18,17.27,0,31.27,12.8,31.27,28.59s-14,28.59-31.27,28.59c-12.24,0-15.43-5.89-24.95-18.31-4.68-5.41-9.14-7.18-12.96-7.18-7.19,0-12.15,6.24-12.17,6.25-2.99,3.34-13.34,19.41-25.86,19.41h0Z"/>
    </g>
  </g>
  <rect class="cls-5" x="310.89" y="130.98" width="15.9" height="17.04"/>
  <rect class="cls-5" x="272.31" y="299.68" width="20.6" height="8.73"/>
  <path class="cls-3" d="M235.59,225.95s-25.18,5.07-15.44,32.3"/>
  <circle class="cls-3" cx="310.48" cy="103.63" r="5.55"/>
  <circle class="cls-3" cx="337.57" cy="77.62" r="13.57"/>
</svg>