<?xml version="1.0" encoding="UTF-8"?>
<svg id="Capa_1" data-name="Capa 1" xmlns="http://www.w3.org/2000/svg" viewBox="0 0 566.93 566.93">
  <defs>
    <style>
      .cls-1 {
        stroke: #fff;
        stroke-miterlimit: 10;
      }

      .cls-1, .cls-2 {
        fill: none;
      }

      .cls-2, .cls-3 {
        stroke: #1d1d1b;
        stroke-linecap: round;
        stroke-linejoin: round;
      }

      .cls-4 {
        fill: #ffd008;
      }

      .cls-3 {
        fill: #fff;
      }
    </style>
  </defs>
  <polygon class="cls-3" points="414.8 457.89 176.23 457.89 176.23 139.62 387.65 139.62 414.8 139.62 414.8 457.89"/>
  <g>
    <polygon class="cls-4" points="132.62 411.11 132.62 93.84 343.31 93.84 370.19 125.29 370.19 411.11 132.62 411.11"/>
    <path class="cls-4" d="M343.08,94.34l26.61,31.13v285.14h-236.57V94.34h209.96M343.54,93.34h-211.42v318.27h238.57V125.1l-27.15-31.76h0Z"/>
  </g>
  <rect class="cls-2" x="183.7" y="146.19" width="136.99" height="40.83"/>
  <line class="cls-2" x1="183.7" y1="234.01" x2="320.69" y2="234.01"/>
  <line class="cls-2" x1="183.7" y1="271.33" x2="320.69" y2="271.33"/>
  <line class="cls-2" x1="183.7" y1="309.53" x2="320.69" y2="309.53"/>
  <polyline class="cls-1" points="343.54 93.34 343.54 124.79 370.69 125.1"/>
  <line class="cls-2" x1="372.89" y1="18.5" x2="354.89" y2="67.25"/>
  <line class="cls-2" x1="414.95" y1="89.15" x2="456.2" y2="48.66"/>
  <line class="cls-2" x1="442.5" y1="140.71" x2="498.91" y2="137.66"/>
</svg>