<svg viewBox="0 107.71669999999999 299.33904 285.73272" xmlns:xlink="http://www.w3.org/1999/xlink" xmlns="http://www.w3.org/2000/svg" data-name="Capa 1" id="Capa_1" style="max-height: 500px" width="299.33904" height="285.73272">
  <defs>
    <style>
      .cls-1, .cls-2, .cls-3, .cls-4, .cls-5, .cls-6 {
        fill: none;
      }

      .cls-2, .cls-7, .cls-8, .cls-9, .cls-5, .cls-10 {
        stroke-miterlimit: 10;
      }

      .cls-2, .cls-4 {
        stroke: #080717;
      }

      .cls-11 {
        fill: url(#lunares);
      }

      .cls-11, .cls-12, .cls-3, .cls-13, .cls-4, .cls-6, .cls-14 {
        stroke-linejoin: round;
      }

      .cls-11, .cls-12, .cls-3, .cls-8, .cls-5, .cls-10 {
        stroke: #000;
      }

      .cls-11, .cls-12, .cls-3, .cls-4, .cls-6, .cls-14 {
        stroke-linecap: round;
      }

      .cls-12, .cls-7, .cls-13, .cls-8, .cls-15, .cls-9 {
        fill: #fff;
      }

      .cls-7 {
        stroke: #1d1d1b;
      }

      .cls-13, .cls-9 {
        stroke: #020202;
      }

      .cls-6, .cls-14 {
        stroke: #fff;
      }

      .cls-14, .cls-16 {
        fill: #ffd008;
      }
    </style>
    <pattern viewBox="0 0 28.35 28.35" patternUnits="userSpaceOnUse" patternTransform="translate(6828.49 3200.54)" height="28.35" width="28.35" y="0" x="0" id="lunares">
      <g>
        <rect height="28.35" width="28.35" y="0" class="cls-1"/>
        <circle r="5.02" cy="0" cx="21.26"/>
        <circle r="5.02" cy="0" cx="7.09"/>
        <circle r="5.02" cy="14.17" cx="28.35"/>
        <circle r="5.02" cy="14.17" cx="14.17"/>
        <circle r="5.02" cy="14.17" cx="0"/>
        <circle r="5.02" cy="28.35" cx="21.26"/>
        <circle r="5.02" cy="28.35" cx="7.09"/>
      </g>
    </pattern>
  </defs>
  <g>
    <path d="M267.92,153.27c-3.01-11.3-15.13-18.22-27.88-15.26-12.75,2.97-20.93,14.61-18.28,26,3.04,13.09,16.35,15.52,16.35,15.52l1.49,6.41,22-5.12-1.49-6.41s11.11-8.79,7.82-21.14Z" class="cls-3"/>
    <rect transform="translate(-36.06 61.92) rotate(-13.1)" height="3.29" width="22.59" y="186.37" x="240.38" class="cls-3"/>
    <line y2="158.56" x2="250.05" y1="160.91" x1="239.95" class="cls-3"/>
    <line y2="182.73" x2="250.54" y1="160.28" x1="245.18" class="cls-3"/>
    <path d="M228.43,158.68s-1.66-7.84,7.33-11.78" class="cls-3"/>
  </g>
  <g>
    <polygon points="250.31 267.19 250.31 237.01 276.55 237.01 282.2 241.02 282.2 267.19 250.31 267.19" class="cls-16"/>
    <path d="M276.39,237.51l5.31,3.77v25.41h-30.89v-29.18h25.58M276.71,236.51h-26.9v31.18h32.89v-26.93l-5.99-4.25h0Z" class="cls-15"/>
  </g>
  <polygon points="282.17 241.1 276.47 241.16 276.47 237.02 282.17 241.1" class="cls-14"/>
  <g>
    <g>
      <polygon points="302.93 193.3 314.71 165.51 338.19 175.47 341.68 181.3 331.46 205.4 302.93 193.3" class="cls-16"/>
      <path d="M314.98,166.17l22.87,9.7,3.28,5.47-9.93,23.4-27.61-11.71,11.39-26.86M314.45,164.86l-12.17,28.7,29.45,12.49,10.51-24.79-3.71-6.19-24.09-10.22h0Z" class="cls-15"/>
    </g>
    <polygon points="341.68 181.03 336.38 179.73 338.35 175.49 341.68 181.03" class="cls-14"/>
  </g>
  <g>
    <g>
      <polygon points="357.74 243.14 352.3 239.07 352.58 212.9 383.57 213.24 383.24 243.42 357.74 243.14" class="cls-16"/>
      <path d="M353.08,213.41l29.99.33-.32,29.18-24.83-.27-5.11-3.82.28-25.42M352.09,212.39l-.29,26.93,5.78,4.31,26.16.29.34-31.18-31.99-.35h0Z" class="cls-15"/>
    </g>
    <polygon points="352.37 239.13 357.76 238.98 357.76 243.04 352.37 239.13" class="cls-14"/>
  </g>
  <g>
    <polygon points="242.62 354.33 237.68 328.63 267.98 322.8 273.67 352.44 248.74 357.23 242.62 354.33" class="cls-16"/>
    <path d="M267.58,323.39l5.51,28.66-24.28,4.66-5.75-2.72-4.8-24.96,29.32-5.63M268.38,322.22l-31.28,6.01,5.08,26.45,6.5,3.08,25.58-4.92-5.88-30.62h0Z" class="cls-15"/>
  </g>
  <polyline points="248.68 356.92 247.86 353.13 242.54 354" class="cls-6"/>
  <g>
    <polygon points="267.09 330.58 261.72 326.29 263.05 300.15 294.48 301.75 292.95 331.89 267.09 330.58" class="cls-16"/>
    <path d="M263.52,300.68l30.43,1.55-1.48,29.14-25.2-1.28-5.04-4.03,1.29-25.38M262.58,299.63l-1.37,26.89,5.69,4.55,26.52,1.35,1.58-31.14-32.43-1.65h0Z" class="cls-15"/>
  </g>
  <polyline points="268.56 330.17 268.78 325.86 262.19 325.59" class="cls-6"/>
  <line y2="144.02" x2="211.3" y1="140.72" x1="196.44" class="cls-3"/>
  <line y2="129.16" x2="233.48" y1="114.06" x1="229.47" class="cls-3"/>
  <line y2="129.16" x2="260.38" y1="115" x1="268.53" class="cls-3"/>
  <g>
    <path d="M189.39,252.46c2.78-8.47,6.54-22.93,1.27-33.93-7.96-16.64-35.82-26.75-49.23-6.12-15.22,23.42-4.44,29.05-9.68,36.69-5.24,7.64-15.66,1.1-18.24,12.5-3.5,15.45,10.56,30.12,28.61,18.12,18.84-12.52,39.97-5.05,47.27-27.27Z" class="cls-5"/>
    <path d="M71.55,249.78s18.24,39.18,32.02,43.02c21.48,5.99,40.64-15.41,40.64-15.41,3.06-1.26,5.85-2.2,8.4-2.87,4.51-1.36,9.95-2.37,14.84-1.53,7.25,1.24,57.37,12.93,57.7,98.12l-21.04-.38s-.27-37.46-12.61-49.67c-5.21-5.15,0,50.04,0,50.04h-59.15c-.85-9.14-3.27-56.01-3.27-56.01-21.61,6.76-37.42.35-42.11-3.4-15.74-12.6-28.99-51.78-28.99-51.78l13.56-10.14Z" class="cls-12"/>
    <path d="M191.31,253.13c2.78-8.47,6.54-22.93,1.27-33.93-7.96-16.64-35.82-26.75-49.23-6.12-15.22,23.42-4.44,29.05-9.68,36.69-5.24,7.64-15.66,1.1-18.24,12.5-3.5,15.45,10.56,30.12,28.61,18.12,18.84-12.52,39.97-5.05,47.27-27.27Z"/>
    <path d="M171.42,293.6l-4.33-1.25c-8.31-2.4-14.34-11.27-13.94-20.52l1.05-24.27,22.72,6.55-1.58,36.4c-.1,2.23-1.92,3.66-3.92,3.08Z" class="cls-9"/>
    <path d="M144.06,245.87c3.18,14.68,12.26,21.65,12.26,21.65,2.29,1.84,4.91,2.94,7.64,3.22h0c9.3.94,17.68-7.75,18.78-19.49l1.5-16.01c.84-8.99-2.87-17.53-9.29-21.33h0l-6.41.21c-11.84,4.22-12.83,16.96-24.35,17.45h0l-.14,14.31Z" class="cls-13"/>
    <circle r="1.5" cy="262.28" cx="61.9" class="cls-8"/>
    <line y2="268.69" x2="61.19" y1="257.55" x1="75.27" class="cls-12"/>
    <line y2="371.11" x2="164.33" y1="295.01" x1="165.73" class="cls-3"/>
    <circle r="5.4" cy="237.1" cx="143.59" class="cls-15"/>
    <circle r="5.4" cy="237.96" cx="184.28" class="cls-15"/>
    <ellipse transform="translate(-62.05 48.84) rotate(-16.09)" ry="2.84" rx="2.92" cy="243.95" cx="141.76" class="cls-9"/>
    <path d="M186.95,218.83c3.31,5.74,3.21,12-.23,13.99s-8.91-1.06-12.23-6.8c-3.31-5.74-7.85-14.2-4.41-16.18,3.44-1.99,13.55,3.26,16.86,9Z"/>
    <path d="M143.36,234.48s-4.04.79-2.66,4.32" class="cls-4"/>
    <path d="M186.44,235.16s2.49,1.61.91,4.48" class="cls-4"/>
    <ellipse transform="translate(-60.54 61.07) rotate(-16.09)" ry="2.84" rx="2.92" cy="244.72" cx="185.79" class="cls-9"/>
    <polygon points="149.09 278.51 153.63 277.18 165.73 288.12 175.99 275.65 180.31 277.3 173.32 302.27 165.73 295.01 157.86 301.78 149.09 278.51" class="cls-12"/>
    <path d="M57.99,259.92l-2.6-12.19-20.8,2.13-11.44-9.23c-.85-.55-.72-1.94-.34-2.86h0c.84-2.04,2.71-.64,4.6.56l8.17,5.18,17.18-13.94-8.11-1.99c-1.53-.38-2.5-2.36-1.91-3.92h0c.28-.75.88-1.24,1.6-1.32l6.28-.67c8.67-.93,15.14,6.49,16.73,16.85l4,11.25-13.37,10.14Z" class="cls-7"/>
    <path d="M47.74,243l-9.37-10.42c-1.54-1.79-3.88-1.98-5.26-.44-.62.69-.57,1.93.11,2.74l8.59,10.22-10.24-10.73c-1.66-1.63-3.97-1.58-5.21.11-.56.77-.41,2,.33,2.75l9.07,8.71" class="cls-7"/>
    <path d="M55.4,233.52s-3.56-.26-3.89,5.09l-5.58,2.38" class="cls-2"/>
  </g>
  <g>
    <g>
      <path d="M384.29,282.87l-66.68-6.07,1.51-11.4,66.73,6.03c.47.04.81.34,1,.59.58.72.83,1.96.66,3.22l-.55,4.15c-.26,1.92-1.41,3.49-2.57,3.49h-.11Z" class="cls-16"/>
      <path d="M319.56,265.94l66.25,5.99c.24.02.46.16.66.41.49.62.71,1.71.56,2.85l-.55,4.15c-.24,1.8-1.28,3.05-2.07,3.05-.02,0-.04,0-.06,0l-66.16-6.02,1.38-10.41M318.69,264.86l-1.65,12.4,67.2,6.12c.05,0,.1,0,.15,0,1.42,0,2.77-1.71,3.06-3.92l.55-4.15c.3-2.29-.64-4.25-2.12-4.38l-67.21-6.07h0Z" class="cls-16"/>
    </g>
    <line y2="271.33" x2="322.33" y1="276.97" x1="381.85" class="cls-3"/>
    <path d="M386.02,270.91l-1.65,12.44,2.3.2c1.47.13,2.91-1.62,3.22-3.91l.55-4.15c.3-2.29-.64-4.25-2.12-4.38l-2.3-.2Z"/>
    <polygon points="312.08 273.58 312.89 267.51 306.6 270.03 312.08 273.58" class="cls-10"/>
    <polygon points="318.66 265.08 317.07 277.06 306.6 270.03 318.66 265.08" class="cls-3"/>
  </g>
  <path d="M352.64,284.17c-3.8-.14-7.58-.19-10.2-.71-7.48-1.47-9.75-2.43-8.68-4.69.95-2.02,18.68-.11,18.68-.11l-14.55-.92c-10.89-2.84-6-5.2-5.19-5.35,3.22-.63,19.69.02,19.69.02l-.35-3.04s-2.28,1.9-7.97,2.63c-5.69.73-5.03-2.4-3.78-2.9,2.31-.92,11.07-4.53,11.92-4.59s2.54-.58,4.19,1.43c1.65,2.02,5.24,8.54,5.16,16.23,0,0-3.22,57.14,13.39,49.46,16.61-7.68,26.55-21.37,26.55-21.37l20.57,13.3s-29.75,30.57-45.58,33.42c-23.6,4.24-26.01-12.78-30.67-30.01-2.85-10.53-3.38-43.5-3.38-43.5" class="cls-12"/>
  <path d="M497.14,325.99s16.51-1.96,18.94-3.72l15.91,50.27-17.78.28-17.07-46.83Z" class="cls-15"/>
  <path d="M496.91,325.99c2.55.61,19.18-1.14,20.24-5.1l-2.25-9.8-5.7-10.77c-7.67-10.02-32.61-16.86-43.34-10.53l-3.05,1.8-9.95-4.68c-4.24-7.19-15.69-2.29-23.63-.44-8.5,1.97-27.73,20.76-27.73,20.76,0,11.18,20.42,20.74,20.42,20.74l9.21-7.68-1.83,52.53h84.67l-17.07-46.83Z" class="cls-15"/>
  <path d="M496.91,325.99c2.55.61,19.18-1.14,20.24-5.1l-2.25-9.8-5.7-10.77c-7.67-10.02-32.61-16.86-43.34-10.53l-3.05,1.8-9.95-4.68c-4.24-7.19-15.69-2.29-23.63-.44-8.5,1.97-27.73,20.76-27.73,20.76,0,11.18,20.42,20.74,20.42,20.74l9.21-7.68-1.83,52.53h84.67l-17.07-46.83Z" class="cls-11"/>
  <path d="M473.6,238.98c-.69-.9-1.4-1.55-2.16-1.98-2.44-1.39-4.78-.23-7.04.89-2.16,1.07-4.21,2.08-6.29.9-4.73-2.75-11.33-12.07-8.91-25.36l.22-1.19-1.19-.13c-.17-.02-.35-.03-.54-.05h-.07s-.07,0-.07,0c-.77.05-1.83.15-2.89.25h-.08s-.08.03-.08.03c-2.8.72-36.43,59.6,4.65,56.12,0,0,.59,17.27.62,17.67,0,0-1.44,17.97,8.56,15.1s16.64-18.85,16.64-18.85l.18-19.24-6.04.72c-.03-.45-.12-.92-.31-1.42-.78-2.03-2.68-3.88-4.35-5.52-1.32-1.29-2.82-2.76-2.64-3.43.05-.18.34-.62,2.02-.94,5.53-1.05,9.18-4.84,10.33-8.13.73-2.08.53-4.01-.56-5.43Z" class="cls-12"/>
  <path d="M471.41,298.37s-15.08-12.1-12.33-20.32c2.75-8.21,11.15-10.45,9.22-15.44-1.93-4.99-11.46-9.31-4.59-10.62,7.85-1.49,12.33-8.95,9.47-12.69-5.11-6.67-10.08,3-15.33-.06-10.45-6.08-10.16-21.77-9.04-26.68.04-.16-4.51.31-4.51.31,0,0,1.59-9.14,6.01-7.62,4.42,1.51,2.03,4.06,11.59,3.25,9.55-.81,20.63.2,25.27,7.4,8.62,13.37-6.55,25.1,4.34,30.68,10.89,5.59,17.3,1.25,14.49,11.41-2.81,10.16,12.66,10.63,11.01,15.85-2.61,8.27-45.61,24.51-45.61,24.51Z"/>
  <ellipse transform="translate(-12.95 26.11) rotate(-3.34)" ry="5.35" rx="3.13" cy="234.91" cx="440.69" class="cls-12"/>
  <ellipse transform="translate(-12.85 25.62) rotate(-3.34)" ry="5.35" rx="3.13" cy="232.95" cx="432.38" class="cls-12"/>
  <line y2="234.85" x2="443.82" y1="237.63" x1="455.57" class="cls-12"/>
  <line y2="232.88" x2="435.51" y1="233.31" x1="437.64" class="cls-12"/>
  <polyline points="516.51 322.7 532.43 372.83 513.98 372.83" class="cls-3"/>
  <path d="M469.12,239.36s5.14,3.12,0,6.93" class="cls-3"/>
  <line y2="265.05" x2="350.53" y1="269.09" x1="340.3" class="cls-7"/>
  <path d="M340.55,266.59s-.65-2.15-.64-2.89c.03-2.08,3.89-4.26,7.03-1.71.88.72,2.02,3.63,2.02,3.63l-4.42,1.73-4-.77Z" class="cls-12"/>
</svg>