<?xml version="1.0" encoding="UTF-8"?>
<svg id="Capa_1" data-name="Capa 1" xmlns="http://www.w3.org/2000/svg" viewBox="0 0 566.93 566.93">
  <defs>
    <style>
      .cls-1 {
        fill: none;
        stroke: #000;
        stroke-linecap: round;
        stroke-linejoin: round;
      }

      .cls-2 {
        fill: #ffd008;
      }
    </style>
  </defs>
  <path class="cls-2" d="M423.95,94.94s-50.3.47-61.37,31.18c-3.69,10.23-.84,22.88-.84,22.88,0,0,22.37,15.39,42.95-2.6,12.87-11.26,19.27-51.47,19.27-51.47Z"/>
  <path class="cls-2" d="M267.44,125.04s-8.49,53.32,22.03,70.52c10.16,5.73,24.07,4.98,24.07,4.98,0,0,20.29-20.93,4.92-45.92-9.61-15.64-51.02-29.58-51.02-29.58Z"/>
  <path class="cls-2" d="M428.83,200.34s-43.11-32.5-72.62-13.6c-9.82,6.29-15.68,18.92-15.68,18.92,0,0,8.97,27.73,38.25,25.88,18.32-1.16,50.05-31.2,50.05-31.2Z"/>
  <path class="cls-2" d="M209.17,180.83s-.76,71.52,42.59,88.13c14.43,5.53,32.51,1.85,32.51,1.85,0,0,22.52-31.37-2.48-61.13-15.64-18.62-72.62-28.85-72.62-28.85Z"/>
  <path class="cls-2" d="M425.99,276.49s-55.26-45.41-95.37-22.03c-13.35,7.78-21.81,24.18-21.81,24.18,0,0,10.37,38.2,49.2,36.37,29.39-1.38,70.43-38.94,67.98-38.52Z"/>
  <path class="cls-2" d="M415.79,392.69s-60.88-78.72-117.34-60.81c-18.79,5.96-33.19,25.01-33.19,25.01,0,0,5.14,52.97,55.08,64.68,31.25,7.33,95.44-28.88,95.44-28.88Z"/>
  <path class="cls-2" d="M125.75,251.55s21.81,97.1,80.53,104.78c19.55,2.56,40.66-8.59,40.66-8.59,0,0,17.78-50.16-22.5-81.92-25.2-19.87-98.69-14.27-98.69-14.27Z"/>
  <path class="cls-1" d="M392.32,117.11s-74.08,58.62-98.74,167.64c-6.52,28.83-23.04,53.55-43.82,72.83-32.23,29.91-74.74,46.76-106.17,45.62"/>
  <path class="cls-1" d="M289.5,162.8s27.7,26.67,27.45,54.8c0,0,29.75-23.04,72.49-17.03"/>
  <path class="cls-1" d="M263.47,238.39s27.7,26.67,27.45,54.8c0,0,16.81-26.76,74.22-23.09"/>
  <path class="cls-1" d="M190.07,293.19c61.31,42.63,59.69,64.39,59.69,64.39,0,0,35.4-7.89,99.35,15.46"/>
</svg>