<?xml version="1.0" encoding="UTF-8"?>
<svg id="Capa_1" data-name="Capa 1" xmlns="http://www.w3.org/2000/svg" viewBox="0 0 566.93 566.93">
  <defs>
    <style>
      .cls-1 {
        fill: #008cf4;
        stroke: #008cf4;
      }

      .cls-1, .cls-2 {
        stroke-linecap: round;
        stroke-linejoin: round;
      }

      .cls-2 {
        fill: none;
        stroke: #000;
      }
    </style>
  </defs>
  <path class="cls-2" d="M139.08,244.1c-32,27.53-52.21,67.95-52.21,113.01,0,82.94,68.46,150.18,152.91,150.18,22.99,0,44.79-4.98,64.35-13.9"/>
  <path class="cls-2" d="M298.57,72.74c17.19-8.22,36.31-12.89,56.48-13.1,76.32-.79,138.86,62.58,139.68,141.55.41,39.43-14.64,75.29-39.32,101.42"/>
  <polyline class="cls-2" points="100.76 252.8 139.08 244.1 141.12 276.12"/>
  <polyline class="cls-2" points="489.31 300.99 455.24 302.61 458.86 273.77"/>
  <path class="cls-1" d="M143.67,348.98l-.09,33.53,20.07-.04c2.04,8.4,5.57,16.25,10.34,23.32l-14.25,13.27,25.38,23.65,14.25-13.27c7.59,4.45,16.02,7.75,25.04,9.64l-.05,18.7,35.99-.08.05-18.7c9.03-1.93,17.48-5.27,25.09-9.75l14.17,13.21,25.51-23.76-14.17-13.21c4.81-7.09,8.39-14.96,10.47-23.36l20.07-.04.09-33.53-20.07.04c-2.03-8.4-5.57-16.25-10.34-23.32l14.25-13.27-25.38-23.65-14.25,13.27c-7.59-4.44-16.02-7.76-25.04-9.64l.05-18.7-35.99.08-.05,18.7c-9.03,1.93-17.48,5.28-25.09,9.75l-14.17-13.21-25.51,23.76,14.17,13.21c-4.81,7.09-8.38,14.96-10.47,23.37l-20.07.04ZM242.68,340.39c14.91-.03,26.96,11.2,26.93,25.09-.04,13.89-12.16,25.17-27.07,25.2-14.91.03-26.96-11.2-26.93-25.09.04-13.89,12.16-25.17,27.07-25.2Z"/>
  <path class="cls-1" d="M253.08,189.14l-.09,33.53,20.07-.04c2.04,8.4,5.57,16.25,10.34,23.32l-14.25,13.27,25.38,23.65,14.25-13.27c7.59,4.45,16.02,7.75,25.04,9.64l-.05,18.7,35.99-.08.05-18.7c9.03-1.93,17.48-5.27,25.09-9.75l14.17,13.21,25.51-23.76-14.17-13.21c4.81-7.09,8.39-14.96,10.47-23.36l20.07-.04.09-33.53-20.07.04c-2.03-8.4-5.57-16.25-10.34-23.32l14.25-13.27-25.38-23.65-14.25,13.27c-7.59-4.44-16.02-7.76-25.04-9.64l.05-18.7-35.99.08-.05,18.7c-9.03,1.93-17.48,5.28-25.09,9.75l-14.17-13.21-25.51,23.76,14.17,13.21c-4.81,7.09-8.38,14.96-10.47,23.37l-20.07.04ZM352.09,180.55c14.91-.03,26.96,11.2,26.93,25.09-.04,13.89-12.16,25.17-27.07,25.2-14.91.03-26.96-11.2-26.93-25.09.04-13.89,12.16-25.17,27.07-25.2Z"/>
</svg>