<?xml version="1.0" encoding="UTF-8"?>
<svg id="Capa_1" data-name="Capa 1" xmlns="http://www.w3.org/2000/svg" viewBox="0 0 566.93 566.93">
  <defs>
    <style>
      .cls-1 {
        fill: #008cf4;
      }

      .cls-1, .cls-2 {
        stroke: #010202;
      }

      .cls-1, .cls-2, .cls-3 {
        stroke-linecap: round;
        stroke-linejoin: round;
      }

      .cls-2 {
        fill: none;
      }

      .cls-3 {
        fill: #fff;
        stroke: #1d1d1b;
      }
    </style>
  </defs>
  <g>
    <polygon class="cls-1" points="427.8 364.21 287.95 444.95 148.1 364.21 148.1 202.72 287.95 121.98 427.8 202.72 427.8 364.21"/>
    <polyline class="cls-2" points="148.1 202.72 287.95 276.04 427.8 202.72"/>
    <line class="cls-2" x1="287.95" y1="444.95" x2="287.95" y2="276.04"/>
  </g>
  <g>
    <path class="cls-3" d="M117.26,195.67l-28.29-24.2c-9.76-7.13-6.79-8.73-14.37,1.56l-24.55,30.66c-7.4,8.87-7.53,6.42,1.88,14.04l29.68,25.27c1.4,12.42,8.28,23.67,19.21,30.01.52.66,1.12,1.28,1.83,1.82l46.91,36.02c4.49,3.45,10.92,2.75,14.37-1.56,3.45-4.31,2.61-10.59-1.88-14.04l-26.37-20.24c.09-.04.19-.07.28-.11l42.26,32.44c4.49,3.45,10.92,2.75,14.37-1.56,3.45-4.31,2.61-10.59-1.88-14.04l-38.35-29.44c.05-.07.11-.14.16-.21l44.19,33.92c4.49,3.45,10.92,2.75,14.37-1.56h0c3.45-4.31,2.61-10.59-1.88-14.04l-48.13-36.95h0l42.29,32.47c4.49,3.45,10.92,2.75,14.37-1.56,3.45-4.31,2.61-10.59-1.88-14.04l-31.53-24.2c3.24.92,6.85.29,9.54-2h0c4.22-3.6,4.58-9.91.81-14.09l-18.05-20c-2.04-2.26-4.87-3.43-7.71-3.46-.85-.27-1.73-.44-2.66-.48l-27.06-1.31-21.95.89ZM177.27,230.7l-9.25-6.84c2.84-1.45,1.57-.6,2.25-.92l7,7.76Z"/>
    <line class="cls-3" x1="177.27" y1="230.7" x2="184.34" y2="236.12"/>
  </g>
  <g>
    <path class="cls-3" d="M426.56,194.43l-26.79,4.06c-.92.14-1.78.4-2.6.75-2.82.32-5.52,1.77-7.32,4.23l-15.92,21.73c-3.33,4.54-2.33,10.78,2.24,13.93h0c2.91,2.01,6.56,2.27,9.69,1.02l-28.9,27.29c-4.11,3.88-4.31,10.22-.44,14.16,3.87,3.93,10.34,3.97,14.46.09l38.76-36.61h0l-44.11,41.66c-4.11,3.88-4.31,10.22-.44,14.16h0c3.87,3.93,10.34,3.97,14.46.09l40.5-38.25c.06.06.12.13.18.19l-35.15,33.2c-4.11,3.88-4.31,10.22-.44,14.16,3.87,3.93,10.34,3.97,14.46.09l38.73-36.58c.1.03.19.06.29.08l-24.17,22.82c-4.11,3.88-4.31,10.22-.44,14.16,3.87,3.93,10.34,3.97,14.46.09l43-40.61c.64-.61,1.18-1.28,1.63-1.99,10.23-7.42,15.92-19.32,16.05-31.81l26.95-28.17c8.58-8.54,8.71-6.09.44-14.16l-27.55-28c-8.59-9.47-5.48-8.18-14.46-.09l-25.67,26.96-21.93,1.35ZM398.53,225.61c.71.25-.63-.47,2.33.68l-8.51,7.75,6.17-8.43Z"/>
    <line class="cls-3" x1="392.36" y1="234.04" x2="385.87" y2="240.16"/>
  </g>
</svg>