<?xml version="1.0" encoding="UTF-8"?>
<svg id="Capa_1" data-name="Capa 1" xmlns="http://www.w3.org/2000/svg" viewBox="0 0 566.93 566.93">
  <defs>
    <style>
      .cls-1 {
        fill: #008cf4;
      }

      .cls-1, .cls-2 {
        stroke: #010202;
      }

      .cls-1, .cls-2, .cls-3, .cls-4, .cls-5 {
        stroke-linecap: round;
        stroke-linejoin: round;
      }

      .cls-2, .cls-3, .cls-4 {
        fill: none;
      }

      .cls-3 {
        stroke: #000;
      }

      .cls-4, .cls-5 {
        stroke: #1d1d1b;
      }

      .cls-5 {
        fill: #fff;
      }
    </style>
  </defs>
  <line class="cls-2" x1="353.4" y1="285.84" x2="353.4" y2="345.41"/>
  <polyline class="cls-3" points="86.54 385.46 288.9 304.64 288.82 88.99"/>
  <line class="cls-4" x1="501.81" y1="396.26" x2="288.9" y2="304.64"/>
  <polygon class="cls-5" points="219.18 226.93 131.27 256.62 131.27 166.65 219.18 140.24 219.18 226.93"/>
  <polygon class="cls-1" points="440.48 354.23 313.91 299.86 352.3 284.53 476.8 338.11 440.48 354.23"/>
  <line class="cls-2" x1="313.91" y1="299.86" x2="313.91" y2="363.92"/>
  <line class="cls-2" x1="440.48" y1="354.23" x2="440.48" y2="416.37"/>
  <line class="cls-2" x1="476.8" y1="338.11" x2="476.8" y2="398.5"/>
  <polyline class="cls-2" points="150.59 160.84 179.41 105.35 198.96 146.32"/>
  <line class="cls-2" x1="148.8" y1="184.37" x2="204.35" y2="166.64"/>
  <line class="cls-2" x1="150.4" y1="205.7" x2="204.58" y2="188.56"/>
  <line class="cls-2" x1="151.27" y1="227.78" x2="204.07" y2="210.84"/>
</svg>