<?xml version="1.0" encoding="UTF-8"?>
<svg id="Capa_1" data-name="Capa 1" xmlns="http://www.w3.org/2000/svg" viewBox="0 0 566.93 566.93">
  <defs>
    <style>
      .cls-1 {
        fill: #008cf4;
        stroke: #008cf4;
      }

      .cls-1, .cls-2, .cls-3 {
        stroke-linecap: round;
        stroke-linejoin: round;
      }

      .cls-4, .cls-3 {
        fill: #fff;
      }

      .cls-2 {
        fill: none;
        stroke: #080717;
      }

      .cls-3 {
        stroke: #1d1d1b;
      }
    </style>
  </defs>
  <path class="cls-3" d="M254.85,522.48l-18.41-57.18h163.79l82.17-88.29c4.92-5.28,4.56-13.56-.78-18.41h0c-11.86-10.75-30.11-10.11-41.19,1.44l-47.95,50.01-167.67-48.46,56.07-30.14c10.6-5.7,12.57-20.08,3.89-28.42h0c-4.17-4-10.02-5.72-15.69-4.61l-49.38,9.67c-68.13,13.34-111.57,80.59-95.71,148.18l15.54,66.21h115.33Z"/>
  <path class="cls-3" d="M299.09,433.62l42.9-85.03c6.89-14.44,24.02-20.79,38.65-14.31,6.6,2.92,9.53,10.67,6.53,17.23l-37.51,82.11,48.65-88.86c8.16-13.76,25.8-18.53,39.78-10.76,6.31,3.5,8.53,11.49,4.94,17.75l-45.26,73.81"/>
  <path class="cls-2" d="M215.53,391.85s26.29-9.44,43.14,22.92l48.7,2.45"/>
  <circle class="cls-1" cx="331.13" cy="159.35" r="94.12"/>
  <path class="cls-4" d="M331.41,66.22c9.42,0,18.36,9.57,25.17,26.93,6.93,17.66,10.74,41.17,10.74,66.19s-3.82,48.53-10.74,66.19c-6.81,17.37-15.75,26.93-25.17,26.93s-18.36-9.57-25.17-26.93c-6.93-17.66-10.74-41.17-10.74-66.19s3.82-48.53,10.74-66.19c6.81-17.37,15.75-26.93,25.17-26.93M331.41,65.22c-20.39,0-36.91,42.14-36.91,94.12s16.53,94.12,36.91,94.12,36.91-42.14,36.91-94.12-16.53-94.12-36.91-94.12h0Z"/>
  <path class="cls-4" d="M331.13,117.35c25.02,0,48.53,3.82,66.19,10.74,17.37,6.81,26.93,15.75,26.93,25.17s-9.57,18.36-26.93,25.17c-17.66,6.93-41.17,10.74-66.19,10.74s-48.53-3.82-66.19-10.74c-17.37-6.81-26.93-15.75-26.93-25.17s9.57-18.36,26.93-25.17c17.66-6.93,41.17-10.74,66.19-10.74M331.13,116.35c-51.98,0-94.12,16.53-94.12,36.91s42.14,36.91,94.12,36.91,94.12-16.53,94.12-36.91-42.14-36.91-94.12-36.91h0Z"/>
</svg>