<?xml version="1.0" encoding="UTF-8"?>
<svg id="Capa_1" data-name="Capa 1" xmlns="http://www.w3.org/2000/svg" viewBox="0 0 566.93 566.93">
  <defs>
    <style>
      .cls-1 {
        stroke: #000;
      }

      .cls-1, .cls-2 {
        fill: #fff;
      }

      .cls-1, .cls-2, .cls-3 {
        stroke-linecap: round;
        stroke-linejoin: round;
      }

      .cls-2 {
        stroke: #fff;
      }

      .cls-4 {
        fill: #008cf4;
      }

      .cls-3 {
        fill: #080717;
        stroke: #1d1d1b;
      }
    </style>
  </defs>
  <rect class="cls-3" x="201.97" y="177.15" width="181.39" height="324.48" rx="16.15" ry="16.15" transform="translate(315.23 786.96) rotate(-142.12)"/>
  <rect class="cls-2" x="212.12" y="179.72" width="156.13" height="302.77" rx="10.91" ry="10.91" transform="translate(315.89 770.62) rotate(-142.12)"/>
  <path class="cls-1" d="M412.87,69.3h-214.29c-12.35,0-22.36,10.01-22.36,22.36v92.16c0,12.35,10.01,22.36,22.36,22.36h82.08l24.33,56.15,24.33-56.15h83.54c12.35,0,22.36-10.01,22.36-22.36v-92.16c0-12.35-10.01-22.36-22.36-22.36Z"/>
  <circle class="cls-1" cx="215.67" cy="425.57" r="11.15"/>
  <path class="cls-4" d="M305.67,112.28l2.45-4.01c10.22-16.64,35.79-11.64,40.07,7.16,2.81,12.37-4.9,26.4-11.96,36.05-8.63,11.78-19.33,21.98-29.49,32.38-.54.47-1.43.48-1.98.01-9.84-10.06-20.07-19.86-28.57-31.16-8.23-10.94-17.75-27.8-11.43-41.63,4.57-10,15.7-14.84,26.31-12.18,6.93,1.73,11.52,7.24,14.61,13.36Z"/>
</svg>