<?xml version="1.0" encoding="UTF-8"?>
<svg id="Capa_1" xmlns="http://www.w3.org/2000/svg" version="1.1" viewBox="0 0 566.93 566.93">
  <!-- Generator: Adobe Illustrator 29.5.1, SVG Export Plug-In . SVG Version: 2.1.0 Build 141)  -->
  <defs>
    <style>
      .st0, .st1 {
        stroke: #000;
      }

      .st0, .st1, .st2 {
        stroke-linecap: round;
        stroke-linejoin: round;
      }

      .st0, .st3 {
        fill: #fff;
      }

      .st1 {
        fill: none;
      }

      .st4 {
        isolation: isolate;
      }

      .st2 {
        fill: #008cf4;
        stroke: #008cf4;
      }
    </style>
  </defs>
  <path class="st0" d="M495.93,239.44H202.55c-12.58,0-22.79,10.2-22.79,22.79v139.38c0,12.58,10.2,22.79,22.79,22.79h206.22l16.4,52.79,11.81-52.79h58.96c12.58,0,22.79-10.2,22.79-22.79v-139.38c0-12.58-10.2-22.79-22.79-22.79h0Z"/>
  <line class="st1" x1="241.61" y1="312.7" x2="456.87" y2="312.87"/>
  <line class="st1" x1="246.82" y1="367" x2="462.09" y2="367.17"/>
  <path class="st2" d="M343.2,108.5H51.98c-12.58,0-22.78,10.2-22.78,22.79v139.38c0,12.58,10.2,22.79,22.78,22.79h58.43l11.73,52.79,16.29-52.79h204.76c12.58,0,22.79-10.2,22.79-22.79v-139.38c0-12.58-10.2-22.79-22.79-22.79h.01Z"/>
  <g class="st4">
    <g class="st4">
      <path class="st3" d="M193.24,212.44v-6.23c0-2.73.4-5.15,1.21-7.27.81-2.12,2.16-4.13,4.05-6.05,1.9-1.91,4.45-3.95,7.68-6.11,4.84-3.13,8.18-6.01,10.03-8.61,1.85-2.61,2.78-5.52,2.78-8.73,0-3.79-.96-7.14-2.88-10.05-1.92-2.91-4.51-5.2-7.78-6.87-3.27-1.67-6.95-2.5-11.04-2.5-4.31,0-8.16.93-11.54,2.78-3.38,1.85-6.04,4.37-8.01,7.54-1.96,3.18-2.94,6.78-2.94,10.81h-3.01c0-4.56,1.11-8.64,3.33-12.25,2.22-3.6,5.26-6.45,9.12-8.55,3.86-2.1,8.2-3.15,13.04-3.15s8.86.96,12.58,2.87c3.73,1.91,6.68,4.55,8.86,7.91,2.18,3.36,3.27,7.18,3.27,11.45,0,3.75-1.06,7.1-3.17,10.05-2.11,2.95-5.76,6.16-10.95,9.62-3.01,2.04-5.34,3.9-6.99,5.59-1.66,1.69-2.82,3.43-3.5,5.22-.68,1.79-1.01,3.89-1.01,6.29v6.23h-3.14ZM194.81,239.99c-.96,0-1.78-.32-2.45-.95-.68-.63-1.01-1.39-1.01-2.29s.34-1.66,1.01-2.29c.67-.63,1.49-.95,2.45-.95s1.77.32,2.45.95c.68.63,1.01,1.4,1.01,2.29s-.34,1.66-1.01,2.29c-.68.63-1.49.95-2.45.95Z"/>
    </g>
  </g>
</svg>