<?xml version="1.0" encoding="UTF-8"?>
<svg id="Capa_1" data-name="Capa 1" xmlns="http://www.w3.org/2000/svg" viewBox="0 0 1129.46 566.93">
  <defs>
    <style>
      .cls-1, .cls-2, .cls-3, .cls-4, .cls-5, .cls-6, .cls-7 {
        stroke-linecap: round;
        stroke-linejoin: round;
      }

      .cls-1, .cls-3, .cls-4 {
        fill: none;
      }

      .cls-1, .cls-6 {
        stroke: #008cf4;
      }

      .cls-2, .cls-3, .cls-8, .cls-5 {
        stroke: #000;
      }

      .cls-2, .cls-8, .cls-9, .cls-7 {
        fill: #fff;
      }

      .cls-10, .cls-5 {
        fill: #080717;
      }

      .cls-8 {
        stroke-miterlimit: 10;
      }

      .cls-4 {
        stroke: #080717;
      }

      .cls-6 {
        fill: #008cf4;
      }

      .cls-7 {
        stroke: #1d1d1b;
      }
    </style>
  </defs>
  <path class="cls-6" d="M553.62,140.25h62.17c0,33.46-28.06,60.99-62.17,60.99s-62.17-27.53-62.17-60.99c0-24.36,14.88-46.49,37.71-56.07l24.46,56.07Z"/>
  <path class="cls-7" d="M557.29,134.23l-21.66-51.71c6.87-2.77,14.23-4.19,21.66-4.19,31.28,0,57.02,25.23,57.02,55.9,0,.02,0,.03,0,.05l-57.02-.05Z"/>
  <rect class="cls-3" x="199.33" y="52.64" width="665.79" height="268.01" rx="34.92" ry="34.92"/>
  <path class="cls-4" d="M341.75,95.16c-7.16-4.23-35.35-8.76-40.42,18.45-2.52,13.53-19.2,15.67-26.58,17.23-23.55,4.99-22.54,30.66-.92,35.91,7.27,1.76,33.74,23.06,38.41,20.46,4.67-2.6,56.75-1.11,19.1-34.71-9.71-8.67,17.03-22.34,23.83-42.43,1.15-3.41-3.68-9.15-13.42-14.91Z"/>
  <path class="cls-2" d="M311.66,298.53l60.31-.4,8.02-73.32s33.92,42.91,94.29-44.14l-12.82-13.99s-45.06,50.55-61.25,34.62c-41.79-41.1-82.13-21.32-82.13-21.32,0,0-62.64,17.32-76.37,122.65h25.59s16.92-67.97,40.35-75.02l4.02,70.92Z"/>
  <path class="cls-2" d="M461.45,166.68l5.52-6.15,1.58-4.22c.55-3.98,7.37-11,10.6-13.06l2.39-1.53,1.98.77,18.62-15.03c.8-.65,2.12-.42,2.96.51.79.88.88,2.1.19,2.8-3.41,3.48-12.86,13.13-13.05,13.34-.09.1.28.18.76.23,1.14.14,2.25.86,2.9,1.91l.17.27c.72,1.15.76,2.49.11,3.42l2.87,8.6c.66,1.97.01,3.88-1.6,4.74l-15.89,10.82-7.3,6.57-12.82-13.99Z"/>
  <polygon class="cls-8" points="351.12 161.51 363.43 161.51 363.43 183.57 347.58 183.57 338.58 183.57 336.54 163.38 351.12 161.51"/>
  <path class="cls-8" d="M344.17,127.41c14.2,1.8,22.07-9.49,18.55-21.91,0,0,28.79,69.95-13.82,59.62-16.42-3.98-18.93-39.51-4.73-37.71Z"/>
  <path d="M361.05,132.07c0,23.43-12.67,44.79-27.88,42.42-30.1-4.69-37.49-22.06-27.88-42.42,10-21.19,12.48-42.42,27.88-42.42,15.4,0,27.88,18.99,27.88,42.42Z"/>
  <circle class="cls-9" cx="358.41" cy="142.68" r="7.28"/>
  <path class="cls-8" d="M350.01,178.86c6.19.62,13.87-1.67,13.87-1.67l9.92,5.26c-.88,1.12-26.54,16.54-43.77-2.38l9.7-4.27s7.57,2.79,10.28,3.06Z"/>
  <circle class="cls-8" cx="358.41" cy="149.97" r="3.13"/>
  <ellipse class="cls-2" cx="469.64" cy="180.87" rx="1.87" ry="1.75"/>
  <path class="cls-10" d="M350.55,91.84c-7.96-3.94-35.82-6.68-42.96,21.31-3.55,13.92-20.67,15.42-29.16,17.08-13.17,2.56-30.44,28.02-3.84,36.54,9.36,3,9.26,13.74,16.85,20.09,13.03,10.9,93.99-23.51,44.37-36.06-13.11-3.32,35.66-23.56,29.31-44.46-1.87-6.15-3.74-9.13-14.57-14.5Z"/>
  <line class="cls-3" x1="456.69" y1="171.68" x2="469.76" y2="186.15"/>
  <path class="cls-5" d="M311.06,298.56c-29.2,57.63-17.07,246.53-17.07,246.53,0,0,31.92-1.39,44.76,0,8.59.93-4.32-167.57,6.82-167.35,11.19.22-2.01,168.82,7.35,167.35,7.05-1.1,39.29,1.35,40.95-1.8,3.33-6.34,7.26-188.63-21.89-245.17"/>
  <path class="cls-5" d="M351.59,541.63v17.86h14.56l3.09-3.88,4.12,3.88h41.54s-8.93-14.53-25.06-17.86"/>
  <path class="cls-5" d="M294.03,540.74v17.86h14.56l3.09-3.88,4.12,3.88h41.54s-8.93-14.53-25.06-17.86"/>
  <line class="cls-2" x1="242.86" y1="295.98" x2="268.69" y2="295.98"/>
  <ellipse class="cls-2" cx="263.4" cy="299.1" rx="1.87" ry="1.75"/>
  <path class="cls-3" d="M358.41,138.38s-5.6-.35-3.9,5.31"/>
  <path class="cls-2" d="M267.29,302.63h-23.58s-11.55,21.26-8.62,27.9c1.93,4.37,7.33,10.87,9.79,9.2,3.57-2.41-2.21-5.67-2.66-7.64-.41-1.81-.89-8.44,7.25-17.03,2.09-2.2,9.71-4.45,9.71-2.02s-3.81,9.16-4.45,11.12c-.8,2.47.66,6.08,5.66,3.03,0,0,11.39-15.15,6.91-24.56Z"/>
  <path class="cls-2" d="M242.35,327.18s5.72,2.71,6.39,5.85c.56,2.63-2.06,4.94-3.2,3.45s-3.34-4.39-3.34-4.39c0,0-.25-3.43.15-4.91Z"/>
  <polyline class="cls-1" points="503.03 285.9 548.13 271.39 606.39 290.25 646.79 241.9 665.58 281.07 679.68 263.17 685.31 266.56 710.68 259.79 805.58 282.03"/>
  <polyline class="cls-3" points="503.17 291.66 599.01 258.78 646.93 286.03 728.67 280.39 786.93 239.05"/>
  <g>
    <rect class="cls-7" x="660.41" y="89.8" width="32.03" height="31.42"/>
    <polygon class="cls-6" points="667.63 102.5 676.43 113.85 702.34 81.01 695.73 78.99 676.43 105.51 671.35 98.45 667.63 102.5"/>
  </g>
  <g>
    <rect class="cls-7" x="762.27" y="89.8" width="32.03" height="31.42"/>
    <polygon class="cls-6" points="759.51 85.57 764.32 84.73 777.17 97.99 790.41 84.73 795.55 87.25 780.95 100.51 799.44 117.62 794.29 121.22 776.93 103.8 758.12 121.22 754.43 117.75 773.6 101.43 759.51 85.57"/>
  </g>
  <polyline class="cls-3" points="502.78 212.36 502.78 293.91 815.38 293.91"/>
  <line class="cls-3" x1="660.41" y1="134.7" x2="734.95" y2="134.7"/>
  <line class="cls-3" x1="762.33" y1="134.7" x2="836.87" y2="134.7"/>
  <line class="cls-3" x1="660.41" y1="152.29" x2="734.95" y2="152.29"/>
  <line class="cls-3" x1="762.33" y1="152.29" x2="836.87" y2="152.29"/>
  <line class="cls-3" x1="660.41" y1="167.92" x2="734.95" y2="167.92"/>
  <line class="cls-3" x1="762.33" y1="168.97" x2="836.87" y2="168.97"/>
  <line class="cls-3" x1="660.41" y1="187.61" x2="734.95" y2="187.61"/>
  <line class="cls-3" x1="660.41" y1="206.81" x2="734.95" y2="206.81"/>
  <line class="cls-3" x1="762.33" y1="186.56" x2="836.87" y2="186.56"/>
</svg>