<?xml version="1.0" encoding="UTF-8"?>
<svg id="Capa_1" data-name="Capa 1" xmlns="http://www.w3.org/2000/svg" viewBox="0 0 1129.46 566.93">
  <defs>
    <style>
      .cls-1, .cls-2, .cls-3, .cls-4, .cls-5 {
        fill: none;
      }

      .cls-1, .cls-2, .cls-6 {
        stroke-miterlimit: 10;
      }

      .cls-1, .cls-4 {
        stroke: #080717;
      }

      .cls-2 {
        stroke: #1d1d1b;
      }

      .cls-7, .cls-3, .cls-8, .cls-9, .cls-4, .cls-5, .cls-10, .cls-11 {
        stroke-linecap: round;
        stroke-linejoin: round;
      }

      .cls-7, .cls-8, .cls-6, .cls-12 {
        fill: #fff;
      }

      .cls-7, .cls-6, .cls-10 {
        stroke: #000;
      }

      .cls-3, .cls-8, .cls-11 {
        stroke: #020202;
      }

      .cls-13, .cls-10 {
        fill: #080717;
      }

      .cls-9 {
        fill: #008cf4;
        stroke: #010202;
      }

      .cls-5 {
        stroke: #fff;
      }
    </style>
  </defs>
  <g>
    <path class="cls-8" d="M544.94,471.79s13.87,25.07,16.79,23.89c3.29-1.33,69.65-.19,70.52,5.38,1.73,11.12-17.5,9.07-34.99,11.14-19.25,2.28-39.36,4.93-44.8,4.79-12.73-.32-36.93-29.3-36.93-29.3l29.42-15.9Z"/>
    <path class="cls-8" d="M438.78,322.84l-22.87,8.59,95.2,161.68,37.36-23.7-66.1-129.66c-8.11-15.91-26.87-23.19-43.59-16.91Z"/>
    <path class="cls-8" d="M561.73,495.68c1.04-.17,37.25-8.52,51.18-5.16,6.12,1.48,9.26,9.87-4.04,11.19-12.99,1.29-37.33,7.68-37.33,7.68"/>
    <line class="cls-1" x1="541.49" y1="457.24" x2="502.89" y2="480.21"/>
    <circle class="cls-1" cx="514.64" cy="481.93" r="3.67"/>
  </g>
  <g>
    <path class="cls-13" d="M435.54,284.43l-19.08,3.28c-21.94,3.77-43.49-10.75-47.9-32.25l-1.52-7.41c-5.52-26.93,12.43-52.82,39.9-57.53l3.61,7.05c17.22-2.96,34.14,8.43,37.6,25.31l6.87,33.48c2.69,13.14-6.07,25.77-19.47,28.07Z"/>
    <path class="cls-13" d="M405.17,248.77c-1.69-14.23,5.53-28.43,18.29-33.96h0c7.95-3.45,16.47-2.85,23.65.9-4.01-.04-15.27.5-18.06,7.42-3.41,8.47-5.14,25.13-23.89,25.63Z"/>
    <path class="cls-13" d="M480.84,209.75c9.44,13.79,6.09,26.51-7.47,28.4-13.56,1.9-32.21-7.75-41.64-21.54-9.44-13.79-6.09-26.51,7.47-28.4,13.56-1.9,32.21,7.75,41.64,21.54Z"/>
    <path class="cls-11" d="M400.21,197.96c-21.11,6.42-34.32,27.06-30.65,48.97,5.54,2.34,11.86,3.19,18.27,2.09,16.65-2.86,27.57-17.77,24.39-33.3-1.52-7.4-5.97-13.6-12-17.76Z"/>
    <path class="cls-13" d="M432.07,206.53c2.22,10.84-4.94,21.17-16,23.07-11.06,1.9-21.83-5.35-24.05-16.19-2.22-10.84,4.94-21.17,16-23.07,11.06-1.9,21.83,5.35,24.05,16.19Z"/>
    <path class="cls-11" d="M376.35,220.53c-12.86,4.21-25.12-2.73-27.4-15.5-2.28-12.77,6.3-26.53,19.15-30.73,12.86-4.21,25.12,2.73,27.4,15.5,2.28,12.77-6.3,26.53-19.15,30.73Z"/>
    <path class="cls-13" d="M416.63,220.46c-13.09,2.7-22.24,14.35-21.28,27.67,3.2,1.7,6.97,2.56,10.89,2.24,10.2-.81,17.64-9.15,16.61-18.63-.49-4.51-2.82-8.47-6.22-11.29Z"/>
    <path class="cls-4" d="M469.73,186.71s-48.09-19.61-43.21,9.56"/>
    <path class="cls-7" d="M471.82,234.11l-2.69-6.78c-6.39-16.1-23.04-22.73-37-14.74h0c-12.53,4.98-19.39,18.4-17.42,32.1-5.4.97-9.38,5.92-9.22,11.98h0c.14,5.29,3.38,9.87,7.83,11.79l-10.98,41.16,33.55,20.8c8.59,5.32,15.14,6.08,17.04-3.89h0l5.46-27.25c2.51-.24,5.02-.79,7.46-1.76,14.86-5.9,21.74-23.68,15.38-39.7l-4.44-11.18c2.78-1.5,4.03-5.04,2.77-8.29h0c-1.28-3.29-4.64-5.05-7.74-4.23Z"/>
    <path class="cls-13" d="M429.6,285.81c-.96-.99-1.85-2.01-2.69-3.06,9.88,14.22,23.08,24.06,29.2,28.24l2.5-12.46c-9.68-1.1-21.86-5.35-29-12.71Z"/>
  </g>
  <path class="cls-8" d="M413.04,313.44c-7.94,3.51-16.32,9.68-25.47,18.94-31.04,31.44-63.26,159.26-63.26,159.26l126.09-.15s45.58-136.37,16.07-163.19c-3.97-3.6-7.86-6.75-11.71-9.37"/>
  <path class="cls-13" d="M661.7,496l-55.88-8.59,43.25-104.81c7.5-31.64,40.29-50.24,71.3-40.44h0s-58.66,153.84-58.66,153.84Z"/>
  <path class="cls-10" d="M734.57,528.31l32.95,6.85c31.67,6.59,62.66-13.8,69.14-45.48l.2-1c2.66-13,.82-26.52-5.23-38.33l-32.76-63.99c-10.92-21.33-29.67-37.61-52.32-45.43l-31.39-10.84s-59.66,58.64-49.73,114.99l10.73,37.2,58.4,46.02Z"/>
  <path class="cls-7" d="M735.05,468.2s-44.62-2.01-65.75-3.76c-21.14-1.75-52.86,3.96-52.86,3.96-33.29,3.14-56.7,22.23-57.68,23.04-3.52,2.91-4.02,8.12-1.11,11.65,2.91,3.53,8.13,4.03,11.67,1.14.07-.06,2.79-2.25,7.55-5.15-7.48,8.41-10.66,15.66-10.89,16.18-1.8,4.19.14,9.03,4.32,10.85,2.96,1.29,6.27.7,8.6-1.23.96-.8,1.76-1.83,2.3-3.05.02-.06.92-2.01,2.83-4.91-1.2,3.1-1.73,5.14-1.8,5.41-1.07,4.43,1.64,8.88,6.07,9.97,2.65.66,5.32-.05,7.28-1.67,1.32-1.09,2.31-2.59,2.76-4.36.04-.16,3.79-14.3,17.44-26.4-9.85,10.33-12.48,20.67-12.62,21.25-1.07,4.42,1.63,8.83,6.04,9.95,2.66.67,5.34-.04,7.31-1.67,1.3-1.08,2.29-2.56,2.75-4.3.1-.39,2.07-7.52,9.38-14.69,9.27,7.27,23.27.61,23.27.61l83.22,16.53-.08-59.35Z"/>
  <path class="cls-4" d="M583.71,517.86s10.96-19.23,17.33-25.03"/>
  <path class="cls-4" d="M575.66,500.17s8.47-7.38,10.79-10.18"/>
  <path class="cls-12" d="M403.68,243.33c3.03,9.16,11.82,15.02,19.65,13.08,7.83-1.94,11.72-10.93,8.7-20.09-3.03-9.16-11.82-15.02-19.65-13.08-7.83,1.94-11.72,10.93-8.7,20.09Z"/>
  <path class="cls-13" d="M736.77,199.39l-.04.07c-.37-.12-.74-.26-1.12-.36-4.59-1.2-9.17-.76-13.21.94-2.89-3.2-6.64-5.62-11-6.76-10.18-2.66-20.34,2.46-24.92,11.76-8.25,1.48-15.22,7.95-17.24,17.09-2.03,9.17,1.5,18.42,8.28,23.8-1.45,4.82-2.17,9.96-1.99,15.28.32,9.89,3.63,19,9.03,26.53,3.06,8.38,9.84,15.16,18.68,17.46l20.19,5.27c23.21,6.06,46.62-8.94,52.03-33.34l1.86-8.41c6.77-30.55-11.48-61.76-40.54-69.35Z"/>
  <path class="cls-13" d="M736.71,266.57c2.27-16.25-4.95-33.15-18.34-40.52h0c-8.35-4.6-17.43-4.57-25.19-.82,4.27.27,16.23,1.77,18.96,9.96,3.35,10.01,4.64,29.32,24.56,31.38Z"/>
  <path class="cls-7" d="M681.21,323.25c-2.89-.53-5.78-1.42-8.58-2.79-17.04-8.32-24.66-29.54-17.02-47.39l5.33-12.45c-3.19-2.02-4.56-6.23-3.04-9.86h0c1.54-3.66,5.45-5.36,9.01-4.09l1.53-3.57c7.64-17.85,27.64-25.57,44.68-17.25h0c14.37,7.02,22.04,23.22,19.5,38.82,6.22,1.67,10.71,7.78,10.41,14.77-.26,6.09-4.08,11.05-9.25,12.82l2.18,44.54,7.38,2.64c-3.54,12.95-10.97,23.72-25.95,31.2-23.81,11.89-36.18,7.54-36.18-4.44v-42.96Z"/>
  <polyline class="cls-5" points="733.79 469.83 744.12 470.14 751.2 470.36 768.58 470.88 752.72 421.35"/>
  <polygon class="cls-8" points="415.29 310.8 442.31 337.51 454.76 318.92 463.78 325.91 455.41 352.98 443.36 343.02 433.19 355.86 421.17 342.75 415.29 310.8"/>
  <path class="cls-8" d="M419.38,337.18c9.02-24.64-25.38-57.72-56.16-20.17-23,28.06-62.51,127.6-80.61,172.99,23.76,2.34,61.4.65,61.4.65,0,0,73-147.01,75.36-153.46Z"/>
  <path class="cls-3" d="M443.36,343.02s-10.15,90.39-38.75,147.69"/>
  <path class="cls-9" d="M525.46,144.94h78.18c19.54,0,35.39,16.24,35.39,36.28h0c0,20.04-15.84,36.28-35.39,36.28h-70.03s-17.63,27.32-17.63,27.32v-28.65c-14.94-4.25-25.91-18.28-25.91-34.95h0c0-20.04,15.84-36.28,35.39-36.28Z"/>
  <path class="cls-6" d="M644.29,88.97h-78.18c-19.54,0-35.39,16.24-35.39,36.28h0c0,20.04,15.84,36.28,35.39,36.28h70.03l17.63,27.32v-28.65c14.94-4.25,25.91-18.28,25.91-34.95h0c0-20.04-15.84-36.28-35.39-36.28Z"/>
  <g>
    <path class="cls-2" d="M626.46,120.14c-.33-10.49-9.52-19-21.26-19s-21.26,8.51-21.26,19c0,12.05,11.13,16.88,11.13,16.88v5.91h20.27v-5.91s11.49-5.42,11.13-16.88Z"/>
    <rect class="cls-2" x="595.07" y="145.72" width="20.27" height="2.95"/>
    <line class="cls-2" x1="600.46" y1="121.13" x2="609.77" y2="121.13"/>
    <line class="cls-2" x1="605.17" y1="121.64" x2="605.29" y2="142.35"/>
    <path class="cls-2" d="M590.85,116.84s.14-7.19,8.8-8.8"/>
  </g>
  <line class="cls-5" x1="508.94" y1="173.13" x2="618.38" y2="173.13"/>
  <line class="cls-5" x1="509.82" y1="188.28" x2="619.27" y2="188.28"/>
</svg>