<?xml version="1.0" encoding="UTF-8"?>
<svg id="Capa_1" xmlns="http://www.w3.org/2000/svg" xmlns:xlink="http://www.w3.org/1999/xlink" version="1.1" viewBox="0 0 1129.46 566.93">
  <!-- Generator: Adobe Illustrator 29.5.1, SVG Export Plug-In . SVG Version: 2.1.0 Build 141)  -->
  <defs>
    <style>
      .st0, .st1, .st2, .st3 {
        fill: none;
      }

      .st4 {
        fill: #008cf4;
      }

      .st4, .st5, .st1, .st6, .st7, .st2, .st8, .st9, .st10 {
        stroke-linecap: round;
        stroke-linejoin: round;
      }

      .st4, .st7 {
        stroke: #010202;
      }

      .st5, .st1, .st6, .st3, .st8, .st10 {
        stroke: #000;
      }

      .st5, .st11, .st10 {
        fill: #fff;
      }

      .st12, .st8 {
        fill: #080717;
      }

      .st7, .st9 {
        fill: #008cf4;
      }

      .st2 {
        stroke: #080717;
      }

      .st3 {
        stroke-miterlimit: 10;
      }

      .st9 {
        stroke: #008cf4;
      }

      .st10 {
        stroke-width: 1px;
      }

      .st13 {
        fill: url(#Motivo_nuevo_9);
      }
    </style>
    <pattern id="Motivo_nuevo_9" data-name="Motivo nuevo 9" x="0" y="0" width="40.2" height="40.2" patternTransform="translate(-1651.22 -15639.98) scale(1 -1)" patternUnits="userSpaceOnUse" viewBox="0 0 40.2 40.2">
      <g>
        <rect class="st0" width="40.2" height="40.2"/>
        <g>
          <rect class="st0" width="40.2" height="40.2"/>
          <circle class="st11" cx="20.1" cy="20.1" r="12.51"/>
        </g>
      </g>
    </pattern>
  </defs>
  <g>
    <rect class="st4" x="697.93" y="212.74" width="9.69" height="6.42"/>
    <rect class="st4" x="723.87" y="212.74" width="9.69" height="6.42"/>
    <rect class="st4" x="688.94" y="216.99" width="53.5" height="31.33"/>
  </g>
  <path class="st5" d="M201.21,407.83l97.09-.24s-3.09-12.85-4.05-32.07c-1.62-32.48-1-78.65,2.82-78.98,14.37-1.22,49.82,1.53,88.02-15.89,24.56-11.2,53.78-45.57,53.78-45.57l-17.16-18.3s-32.79,31.81-53.43,37.89c-44.62,13.14-103.03-15.65-110.44-15.65s-55.61-12.61-61.54,30.4c-3.35,24.28,21.87,68.24,19.41,103.48-1.3,18.61-14.5,34.91-14.5,34.91v.02Z"/>
  <path class="st9" d="M210.2,192.44h189.55v-25.91l-189.55-.52c-71.67,0-129.77,57.9-129.77,129.31s58.1,129.31,129.77,129.31l123.79.51v16.14l37.26-28.34-37.26-30.87v16.13h-123.79c-56.82,0-102.88-46.06-102.88-102.88s46.06-102.88,102.88-102.88h0Z"/>
  <rect class="st7" x="448.33" y="247.8" width="53.5" height="30.97"/>
  <rect class="st7" x="448.33" y="217.32" width="53.5" height="30.97"/>
  <rect class="st7" x="448.33" y="278.29" width="53.5" height="30.97"/>
  <rect class="st7" x="448.33" y="308.78" width="53.5" height="30.97"/>
  <rect class="st7" x="448.33" y="339.26" width="53.5" height="30.97"/>
  <rect class="st7" x="448.33" y="369.75" width="53.5" height="30.97"/>
  <rect class="st7" x="582.44" y="247.8" width="53.5" height="30.97"/>
  <rect class="st7" x="582.44" y="217.32" width="53.5" height="30.97"/>
  <rect class="st7" x="582.44" y="278.29" width="53.5" height="30.97"/>
  <rect class="st7" x="582.44" y="308.78" width="53.5" height="30.97"/>
  <rect class="st7" x="582.44" y="339.26" width="53.5" height="30.97"/>
  <rect class="st7" x="582.44" y="369.75" width="53.5" height="30.97"/>
  <rect class="st7" x="688.94" y="247.8" width="53.5" height="30.97"/>
  <rect class="st7" x="688.94" y="278.29" width="53.5" height="30.97"/>
  <rect class="st7" x="688.94" y="308.78" width="53.5" height="30.97"/>
  <rect class="st7" x="688.94" y="339.26" width="53.5" height="30.97"/>
  <rect class="st7" x="688.94" y="369.75" width="53.5" height="30.97"/>
  <path class="st12" d="M542.19,183.69c20.17,0,36.89,14.77,39.95,34.08h54.04l-93.99-78.93-93.99,78.93h54.04c3.06-19.31,19.78-34.08,39.95-34.08h0Z"/>
  <path class="st8" d="M242.04,150.3s-18.6-21.7-29.19-5.68-19.63,61.48-30.48,73.62-18.08,4.13-18.08,4.13c0,0,.77,6.2,4.91,9.04,4.13,2.84,19.66,14.74,40.82-3.87,18.13-15.95,36.07-73.83,32.03-77.24h0Z"/>
  <path class="st8" d="M232.74,208.42s-31.26-36.17,9.3-58.12c35.35-19.14,64.07,28.67,43.01,48.31l-52.31,9.82h0Z"/>
  <path class="st5" d="M216.91,240.72c23.08,16.24,30.8,75.98,100.2,85.72,28.38,3.99,39.72,0,39.72,0v26.67s-118.92,27.18-154.8-63.74c-17.74-44.96,14.88-48.65,14.88-48.65h0Z"/>
  <g>
    <path class="st5" d="M438.87,235.09l3.48-5.3c6.16,2.61,8.34,2.71,14.57.23l8.64-3.94c1.76-.8,2.29-3.74.91-5.01l-.2-.18c-1.23-1.14-2.76-1.71-4.37-1.62h-15.25l7.52-7.17,12.8-7.06,8.29-1.4c1.47-.25,2.85-1.29,3.8-2.86l.22-.36c.79-1.31.33-3.08-.86-3.28l-4.19-.71,1.64-1.71c1.3-1.36.87-3.87-.69-4.02l-5.56-.54,1.51-1.86c1.2-1.48.5-3.87-1.07-3.68l-12.91,5.77,9.29-6.92c.94-.95,1.59-2.3,1.8-3.76.27-1.89-.24-3.71-1.34-4.8l-.39-.38-32.88,27.45-11.91,14.8,17.16,18.3h-.01Z"/>
    <polyline class="st2" points="474.91 196.56 465.1 194.97 456.97 201.16"/>
    <polyline class="st2" points="469.78 190.19 462.18 192.12 455.61 197.09"/>
  </g>
  <g>
    <path class="st5" d="M356.83,326.45l12.21-5.5c4.07-4.22,9.22-10.49,15.14-10.77l16.96-.79c1.5-.07,2.89.75,3.51,2.07h0c.96,2.04-.23,4.43-2.48,4.99l-11.52,2.85,7.81,13.99,18.07,7.99c1.67.74,2.54,2.55,2.05,4.27h0c-.3,1.07-1.45,1.68-2.53,1.35l-31.84-5.51-27.39,11.72v-26.67h0Z"/>
    <path class="st5" d="M403.98,339.49l14-3.48c1.29-.32,1.68-1.93.66-2.76h0c-1.3-1.06-3-1.53-4.68-1.31l-12.72,2.86"/>
    <path class="st5" d="M393.31,330.54l12.98-4.12c1.77-.56,3.71-.18,5.1,1.01h0c.9.77.7,2.19-.39,2.7l-15.05,7.19"/>
  </g>
  <path class="st5" d="M237,216.91s-4.35,19.85-7.31,20.21,20.12,17.32,23.19,20.03,9.99-16.4,9.99-16.4c0,0-2.59-6.87-.96-12.65,1.62-5.77-24.9-11.19-24.9-11.19h-.01Z"/>
  <path class="st5" d="M268.94,156.31c-4.74.32-13.21,31.38-33.28,40.6-1.22-2.56-3.82-4.34-6.84-4.34-4.19,0-7.58,3.39-7.58,7.58s3.39,7.58,7.58,7.58c.82,0,1.61-.13,2.34-.37,2.22,8.65,6.8,21.31,15.14,24.69,12.27,4.97,33.39,6.06,37.9-31.2s-10.05-44.89-15.25-44.54h-.01Z"/>
  <g>
    <rect class="st4" x="644.89" y="365.25" width="9.66" height="6.4"/>
    <rect class="st4" x="670.74" y="365.25" width="9.66" height="6.4"/>
    <rect class="st4" x="635.93" y="369.49" width="53.32" height="31.23"/>
  </g>
  <path class="st5" d="M871.79,237.67c-7.65-2.06-30.11,20.26-47.54,20.86-7.54.26-63.56-65.18-63.56-65.18-28.16-13.49-58.05-2.72-58.78-2.51-2.63.76-4.16,3.43-3.43,5.98s3.45,4.01,6.08,3.26c.05-.02,2.04-.56,5.29-1.03-.46.23-.74.37-.74.37h.02c-5.62,2.69-8.82,5.58-9.06,5.8-2,1.83-2.11,4.86-.27,6.79,1.3,1.36,3.25,1.8,4.99,1.3.72-.21,1.4-.58,1.99-1.11.03-.02.99-.87,2.74-1.98-1.41,1.38-2.19,2.35-2.29,2.49-1.66,2.13-1.26,5.12.89,6.72,1.29.95,2.91,1.19,4.37.76.98-.28,1.89-.86,2.56-1.71.06-.08,5.53-6.79,15.91-10.16-7.87,3.28-11.82,8.22-12.03,8.5-1.65,2.12-1.25,5.1.88,6.7,1.28.96,2.92,1.2,4.39.77.97-.28,1.87-.85,2.54-1.68.15-.19,2.95-3.55,8.68-5.72,3.29,6,12.53,5.63,12.53,5.63l3.2-.88s29.71,56.28,36.05,64.05c6.82,8.36,41.54,26.91,60.56,2.53,19.03-24.38,38.61-41.22,38.61-41.22,0,0-6.91-7.28-14.57-9.34h-.01Z"/>
  <path d="M916.69,235.61c17.16,8.37,33.23,13.33,39.63,35.53,11.28,39.14,17.41,120.98,14.32,133.21l-129.55,6.77c-1.27-25.84,15.26-78.08,2.66-92.85-32.1-37.62,34.36-101.47,72.93-82.67h.01Z"/>
  <path class="st5" d="M709.08,210.51s6.29-5.73,9.75-6.52"/>
  <path class="st13" d="M916.69,235.61c17.16,8.37,33.23,13.33,39.63,35.53,11.28,39.14,17.41,120.98,14.32,133.21l-129.55,6.77c-1.27-25.84,15.26-78.08,2.66-92.85-32.1-37.62,34.36-101.47,72.93-82.67h.01Z"/>
  <path class="st3" d="M916.69,235.61c17.16,8.37,33.23,13.33,39.63,35.53,11.28,39.14,17.41,120.98,14.32,133.21l-129.55,6.77c-1.27-25.84,15.26-78.08,2.66-92.85-32.1-37.62,34.36-101.47,72.93-82.67h.01Z"/>
  <g>
    <path class="st5" d="M921.7,269.88s-49.2,72.85-158.58,89.64h0l-15.26,2.31s-8.48-3.62-13.72.73c-4.56-4.03-5.95-8.12-6.03-8.34-.33-1-.96-1.84-1.77-2.44-1.22-.91-2.83-1.28-4.37-.85-2.57.72-4.02,3.31-3.24,5.85.1.33,2,6.27,8.16,12.09-8.46-6.77-11.14-14.89-11.17-14.99-.33-1.02-.96-1.87-1.77-2.48-1.21-.9-2.81-1.27-4.35-.85-2.58.71-4.04,3.32-3.26,5.87.05.16.43,1.33,1.24,3.1-1.22-1.65-1.82-2.76-1.84-2.8-.36-.7-.86-1.28-1.46-1.72-1.44-1.08-3.42-1.36-5.12-.57-2.41,1.12-3.39,3.95-2.19,6.34.14.29,2.09,4.08,6.35,8.55h-.01s.21.22.56.59c-2.86-1.58-4.52-2.79-4.56-2.82-2.18-1.62-5.25-1.24-6.85.85s-1.14,5.09,1.04,6.72c.61.45,15.06,11.11,34.82,12.39,0,0,20.31,2.72,36.3,4.91,65.03-.35,146.57-34.03,181.08-72.86,16.34-18.38,20.28-72.8-24-49.22h0Z"/>
    <path class="st5" d="M707.58,359.52s5.21,8.42,9.65,12.21"/>
    <line class="st1" x1="703.86" y1="369.91" x2="710.46" y2="376.18"/>
  </g>
  <path class="st9" d="M806.8,424.8l101.14.28c71.53,0,129.52-57.79,129.52-129.06s-57.99-129.06-129.52-129.06l-123.55-.51v-16.11l-37.18,28.29,37.18,30.81v-16.1h123.55c56.71,0,102.68,45.97,102.68,102.68s-45.97,102.68-102.68,102.68h-101.14v26.11h0Z"/>
  <g>
    <path class="st6" d="M873.23,241.13s-50.23-10.18-33.08-36.71c17.14-26.53,34.06-45.08,39.43-44.14s6.71-8.6,12.65-8.28,39.31,4.74,40.55,31.62c1.24,26.88,29.05,26.19,25.85,34.04-3.19,7.85-17.73,26.56-31.47,24.09s-31.29-10.54-53.93-.62h0Z"/>
    <path class="st5" d="M880.15,222.42l30.32-1.4,2.64,16.53s-22.23,22.41-36.13,1.86l3.17-17h0Z"/>
    <ellipse class="st10" cx="894.8" cy="198.98" rx="26.92" ry="34" transform="translate(-8.22 41.43) rotate(-2.64)"/>
    <ellipse class="st11" cx="922.67" cy="196.49" rx="6.51" ry="8.28" transform="translate(-8.07 42.71) rotate(-2.64)"/>
    <path class="st1" d="M922.43,191.58s5.28-1.56,3.43,6.43"/>
  </g>
  <circle class="st5" cx="995.71" cy="152.43" r="50.46"/>
  <polyline class="st1" points="989.34 129.3 995.53 121.2 1002.14 129.3"/>
  <polyline class="st1" points="995.42 121.44 995.42 153.23 1027.73 153.23"/>
  <polyline class="st1" points="1020.22 147 1028.31 153.2 1020.22 159.8"/>
</svg>