<?xml version="1.0" encoding="UTF-8"?>
<svg id="Capa_1" data-name="Capa 1" xmlns="http://www.w3.org/2000/svg" viewBox="0 0 566.93 566.93">
  <defs>
    <style>
      .cls-1 {
        fill: #008cf4;
        stroke: #008cf4;
      }

      .cls-1, .cls-2 {
        stroke-linecap: round;
        stroke-linejoin: round;
      }

      .cls-2 {
        fill: #fff;
        stroke: #000;
      }
    </style>
  </defs>
  <rect class="cls-2" x="233.65" y="135.3" width="198.61" height="226.7"/>
  <line class="cls-2" x1="274.15" y1="178.21" x2="418.92" y2="178.21"/>
  <rect class="cls-2" x="178.19" y="100.17" width="198.61" height="226.7"/>
  <line class="cls-2" x1="205.38" y1="135.3" x2="350.15" y2="135.3"/>
  <line class="cls-2" x1="205.38" y1="170.14" x2="350.15" y2="170.14"/>
  <path class="cls-1" d="M455.73,215.94H199.5v-20.2c0-5.22-4.84-9.45-10.81-9.45h-103.01c-5.97,0-10.81,4.23-10.81,9.45v239.73c0,8.55,7.92,15.47,17.69,15.47h363.16c9.77,0,17.69-6.93,17.69-15.47v-204.05c0-8.55-7.92-15.47-17.69-15.47Z"/>
  <g>
    <path d="M141.9,322.98v-32.95h18.84v1.9h-16.78v13.49h15.68v1.92h-15.68v13.73h17.09v1.9h-19.15Z"/>
    <path d="M175.82,323.43c-2.74,0-4.93-.84-6.58-2.51-1.64-1.67-2.47-3.98-2.47-6.91v-1.59h2.06v1.59c0,2.36.63,4.2,1.88,5.53,1.25,1.33,2.96,1.99,5.11,1.99s3.85-.66,5.11-1.99c1.25-1.33,1.88-3.17,1.88-5.53v-23.97h2.06v23.97c0,2.93-.82,5.24-2.47,6.91-1.64,1.67-3.84,2.51-6.58,2.51Z"/>
    <path d="M193.37,322.98v-32.95h18.84v1.9h-16.78v13.49h15.68v1.92h-15.68v13.73h17.09v1.9h-19.15Z"/>
    <path d="M219.84,322.98v-32.95h2.9l10.3,24.46c.21.49.42,1.02.65,1.6.23.58.46,1.18.7,1.8s.46,1.23.69,1.85c.22.61.44,1.21.66,1.78h-.66c.21-.56.42-1.14.65-1.75.23-.6.46-1.22.7-1.85.24-.63.47-1.23.7-1.82s.45-1.13.65-1.61l10.26-24.46h2.9v32.95h-2.03v-25c0-.69,0-1.39.02-2.11.01-.72.03-1.44.03-2.17,0-.72.01-1.43.01-2.12h.35c-.28.75-.56,1.5-.84,2.26-.28.75-.56,1.48-.84,2.2-.28.71-.55,1.4-.82,2.06s-.52,1.27-.75,1.85l-9.75,23.04h-1.86l-9.77-23.04c-.24-.56-.49-1.17-.75-1.82-.27-.66-.54-1.34-.82-2.06-.28-.71-.56-1.45-.85-2.2-.29-.75-.58-1.51-.87-2.28h.38c.01.66.03,1.35.03,2.07,0,.72.01,1.44.02,2.17,0,.73.01,1.44.02,2.13,0,.69.01,1.36.01,1.99v23.04h-2.01Z"/>
    <path d="M259.91,322.98v-32.95h10.41c2.06,0,3.84.42,5.34,1.27s2.65,2.01,3.46,3.49c.81,1.48,1.22,3.18,1.22,5.1s-.41,3.59-1.22,5.07c-.81,1.48-1.97,2.64-3.47,3.48-1.5.84-3.29,1.26-5.35,1.26h-9.04v-1.88h9c1.67,0,3.1-.34,4.29-1.02,1.19-.68,2.11-1.61,2.76-2.81.65-1.19.97-2.56.97-4.11s-.32-2.94-.97-4.13c-.65-1.2-1.57-2.13-2.77-2.81-1.2-.68-2.63-1.02-4.28-1.02h-8.29v31.04h-2.06Z"/>
    <path d="M287.39,322.98v-32.95h2.08v31.04h16.19v1.9h-18.26Z"/>
    <path d="M323.5,323.43c-2.76,0-5.19-.7-7.3-2.11s-3.76-3.38-4.94-5.93-1.78-5.49-1.78-8.86.6-6.35,1.79-8.89,2.84-4.51,4.94-5.93c2.1-1.42,4.53-2.12,7.29-2.12s5.17.71,7.27,2.12c2.11,1.42,3.75,3.39,4.93,5.93,1.18,2.54,1.77,5.5,1.77,8.89s-.59,6.33-1.77,8.87c-1.18,2.54-2.82,4.51-4.93,5.91s-4.53,2.11-7.27,2.11ZM323.5,321.46c2.31,0,4.37-.61,6.17-1.83s3.21-2.95,4.23-5.19c1.02-2.23,1.54-4.87,1.54-7.9s-.51-5.7-1.54-7.94c-1.02-2.24-2.44-3.97-4.23-5.2-1.8-1.22-3.85-1.83-6.17-1.83s-4.37.61-6.18,1.82-3.22,2.94-4.26,5.19-1.55,4.89-1.55,7.96.51,5.65,1.54,7.88c1.02,2.23,2.44,3.96,4.25,5.2,1.81,1.23,3.87,1.85,6.2,1.85Z"/>
    <path d="M359.05,290.04v32.95h-2.06v-32.95h2.06ZM366.15,322.98h-8.03v-1.9h7.94c2.93,0,5.41-.59,7.42-1.76s3.53-2.85,4.55-5.04,1.54-4.81,1.54-7.86-.49-5.61-1.48-7.77c-.99-2.16-2.43-3.82-4.33-4.97-1.9-1.16-4.23-1.74-6.99-1.74h-8.71v-1.9h8.8c3.1,0,5.74.65,7.94,1.96,2.2,1.3,3.88,3.18,5.05,5.63,1.17,2.45,1.76,5.38,1.76,8.8s-.6,6.44-1.81,8.91-2.97,4.37-5.27,5.68c-2.31,1.31-5.1,1.97-8.37,1.97Z"/>
    <path d="M388.9,322.98v-32.95h18.84v1.9h-16.78v13.49h15.68v1.92h-15.68v13.73h17.09v1.9h-19.15Z"/>
    <path d="M126.7,377.32v-32.95h10.41c2.06,0,3.84.42,5.34,1.27s2.65,2.01,3.46,3.49c.81,1.48,1.22,3.18,1.22,5.1s-.41,3.59-1.22,5.07c-.81,1.48-1.97,2.64-3.47,3.48-1.5.84-3.29,1.26-5.35,1.26h-9.04v-1.88h9c1.67,0,3.1-.34,4.29-1.02,1.19-.68,2.11-1.61,2.76-2.81.65-1.19.97-2.57.97-4.11s-.32-2.94-.97-4.13c-.65-1.19-1.57-2.13-2.77-2.81-1.2-.68-2.63-1.02-4.28-1.02h-8.29v31.04h-2.06Z"/>
    <path d="M154.18,377.32v-32.95h10.44c2.06,0,3.84.41,5.34,1.22,1.5.81,2.65,1.94,3.46,3.39.81,1.45,1.22,3.14,1.22,5.05s-.41,3.57-1.22,5c-.81,1.43-1.97,2.55-3.47,3.35-1.5.8-3.29,1.21-5.35,1.21h-9.29v-1.92h9.26c1.65,0,3.07-.31,4.27-.94s2.12-1.52,2.76-2.66c.65-1.15.97-2.49.97-4.03s-.32-2.94-.97-4.1c-.65-1.16-1.57-2.06-2.76-2.7s-2.62-.96-4.29-.96h-8.31v31.04h-2.06ZM173.48,377.32l-8.03-14.95h2.32l8.07,14.95h-2.37Z"/>
    <path d="M194.49,377.77c-2.76,0-5.19-.71-7.3-2.11s-3.76-3.38-4.94-5.93-1.78-5.5-1.78-8.86.6-6.35,1.79-8.89,2.84-4.51,4.94-5.93,4.53-2.12,7.29-2.12,5.17.71,7.27,2.12,3.75,3.39,4.93,5.93c1.18,2.54,1.77,5.5,1.77,8.89s-.59,6.33-1.77,8.87c-1.18,2.54-2.82,4.51-4.93,5.92s-4.53,2.11-7.27,2.11ZM194.49,375.8c2.31,0,4.37-.61,6.17-1.83s3.21-2.95,4.23-5.18c1.02-2.23,1.54-4.87,1.54-7.91s-.51-5.7-1.54-7.94c-1.02-2.24-2.44-3.97-4.23-5.2-1.8-1.22-3.85-1.84-6.17-1.84s-4.37.61-6.18,1.82c-1.81,1.22-3.22,2.95-4.26,5.19s-1.55,4.89-1.55,7.96.51,5.65,1.54,7.88c1.02,2.23,2.44,3.97,4.25,5.2,1.81,1.23,3.87,1.85,6.2,1.85Z"/>
    <path d="M211.83,346.28v-1.9h23.44v1.9h-10.68v31.04h-2.06v-31.04h-10.7Z"/>
    <path d="M253,377.77c-2.76,0-5.19-.71-7.3-2.11s-3.76-3.38-4.94-5.93-1.78-5.5-1.78-8.86.6-6.35,1.79-8.89,2.84-4.51,4.94-5.93,4.53-2.12,7.29-2.12,5.17.71,7.27,2.12,3.75,3.39,4.93,5.93c1.18,2.54,1.77,5.5,1.77,8.89s-.59,6.33-1.77,8.87c-1.18,2.54-2.82,4.51-4.93,5.92s-4.53,2.11-7.27,2.11ZM253,375.8c2.31,0,4.37-.61,6.17-1.83s3.21-2.95,4.23-5.18c1.02-2.23,1.54-4.87,1.54-7.91s-.51-5.7-1.54-7.94c-1.02-2.24-2.44-3.97-4.23-5.2-1.8-1.22-3.85-1.84-6.17-1.84s-4.37.61-6.18,1.82c-1.81,1.22-3.22,2.95-4.26,5.19s-1.55,4.89-1.55,7.96.51,5.65,1.54,7.88c1.02,2.23,2.44,3.97,4.25,5.2,1.81,1.23,3.87,1.85,6.2,1.85Z"/>
    <path d="M270.33,346.28v-1.9h23.44v1.9h-10.68v31.04h-2.06v-31.04h-10.7Z"/>
    <path d="M302.61,344.38v32.95h-2.06v-32.95h2.06Z"/>
    <path d="M311.59,377.32v-32.95h10.41c2.06,0,3.84.42,5.34,1.27s2.65,2.01,3.46,3.49c.81,1.48,1.22,3.18,1.22,5.1s-.41,3.59-1.22,5.07c-.81,1.48-1.97,2.64-3.47,3.48-1.5.84-3.29,1.26-5.35,1.26h-9.04v-1.88h9c1.67,0,3.1-.34,4.29-1.02,1.19-.68,2.11-1.61,2.76-2.81.65-1.19.97-2.57.97-4.11s-.32-2.94-.97-4.13c-.65-1.19-1.57-2.13-2.77-2.81-1.2-.68-2.63-1.02-4.28-1.02h-8.29v31.04h-2.06Z"/>
    <path d="M332.4,377.32l12.21-32.95h2.54l12.25,32.95h-2.19l-8.69-23.55c-.44-1.19-.9-2.48-1.38-3.86s-1-2.93-1.56-4.65h.57c-.56,1.72-1.08,3.28-1.57,4.67s-.94,2.67-1.37,3.85l-8.62,23.55h-2.19ZM337.66,366.96v-1.88h16.47v1.88h-16.47Z"/>
    <path d="M367.09,344.38v32.95h-2.06v-32.95h2.06ZM374.19,377.32h-8.03v-1.9h7.94c2.93,0,5.41-.59,7.42-1.76,2.01-1.17,3.53-2.85,4.55-5.04s1.54-4.81,1.54-7.86-.49-5.61-1.48-7.77c-.99-2.16-2.43-3.82-4.33-4.98-1.9-1.16-4.23-1.74-6.99-1.74h-8.71v-1.9h8.8c3.1,0,5.74.65,7.94,1.96s3.88,3.18,5.05,5.63,1.76,5.38,1.76,8.8-.6,6.43-1.81,8.91-2.97,4.37-5.27,5.68c-2.31,1.31-5.1,1.97-8.37,1.97Z"/>
    <path d="M409.28,377.77c-2.76,0-5.19-.71-7.3-2.11s-3.76-3.38-4.94-5.93-1.78-5.5-1.78-8.86.6-6.35,1.79-8.89,2.84-4.51,4.94-5.93,4.53-2.12,7.29-2.12,5.17.71,7.27,2.12,3.75,3.39,4.93,5.93c1.18,2.54,1.77,5.5,1.77,8.89s-.59,6.33-1.77,8.87c-1.18,2.54-2.82,4.51-4.93,5.92s-4.53,2.11-7.27,2.11ZM409.28,375.8c2.31,0,4.37-.61,6.17-1.83s3.21-2.95,4.23-5.18c1.02-2.23,1.54-4.87,1.54-7.91s-.51-5.7-1.54-7.94c-1.02-2.24-2.44-3.97-4.23-5.2-1.8-1.22-3.85-1.84-6.17-1.84s-4.37.61-6.18,1.82c-1.81,1.22-3.22,2.95-4.26,5.19s-1.55,4.89-1.55,7.96.51,5.65,1.54,7.88c1.02,2.23,2.44,3.97,4.25,5.2,1.81,1.23,3.87,1.85,6.2,1.85Z"/>
  </g>
</svg>