<?xml version="1.0" encoding="UTF-8"?>
<svg id="Capa_2" xmlns="http://www.w3.org/2000/svg" xmlns:xlink="http://www.w3.org/1999/xlink" version="1.1" viewBox="0 0 1584.7 1522.9">
  <!-- Generator: Adobe Illustrator 29.8.2, SVG Export Plug-In . SVG Version: 2.1.1 Build 3)  -->
  <defs>
    <style>
      .st0 {
        fill: #eedcef;
      }

      .st1 {
        fill: url(#Degradado_sin_nombre_8);
      }

      .st1, .st2, .st3 {
        stroke-width: 6px;
      }

      .st1, .st2, .st3, .st4, .st5, .st6, .st7, .st8, .st9 {
        stroke-linejoin: round;
      }

      .st1, .st2, .st3, .st10 {
        stroke: #fff;
      }

      .st2 {
        fill: url(#Degradado_sin_nombre_2);
      }

      .st3 {
        fill: url(#Degradado_sin_nombre_3);
      }

      .st4 {
        fill: #d68fd8;
      }

      .st4, .st11, .st12, .st13, .st5, .st14, .st6, .st15, .st16, .st7, .st17, .st8, .st9 {
        stroke: #000;
      }

      .st4, .st11, .st12, .st5, .st14, .st6, .st15, .st16, .st7, .st17, .st8, .st9 {
        stroke-width: .5px;
      }

      .st18, .st19, .st20, .st21, .st22, .st23, .st24 {
        isolation: isolate;
      }

      .st18, .st19, .st20, .st21, .st23 {
        font-family: FormaDJRDeck-Regular, 'Forma DJR Deck';
        font-size: 47.6px;
      }

      .st18, .st19, .st20, .st21, .st23, .st25, .st24 {
        fill: #010100;
      }

      .st19 {
        letter-spacing: 0em;
      }

      .st11, .st10, .st12, .st14, .st15, .st16, .st17 {
        stroke-miterlimit: 10;
      }

      .st11, .st26 {
        fill: #b564b5;
      }

      .st10 {
        stroke-width: 28px;
      }

      .st10, .st16, .st7 {
        fill: none;
      }

      .st12, .st13, .st27, .st6 {
        fill: #008cf4;
      }

      .st13 {
        stroke-miterlimit: 10;
        stroke-width: .5px;
      }

      .st28 {
        fill: #e5e4e4;
      }

      .st20 {
        letter-spacing: 0em;
      }

      .st21 {
        letter-spacing: 0em;
      }

      .st29, .st17 {
        fill: #ccecff;
      }

      .st5 {
        fill: #4badea;
      }

      .st23 {
        letter-spacing: 0em;
      }

      .st30, .st15, .st8, .st9 {
        fill: #fff;
      }

      .st7, .st8 {
        stroke-linecap: round;
      }

      .st24 {
        font-family: Salmond-Light, Salmond;
        font-size: 29.1px;
        font-weight: 300;
      }
    </style>
    <linearGradient id="Degradado_sin_nombre_8" data-name="Degradado sin nombre 8" x1="2984.6" y1="3204.1" x2="3138.5" y2="3353.2" gradientTransform="translate(-2393.5 -1750.5) rotate(87.8) scale(1 -1)" gradientUnits="userSpaceOnUse">
      <stop offset="0" stop-color="#008cf4"/>
      <stop offset="1" stop-color="#fff"/>
    </linearGradient>
    <linearGradient id="Degradado_sin_nombre_2" data-name="Degradado sin nombre 2" x1="2299.3" y1="3173" x2="2496.5" y2="3088.8" gradientTransform="translate(-3473.6 1509.6) rotate(42.8) scale(1 -1)" gradientUnits="userSpaceOnUse">
      <stop offset="0" stop-color="#b564b5"/>
      <stop offset=".1" stop-color="#a966b8"/>
      <stop offset=".3" stop-color="#8b6dc3"/>
      <stop offset=".6" stop-color="#5a77d4"/>
      <stop offset=".9" stop-color="#1886eb"/>
      <stop offset="1" stop-color="#008cf4"/>
    </linearGradient>
    <linearGradient id="Degradado_sin_nombre_3" data-name="Degradado sin nombre 3" x1="2078.3" y1="3624.9" x2="2138.2" y2="3851.5" gradientTransform="translate(-3473.6 1509.6) rotate(42.8) scale(1 -1)" gradientUnits="userSpaceOnUse">
      <stop offset="0" stop-color="#b564b5"/>
      <stop offset=".3" stop-color="#cf9acf"/>
      <stop offset=".5" stop-color="#e3c6e3"/>
      <stop offset=".7" stop-color="#f2e5f2"/>
      <stop offset=".9" stop-color="#fbf8fb"/>
      <stop offset="1" stop-color="#fff"/>
    </linearGradient>
  </defs>
  <g id="Capa_1-2">
    <path class="st28" d="M1266.5,1304.8c62,87.8,183,109.2,271.4,48.5l46.8,66.2c-125.6,88.8-299.4,58.9-388.1-66.7-11.1-15.7-42.9-97.4-77.7-109.3-36.6-12.4-64.7,4.1-64.7,4.1l-44.4-127.9s186.2-11.5,229.7,130.2c5.9,19.1,14.9,37.6,27.1,54.7h0Z"/>
    <path class="st27" d="M745.2,1305.1c-62,87.8-183,109.2-271.4,48.5l-46.8,66.2c125.6,88.8,299.4,58.9,388.1-66.7,11.1-15.7,68.8-107.1,98.7-112.4,47.8-8.4,88.5-123.7,88.5-123.7,0,0-173.4-18.8-230.1,133.3-7,18.7-15,37.6-27.1,54.7Z"/>
    <g>
      <circle class="st1" cx="1001.8" cy="1183.3" r="107.1" transform="translate(-543.3 1055) rotate(-45)"/>
      <g>
        <path class="st30" d="M1001.7,1282.7c-14.3,0-28.3-3.1-41.4-9.1-49.8-22.9-71.7-82-48.8-131.8,16.2-35.2,51.6-57.9,90.3-57.9s28.3,3.1,41.4,9.1c24.1,11.1,42.5,30.9,51.7,55.8s8.2,51.9-2.9,76c-16.2,35.2-51.6,57.9-90.3,57.9h0Z"/>
        <path d="M1001.9,1083.7v.5c14.3,0,28.2,3.1,41.3,9.1,49.7,22.8,71.5,81.8,48.7,131.4-8.1,17.6-20.9,32.3-37.2,42.5-15.9,10-34.2,15.2-52.9,15.2s-28.2-3.1-41.3-9.1c-49.7-22.8-71.5-81.8-48.7-131.4,8.1-17.6,21-32.3,37.2-42.5,15.9-10,34.2-15.2,52.9-15.2v-.5M1001.9,1083.7c-37.7,0-73.8,21.5-90.6,58-23,50-1.1,109.1,48.9,132.1,13.5,6.2,27.6,9.1,41.5,9.1,37.7,0,73.8-21.5,90.6-58,23-50,1.1-109.1-48.9-132.1-13.5-6.2-27.6-9.1-41.5-9.1h0Z"/>
      </g>
      <g class="st22">
        <g class="st22">
          <path class="st25" d="M927.9,1186.2v-19h6.5c1.5,0,2.7.3,3.7.8s1.7,1.3,2.1,2.2.7,1.9.7,3.1-.2,2.2-.7,3.1c-.5.9-1.2,1.7-2.1,2.2-1,.5-2.2.8-3.6.8h-4.6v-2.1h4.5c1,0,1.8-.2,2.4-.5s1.1-.8,1.3-1.4.4-1.3.4-2-.1-1.4-.4-2c-.3-.6-.7-1.1-1.3-1.4-.6-.3-1.4-.5-2.4-.5h-4v16.9h-2.4Z"/>
          <path class="st25" d="M944.6,1186.2v-19h6.5c1.5,0,2.7.3,3.7.8,1,.5,1.7,1.2,2.1,2.1s.7,1.9.7,3-.2,2.1-.7,3c-.5.9-1.2,1.5-2.1,2-1,.5-2.2.7-3.6.7h-5.2v-2.2h5.1c1,0,1.8-.1,2.4-.4.6-.3,1.1-.7,1.3-1.3.3-.5.4-1.2.4-1.9s-.1-1.4-.4-2c-.3-.6-.7-1-1.3-1.3s-1.4-.5-2.4-.5h-4v16.9h-2.4ZM955.5,1186.2l-4.6-8.6h2.7l4.7,8.6h-2.8Z"/>
          <path class="st25" d="M969.1,1186.4c-1.6,0-3.1-.4-4.3-1.2s-2.3-1.9-3-3.4-1.1-3.2-1.1-5.2.4-3.8,1.1-5.2c.7-1.5,1.7-2.6,3-3.4s2.7-1.2,4.3-1.2,3.1.4,4.3,1.2,2.3,1.9,3,3.4c.7,1.5,1.1,3.2,1.1,5.2s-.4,3.7-1.1,5.2c-.7,1.5-1.7,2.6-3,3.4s-2.7,1.2-4.3,1.2ZM969.1,1184.2c1.1,0,2.2-.3,3.1-.9.9-.6,1.6-1.4,2.2-2.5s.8-2.5.8-4.1-.3-3-.8-4.1c-.5-1.1-1.3-2-2.2-2.5-.9-.6-1.9-.9-3.1-.9s-2.2.3-3.1.9c-.9.6-1.6,1.4-2.2,2.5-.5,1.1-.8,2.5-.8,4.1s.3,3,.8,4.1,1.3,2,2.2,2.5c.9.6,1.9.9,3.1.9Z"/>
          <path class="st25" d="M981.4,1186.2v-19h6.5c1.5,0,2.7.3,3.7.8s1.7,1.3,2.1,2.2c.5.9.7,1.9.7,3.1s-.2,2.2-.7,3.1c-.5.9-1.2,1.7-2.1,2.2-1,.5-2.2.8-3.6.8h-4.6v-2.1h4.5c1,0,1.8-.2,2.4-.5.6-.3,1.1-.8,1.3-1.4s.4-1.3.4-2-.1-1.4-.4-2c-.3-.6-.7-1.1-1.3-1.4-.6-.3-1.4-.5-2.4-.5h-4v16.9h-2.4Z"/>
          <path class="st25" d="M1005.5,1186.5c-1.5,0-2.8-.3-3.9-.9-1.1-.6-2-1.4-2.6-2.4s-.9-2.2-.9-3.5v-12.5h2.4v12.4c0,.9.2,1.7.6,2.4.4.7,1,1.3,1.7,1.7.7.4,1.6.6,2.7.6s1.9-.2,2.7-.6c.7-.4,1.3-1,1.7-1.7.4-.7.6-1.5.6-2.4v-12.4h2.4v12.5c0,1.3-.3,2.5-.9,3.5-.6,1-1.5,1.8-2.6,2.4-1.1.6-2.4.9-3.9.9Z"/>
          <path class="st25" d="M1017.5,1186.2v-19h11.6v2.1h-9.2v6.2h8.5v2.1h-8.5v6.4h9.3v2.1h-11.7Z"/>
        </g>
        <g class="st22">
          <path class="st25" d="M1038,1186.5c-1.4,0-2.6-.2-3.6-.7-1-.4-1.8-1.1-2.4-1.9-.6-.8-.9-1.7-1-2.8h2.5c0,.7.3,1.3.7,1.8.4.5,1,.8,1.6,1,.7.2,1.3.3,2.1.3s1.6-.1,2.3-.4c.7-.3,1.2-.7,1.6-1.2.4-.5.6-1.1.6-1.8s-.2-1.1-.5-1.5-.8-.7-1.4-.9c-.6-.2-1.2-.5-1.9-.7l-2.3-.7c-1.5-.4-2.7-1.1-3.6-1.9-.9-.8-1.3-1.8-1.3-3.1s.3-2,.9-2.8,1.4-1.4,2.3-1.9c1-.4,2.1-.7,3.3-.7s2.4.2,3.3.7c1,.4,1.7,1,2.3,1.8.6.8.9,1.6.9,2.6h-2.4c-.1-.9-.6-1.6-1.3-2.2-.8-.5-1.7-.8-2.9-.8s-1.5.1-2.1.4c-.6.3-1.1.6-1.4,1.1s-.5,1-.5,1.6.2,1.2.6,1.6c.4.4.9.7,1.5.9.6.2,1.1.4,1.5.5l1.9.5c.5.1,1.1.3,1.7.6.6.2,1.2.6,1.8,1s1,.9,1.4,1.5.5,1.4.5,2.2-.3,2-.8,2.8c-.5.8-1.3,1.5-2.4,2s-2.3.7-3.7.7Z"/>
        </g>
        <g class="st22">
          <path class="st25" d="M1047.3,1169.3v-2.1h14.4v2.1h-6v16.9h-2.4v-16.9h-6Z"/>
        </g>
        <g class="st22">
          <path class="st25" d="M1061.1,1186.2l6.9-19h2.8l7,19h-2.6l-4-11.3c-.2-.7-.5-1.6-.9-2.6s-.7-2.4-1.2-4h.5c-.5,1.6-.9,3-1.2,4s-.6,1.9-.8,2.6l-3.9,11.3h-2.6ZM1064.6,1180.9v-2.1h9.8v2.1h-9.8Z"/>
        </g>
      </g>
    </g>
    <g class="st22">
      <text class="st24" transform="translate(368 1216.3) rotate(-94.8)"><tspan x="0" y="0">E</tspan></text>
    </g>
    <g class="st22">
      <text class="st24" transform="translate(366.8 1202.4) rotate(-91.2)"><tspan x="0" y="0">X</tspan></text>
    </g>
    <g class="st22">
      <text class="st24" transform="translate(366.5 1186.1) rotate(-87.5)"><tspan x="0" y="0">P</tspan></text>
    </g>
    <g class="st22">
      <text class="st24" transform="translate(367.1 1170.9) rotate(-84.1)"><tspan x="0" y="0">E</tspan></text>
    </g>
    <g class="st22">
      <text class="st24" transform="translate(368.5 1156.9) rotate(-80.7)"><tspan x="0" y="0">R</tspan></text>
    </g>
    <g class="st22">
      <text class="st24" transform="translate(371.2 1141.7) rotate(-78.1)"><tspan x="0" y="0">I</tspan></text>
    </g>
    <g class="st22">
      <text class="st24" transform="translate(372.3 1135.1) rotate(-74.6)"><tspan x="0" y="0">M</tspan></text>
    </g>
    <g class="st22">
      <text class="st24" transform="translate(378.6 1112.9) rotate(-70.3)"><tspan x="0" y="0">E</tspan></text>
    </g>
    <g class="st22">
      <text class="st24" transform="translate(383.2 1099.7) rotate(-66.5)"><tspan x="0" y="0">N</tspan></text>
    </g>
    <g class="st22">
      <text class="st24" transform="translate(390.8 1082.5) rotate(-62.7)"><tspan x="0" y="0">T</tspan></text>
    </g>
    <g class="st22">
      <text class="st24" transform="translate(396.2 1071.7) rotate(-59.5)"><tspan x="0" y="0">A</tspan></text>
    </g>
    <path class="st27" d="M425.7,1082.7c-60.9,88.6-39.2,209.5,48.3,271.4l-45.9,66.8c-126.7-87.2-161.8-262.7-71.6-387.2,34.5-47.6,30.6-118,10.2-136.7l96.5-56.5s45.6,124.5,5.7,196.9c-9.7,17.5-31.2,28-43.2,45.4h0Z"/>
    <polyline class="st10" points="461.2 1454.7 448 1383.2 517.2 1358.5"/>
    <g class="st22">
      <g class="st22">
        <path d="M371.7,1257.8l-28.2,7.3-4.4-17.2,3.2-.8,3.5,13.6,9.2-2.4-3.3-12.6,3.2-.8,3.3,12.7,9.5-2.4-3.6-13.7,3.2-.8,4.5,17.3Z"/>
      </g>
    </g>
    <g class="st22">
      <g class="st22">
        <path d="M366.3,1236.1l-17.7-9,2.7-.4-14,12.8-.6-4.3,5.5-5c.8-.7,1.5-1.4,2.1-1.8.6-.5,1.1-.9,1.7-1.3.5-.4,1.2-.9,2-1.4v.6c-.8-.3-1.5-.6-2.2-.8s-1.3-.5-2-.8c-.7-.3-1.5-.7-2.5-1.2l-6.7-3.4-.6-4.2,16.8,8.5-2.7.4,14.7-13.4.6,4.2-6.6,6.1c-.7.7-1.3,1.2-1.9,1.7-.5.5-1,.9-1.6,1.3-.5.4-1.2.9-1.9,1.4v-.8c.7.3,1.4.5,2,.8.6.2,1.2.5,1.9.8.6.3,1.4.7,2.3,1.1l8,4.1.6,4.2Z"/>
      </g>
    </g>
    <g class="st22">
      <g class="st22">
        <path d="M362.7,1207.1l-29.1.6-.2-10c0-2.3.3-4.1,1.1-5.6.8-1.5,1.9-2.6,3.3-3.3,1.4-.7,2.9-1.1,4.7-1.2,1.7,0,3.3.3,4.7,1,1.4.7,2.6,1.7,3.4,3.2.9,1.4,1.3,3.3,1.4,5.6v7c.1,0-3.1,0-3.1,0v-6.9c-.2-1.5-.5-2.8-1-3.7-.5-.9-1.3-1.6-2.2-2-.9-.4-2-.6-3.1-.6-1.1,0-2.2.3-3.1.7-.9.4-1.6,1.1-2.1,2.1-.5,1-.7,2.2-.7,3.8v6.1c.1,0,26-.5,26-.5v3.7Z"/>
      </g>
    </g>
    <g class="st22">
      <g class="st22">
        <path d="M362.7,1181.2l-29-2.7,1.7-17.7,3.3.3-1.3,14,9.4.9,1.2-13,3.3.3-1.2,13,9.7.9,1.3-14.1,3.3.3-1.7,17.8Z"/>
      </g>
    </g>
    <g class="st22">
      <g class="st22">
        <path d="M365.5,1156.6l-28.5-6,2.1-9.7c.5-2.2,1.2-4,2.3-5.2s2.3-2.1,3.8-2.5c1.5-.4,3.1-.4,4.7,0,1.7.4,3.1,1,4.3,2,1.2,1,1.9,2.2,2.4,3.8.4,1.6.4,3.5,0,5.7l-1.6,7.7-3.2-.7,1.6-7.6c.3-1.5.4-2.8.1-3.8-.2-1-.7-1.8-1.4-2.4-.7-.6-1.6-1-2.7-1.2-1.1-.2-2.2-.2-3.1,0s-1.7.8-2.4,1.6c-.7.8-1.1,2-1.5,3.5l-1.3,5.9,25.3,5.4-.8,3.6ZM369,1140.2l-14.3,4.2.9-4.1,14.3-4.3-.9,4.2Z"/>
      </g>
    </g>
    <g class="st22">
      <g class="st22">
        <path d="M344.8,1118.9l27.9,8.4-1.1,3.6-27.9-8.4,1.1-3.6Z"/>
      </g>
    </g>
    <g class="st22">
      <g class="st22">
        <path d="M374.7,1119.8l-26.8-11.4,2.1-4.9,19.7.6c.5,0,1,0,1.7.1.7,0,1.4.1,2.2.2s1.6.2,2.3.2,1.5.2,2.1.3l-.3.8c-.5-.4-1-.8-1.6-1.3s-1.2-1-1.8-1.5c-.6-.5-1.2-1-1.7-1.5-.5-.5-1-.9-1.3-1.2l-14.1-13.7,2.1-4.9,26.8,11.4-1.4,3.4-15.3-6.5c-.6-.2-1.2-.5-1.9-.8-.7-.3-1.4-.6-2.2-1-.8-.3-1.6-.7-2.3-1.1-.8-.4-1.6-.7-2.3-1v-.3c.8.6,1.6,1.2,2.3,1.9.7.6,1.4,1.3,2.1,1.9.7.6,1.3,1.2,1.9,1.7.6.5,1,1,1.4,1.3l12.7,12.5-1.3,3-17.9-.4c-.5,0-1.1,0-1.8,0s-1.6-.1-2.5-.2c-.9,0-1.8-.1-2.8-.2-1,0-2-.2-3-.2v-.3c.8.3,1.6.5,2.3.9s1.6.6,2.4,1c.8.3,1.6.6,2.3.9.7.3,1.4.6,2,.8l15.3,6.5-1.4,3.3Z"/>
      </g>
    </g>
    <g class="st22">
      <g class="st22">
        <path d="M390.1,1086.2l-25-14.9,9.1-15.2,2.8,1.7-7.2,12,8.1,4.9,6.7-11.2,2.8,1.7-6.7,11.2,8.4,5,7.3-12.2,2.8,1.7-9.2,15.4Z"/>
      </g>
    </g>
    <g class="st22">
      <g class="st22">
        <path d="M403,1065.1l-22.9-18,2.7-3.4,22,2.2c.6,0,1.3.1,2.2.3.9.1,1.8.3,2.9.4,1.1.2,2.2.4,3.3.7l-.3.4c-1-.6-1.8-1.2-2.7-1.8s-1.6-1.1-2.3-1.7c-.7-.5-1.3-1-1.7-1.3l-14-11,2.3-2.9,22.9,18-2.7,3.5-19.5-1.9c-.9,0-1.8-.2-2.8-.3-.9-.1-2-.3-3.3-.5-1.3-.2-2.8-.4-4.7-.7l.4-.5c1.2.8,2.3,1.6,3.3,2.3,1,.7,1.9,1.3,2.6,1.9.7.5,1.3,1,1.7,1.3l13.1,10.2-2.3,2.9Z"/>
      </g>
    </g>
    <g class="st22">
      <g class="st22">
        <path d="M403.9,1023.3l-2.3-2.3,15.7-15.4,2.3,2.3-6.5,6.4,18.1,18.4-2.6,2.6-18.1-18.4-6.5,6.4Z"/>
      </g>
    </g>
    <g class="st22">
      <g class="st22">
        <path d="M437.7,1026.3l-9.8-29.4,3.4-2.7,26.5,16.1-3.1,2.4-15.6-9.7c-1-.6-2.1-1.4-3.5-2.3-1.4-.9-3.1-2.2-5.2-3.6l.6-.4c1,2.4,1.8,4.4,2.4,6,.6,1.6,1.1,2.9,1.4,3.9l6,17.3-3.1,2.5ZM436.8,1016.6l-2-2.5,11.7-9.3,2,2.5-11.7,9.3Z"/>
      </g>
    </g>
    <g>
      <path class="st29" d="M587.3,1389.9c-29.7,0-59.5-6.8-86.1-19.8-27.9-13.6-51.6-33.1-70.5-58.1-65.2-86.2-48-209.4,38.2-274.6,34.3-25.9,75.1-39.7,118-39.7s59.5,6.8,86.1,19.8c27.9,13.6,51.6,33.1,70.5,58,65.2,86.2,48,209.4-38.2,274.6-34.3,25.9-75.1,39.7-118,39.7h0Z"/>
      <path d="M587,997.6v.5c29.7,0,59.4,6.8,86,19.8,27.9,13.6,51.5,33.1,70.4,58,15.9,21.1,27.3,44.7,33.7,70.1,6.2,24.5,7.5,49.8,4,74.9s-11.7,49.1-24.3,71c-13.1,22.7-30.4,42.3-51.5,58.2-34.3,25.9-75,39.6-117.9,39.6s-59.4-6.8-86-19.8c-27.9-13.6-51.5-33.1-70.4-58-15.9-21.1-27.3-44.7-33.7-70.1-6.2-24.5-7.5-49.8-4-74.9,3.5-25.2,11.7-49.1,24.4-71,13.1-22.7,30.4-42.3,51.5-58.2,34.3-25.9,75-39.6,117.9-39.6v-.5M587,997.6c-41.2,0-82.8,12.9-118.2,39.7-86.5,65.4-103.6,188.4-38.2,274.9,38.6,51.1,97.3,77.9,156.7,77.9s82.8-12.9,118.2-39.7c86.5-65.4,103.6-188.4,38.2-274.9-38.6-51.1-97.3-78-156.7-78h0Z"/>
    </g>
    <g class="st22">
      <text class="st18" transform="translate(574.6 1167.9)"><tspan x="0" y="0">4</tspan></text>
      <text class="st18" transform="translate(442.2 1225)"><tspan x="0" y="0">P</tspan></text>
      <text class="st18" transform="translate(468.4 1225)"><tspan x="0" y="0">R</tspan></text>
      <text class="st20" transform="translate(495.8 1225)"><tspan x="0" y="0">OTO</tspan></text>
      <text class="st18" transform="translate(581.7 1225)"><tspan x="0" y="0">TI</tspan></text>
      <text class="st19" transform="translate(615.6 1225)"><tspan x="0" y="0">P</tspan></text>
      <text class="st18" transform="translate(637.5 1225)"><tspan x="0" y="0">AD</tspan></text>
      <text class="st18" transform="translate(698 1225)"><tspan x="0" y="0">O</tspan></text>
    </g>
    <path class="st26" d="M415.6,267.6c-97-46.4-213.1-6-260.5,90.1l-73.1-34.9c66.3-138.8,232.5-197.5,371.3-131.2,17.4,8.3,38.2,34.5,53.5,11.4l82.3,51.9s-69.7,87.9-123.7,56.7c-17.3-10-30.8-34.9-49.8-44Z"/>
    <path class="st26" d="M245.9,617.6c-96.4-47.6-136.5-163.7-90.3-260.5l-72.7-35.9c-68.1,137.9-13,308.3,126.5,372.9,47.4,22,127.5,64.8,127.5,107.2l109.2-38.1s-62.4-108.2-142-127.5c-19.4-4.7-39.4-8.9-58.3-18.2h0Z"/>
    <polyline class="st10" points="66.8 321.9 138.7 311.6 160.7 381.6"/>
    <g>
      <path class="st0" d="M330.5,639.3c-72.8,0-139.1-39.9-173.2-104-50.7-95.4-14.4-214.4,81.1-265.1,28.3-15,60-23,91.9-23,72.8,0,139.1,39.9,173.3,104.1,50.7,95.4,14.4,214.4-81.1,265.1-28.3,15-60,23-91.9,23h0Z"/>
      <path d="M330.1,247.4c35,0,69.4,9.4,99.6,27.1,31,18.3,56.4,44.8,73.4,76.8,12.4,23.3,19.9,48.4,22.2,74.5,2.2,25.2-.4,50.3-7.8,74.6-7.4,24.3-19.3,46.6-35.2,66.3-16.5,20.3-36.7,37-60.1,49.4-28.2,15-60,23-91.7,23s-69.4-9.4-99.6-27.1c-31-18.3-56.4-44.8-73.4-76.8-12.4-23.3-19.9-48.4-22.2-74.5-2.2-25.2.4-50.3,7.8-74.6,7.4-24.3,19.3-46.6,35.2-66.3,16.5-20.3,36.7-37,60.1-49.4,28.2-15,60-22.9,91.8-22.9h0M330.1,246.9c-31.1,0-62.6,7.4-92,23-95.7,50.9-132.1,169.7-81.2,265.4,35.3,66.4,103.2,104.2,173.5,104.2s62.6-7.4,92-23c95.7-50.9,132.1-169.7,81.2-265.4-35.3-66.4-103.2-104.2-173.5-104.2h0Z"/>
    </g>
    <g class="st22">
      <text class="st18" transform="translate(317.8 418.1)"><tspan x="0" y="0">5</tspan></text>
      <text class="st18" transform="translate(215 475.2)"><tspan x="0" y="0">ES</tspan></text>
      <text class="st21" transform="translate(268.3 475.2)"><tspan x="0" y="0">C</tspan></text>
      <text class="st18" transform="translate(298.7 475.2)"><tspan x="0" y="0">A</tspan></text>
      <text class="st23" transform="translate(328.1 475.2)"><tspan x="0" y="0">L</tspan></text>
      <text class="st18" transform="translate(350.9 475.2)"><tspan x="0" y="0">AD</tspan></text>
      <text class="st18" transform="translate(411.5 475.2)"><tspan x="0" y="0">O</tspan></text>
    </g>
    <g>
      <g class="st22">
        <g class="st22">
          <path d="M179.8,281.6l-19-22.1,13.4-11.6,2.1,2.5-10.6,9.1,6.2,7.2,9.9-8.5,2.1,2.5-9.9,8.5,6.4,7.4,10.8-9.3,2.1,2.5-13.6,11.7Z"/>
        </g>
      </g>
      <g class="st22">
        <g class="st22">
          <path d="M205.7,261.2l-25.1-18.2,3.2-2.2,14.7,10.9c.8.6,1.9,1.5,3.3,2.6,1.4,1.1,3,2.4,4.9,4l-.6.4c-.8-2.5-1.4-4.5-1.9-6.1s-.8-3-1.1-4l-4.7-17.7,3.3-2.2,7.4,30.1-3.6,2.4Z"/>
        </g>
      </g>
      <g class="st22">
        <g class="st22">
          <path d="M217.4,253.3l-4-30.7,3.8-2,22.9,20.9-3.5,1.8-13.4-12.5c-.8-.8-1.8-1.8-3-2.9-1.2-1.2-2.7-2.7-4.4-4.6l.6-.3c.5,2.5.9,4.7,1.2,6.3.3,1.7.5,3,.7,4.1l2.6,18.1-3.5,1.8ZM218.4,243.7l-1.5-2.9,13.3-6.9,1.5,2.9-13.3,6.9Z"/>
        </g>
      </g>
      <g class="st22">
        <g class="st22">
          <path d="M244.3,240.1l-10.2-27.2,3.5-1.3,9.1,24.2,12.6-4.7,1.2,3.1-16.1,6Z"/>
        </g>
      </g>
      <g class="st22">
        <g class="st22">
          <path d="M277.8,229.9c-2.2.5-4.3.6-6.2,0-1.9-.5-3.4-1.4-4.7-2.7s-2.1-2.9-2.6-4.9l-4.4-18.7,3.6-.9,4.4,18.4c.3,1.4.9,2.5,1.8,3.4.9.9,1.9,1.5,3.2,1.9,1.3.3,2.7.3,4.2,0,1.5-.4,2.8-1,3.8-1.9s1.6-1.9,2-3.1.4-2.5,0-3.8l-4.4-18.4,3.6-.9,4.4,18.7c.5,1.9.4,3.8-.1,5.5-.6,1.7-1.5,3.2-3,4.5s-3.3,2.2-5.5,2.7ZM268.8,198.7l1.3-6.2,3.8-.9-2.4,6.5-2.8.7Z"/>
        </g>
      </g>
      <g class="st22">
        <g class="st22">
          <path d="M292.9,226.1l7.5-30,4.3-.4,13.7,27.8-3.9.4-7.9-16.5c-.5-1-1.1-2.3-1.7-3.8-.7-1.5-1.5-3.5-2.5-5.9h.7c-.4,2.5-.8,4.6-1.2,6.3s-.6,3-.9,4l-4.2,17.8-3.9.4ZM297.4,217.4l-.3-3.2,14.9-1.6.3,3.2-14.9,1.6Z"/>
        </g>
      </g>
    </g>
    <g>
      <g class="st22">
        <g class="st22">
          <path d="M117.6,428l-28.9-3.7.5-3.7,28.9,3.7-.5,3.7Z"/>
        </g>
      </g>
      <g class="st22">
        <g class="st22">
          <path d="M87.3,434.8l29.1.3v5.3c0,0-18.5,7-18.5,7-.4.2-1,.4-1.6.6-.6.2-1.3.4-2.1.7-.8.2-1.5.5-2.3.7-.8.2-1.4.4-2.1.6v-.8c.6.2,1.3.4,2,.6.7.2,1.5.5,2.2.7.8.2,1.5.5,2.1.7.7.2,1.2.4,1.7.6l18.3,7.3v5.3c0,0-29.2-.3-29.2-.3v-3.7s16.7.2,16.7.2c.6,0,1.3,0,2.1,0s1.6,0,2.4,0c.8,0,1.7,0,2.6,0,.9,0,1.7,0,2.5,0v.3c-.9-.3-1.8-.6-2.7-.9-.9-.3-1.8-.6-2.7-.9-.9-.3-1.7-.6-2.4-.9-.7-.3-1.3-.5-1.8-.7l-16.6-6.7v-3.2s16.7-6.4,16.7-6.4c.5-.2,1-.4,1.7-.6.7-.2,1.5-.5,2.3-.8.9-.3,1.8-.6,2.7-.9.9-.3,1.9-.6,2.9-.9v.4c-.7,0-1.5,0-2.4,0-.8,0-1.7,0-2.6,0-.9,0-1.7,0-2.5,0-.8,0-1.5,0-2.2,0l-16.6-.2v-3.5Z"/>
        </g>
      </g>
      <g class="st22">
        <g class="st22">
          <path d="M88.2,475.4l28.8-4,1.4,9.9c.3,2.2.2,4.1-.5,5.7-.6,1.6-1.6,2.8-2.8,3.7-1.3.9-2.8,1.5-4.5,1.7s-3.3.1-4.8-.4c-1.5-.5-2.8-1.4-3.8-2.8-1-1.3-1.7-3.1-2-5.4l-1-7,3.2-.4.9,6.8c.2,1.5.6,2.7,1.3,3.6.7.9,1.5,1.4,2.4,1.7,1,.3,2,.4,3.2.2s2.1-.5,3-1.1c.8-.5,1.5-1.3,1.8-2.3.4-1,.5-2.3.3-3.8l-.8-6-25.6,3.6-.5-3.7Z"/>
        </g>
      </g>
      <g class="st22">
        <g class="st22">
          <path d="M92.8,503.7l28.2-7.4.9,3.6-25,6.5,3.4,13-3.2.8-4.3-16.6Z"/>
        </g>
      </g>
      <g class="st22">
        <g class="st22">
          <path d="M99.2,527.1l30.9-.9,1.6,4-23.1,20.7-1.4-3.6,13.8-12.1c.9-.7,1.9-1.6,3.2-2.7,1.3-1.1,3-2.4,5-3.9l.3.7c-2.6.3-4.7.5-6.4.6-1.7.1-3.1.2-4.1.3l-18.3.8-1.5-3.7ZM108.7,529l3-1.2,5.5,13.9-3,1.2-5.5-13.9Z"/>
        </g>
      </g>
      <g class="st22">
        <g class="st22">
          <path d="M112,557.8l25.3-14.4,2.2,3.8-10.3,19.5c-.3.5-.6,1.1-1.1,1.9-.4.8-.9,1.6-1.5,2.5-.6.9-1.2,1.9-1.9,2.8l-.3-.5c.9-.7,1.8-1.3,2.7-1.8.9-.6,1.7-1,2.4-1.5.7-.4,1.4-.8,1.9-1.1l15.5-8.8,1.8,3.2-25.3,14.4-2.2-3.8,9.2-17.4c.4-.8.9-1.6,1.3-2.4.5-.8,1-1.8,1.7-2.9.7-1.1,1.5-2.4,2.4-4.1l.3.6c-1.2.8-2.4,1.5-3.4,2.1-1,.7-1.9,1.2-2.7,1.7-.8.5-1.4.8-1.8,1.1l-14.4,8.2-1.8-3.2Z"/>
        </g>
      </g>
      <g class="st22">
        <g class="st22">
          <path d="M149.7,570.7l2.6-2,13.4,17.4-2.6,2-5.6-7.2-20.5,15.8-2.3-2.9,20.5-15.8-5.6-7.3Z"/>
        </g>
      </g>
      <g class="st22">
        <g class="st22">
          <path d="M144.5,606l28.3-12.7,3,3.1-13.5,27.9-2.7-2.8,8.1-16.4c.5-1,1.2-2.3,2-3.7.8-1.5,1.8-3.3,3.1-5.6l.5.5c-2.3,1.2-4.2,2.2-5.7,3-1.5.8-2.8,1.4-3.7,1.8l-16.6,7.7-2.7-2.8ZM154,604.2l2.3-2.3,10.4,10.7-2.3,2.3-10.4-10.7Z"/>
        </g>
      </g>
    </g>
    <g>
      <path class="st15" d="M441.4,589s15.7-57.5,37.4-53.7c9.6,1.7,26.6,21.4,24,30.8-4.5,15.7-28.6,34.7-61.3,22.9h0Z"/>
      <path class="st14" d="M449.6,582.9s10.8-41.7,26.3-37.9c6.7,1.6,18.8,15.1,16.9,21.7-3.1,11.1-22.9,25.2-43.2,16.2h0Z"/>
      <path class="st11" d="M509.1,512.6s-36.5-19.4-53.1,10.3c1.3-.9,21.7.2,22.4,16.4"/>
      <path class="st11" d="M534.4,545.1s9.8,40.2-23.1,48.9c1.2-1,5.2-21.1-10.4-25.7"/>
      <path class="st11" d="M488.4,588.6l-32.5-41.8,18.6-19.6c22.4-23.6,55.1-34.5,87.3-29.1h0c-2.7,32.5-21.4,61.4-49.8,77.3l-23.6,13.2h0Z"/>
      <circle class="st14" cx="506.8" cy="540.9" r="19.4"/>
      <path class="st16" d="M521.3,499.7s.8,29.3,28.5,36.7"/>
    </g>
    <g>
      <polyline class="st15" points="579.1 1028.9 587.8 1059.1 640.5 1068.3 718.9 980.4 711.8 955.7"/>
      <polygon class="st8" points="631.6 1037.3 711.8 955.7 658.3 956.9 579 1028.7 631.6 1037.3"/>
      <g>
        <path class="st12" d="M648,959.3s1.9,6.7,2.7,9.2c.7,2.5,6.4,3.1,12.6,1.3,6.2-1.8,10.7-5.3,10-7.9s-2.7-9.2-2.7-9.2"/>
        <ellipse class="st13" cx="659.3" cy="956.1" rx="11.8" ry="4.8" transform="translate(-239.8 220.9) rotate(-16.1)"/>
      </g>
      <g>
        <path class="st12" d="M629.7,978s1.9,6.7,2.7,9.2c.7,2.5,6.4,3.1,12.6,1.3,6.2-1.8,10.7-5.3,10-7.9l-2.7-9.2"/>
        <ellipse class="st13" cx="640.9" cy="974.8" rx="11.8" ry="4.8" transform="translate(-245.7 216.6) rotate(-16.1)"/>
      </g>
      <g>
        <path class="st12" d="M587.5,1015.7s1.9,6.7,2.7,9.2c.7,2.5,6.4,3.1,12.6,1.3s10.7-5.3,10-7.9c-.7-2.5-2.7-9.2-2.7-9.2"/>
        <ellipse class="st13" cx="598.7" cy="1012.5" rx="11.8" ry="4.8" transform="translate(-257.9 206.3) rotate(-16.1)"/>
      </g>
      <g>
        <path class="st12" d="M673,961s1.9,6.7,2.7,9.2,6.4,3.1,12.6,1.3,10.7-5.3,10-7.9c-.7-2.5-2.7-9.2-2.7-9.2"/>
        <ellipse class="st13" cx="684.2" cy="957.8" rx="11.8" ry="4.8" transform="translate(-239.3 228) rotate(-16.1)"/>
      </g>
      <g>
        <path class="st12" d="M613.8,1018.1s1.9,6.6,2.7,9.2,6.4,3.1,12.6,1.3c6.2-1.8,10.7-5.3,10-7.9-.7-2.5-2.7-9.2-2.7-9.2"/>
        <ellipse class="st13" cx="625" cy="1014.9" rx="11.8" ry="4.8" transform="translate(-257.5 213.7) rotate(-16.1)"/>
      </g>
      <g>
        <path class="st12" d="M654.9,980.5s1.9,6.7,2.7,9.2c.7,2.5,6.4,3.1,12.6,1.3,6.2-1.8,10.7-5.3,10-7.9-.7-2.5-2.7-9.2-2.7-9.2"/>
        <ellipse class="st13" cx="666.2" cy="977.3" rx="11.8" ry="4.8" transform="translate(-245.4 223.7) rotate(-16.1)"/>
      </g>
      <line class="st7" x1="631.6" y1="1037.3" x2="640.5" y2="1068.3"/>
      <g>
        <path class="st12" d="M608.8,996.2s1.9,6.7,2.7,9.2c.7,2.5,6.4,3.1,12.6,1.3,6.2-1.8,10.7-5.3,10-7.9-.7-2.5-2.7-9.2-2.7-9.2"/>
        <ellipse class="st13" cx="620.1" cy="993" rx="11.8" ry="4.8" transform="translate(-251.6 211.5) rotate(-16.1)"/>
      </g>
      <g>
        <path class="st12" d="M634.7,997.5s1.9,6.7,2.7,9.2,6.4,3.1,12.6,1.3c6.2-1.8,10.7-5.3,10-7.9-.7-2.5-2.7-9.2-2.7-9.2"/>
        <ellipse class="st13" cx="645.9" cy="994.3" rx="11.8" ry="4.8" transform="translate(-250.9 218.7) rotate(-16.1)"/>
      </g>
    </g>
    <g>
      <polyline class="st9" points="745 1025.3 745 1055 690.6 1074.7 645.6 1049.4 645.1 1021.7"/>
      <polygon class="st8" points="690.6 1044.4 645.1 1021.7 696.8 1008 745 1025.3 690.6 1044.4"/>
      <line class="st7" x1="690.6" y1="1044.4" x2="690.6" y2="1074.7"/>
      <g>
        <path class="st6" d="M730.1,1014.7v9.6c0,2.6-5.3,4.8-11.8,4.8s-11.8-2.1-11.8-4.8v-9.6"/>
        <ellipse class="st6" cx="718.3" cy="1014.7" rx="11.8" ry="4.8"/>
      </g>
      <g>
        <path class="st6" d="M705.8,1005.2v9.6c0,2.6-5.3,4.8-11.8,4.8s-11.8-2.1-11.8-4.8v-9.6"/>
        <ellipse class="st6" cx="694" cy="1005.2" rx="11.8" ry="4.8"/>
      </g>
      <g>
        <path class="st6" d="M705.5,1025.6v9.6c0,2.6-5.3,4.8-11.8,4.8s-11.8-2.1-11.8-4.8v-9.6"/>
        <ellipse class="st6" cx="693.8" cy="1025.6" rx="11.8" ry="4.8"/>
      </g>
      <g>
        <path class="st6" d="M681.4,1015v9.6c0,2.6-5.3,4.8-11.8,4.8s-11.8-2.1-11.8-4.8v-9.6"/>
        <ellipse class="st6" cx="669.6" cy="1015" rx="11.8" ry="4.8"/>
      </g>
    </g>
    <g>
      <ellipse class="st29" cx="452.1" cy="1384.3" rx="13.8" ry="4.4"/>
      <rect class="st5" x="450.2" y="1252" width="3.8" height="136.7"/>
      <circle class="st5" cx="452.1" cy="1294.5" r="50"/>
      <rect class="st17" x="344.3" y="1274.7" width="215.6" height="39.7" rx="19.8" ry="19.8"/>
      <g class="st22">
        <g class="st22">
          <path class="st25" d="M364.6,1304.1v-21.2h7.2c1.6,0,3,.3,4.1.9,1.1.6,1.9,1.4,2.4,2.4.5,1,.8,2.2.8,3.4s-.3,2.4-.8,3.4c-.5,1-1.3,1.8-2.4,2.4-1.1.6-2.4.9-4.1.9h-5.1v-2.4h5c1.1,0,2-.2,2.7-.6.7-.4,1.2-.9,1.5-1.6.3-.7.5-1.4.5-2.3s-.2-1.6-.5-2.2c-.3-.7-.8-1.2-1.5-1.6-.7-.4-1.6-.6-2.7-.6h-4.4v18.8h-2.7Z"/>
          <path class="st25" d="M383.2,1304.1v-21.2h7.2c1.6,0,3,.3,4.1.8,1.1.6,1.9,1.3,2.4,2.3.5,1,.8,2.1.8,3.4s-.3,2.4-.8,3.3c-.5,1-1.3,1.7-2.4,2.3-1.1.5-2.4.8-4.1.8h-5.8v-2.4h5.6c1.1,0,2-.2,2.7-.5.7-.3,1.2-.8,1.5-1.4.3-.6.5-1.3.5-2.1s-.2-1.6-.5-2.2c-.3-.6-.8-1.1-1.5-1.5-.7-.3-1.6-.5-2.7-.5h-4.4v18.8h-2.7ZM395.4,1304.1l-5.1-9.5h3l5.2,9.5h-3.1Z"/>
        </g>
        <g class="st22">
          <path class="st25" d="M409.9,1304.4c-1.8,0-3.4-.4-4.8-1.3-1.4-.9-2.5-2.1-3.3-3.8-.8-1.6-1.2-3.6-1.2-5.8s.4-4.2,1.2-5.8c.8-1.6,1.9-2.9,3.3-3.8,1.4-.9,3-1.3,4.8-1.3s3.4.4,4.8,1.3,2.5,2.1,3.3,3.8c.8,1.6,1.2,3.6,1.2,5.8s-.4,4.2-1.2,5.8c-.8,1.6-1.9,2.9-3.3,3.8s-3,1.3-4.8,1.3ZM409.9,1301.9c1.3,0,2.4-.3,3.4-1,1-.6,1.8-1.6,2.4-2.8.6-1.2.9-2.8.9-4.6s-.3-3.4-.9-4.6-1.4-2.2-2.4-2.8c-1-.6-2.2-1-3.4-1s-2.4.3-3.4,1c-1,.6-1.8,1.6-2.4,2.8-.6,1.2-.9,2.8-.9,4.6s.3,3.3.9,4.6c.6,1.2,1.4,2.2,2.4,2.8s2.2,1,3.4,1Z"/>
        </g>
        <g class="st22">
          <path class="st25" d="M421.3,1285.3v-2.4h16v2.4h-6.6v18.8h-2.7v-18.8h-6.7Z"/>
        </g>
        <g class="st22">
          <path class="st25" d="M448.7,1304.4c-1.8,0-3.4-.4-4.8-1.3-1.4-.9-2.5-2.1-3.3-3.8-.8-1.6-1.2-3.6-1.2-5.8s.4-4.2,1.2-5.8c.8-1.6,1.9-2.9,3.3-3.8,1.4-.9,3-1.3,4.8-1.3s3.4.4,4.8,1.3,2.5,2.1,3.3,3.8c.8,1.6,1.2,3.6,1.2,5.8s-.4,4.2-1.2,5.8c-.8,1.6-1.9,2.9-3.3,3.8s-3,1.3-4.8,1.3ZM448.7,1301.9c1.3,0,2.4-.3,3.4-1,1-.6,1.8-1.6,2.4-2.8.6-1.2.9-2.8.9-4.6s-.3-3.4-.9-4.6-1.4-2.2-2.4-2.8c-1-.6-2.2-1-3.4-1s-2.4.3-3.4,1c-1,.6-1.8,1.6-2.4,2.8-.6,1.2-.9,2.8-.9,4.6s.3,3.3.9,4.6c.6,1.2,1.4,2.2,2.4,2.8s2.2,1,3.4,1Z"/>
        </g>
        <g class="st22">
          <path class="st25" d="M460,1285.3v-2.4h16v2.4h-6.6v18.8h-2.7v-18.8h-6.7Z"/>
          <path class="st25" d="M482.6,1282.9v21.2h-2.7v-21.2h2.7Z"/>
          <path class="st25" d="M487.7,1304.1v-21.2h7.2c1.6,0,3,.3,4.1.9,1.1.6,1.9,1.4,2.4,2.4.5,1,.8,2.2.8,3.4s-.3,2.4-.8,3.4c-.5,1-1.3,1.8-2.4,2.4-1.1.6-2.4.9-4.1.9h-5.1v-2.4h5c1.1,0,2-.2,2.7-.6.7-.4,1.2-.9,1.5-1.6.3-.7.5-1.4.5-2.3s-.2-1.6-.5-2.2c-.3-.7-.8-1.2-1.5-1.6-.7-.4-1.6-.6-2.7-.6h-4.4v18.8h-2.7Z"/>
          <path class="st25" d="M514.9,1304.4c-1.8,0-3.4-.4-4.8-1.3-1.4-.9-2.5-2.1-3.3-3.8-.8-1.6-1.2-3.6-1.2-5.8s.4-4.2,1.2-5.8c.8-1.6,1.9-2.9,3.3-3.8,1.4-.9,3-1.3,4.8-1.3s3.4.4,4.8,1.3,2.5,2.1,3.3,3.8c.8,1.6,1.2,3.6,1.2,5.8s-.4,4.2-1.2,5.8c-.8,1.6-1.9,2.9-3.3,3.8s-3,1.3-4.8,1.3ZM514.9,1301.9c1.3,0,2.4-.3,3.4-1,1-.6,1.8-1.6,2.4-2.8.6-1.2.9-2.8.9-4.6s-.3-3.4-.9-4.6-1.4-2.2-2.4-2.8c-1-.6-2.2-1-3.4-1s-2.4.3-3.4,1c-1,.6-1.8,1.6-2.4,2.8-.6,1.2-.9,2.8-.9,4.6s.3,3.3.9,4.6c.6,1.2,1.4,2.2,2.4,2.8s2.2,1,3.4,1Z"/>
          <path class="st25" d="M535.4,1304.5c-1.5,0-2.8-.2-4-.7-1.1-.5-2-1.2-2.6-2.1s-1-1.9-1.1-3.1h2.8c0,.8.3,1.5.8,2,.5.5,1.1.9,1.8,1.2s1.5.4,2.3.4,1.8-.2,2.6-.5,1.4-.8,1.8-1.3c.4-.6.7-1.2.7-2s-.2-1.2-.6-1.7c-.4-.4-.9-.8-1.5-1.1-.6-.3-1.3-.5-2.1-.7l-2.6-.7c-1.7-.5-3-1.2-4-2.1-.9-.9-1.4-2.1-1.4-3.5s.3-2.2,1-3.1c.6-.9,1.5-1.6,2.6-2.1,1.1-.5,2.3-.7,3.7-.7s2.6.2,3.7.7c1.1.5,1.9,1.2,2.5,2s.9,1.8,1,2.9h-2.6c-.1-1-.6-1.8-1.5-2.4-.9-.6-1.9-.8-3.2-.8s-1.7.1-2.4.4c-.7.3-1.2.7-1.6,1.2-.4.5-.6,1.1-.6,1.8s.2,1.3.7,1.8c.5.5,1,.8,1.6,1.1s1.2.4,1.7.6l2.1.6c.6.2,1.2.4,1.9.6.7.3,1.3.6,2,1.1.6.4,1.1,1,1.5,1.7.4.7.6,1.5.6,2.5s-.3,2.2-.9,3.1c-.6.9-1.5,1.7-2.6,2.2-1.1.5-2.5.8-4.2.8Z"/>
        </g>
      </g>
    </g>
    <g>
      <ellipse class="st0" cx="134" cy="314.1" rx="13.8" ry="4.4"/>
      <rect class="st4" x="132.1" y="179.9" width="3.8" height="138.6"/>
      <circle class="st4" cx="134" cy="224.4" r="50"/>
      <g>
        <path class="st0" d="M61,244c-10.8,0-19.6-8.8-19.6-19.6s8.8-19.6,19.6-19.6h146c10.8,0,19.6,8.8,19.6,19.6s-8.8,19.6-19.6,19.6H61Z"/>
        <path d="M207,205.1c10.7,0,19.3,8.7,19.3,19.3s-8.7,19.3-19.3,19.3H61c-10.7,0-19.3-8.7-19.3-19.3s8.7-19.3,19.3-19.3h146M207,204.6H61c-11,0-19.8,8.9-19.8,19.8h0c0,10.9,8.9,19.8,19.8,19.8h146c10.9,0,19.8-8.9,19.8-19.8h0c0-10.9-8.9-19.8-19.8-19.8h0Z"/>
      </g>
      <g class="st22">
        <g class="st22">
          <path class="st25" d="M67.5,234.3c-1.5,0-2.8-.2-4-.7-1.1-.5-2-1.2-2.6-2.1s-1-1.9-1.1-3.1h2.8c0,.8.3,1.5.8,2,.5.5,1.1.9,1.8,1.2s1.5.4,2.3.4,1.8-.2,2.6-.5,1.4-.8,1.8-1.3c.4-.6.7-1.2.7-2s-.2-1.2-.6-1.7c-.4-.4-.9-.8-1.5-1.1-.6-.3-1.3-.5-2.1-.7l-2.6-.7c-1.7-.5-3-1.2-4-2.1-.9-.9-1.4-2.1-1.4-3.5s.3-2.2,1-3.1c.6-.9,1.5-1.6,2.6-2.1,1.1-.5,2.3-.7,3.7-.7s2.6.2,3.7.7c1.1.5,1.9,1.2,2.5,2s.9,1.8,1,2.9h-2.6c-.1-1-.6-1.8-1.5-2.4-.9-.6-1.9-.8-3.2-.8s-1.7.1-2.4.4c-.7.3-1.2.7-1.6,1.2-.4.5-.6,1.1-.6,1.8s.2,1.3.7,1.8c.5.5,1,.8,1.6,1.1s1.2.4,1.7.6l2.1.6c.6.2,1.2.4,1.9.6.7.3,1.3.6,2,1.1.6.4,1.1,1,1.5,1.7.4.7.6,1.5.6,2.5s-.3,2.2-.9,3.1c-.6.9-1.5,1.7-2.6,2.2-1.1.5-2.5.8-4.2.8Z"/>
          <path class="st25" d="M79.3,234v-21.2h12.9v2.4h-10.2v6.9h9.5v2.4h-9.5v7.1h10.3v2.4h-13Z"/>
        </g>
        <g class="st22">
          <path class="st25" d="M96.4,234v-21.2h7.2c1.6,0,3,.3,4.1.8,1.1.6,1.9,1.3,2.4,2.3.5,1,.8,2.1.8,3.4s-.3,2.4-.8,3.3c-.5,1-1.3,1.7-2.4,2.3-1.1.5-2.4.8-4.1.8h-5.8v-2.4h5.6c1.1,0,2-.2,2.7-.5.7-.3,1.2-.8,1.5-1.4.3-.6.5-1.3.5-2.1s-.2-1.6-.5-2.2c-.3-.6-.8-1.1-1.5-1.5-.7-.3-1.6-.5-2.7-.5h-4.4v18.8h-2.7ZM108.6,234l-5.1-9.5h3l5.2,9.5h-3.1Z"/>
        </g>
        <g class="st22">
          <path class="st25" d="M120.3,234l-7.8-21.2h2.8l4.5,12.6c.3.7.6,1.7,1,2.9.4,1.2.8,2.7,1.3,4.4h-.5c.5-1.8,1-3.3,1.3-4.5.4-1.2.7-2.1.9-2.8l4.4-12.6h2.9l-7.7,21.2h-3.1Z"/>
          <path class="st25" d="M137.1,212.8v21.2h-2.7v-21.2h2.7Z"/>
          <path class="st25" d="M150.8,234.2c-1.8,0-3.4-.4-4.8-1.3-1.4-.9-2.5-2.1-3.3-3.8-.8-1.6-1.2-3.6-1.2-5.8s.4-4.2,1.2-5.8c.8-1.6,1.9-2.9,3.3-3.8,1.4-.9,3-1.3,4.8-1.3s2.1.2,3,.5,1.8.8,2.6,1.4c.8.6,1.4,1.3,1.9,2.2.5.9.9,1.8,1,2.9h-2.7c-.2-.7-.4-1.4-.8-1.9-.4-.5-.8-1-1.3-1.4s-1.1-.7-1.7-.9-1.3-.3-2-.3c-1.3,0-2.4.3-3.4,1-1,.6-1.8,1.6-2.4,2.8-.6,1.2-.9,2.8-.9,4.6s.3,3.3.9,4.6c.6,1.2,1.4,2.2,2.4,2.8s2.2,1,3.4,1,1.4,0,2-.3,1.2-.5,1.7-.9,1-.8,1.3-1.4.6-1.2.8-1.9h2.7c-.2,1.1-.5,2-1,2.9-.5.9-1.1,1.6-1.9,2.2-.8.6-1.6,1.1-2.6,1.4-1,.3-2,.5-3,.5Z"/>
          <path class="st25" d="M166.2,212.8v21.2h-2.7v-21.2h2.7Z"/>
          <path class="st25" d="M179.9,234.2c-1.8,0-3.4-.4-4.8-1.3-1.4-.9-2.5-2.1-3.3-3.8-.8-1.6-1.2-3.6-1.2-5.8s.4-4.2,1.2-5.8c.8-1.6,1.9-2.9,3.3-3.8,1.4-.9,3-1.3,4.8-1.3s3.4.4,4.8,1.3,2.5,2.1,3.3,3.8c.8,1.6,1.2,3.6,1.2,5.8s-.4,4.2-1.2,5.8c-.8,1.6-1.9,2.9-3.3,3.8s-3,1.3-4.8,1.3ZM179.9,231.7c1.3,0,2.4-.3,3.4-1,1-.6,1.8-1.6,2.4-2.8.6-1.2.9-2.8.9-4.6s-.3-3.4-.9-4.6-1.4-2.2-2.4-2.8c-1-.6-2.2-1-3.4-1s-2.4.3-3.4,1c-1,.6-1.8,1.6-2.4,2.8-.6,1.2-.9,2.8-.9,4.6s.3,3.3.9,4.6c.6,1.2,1.4,2.2,2.4,2.8s2.2,1,3.4,1Z"/>
          <path class="st25" d="M200.4,234.3c-1.5,0-2.8-.2-4-.7-1.1-.5-2-1.2-2.6-2.1s-1-1.9-1.1-3.1h2.8c0,.8.3,1.5.8,2,.5.5,1.1.9,1.8,1.2s1.5.4,2.3.4,1.8-.2,2.6-.5,1.4-.8,1.8-1.3c.4-.6.7-1.2.7-2s-.2-1.2-.6-1.7c-.4-.4-.9-.8-1.5-1.1-.6-.3-1.3-.5-2.1-.7l-2.6-.7c-1.7-.5-3-1.2-4-2.1-.9-.9-1.4-2.1-1.4-3.5s.3-2.2,1-3.1c.6-.9,1.5-1.6,2.6-2.1,1.1-.5,2.3-.7,3.7-.7s2.6.2,3.7.7c1.1.5,1.9,1.2,2.5,2s.9,1.8,1,2.9h-2.6c-.1-1-.6-1.8-1.5-2.4-.9-.6-1.9-.8-3.2-.8s-1.7.1-2.4.4c-.7.3-1.2.7-1.6,1.2-.4.5-.6,1.1-.6,1.8s.2,1.3.7,1.8c.5.5,1,.8,1.6,1.1s1.2.4,1.7.6l2.1.6c.6.2,1.2.4,1.9.6.7.3,1.3.6,2,1.1.6.4,1.1,1,1.5,1.7.4.7.6,1.5.6,2.5s-.3,2.2-.9,3.1c-.6.9-1.5,1.7-2.6,2.2-1.1.5-2.5.8-4.2.8Z"/>
        </g>
      </g>
    </g>
    <g class="st22">
      <g class="st22">
        <path d="M587.7,1439.9c-2.5,0-4.7-.6-6.6-1.8-1.9-1.2-3.5-2.9-4.6-5.2-1.1-2.2-1.6-4.9-1.6-8,0-3.1.6-5.7,1.7-8,1.1-2.2,2.7-3.9,4.6-5.1,2-1.2,4.2-1.8,6.7-1.8,1.5,0,2.9.2,4.2.7,1.3.4,2.5,1.1,3.5,1.9,1,.8,1.9,1.8,2.6,3,.7,1.2,1.2,2.5,1.4,4h-3.7c-.2-1-.6-1.9-1.1-2.7-.5-.8-1.1-1.4-1.8-1.9s-1.5-.9-2.4-1.2c-.9-.3-1.8-.4-2.7-.4-1.7,0-3.3.4-4.7,1.3s-2.5,2.2-3.4,3.9c-.8,1.7-1.3,3.8-1.3,6.3,0,2.5.4,4.6,1.2,6.3.8,1.7,1.9,3,3.3,3.9s3,1.3,4.7,1.3c1,0,1.9-.1,2.7-.4.9-.3,1.7-.6,2.4-1.2s1.3-1.1,1.8-1.9c.5-.8.9-1.6,1.1-2.6h3.7c-.3,1.5-.7,2.8-1.4,4-.7,1.2-1.6,2.2-2.6,3s-2.2,1.5-3.5,1.9c-1.3.4-2.7.6-4.2.6Z"/>
      </g>
    </g>
    <g class="st22">
      <g class="st22">
        <path d="M621.1,1437.6c-2.5.3-4.7,0-6.8-.9-2.1-.9-3.8-2.4-5.3-4.5-1.4-2.1-2.3-4.6-2.7-7.7-.4-3.1-.2-5.8.6-8.1.8-2.4,2.1-4.3,3.9-5.7,1.8-1.5,3.9-2.4,6.3-2.7,2.5-.3,4.7,0,6.8.9,2.1.9,3.8,2.4,5.2,4.5,1.4,2.1,2.3,4.6,2.7,7.7.4,3,.2,5.7-.6,8.1-.8,2.4-2.1,4.3-3.8,5.7s-3.9,2.4-6.3,2.7ZM620.7,1434.2c1.7-.2,3.2-.9,4.5-1.9,1.3-1.1,2.2-2.5,2.8-4.3.6-1.8.7-3.9.4-6.4-.3-2.5-1-4.5-2.1-6.1-1.1-1.6-2.3-2.7-3.8-3.4-1.5-.7-3.1-.9-4.8-.7-1.7.2-3.2.9-4.5,2-1.3,1.1-2.2,2.5-2.8,4.3-.6,1.8-.7,3.9-.4,6.4.3,2.5,1,4.5,2.1,6,1.1,1.6,2.3,2.7,3.8,3.4,1.5.7,3.1.9,4.9.7Z"/>
      </g>
    </g>
    <g class="st22">
      <g class="st22">
        <path d="M643.7,1433.3l-8.1-27.9,4.2-1.2,16.6,14.6c.4.4,1,.9,1.6,1.5.6.6,1.3,1.3,2.1,2.1.8.8,1.5,1.6,2.3,2.5h-.5c-.4-.9-.8-1.9-1.1-2.9-.3-1-.6-1.9-.9-2.7-.3-.8-.5-1.5-.6-2.1l-5-17.1,3.6-1,8.1,27.9-4.2,1.2-14.8-13c-.7-.6-1.4-1.2-2.1-1.9-.7-.6-1.5-1.4-2.4-2.3-.9-.9-2-2-3.4-3.3l.7-.2c.5,1.4.9,2.6,1.3,3.8.4,1.2.7,2.2,1,3s.5,1.5.6,2l4.6,15.9-3.6,1Z"/>
      </g>
    </g>
    <g class="st22">
      <g class="st22">
        <path d="M685.8,1419.3c-1.9.9-3.7,1.3-5.4,1.3-1.7,0-3.2-.4-4.5-1.1-1.3-.8-2.3-1.9-3.1-3.3l3.5-1.5c.5,1,1.2,1.6,2.1,2,.9.4,1.8.5,2.9.5,1.1,0,2.1-.4,3.1-.8,1.2-.5,2.2-1.2,3-2,.8-.8,1.3-1.7,1.5-2.7.2-1,.2-1.9-.3-2.9-.4-.9-.9-1.4-1.6-1.8-.7-.3-1.6-.5-2.5-.5-1,0-2,0-3,.3l-3.6.5c-2.4.3-4.5.2-6.2-.4s-2.9-1.8-3.7-3.5c-.7-1.5-.8-3-.5-4.5.3-1.5,1-2.8,2.1-4.1,1.1-1.2,2.5-2.2,4.2-3,1.7-.8,3.4-1.2,5.1-1.1,1.6,0,3.1.4,4.3,1.1,1.3.7,2.2,1.7,2.8,3.1l-3.3,1.5c-.7-1.2-1.8-2-3.2-2.2-1.4-.2-2.9,0-4.5.7-1.1.5-2.1,1.1-2.8,1.9-.7.8-1.1,1.6-1.3,2.4s0,1.7.3,2.5c.4.9,1,1.5,1.9,1.9.8.3,1.7.4,2.6.4.9,0,1.8-.1,2.5-.2l3-.4c.8-.1,1.7-.2,2.7-.3,1,0,2,0,3.1.2,1,.2,2,.6,2.9,1.2.9.6,1.6,1.6,2.2,2.8.6,1.5.8,2.9.6,4.4-.2,1.5-.9,2.9-2.1,4.2-1.1,1.3-2.7,2.4-4.8,3.3Z"/>
      </g>
    </g>
    <g class="st22">
      <g class="st22">
        <path d="M688.6,1388.9l-1.7-2.8,18.9-11.3,1.7,2.8-7.8,4.7,13.2,22.2-3.2,1.9-13.2-22.2-7.9,4.7Z"/>
      </g>
    </g>
    <g class="st22">
      <g class="st22">
        <path d="M727.9,1394.7l-17.8-23,7.9-6.1c1.8-1.4,3.5-2.2,5.1-2.5,1.6-.3,3.1-.1,4.5.5s2.6,1.6,3.7,3c1.1,1.4,1.7,2.8,2,4.3.2,1.5,0,3-.7,4.5-.7,1.5-1.9,2.9-3.7,4.3l-6.3,4.8-2-2.6,6.1-4.7c1.2-.9,2.1-1.9,2.5-2.8.5-.9.6-1.8.4-2.8-.2-.9-.6-1.8-1.3-2.7-.7-.9-1.5-1.6-2.4-2-.9-.4-1.8-.5-2.8-.3-1,.2-2.2.8-3.4,1.7l-4.8,3.7,15.8,20.5-2.9,2.3ZM741.2,1384.5l-13.6-6.1,3.3-2.6,13.7,6-3.4,2.6Z"/>
      </g>
    </g>
    <g class="st22">
      <g class="st22">
        <path d="M759.1,1368.6c-1.6,1.6-3.3,2.7-5.2,3.3-1.8.6-3.7.7-5.4.2-1.8-.4-3.4-1.4-4.8-2.8l-13.6-13.5,2.6-2.6,13.4,13.3c1,1,2.1,1.6,3.3,2,1.2.3,2.4.3,3.7,0,1.3-.4,2.4-1.1,3.6-2.2,1.1-1.1,1.9-2.3,2.2-3.6.4-1.2.4-2.5,0-3.7-.3-1.2-1-2.3-2-3.3l-13.4-13.3,2.6-2.6,13.6,13.5c1.4,1.4,2.3,3,2.8,4.8.4,1.8.4,3.6-.2,5.4-.6,1.8-1.7,3.6-3.3,5.2Z"/>
      </g>
    </g>
    <g class="st22">
      <g class="st22">
        <path d="M778.7,1345.4l-9.5-7.2-20.2-1.9,2.6-3.4,11,1.1c1.2.1,2.4.3,3.4.4,1.1.2,2.3.5,3.8,1l-.9,1.2c-.9-1.3-1.5-2.5-2-3.5-.5-1-.9-2-1.3-3.1l-4-10.3,2.6-3.4,7.2,18.9,9.5,7.2-2.2,3Z"/>
      </g>
    </g>
    <g class="st22">
      <g class="st22">
        <path d="M791.4,1327.4l-25.2-14.6,8.9-15.3,2.8,1.7-7.1,12.1,8.2,4.8,6.6-11.3,2.8,1.7-6.6,11.3,8.4,4.9,7.1-12.3,2.8,1.7-9,15.5Z"/>
      </g>
    </g>
    <g>
      <circle class="st2" cx="410.8" cy="836.1" r="107.1"/>
      <g>
        <path class="st30" d="M410.7,935.5c-14.4,0-28.3-3.1-41.4-9.1-24.1-11.1-42.5-30.9-51.7-55.8-9.2-24.9-8.2-51.9,2.9-76,16.2-35.2,51.6-57.9,90.4-57.9s28.3,3.1,41.4,9.1c24.1,11.1,42.5,30.9,51.7,55.8s8.2,51.9-2.9,76c-16.2,35.2-51.6,57.9-90.4,57.9Z"/>
        <path d="M410.8,736.5v.5c14.3,0,28.2,3.1,41.3,9.1,49.7,22.8,71.5,81.8,48.7,131.5-8.1,17.6-21,32.3-37.2,42.5-15.9,10-34.2,15.2-52.9,15.2s-28.2-3.1-41.3-9.1c-24.1-11.1-42.4-30.8-51.6-55.7s-8.2-51.8,2.9-75.8c8.1-17.6,21-32.3,37.2-42.5,15.9-10,34.2-15.2,52.9-15.2v-.5M410.8,736.5c-37.7,0-73.8,21.5-90.6,58-23,50-1.1,109.1,48.9,132.1,13.5,6.2,27.6,9.1,41.5,9.1,37.7,0,73.8-21.5,90.6-58,23-50,1.1-109.1-48.9-132.1-13.5-6.2-27.6-9.1-41.5-9.1h0Z"/>
      </g>
      <g class="st22">
        <g class="st22">
          <path class="st25" d="M351.2,839.3c-1.4,0-2.6-.2-3.6-.7-1-.4-1.8-1.1-2.4-1.9s-.9-1.7-1-2.8h2.5c0,.7.3,1.3.7,1.8.4.5,1,.8,1.6,1,.7.2,1.3.3,2.1.3s1.6-.1,2.3-.4,1.2-.7,1.6-1.2c.4-.5.6-1.1.6-1.8s-.2-1.1-.5-1.5c-.3-.4-.8-.7-1.4-.9-.6-.2-1.2-.5-1.9-.7l-2.3-.7c-1.5-.4-2.7-1.1-3.6-1.9-.9-.8-1.3-1.8-1.3-3.1s.3-2,.9-2.8c.6-.8,1.4-1.4,2.3-1.9,1-.4,2.1-.7,3.3-.7s2.4.2,3.3.7c1,.4,1.7,1,2.3,1.8.6.8.9,1.6.9,2.6h-2.4c-.1-.9-.6-1.6-1.3-2.2s-1.7-.8-2.9-.8-1.5.1-2.1.4c-.6.3-1.1.6-1.4,1.1-.3.5-.5,1-.5,1.6s.2,1.2.6,1.6c.4.4.9.7,1.5.9.6.2,1.1.4,1.5.5l1.9.5c.5.1,1.1.3,1.7.6s1.2.6,1.8,1c.6.4,1,.9,1.4,1.5.4.6.5,1.4.5,2.2s-.3,2-.8,2.8c-.5.8-1.3,1.5-2.4,2-1,.5-2.3.7-3.7.7Z"/>
          <path class="st25" d="M369.6,839.3c-1.6,0-3.1-.4-4.3-1.2-1.3-.8-2.3-1.9-3-3.4s-1.1-3.2-1.1-5.2.4-3.8,1.1-5.2c.7-1.5,1.7-2.6,3-3.4,1.3-.8,2.7-1.2,4.3-1.2s3.1.4,4.3,1.2,2.3,1.9,3,3.4c.7,1.5,1.1,3.2,1.1,5.2s-.4,3.7-1.1,5.2c-.7,1.5-1.7,2.6-3,3.4s-2.7,1.2-4.3,1.2ZM369.6,837c1.1,0,2.2-.3,3.1-.9s1.6-1.4,2.2-2.5c.5-1.1.8-2.5.8-4.1s-.3-3-.8-4.1-1.3-2-2.2-2.5-1.9-.9-3.1-.9-2.2.3-3.1.9c-.9.6-1.6,1.4-2.2,2.5-.5,1.1-.8,2.5-.8,4.1s.3,3,.8,4.1c.5,1.1,1.3,2,2.2,2.5.9.6,1.9.9,3.1.9Z"/>
          <path class="st25" d="M381.9,839v-19h2.4v16.9h8.8v2.1h-11.2Z"/>
          <path class="st25" d="M404.1,839.3c-1.5,0-2.8-.3-3.9-.9-1.1-.6-2-1.4-2.6-2.4-.6-1-.9-2.2-.9-3.5v-12.5h2.4v12.3c0,.9.2,1.7.6,2.4.4.7,1,1.3,1.7,1.7s1.6.6,2.7.6,1.9-.2,2.7-.6c.7-.4,1.3-1,1.7-1.7.4-.7.6-1.5.6-2.4v-12.3h2.4v12.5c0,1.3-.3,2.5-.9,3.5-.6,1-1.5,1.8-2.6,2.4-1.1.6-2.4.9-3.9.9Z"/>
          <path class="st25" d="M423.8,839.3c-1.6,0-3.1-.4-4.3-1.2-1.3-.8-2.3-1.9-3-3.4s-1.1-3.2-1.1-5.2.4-3.8,1.1-5.2c.7-1.5,1.7-2.6,3-3.4,1.3-.8,2.7-1.2,4.3-1.2s1.9.1,2.7.4c.9.3,1.6.7,2.3,1.2.7.5,1.2,1.2,1.7,2s.8,1.6.9,2.6h-2.4c-.1-.7-.4-1.2-.7-1.7-.3-.5-.7-.9-1.2-1.3-.5-.3-1-.6-1.6-.8-.6-.2-1.2-.3-1.8-.3-1.1,0-2.2.3-3.1.9-.9.6-1.6,1.4-2.2,2.5-.5,1.1-.8,2.5-.8,4.1s.3,3,.8,4.1c.5,1.1,1.3,2,2.2,2.5.9.6,1.9.9,3.1.9s1.2,0,1.8-.3c.6-.2,1.1-.4,1.6-.8s.9-.8,1.2-1.2.6-1.1.7-1.7h2.4c-.2,1-.5,1.8-.9,2.6s-1,1.4-1.7,2-1.4,1-2.3,1.2c-.9.3-1.8.4-2.7.4Z"/>
          <path class="st25" d="M437.6,820v19h-2.4v-19h2.4Z"/>
          <path class="st25" d="M449.9,839.3c-1.6,0-3.1-.4-4.3-1.2-1.3-.8-2.3-1.9-3-3.4s-1.1-3.2-1.1-5.2.4-3.8,1.1-5.2c.7-1.5,1.7-2.6,3-3.4,1.3-.8,2.7-1.2,4.3-1.2s3.1.4,4.3,1.2,2.3,1.9,3,3.4c.7,1.5,1.1,3.2,1.1,5.2s-.4,3.7-1.1,5.2c-.7,1.5-1.7,2.6-3,3.4s-2.7,1.2-4.3,1.2ZM449.9,837c1.1,0,2.2-.3,3.1-.9s1.6-1.4,2.2-2.5c.5-1.1.8-2.5.8-4.1s-.3-3-.8-4.1-1.3-2-2.2-2.5-1.9-.9-3.1-.9-2.2.3-3.1.9c-.9.6-1.6,1.4-2.2,2.5-.5,1.1-.8,2.5-.8,4.1s.3,3,.8,4.1c.5,1.1,1.3,2,2.2,2.5.9.6,1.9.9,3.1.9ZM448.9,818.1l1.8-3.8h2.6l-2.5,3.8h-1.9Z"/>
          <path class="st25" d="M462.2,839v-19h2.9l7.7,12.2c.2.3.5.7.7,1.2.3.5.6,1.1.9,1.7s.7,1.3,1,2h-.3c0-.7-.1-1.4-.2-2.1s0-1.3,0-1.8c0-.6,0-1,0-1.4v-11.7h2.4v19h-2.9l-6.9-10.8c-.3-.5-.6-1-1-1.6s-.7-1.2-1.1-1.9c-.4-.7-.9-1.6-1.5-2.7h.4c0,.9,0,1.8.1,2.6,0,.8,0,1.5,0,2.1,0,.6,0,1.1,0,1.4v10.8h-2.4Z"/>
        </g>
      </g>
    </g>
    <g>
      <circle class="st3" cx="614.2" cy="197.8" r="117.2"/>
      <g>
        <path class="st30" d="M614.1,306.5c-15.7,0-31-3.4-45.3-10-54.5-25-78.4-89.7-53.4-144.2,17.7-38.5,56.5-63.3,98.8-63.3s31,3.3,45.3,10c54.5,25,78.4,89.7,53.4,144.2-17.7,38.5-56.5,63.3-98.8,63.3h0Z"/>
        <path d="M614.2,88.8v.5c15.7,0,30.9,3.3,45.2,9.9,26.3,12.1,46.4,33.7,56.4,60.9,10.1,27.2,8.9,56.6-3.2,82.9-8.8,19.2-22.9,35.3-40.8,46.5-17.4,10.9-37.4,16.7-57.8,16.7s-30.9-3.3-45.2-9.9c-26.3-12.1-46.4-33.7-56.4-60.9s-8.9-56.6,3.2-82.9c8.8-19.2,22.9-35.3,40.8-46.5,17.4-10.9,37.4-16.7,57.8-16.7v-.5M614.2,88.8c-41.2,0-80.7,23.5-99.1,63.5-25.1,54.7-1.2,119.4,53.5,144.5,14.7,6.8,30.2,10,45.4,10,41.2,0,80.7-23.5,99.1-63.5,25.1-54.7,1.2-119.4-53.5-144.5-14.7-6.8-30.2-10-45.4-10h0Z"/>
      </g>
      <g>
        <path class="st25" d="M580,188l-7-19h1.9l4.5,12.4c.2.6.5,1.5.8,2.4.3.9.7,2.1,1.1,3.4h-.4c.4-1.3.7-2.4,1-3.4s.6-1.7.8-2.4l4.4-12.4h1.9l-7,19h-2.1Z"/>
        <path class="st25" d="M588.8,188l7-19h2.1l7,19h-1.9l-4.5-12.4c-.3-.7-.5-1.5-.8-2.4-.3-.9-.7-2-1-3.3h.4c-.4,1.3-.7,2.4-1,3.4s-.6,1.7-.8,2.4l-4.4,12.4h-1.9,0ZM592,182.4v-1.6h9.7v1.6h-9.7Z"/>
        <path class="st25" d="M608.2,188v-19h1.8v17.4h9v1.6h-10.9Z"/>
        <path class="st25" d="M629.6,188.3c-1.6,0-3-.4-4.3-1.2s-2.2-1.9-2.9-3.4-1.1-3.2-1.1-5.2.3-3.7,1.1-5.2c.7-1.5,1.7-2.6,2.9-3.4s2.7-1.2,4.3-1.2,3,.4,4.3,1.2,2.2,1.9,2.9,3.4c.7,1.5,1,3.2,1,5.2s-.3,3.7-1,5.2c-.7,1.5-1.7,2.6-2.9,3.4-1.2.8-2.7,1.2-4.3,1.2ZM629.6,186.6c1.2,0,2.3-.3,3.3-1s1.7-1.6,2.3-2.8.8-2.6.8-4.3-.3-3.1-.8-4.4c-.6-1.2-1.3-2.1-2.3-2.8s-2.1-1-3.3-1-2.3.3-3.3,1c-1,.6-1.8,1.6-2.3,2.8s-.8,2.7-.8,4.4.3,3.1.8,4.3c.6,1.2,1.3,2.1,2.3,2.8s2.1,1,3.3,1h0Z"/>
        <path class="st25" d="M642,188v-19h6.2c1.3,0,2.5.2,3.4.7s1.6,1.2,2.1,2,.7,1.9.7,3-.2,2.1-.7,2.9c-.5.9-1.2,1.5-2,2-.9.5-2,.7-3.4.7h-5.2v-1.6h5.1c1,0,1.8-.2,2.5-.5s1.1-.8,1.5-1.4.5-1.3.5-2.1-.2-1.6-.5-2.2-.8-1.1-1.5-1.4c-.7-.3-1.5-.5-2.5-.5h-4.3v17.4h-1.8,0ZM653,188l-4.6-8.6h2l4.7,8.6h-2.1,0Z"/>
        <path class="st25" d="M560.1,219.4v-19h6.2c1.3,0,2.5.3,3.4.8.9.5,1.6,1.2,2.1,2.1.5.9.7,1.9.7,3s-.2,2.1-.7,3c-.5.9-1.2,1.6-2,2.1-.9.5-2,.8-3.4.8h-4.8v-1.6h4.8c1,0,1.8-.2,2.5-.6s1.1-.9,1.5-1.5.5-1.4.5-2.2-.2-1.6-.5-2.2-.8-1.1-1.5-1.5-1.5-.6-2.5-.6h-4.3v17.4h-1.8Z"/>
        <path class="st25" d="M583.7,219.7c-1.4,0-2.7-.3-3.8-.9-1.1-.6-1.9-1.4-2.5-2.4-.6-1-.9-2.2-.9-3.5v-12.6h1.8v12.4c0,1,.2,1.9.7,2.7.5.8,1.1,1.4,1.9,1.9.8.4,1.8.7,2.8.7s2-.2,2.8-.7,1.4-1.1,1.9-1.9.7-1.7.7-2.7v-12.4h1.8v12.6c0,1.3-.3,2.4-.9,3.5s-1.5,1.8-2.5,2.4c-1.1.6-2.3.9-3.8.9h0ZM582.9,198.4l1.8-3.7h2l-2.4,3.7h-1.4Z"/>
        <path class="st25" d="M595.8,219.4v-19h6.5c1.2,0,2.3.2,3.1.6s1.5,1,1.9,1.8c.4.8.6,1.6.6,2.5s-.1,1.5-.4,2-.6,1-1.1,1.4c-.5.4-1,.6-1.5.8h0c.6.2,1.2.4,1.8.8.6.4,1.1.9,1.4,1.6s.6,1.5.6,2.5-.2,1.8-.6,2.6-1.1,1.4-2,1.8-2,.6-3.4.6h-6.8ZM597.6,209h4.8c.7,0,1.4-.1,2-.5s1-.7,1.3-1.3c.3-.5.5-1.2.5-1.8,0-1-.3-1.8-1-2.4-.7-.6-1.6-.9-2.9-.9h-4.6v7h0ZM597.6,217.8h5c1.5,0,2.5-.3,3.2-1,.7-.6,1-1.4,1-2.4s-.2-1.4-.5-2-.8-1-1.5-1.4c-.6-.3-1.4-.5-2.2-.5h-5v7.2h0Z"/>
        <path class="st25" d="M612.7,219.4v-19h1.8v17.4h9v1.6h-10.9Z"/>
        <path class="st25" d="M629.3,200.4v19h-1.8v-19h1.8Z"/>
        <path class="st25" d="M641.8,219.6c-1.6,0-3-.4-4.3-1.2-1.2-.8-2.2-1.9-2.9-3.4-.7-1.5-1.1-3.2-1.1-5.2s.3-3.7,1.1-5.2c.7-1.5,1.7-2.6,2.9-3.4s2.7-1.2,4.3-1.2,2,.2,2.8.5,1.6.8,2.3,1.3c.7.6,1.2,1.2,1.6,2s.7,1.6.9,2.4h-1.8c-.1-.7-.4-1.3-.7-1.8s-.8-1-1.2-1.4-1.1-.7-1.7-.9-1.3-.3-2.1-.3c-1.2,0-2.3.3-3.3.9s-1.8,1.5-2.3,2.7c-.6,1.2-.9,2.7-.9,4.4s.3,3.2.9,4.4,1.4,2.1,2.3,2.7,2.1.9,3.2.9,1.4-.1,2.1-.3,1.2-.5,1.7-.9.9-.9,1.2-1.4.6-1.1.7-1.8h1.8c-.1.9-.4,1.7-.8,2.4s-1,1.4-1.6,2c-.7.6-1.4,1-2.3,1.3-.8.3-1.8.5-2.8.5h0Z"/>
        <path class="st25" d="M660.8,219.6c-1.6,0-3-.4-4.3-1.2s-2.2-1.9-2.9-3.4-1.1-3.2-1.1-5.2.3-3.7,1.1-5.2c.7-1.5,1.7-2.6,2.9-3.4s2.7-1.2,4.3-1.2,3,.4,4.3,1.2,2.2,1.9,2.9,3.4c.7,1.5,1,3.2,1,5.2s-.3,3.7-1,5.2c-.7,1.5-1.7,2.6-2.9,3.4-1.2.8-2.7,1.2-4.3,1.2ZM660.8,217.9c1.2,0,2.3-.3,3.3-1s1.7-1.6,2.3-2.8.8-2.6.8-4.3-.3-3.1-.8-4.4c-.6-1.2-1.3-2.1-2.3-2.8s-2.1-1-3.3-1-2.3.3-3.3,1c-1,.6-1.8,1.6-2.3,2.8s-.8,2.7-.8,4.4.3,3.1.8,4.3c.6,1.2,1.3,2.1,2.3,2.8s2.1,1,3.3,1h0Z"/>
      </g>
    </g>
    <g>
      <g>
        <path class="st30" d="M609.5,90.2c-2.9-16.3-14.5-29.5-30.2-34.6l-1.9-.6c16.5-3.6,29.7-16.3,33.8-32.7l2.5-9.9,3.2,12.2c4,15.6,16.2,27.8,31.8,31.9l2.2.6-2,.5c-15.8,4.2-27.9,16.7-31.8,32.6l-4.3,18-3.2-17.9h0Z"/>
        <path d="M613.7,13.3l2.9,11.2c4.1,15.7,16.3,28,32,32.1l1.3.3-1.2.3c-15.8,4.3-28.1,16.8-31.9,32.8l-4.1,16.8-3-16.7c-2.9-16.4-14.6-29.7-30.4-34.8l-1-.3c16.1-3.9,29-16.5,33.1-32.7l2.3-9M613.7,11.3l-2.7,10.9c-4.2,16.7-17.6,29.4-34.5,32.7h0l2.8.9c15.6,5,27.2,18.3,30,34.4l3.4,19.1,4.6-19.2c3.8-15.8,15.9-28.2,31.6-32.4l3-.8-3.1-.8c-15.5-4.1-27.6-16.2-31.6-31.7l-3.4-13.1h0Z"/>
      </g>
      <g>
        <path class="st30" d="M550,55.6c-2.2-11.5-10.5-20.8-21.6-24.2l-1-.3c11.5-2.7,20.6-11.8,23.3-23.3l1.6-6.7,2.2,8.2c3,11,11.7,19.5,22.7,22.3l1.3.3-1.2.3c-11.1,3.1-19.6,12-22.2,23.2l-2.8,12.4-2.3-12.2h0Z"/>
        <path d="M552.4,2l2,7.3c3,11.1,11.8,19.7,22.9,22.5h.4c0,0-.3.2-.3.2-11.2,3.1-19.7,12.1-22.3,23.4l-2.6,11.2-2.1-11.1c-2.2-11.6-10.5-20.9-21.8-24.4h-.2c11.2-3.1,19.9-12,22.7-23.3l1.4-5.8M552.3,0l-1.8,7.7c-2.8,11.8-12.2,20.9-24.1,23.3h0l2,.6c11,3.4,19.3,12.7,21.4,24l2.5,13.4,3.1-13.5c2.6-11.1,11-20,22-23.1l2.1-.6-2.2-.5c-11-2.8-19.5-11.2-22.5-22.1L552.3,0h0Z"/>
      </g>
      <g>
        <path class="st30" d="M569,110.4c-1.1-5.8-5.3-10.5-11-12.3h-.1c5.6-1.5,10.1-6,11.4-11.8l.7-2.9,1,3.7c1.5,5.6,5.9,9.9,11.5,11.3h.2c0,0-.1,0-.1,0-5.6,1.6-10,6.1-11.3,11.8l-1.3,5.7-1.1-5.6h0Z"/>
        <path d="M570.1,84.4l.8,2.8c1.5,5.4,5.7,9.7,11,11.3-5.4,1.8-9.5,6.2-10.7,11.8l-1,4.5-.8-4.4c-1.1-5.7-5.1-10.3-10.5-12.3,5.3-1.7,9.5-6.2,10.8-11.7l.5-2M570.1,82.4l-.9,3.9c-1.4,5.9-6.2,10.5-12.1,11.8l1,.3c5.6,1.7,9.7,6.4,10.8,12.1l1.3,6.8,1.6-6.8c1.3-5.6,5.5-10.1,11.1-11.6l1-.3-1.1-.3c-5.5-1.4-9.9-5.7-11.3-11.2l-1.3-4.6h0Z"/>
      </g>
    </g>
  </g>
</svg>