<?xml version="1.0" encoding="UTF-8"?>
<svg id="Capa_1" data-name="Capa 1" xmlns="http://www.w3.org/2000/svg" viewBox="0 0 566.93 566.93">
  <defs>
    <style>
      .cls-1 {
        fill: none;
        stroke: #008cf4;
        stroke-miterlimit: 10;
      }

      .cls-2 {
        fill: #fff;
        stroke: #000;
        stroke-linecap: round;
        stroke-linejoin: round;
      }
    </style>
  </defs>
  <path class="cls-1" d="M277.47,58.71c78.5,0,142.15,63.64,142.15,142.15s-63.64,142.15-142.15,142.15-142.15-63.64-142.15-142.15c0-11.78,1.43-23.23,4.14-34.18"/>
  <path class="cls-1" d="M337.04,126.27c40.43,33.85,45.76,94.07,11.91,134.49-33.85,40.43-94.07,45.76-134.49,11.91s-45.76-94.07-11.91-134.49"/>
  <path class="cls-1" d="M242.38,239.31c-22.01-18.43-24.91-51.2-6.48-73.21,18.43-22.01,51.2-24.91,73.21-6.48,22.01,18.43,24.91,51.2,6.48,73.21"/>
  <path class="cls-2" d="M393.11,326.77c.14-10.88-7.44-19.26-16.92-18.73-9.48.53-17.28,9.78-17.41,20.66l.36-28.87c.14-10.88-7.44-19.26-16.92-18.73s-17.28,9.78-17.41,20.66l.21-17.1c.14-10.88-7.44-19.26-16.92-18.73-9.48.53-17.28,9.78-17.41,20.66l1.09-87.43c.14-10.88-7.44-19.26-16.92-18.73-9.48.53-17.28,9.78-17.41,20.66l-1.95,155.93c-.03,2.41.37,4.68,1.04,6.77-.45.44-.87.91-1.31,1.36l-19.09-63.05c-3.05-10.07-12.8-14.87-21.78-10.72-8.98,4.15-13.78,15.67-10.73,25.74l29.68,98.02h0c-.29,22.98,11.47,42.72,29.92,54.8l2.28,38.69,94.73.86.56-45.04c18.77-14.18,31.04-35.26,31.33-58.24.02-1.3-.11-2.55-.17-3.83.1-.81.24-1.62.25-2.46l.91-73.17Z"/>
</svg>