<?xml version="1.0" encoding="UTF-8"?>
<svg id="Capa_1" data-name="Capa 1" xmlns="http://www.w3.org/2000/svg" viewBox="0 0 566.93 566.93">
  <defs>
    <style>
      .cls-1 {
        fill: #008cf4;
        stroke: #010202;
      }

      .cls-1, .cls-2 {
        stroke-linecap: round;
        stroke-linejoin: round;
      }

      .cls-2 {
        fill: #fff;
        stroke: #000;
      }
    </style>
  </defs>
  <path class="cls-2" d="M471.2,164.81h-128.84c-7.42,0-13.44,6.02-13.44,13.44v55.41c0,7.42,6.02,13.44,13.44,13.44h47.66l14.63,33.76,14.63-33.76h51.92c7.42,0,13.44-6.02,13.44-13.44v-55.41c0-7.42-6.02-13.44-13.44-13.44Z"/>
  <path class="cls-2" d="M214.25,164.81H85.41c-7.42,0-13.44,6.02-13.44,13.44v55.41c0,7.42,6.02,13.44,13.44,13.44h47.66l14.63,33.76,14.63-33.76h51.92c7.42,0,13.44-6.02,13.44-13.44v-55.41c0-7.42-6.02-13.44-13.44-13.44Z"/>
  <rect class="cls-1" x="101.2" y="313.14" width="174.06" height="91.61"/>
  <rect class="cls-1" x="275.26" y="313.14" width="174.06" height="91.61"/>
  <g>
    <rect class="cls-1" x="188.23" y="221.53" width="174.06" height="91.61"/>
    <rect class="cls-1" x="217.47" y="200.64" width="31.54" height="20.89"/>
    <rect class="cls-1" x="301.88" y="200.64" width="31.54" height="20.89"/>
  </g>
  <rect class="cls-1" x="130.25" y="292.25" width="31.54" height="20.89"/>
  <rect class="cls-1" x="388.95" y="292.25" width="31.54" height="20.89"/>
  <path class="cls-2" d="M339.68,72.44h-128.84c-7.42,0-13.44,6.02-13.44,13.44v55.41c0,7.42,6.02,13.44,13.44,13.44h47.66l14.63,33.76,14.63-33.76h51.92c7.42,0,13.44-6.02,13.44-13.44v-55.41c0-7.42-6.02-13.44-13.44-13.44Z"/>
</svg>