<?xml version="1.0" encoding="UTF-8"?>
<svg id="Capa_1" data-name="Capa 1" xmlns="http://www.w3.org/2000/svg" viewBox="0 0 566.93 566.93">
  <defs>
    <style>
      .cls-1 {
        fill: #fff;
        stroke: #000;
        stroke-linecap: round;
        stroke-linejoin: round;
      }

      .cls-2 {
        fill: #008cf4;
      }

      .cls-3 {
        font-size: 72.41px;
      }
    </style>
  </defs>
  <rect class="cls-1" x="55.84" y="119.09" width="440.84" height="133.42" rx="66.71" ry="66.71"/>
  <circle class="cls-2" cx="423.24" cy="185.8" r="51.12"/>
  <path class="cls-1" d="M467.96,371.55c4.64-10.03,1.09-20.95-7.92-24.38-9.01-3.44-20.07,1.91-24.71,11.94l12.3-26.62c4.64-10.03,1.09-20.95-7.92-24.38-9.01-3.44-20.07,1.91-24.71,11.94l7.29-15.76c4.64-10.03,1.09-20.94-7.92-24.38-9.01-3.44-20.07,1.91-24.71,11.94l37.26-80.6c4.64-10.03,1.09-20.94-7.92-24.38-9.01-3.44-20.07,1.91-24.71,11.94l-66.46,143.76c-1.03,2.23-1.59,4.49-1.85,6.71-.6.22-1.18.48-1.78.72l8.44-66.37c1.35-10.6-5.7-19.09-15.74-18.97-10.04.12-19.28,8.82-20.63,19.42l-13.12,103.18h0c-9.8,21.19-7.08,44.36,5.01,63.21l-13.93,36.81,87.47,40.08,19.2-41.52c23.28-5.36,43.4-19.82,53.19-41.01.55-1.2.96-2.41,1.43-3.62.43-.71.89-1.4,1.25-2.17l31.18-67.46Z"/>
  <text class="cls-3" transform="translate(120.24 208.5)"><tspan x="0" y="0">ON</tspan></text>
</svg>