<?xml version="1.0" encoding="UTF-8"?>
<svg id="Capa_1" data-name="Capa 1" xmlns="http://www.w3.org/2000/svg" viewBox="0 0 566.93 566.93">
  <defs>
    <style>
      .cls-1, .cls-2 {
        stroke: #008cf4;
        stroke-miterlimit: 10;
      }

      .cls-1, .cls-3 {
        fill: none;
      }

      .cls-2 {
        fill: #fff;
      }

      .cls-3 {
        stroke: #000;
        stroke-linecap: round;
        stroke-linejoin: round;
      }

      .cls-4 {
        fill: #008cf4;
      }
    </style>
  </defs>
  <path class="cls-4" d="M315.68,248.36v52.53c2.47,1.32,141.41,176.4,141.41,176.4,11.3,13.76,1.21,34.11-16.92,34.11H130.28c-17.52,0-27.77-19.16-17.71-33.09,0,0,133.16-175.48,135.66-176.96v-55.36s10.92,17.12,27.47,11.74c18.15-5.9,39.98-9.38,39.98-9.38Z"/>
  <path class="cls-3" d="M457.55,477.37s-139.43-175.67-141.9-177v-166.72h9.36c4.4,0,7.97-3.47,7.97-7.75s-3.57-7.74-7.97-7.74h-86.41c-4.4,0-7.97,3.47-7.97,7.74s3.57,7.75,7.97,7.75h9.36v167.19c-2.51,1.49-136.1,177.56-136.1,177.56-10.1,13.97.19,33.2,17.77,33.2h310.94c18.19,0,28.31-20.42,16.98-34.23Z"/>
  <circle class="cls-1" cx="284.02" cy="226.02" r="6.62"/>
  <circle class="cls-2" cx="372.46" cy="463.21" r="18.97"/>
  <circle class="cls-2" cx="189.18" cy="465.48" r="10.4"/>
  <circle class="cls-2" cx="258.86" cy="373.9" r="19.62"/>
  <circle class="cls-1" cx="295.41" cy="87.32" r="10.3"/>
  <circle class="cls-1" cx="252.24" cy="55.74" r="6.62"/>
  <circle class="cls-2" cx="334.46" cy="444.23" r="10.4"/>
</svg>