<?xml version="1.0" encoding="UTF-8"?>
<svg id="Capa_1" data-name="Capa 1" xmlns="http://www.w3.org/2000/svg" viewBox="0 0 566.93 566.93">
  <defs>
    <style>
      .cls-1 {
        fill: #008cf4;
        stroke: #010202;
      }

      .cls-1, .cls-2, .cls-3 {
        stroke-linecap: round;
        stroke-linejoin: round;
      }

      .cls-2 {
        fill: #fff;
      }

      .cls-2, .cls-3 {
        stroke: #000;
      }

      .cls-3 {
        fill: none;
      }
    </style>
  </defs>
  <path class="cls-2" d="M233.95,209.06l-.11,42.65,24.32-.05c2.47,10.68,6.75,20.67,12.53,29.67l-17.26,16.88,30.76,30.09,17.26-16.88c9.2,5.65,19.41,9.86,30.33,12.27l-.06,23.78,43.61-.1.06-23.78c10.94-2.46,21.17-6.71,30.4-12.4l17.17,16.81,30.91-30.23-17.17-16.81c5.83-9.02,10.17-19.03,12.68-29.72l24.32-.05.11-42.65-24.32.05c-2.46-10.69-6.75-20.68-12.53-29.67l17.26-16.88-30.76-30.08-17.26,16.88c-9.2-5.65-19.41-9.86-30.33-12.27l.06-23.78-43.61.1-.06,23.78c-10.94,2.45-21.17,6.71-30.4,12.4l-17.17-16.81-30.91,30.22,17.17,16.81c-5.83,9.02-10.16,19.03-12.68,29.73l-24.32.05ZM354.37,196.36c18.26-.04,33.03,14.73,32.99,33-.05,18.26-14.89,33.11-33.16,33.15-18.26.04-33.03-14.73-32.99-33,.05-18.27,14.89-33.11,33.16-33.15Z"/>
  <g>
    <path class="cls-3" d="M417.87,114.61c93.4,21.56,114.15,138.25,43.74,199.45"/>
    <polyline class="cls-3" points="463.27 305.61 461.52 314.03 470.13 314.11"/>
  </g>
  <rect class="cls-1" x="101.2" y="313.14" width="174.06" height="91.61"/>
  <rect class="cls-1" x="275.26" y="313.14" width="174.06" height="91.61"/>
  <g>
    <rect class="cls-1" x="188.23" y="221.53" width="174.06" height="91.61"/>
    <rect class="cls-1" x="217.47" y="200.64" width="31.54" height="20.89"/>
    <rect class="cls-1" x="301.88" y="200.64" width="31.54" height="20.89"/>
  </g>
  <rect class="cls-1" x="130.25" y="292.25" width="31.54" height="20.89"/>
  <rect class="cls-1" x="388.95" y="292.25" width="31.54" height="20.89"/>
</svg>