<?xml version="1.0" encoding="UTF-8"?>
<svg id="Capa_1" data-name="Capa 1" xmlns="http://www.w3.org/2000/svg" xmlns:xlink="http://www.w3.org/1999/xlink" viewBox="0 0 1129.46 566.93">
  <defs>
    <style>
      .cls-1, .cls-2, .cls-3, .cls-4, .cls-5 {
        fill: none;
      }

      .cls-2, .cls-6, .cls-7, .cls-8, .cls-9, .cls-5 {
        stroke-miterlimit: 10;
      }

      .cls-2, .cls-6, .cls-10 {
        stroke: #1d1d1b;
      }

      .cls-11 {
        fill: #008cf4;
        stroke: #010202;
      }

      .cls-11, .cls-12, .cls-13, .cls-3, .cls-4, .cls-14, .cls-10 {
        stroke-linecap: round;
        stroke-linejoin: round;
      }

      .cls-12, .cls-13, .cls-3, .cls-8, .cls-5, .cls-14 {
        stroke: #000;
      }

      .cls-12, .cls-6, .cls-8, .cls-15, .cls-9, .cls-10 {
        fill: #fff;
      }

      .cls-13 {
        fill: url(#Motivo_nuevo_6);
      }

      .cls-7 {
        fill: #1d1d1b;
        stroke: #fff;
      }

      .cls-9 {
        stroke: #020202;
      }

      .cls-4 {
        stroke: #080717;
      }

      .cls-14 {
        fill: #080717;
      }
    </style>
    <pattern id="Motivo_nuevo_6" data-name="Motivo nuevo 6" x="0" y="0" width="17.01" height="11.34" patternTransform="translate(-1686.55 534.05)" patternUnits="userSpaceOnUse" viewBox="0 0 17.01 11.34">
      <g>
        <rect class="cls-1" y="0" width="17.01" height="11.34"/>
        <g>
          <line class="cls-7" x1="19.94" y1="0" x2="14.08" y2="0"/>
          <line class="cls-7" x1="17.01" y1="3.24" x2="17.01" y2="-2.9"/>
        </g>
        <g>
          <line class="cls-7" x1="11.43" y1="5.67" x2="5.57" y2="5.67"/>
          <line class="cls-7" x1="8.5" y1="8.91" x2="8.5" y2="2.77"/>
        </g>
        <g>
          <line class="cls-7" x1="2.93" y1="0" x2="-2.93" y2="0"/>
          <line class="cls-7" x1="0" y1="3.24" x2="0" y2="-2.9"/>
        </g>
        <g>
          <line class="cls-7" x1="19.94" y1="11.34" x2="14.08" y2="11.34"/>
          <line class="cls-7" x1="17.01" y1="14.58" x2="17.01" y2="8.43"/>
        </g>
        <g>
          <line class="cls-7" x1="2.93" y1="11.34" x2="-2.93" y2="11.34"/>
          <line class="cls-7" x1="0" y1="14.58" x2="0" y2="8.43"/>
        </g>
      </g>
    </pattern>
  </defs>
  <path class="cls-12" d="M759.82,301.45l-33.66-2.83c5.01,17.61-5.9,40.93-5.9,40.93l13.45,50.33,38.36-4.85,1.58-42.52s-20.03-28.24-13.83-41.07Z"/>
  <path class="cls-12" d="M710.22,265.39c.81,13.48,3,46.25,34.62,46.24,31.01,0,27.07-37.62,27.07-37.62,0,0,3.78,3.81,8.67,2.59,13-3.25,12.67-22.26-7-18.26,0,0,1-57.68-50.01-37.68,0,0-15.92,1.6-13.34,44.73Z"/>
  <path class="cls-14" d="M755.96,214.54s-27.51-32.26-60.64-5.38c0,0-17.57,12.56.34,56.02,0,0-6.11,19.61-21.47,8.14,0,0-11.5,7,.61,14.03,0,0-1.81,44.95,48.99,17.04,0,0-11.17-11.63-12.08-25.38-.71-10.75,16.15-16.63,9.29-40.29,0,0,10.26-17.94,26.55-10.75,16.28,7.19,25.93,7.1,26.03,30.36,0,0,7.33-.81,9.7.06,5.77,2.13,11.02,19.45-11.37,15.61,0,0,1.75,23.28-10.02,31.55,0,0,24.38,26.21,42.44-4.13,0,0-13.58,5.81-8.77-8.69,19.93-60.07-25.43-86.67-39.59-78.2Z"/>
  <path class="cls-3" d="M775.14,262.2s9.14-2.32,9.14,3.56"/>
  <path class="cls-8" d="M868.33,216.45s20.65-22.89,18.31-27.7c-1.58-3.25-11.99,7.15-11.99,7.15,0,0,15.2-21.64,11.33-24.13-2.35-1.51-13.82,14.84-13.82,14.84,0,0,12.79-22.63,7.16-20.72-5.52,1.88-14.25,18.97-14.25,18.97,0,0,11.29-20.13,5.54-19.26s-8.75,13.64-12.28,17.93c-1.23,1.5-7.72,5.34-8.22.44-.5-4.9.92-14.83-3.58-10.24-4.62,4.71-4.9,42.72-4.9,42.72-5.21,147.86-50.54,108.84-74.06,115.32-3.26.9-17.87,20.45-17.87,20.45l-29.44-12.67c-72.49-19-74.51-95.02-74.51-95.02,0-21.85-.94-70.08-6.12-73.49s-3.29,6.95-3.98,13.04c-.69,6.09-7.05,2.16-8.23.47-3.37-4.85-5.89-20.18-11.63-20.54-5.73-.36,4.83,23.01,4.83,23.01,0,0-8.1-19.94-13.57-21.57s6.39,24.6,6.39,24.6c0,0-10.87-18.69-13.29-16.54-3.97,3.53,10.44,28.28,10.44,28.28,0,0-11.63-11.84-11.75-7.32-.25,9.81,17.69,28.22,17.69,28.22,0,0-12.8,129.53,87.06,152.59l-11.83,101.74h136.1l-22.82-98.8s65.12-19.03,63.26-161.76Z"/>
  <path class="cls-14" d="M723.85,331.77l24.95,17.61,18.78-17.61s9.17-1.71,15.18,0l-11.65,16.72c-.32,6.71,5.41,31.18,5.41,31.18l-25.24-22.54-18.76,26.13s-1.02-25.75.34-30.36c1.39-4.73-21.08-17.04-24.06-17.04s15.05-4.1,15.05-4.1Z"/>
  <path class="cls-3" d="M680.62,319.02s-12.55,30.37-25.26,30.36"/>
  <path class="cls-3" d="M819.53,320.51s-.46,23.3,21.53,25.36"/>
  <g>
    <path class="cls-14" d="M964.21,249.24c-5.66-3.69-12.8-9.31-12.06-16.34.74-7.04,10.09-14.66,16.49-12.2s11.81.29,21.16-.47,27.32-12.32,32.24,8.1c4.92,20.43,1.48,16.73,1.48,16.73,0,0,6.4.49,11.07,2.71,4.68,2.21-.98,29.88-8.86,39.67-7.87,9.79-22.55,15.45-18.41,19.14,4.14,3.69,3,9.11-.61,7.38s-11-1.23-11-9.35-16-52.91-22.64-52.91-8.86-2.46-8.86-2.46Z"/>
    <path class="cls-12" d="M936.23,231.32l-15.19-70.54c0-.22.02-.44.06-.66l12.3-24.06c3.27-6-1.52-11.25-3.91-11.25h-37.21c-2.41,0-4.23,2.15-3.77,4.48l5.89,30.29c.05.23.07.47.07.71l16.12,98.3,31.97-4.46-6.33-22.8Z"/>
    <path class="cls-14" d="M1060.88,470.56c-1.17-6.79-2.5-13.7-3.92-20.63-3.08-15.02-6.61-30.13-10.02-44.29-5.31-18.45-11.65-32.34-18.72-43.4-13.32-20.84-29.23-31.6-45.65-43.75-.01,0-.03-.02-.04-.03-.66-.49-1.32-.94-1.96-1.36-.18-.12-.36-.22-.55-.33-.48-.3-.96-.59-1.44-.85-.19-.1-.37-.19-.56-.28-.47-.24-.94-.48-1.4-.68-.17-.07-.33-.14-.5-.21-.48-.2-.97-.39-1.44-.55-.14-.05-.28-.09-.41-.13-.51-.16-1.01-.3-1.51-.42-.11-.02-.21-.05-.32-.07-.54-.12-1.07-.21-1.59-.27-.07,0-.14-.02-.21-.02-.56-.06-1.12-.1-1.68-.1-.04,0-.07,0-.11,0-.59,0-1.18.03-1.76.09,0,0,0,0,0,0l-20.41-60.5-40.86,6.41,22.18,88.73-6.62,131.77h140.98c-.46-3.02-.96-6.07-1.49-9.14Z"/>
    <rect class="cls-12" x="898.01" y="113.76" width="9.57" height="27.98" rx="4.35" ry="4.35"/>
    <rect class="cls-12" x="907.57" y="111.58" width="9.57" height="28.34" rx="4.35" ry="4.35"/>
    <rect class="cls-12" x="917.14" y="108.49" width="9.57" height="31.43" rx="4.35" ry="4.35"/>
    <path class="cls-12" d="M894.59,142.82l-1.37.3c-1.97,0-4.78-3.56-4.78-5.87v-13.95c0-2.31,1.59-4.18,3.56-4.18h2.45c1.97,0,3.56,1.87,3.56,4.18v13.95c0,2.31-1.45,5.57-3.41,5.57Z"/>
    <path class="cls-2" d="M1006.71,290.88s7.25.87,6.97-6.93"/>
    <path class="cls-13" d="M1060.88,470.56c-1.17-6.79-2.5-13.7-3.92-20.63-3.08-15.02-6.61-30.13-10.02-44.29-5.31-18.45-11.65-32.34-18.72-43.4-13.32-20.84-29.23-31.6-45.65-43.75-.01,0-.03-.02-.04-.03-.66-.49-1.32-.94-1.96-1.36-.18-.12-.36-.22-.55-.33-.48-.3-.96-.59-1.44-.85-.19-.1-.37-.19-.56-.28-.47-.24-.94-.48-1.4-.68-.17-.07-.33-.14-.5-.21-.48-.2-.97-.39-1.44-.55-.14-.05-.28-.09-.41-.13-.51-.16-1.01-.3-1.51-.42-.11-.02-.21-.05-.32-.07-.54-.12-1.07-.21-1.59-.27-.07,0-.14-.02-.21-.02-.56-.06-1.12-.1-1.68-.1-.04,0-.07,0-.11,0-.59,0-1.18.03-1.76.09,0,0,0,0,0,0l-20.41-60.5-40.86,6.41,22.18,88.73-6.62,131.77h140.98c-.46-3.02-.96-6.07-1.49-9.14Z"/>
    <path class="cls-12" d="M965.12,241.87c10.45-11.77,27.84-12,38.62-.51h0c10.3,8.43,12.94,22.26,7.28,33.42,4.77,2.62,7.09,8.19,5.25,13.37h0c-1.61,4.51-11.44,6.24-16.12,6.42l-2.26,34.33-16.16,4.13c-9.49,1.76-32.45,2.88-31.44-6.35h0l4.76-19.26c-2.28-1.03-4.46-2.34-6.47-3.98-12.21-9.99-13.66-27.58-3.26-39.3l19.8-22.29Z"/>
    <path class="cls-3" d="M1010.2,278.86s5.04,8.97-6.81,9.61"/>
    <path class="cls-12" d="M927.99,124.82s-15.24,6.27-18.57,7.6c-11.42,4.55,2.94,14.26,18.83,6.07"/>
    <path class="cls-3" d="M1023.52,245.05s8.61-3.45,7.38-7.63"/>
    <path class="cls-3" d="M965.18,220.26s-13.52-4.49-15.73,3.13"/>
  </g>
  <rect class="cls-11" x="436.31" y="307.29" width="50.87" height="26.78"/>
  <rect class="cls-11" x="514.09" y="307.29" width="50.87" height="26.78"/>
  <g>
    <rect class="cls-11" x="474.54" y="280.51" width="50.87" height="26.78"/>
    <rect class="cls-11" x="483.09" y="274.41" width="9.22" height="6.11"/>
    <rect class="cls-11" x="507.76" y="274.41" width="9.22" height="6.11"/>
  </g>
  <rect class="cls-11" x="445.28" y="301.18" width="9.22" height="6.11"/>
  <rect class="cls-11" x="408.1" y="327.96" width="9.22" height="6.11"/>
  <rect class="cls-11" x="399.02" y="334.07" width="50.87" height="26.78"/>
  <rect class="cls-11" x="549.16" y="334.07" width="50.87" height="26.78"/>
  <rect class="cls-11" x="389.02" y="360.84" width="50.87" height="26.78"/>
  <rect class="cls-11" x="559.16" y="360.84" width="50.87" height="26.78"/>
  <rect class="cls-11" x="582.05" y="327.96" width="9.22" height="6.11"/>
  <rect class="cls-11" x="546.69" y="301.18" width="9.22" height="6.11"/>
  <rect class="cls-11" x="389.02" y="387.62" width="50.87" height="26.78"/>
  <rect class="cls-11" x="559.16" y="387.62" width="50.87" height="26.78"/>
  <rect class="cls-11" x="559.16" y="414.4" width="50.87" height="26.78"/>
  <rect class="cls-11" x="559.16" y="441.17" width="50.87" height="26.78"/>
  <rect class="cls-11" x="389.02" y="414.4" width="50.87" height="26.78"/>
  <rect class="cls-11" x="389.02" y="441.17" width="50.87" height="26.78"/>
  <g>
    <path class="cls-10" d="M200.03,315.67c45.63-5.58,54.62,65.19,91.28,73.16,21.05,4.58,54.84-41.76,54.84-41.76l12.92,25.49c-63.34,113.05-126.22,17.7-126.22,17.7l1.34,77.68h-100.92s-4.95-77.68-4.95-77.68c0,0-86.02-32.45-69.74-201.32h32.01s3.15,141.1,29.92,126.72l23.89-6.54,55.62,6.54"/>
    <path class="cls-5" d="M218.93,226.58c-10.99-13.58-53.67-37.7-77.77-10.33-24.1,27.37-5.48,40.74-13.12,52.24-7.64,11.5-15.39,7.63-21.21,23.2-8.46,22.64,21.39,36.65,38.59,27.71"/>
    <path d="M216.62,261.98s19.81-24.53,8.68-39.2c-11.13-14.67-54.31-40.58-78.62-10.76-24.31,29.82-8.73,46.11-16.43,58.62-7.7,12.52-18.97,8.01-22.76,25.84-5.37,25.26,22.61,46.29,39.97,36.49,32.51-18.35,69.15-71,69.15-71Z"/>
    <path class="cls-9" d="M184.92,349.46l-6.36-2.04c-12.21-3.93-21.08-18.47-20.49-33.61l1.55-39.76,33.38,10.73-2.32,59.64c-.14,3.65-2.82,6-5.76,5.05Z"/>
    <path class="cls-9" d="M161.46,275.32c12.85,18.63,29.43,22.98,29.43,22.98,4.22,1.21,8.49,1.2,12.43-.04h0c13.43-4.21,20.03-21.33,14.81-38.38l-7.12-23.27c-4-13.07-14.06-22.79-25.13-24.3h0l-.11.43c-5.01,19.68-16.65,34.98-32.33,42.49h0l8.03,20.08Z"/>
    <path class="cls-15" d="M144.96,260.24c2.28,6.96,8.91,11.41,14.81,9.94,5.9-1.47,8.83-8.31,6.55-15.27-2.28-6.96-8.91-11.41-14.81-9.94-5.9,1.47-8.83,8.31-6.55,15.27Z"/>
    <path class="cls-3" d="M148.48,259.41s-1.91-10.59,8.01-9.99"/>
    <path class="cls-10" d="M154.2,316.07l24.93,17.42,12.77-20.69,8.13,2.87v48.23s-16.4-12.55-16.4-12.55c0,0-15.56,17.13-16.42,15.7-.86-1.43-17.34-40.23-17.34-40.23l4.33-10.74Z"/>
    <path class="cls-6" d="M163.26,266.88c.79,2.42-.37,5.1-2.6,6s-4.68-.33-5.47-2.75c-.79-2.42.37-5.1,2.6-6s4.68.33,5.47,2.75Z"/>
    <g>
      <path class="cls-12" d="M359.07,372.56l2.05-5.02h0c5.41,4.24,10.26,4.71,17.42,2.97l10.01-2.45c2.04-.5,3.2-3.52,1.99-5.16l-.17-.23c-1.08-1.46-2.6-2.38-4.33-2.61l-16.26-3.09,9.47-6.11,15.08-4.93,9.12.19c1.61.03,3.3-.8,4.63-2.28l.3-.34c1.11-1.24.98-3.22-.25-3.67l-4.33-1.6,2.09-1.49c1.66-1.18,1.71-3.95.08-4.43l-5.82-1.7,1.99-1.68c1.58-1.33,1.32-4.02-.39-4.14l-14.93,3.53,11.31-5.5c1.2-.82,2.16-2.13,2.68-3.64.67-1.96.5-4.01-.46-5.39l-.34-.49-40.62,22.6-13.23,11.17,12.92,25.49Z"/>
      <polyline class="cls-4" points="404.51 338.47 394.37 334.78 384.44 339.74"/>
      <polyline class="cls-4" points="400.33 330.64 392.38 328.31 384.39 332.15"/>
    </g>
    <line class="cls-8" x1="337.11" y1="357.82" x2="350.77" y2="386.22"/>
    <ellipse class="cls-8" cx="351.72" cy="372.83" rx="2.91" ry="3.23"/>
    <line class="cls-6" x1="183.63" y1="351.34" x2="188.44" y2="467.95"/>
  </g>
  <line class="cls-5" x1="57.62" y1="200.47" x2="91" y2="200.47"/>
  <circle class="cls-5" cx="84.19" cy="194.69" r="2.58"/>
  <path class="cls-12" d="M58.58,188.95l-.91-24.4c-.39-1.98,1.16-3.82,3.22-3.82h31.76c2.04,0,6.13,4.48,3.34,9.6l-5.32,18.57-32.09.05Z"/>
  <rect class="cls-12" x="65.78" y="151.29" width="8.17" height="23.89" rx="4.08" ry="4.08"/>
  <rect class="cls-12" x="73.95" y="149.43" width="8.17" height="24.19" rx="4.08" ry="4.08"/>
  <rect class="cls-12" x="82.12" y="146.79" width="8.17" height="26.83" rx="4.08" ry="4.08"/>
  <path class="cls-12" d="M62.87,176.1l-1.17.26c-1.68,0-4.08-3.04-4.08-5.01v-11.91c0-1.97,1.36-3.57,3.04-3.57h2.09c1.68,0,3.04,1.6,3.04,3.57v11.91c0,1.97-1.24,4.75-2.91,4.75Z"/>
  <path class="cls-12" d="M93.92,177.56s2.82-10.35,9.5-29.72c1.84-5.34-6.53-7.07-13.13,5.26,0,0-1.61,3.3-1.61,7.1s1.33,11.12,1.33,11.12"/>
  <line class="cls-12" x1="44.73" y1="119.89" x2="57.11" y2="137.3"/>
  <line class="cls-12" x1="76.57" y1="108.89" x2="77.96" y2="130.13"/>
  <line class="cls-12" x1="97.55" y1="133.33" x2="109.82" y2="114.46"/>
</svg>