<?xml version="1.0" encoding="UTF-8"?>
<svg id="Capa_1" data-name="Capa 1" xmlns="http://www.w3.org/2000/svg" viewBox="0 0 566.93 566.93">
  <defs>
    <style>
      .cls-1 {
        fill: #008cf4;
        stroke: #008cf4;
      }

      .cls-1, .cls-2, .cls-3 {
        stroke-linejoin: round;
      }

      .cls-1, .cls-3, .cls-4 {
        stroke-linecap: round;
      }

      .cls-2 {
        stroke: #050505;
      }

      .cls-2, .cls-3, .cls-4 {
        fill: none;
      }

      .cls-3 {
        stroke: #000;
      }

      .cls-4 {
        stroke: #fff;
        stroke-miterlimit: 10;
      }
    </style>
  </defs>
  <path class="cls-1" d="M375.9,259.11l-117.04-190.35c-8.33-13.55-28.03-13.52-36.32.05L65.72,325.58c-8.67,14.19,1.55,32.4,18.18,32.4h88.25v162.3h48.97s-5.56-2.73-15.4-7.05l1.83-155.24h38.87v162.3h49.56s-10.56-5.59-15.98-8.52l1.83-153.78h53.7l13.67,25.87c1.4,2.64,5.4,1.65,5.4-1.34v-24.53h44.01c16.66,0,26.87-18.26,18.14-32.46l-16.77-27.28"/>
  <path d="M216.83,188.71c-12.53,0-22.73-10.2-22.73-22.73s10.2-22.73,22.73-22.73,22.73,10.2,22.73,22.73-10.2,22.73-22.73,22.73ZM216.83,145.05c-11.54,0-20.93,9.39-20.93,20.93s9.39,20.93,20.93,20.93,20.93-9.39,20.93-20.93-9.39-20.93-20.93-20.93Z"/>
  <path d="M277.27,188.35c-12.53,0-22.73-10.2-22.73-22.73s10.2-22.73,22.73-22.73,22.73,10.2,22.73,22.73-10.2,22.73-22.73,22.73ZM277.27,144.69c-11.54,0-20.93,9.39-20.93,20.93s9.39,20.93,20.93,20.93,20.93-9.39,20.93-20.93-9.39-20.93-20.93-20.93Z"/>
  <path d="M239.06,166.79l-.81-1.61c.33-.17,8.16-4.02,17.51-.4l-.65,1.68c-8.58-3.32-15.98.29-16.05.33Z"/>
  <polyline class="cls-3" points="292.26 242.39 468.29 105.39 494.07 137.37 318.04 274.37"/>
  <path d="M318.73,274.91c-9.33,7.35-22.82,5.78-30.14-3.5-7.32-9.29-5.69-22.77,3.63-30.13"/>
  <path class="cls-1" d="M399.95,298.24c11.41-18.38,44.2-73.61,44.21-101.41.2-1.15.26-2.32.15-3.5-1.29-14.02-4.64-28.38-4.78-28.99-.06.02-6.39,1.7-9.29,7.4-.23.44-.43.91-.61,1.41-1.38,3.78-1.09,9.28-.67,13.65l-4.01.99-13.93-25.76c-1.87-.03-5.83.59-7.46,3.14l-.78,1.18h0s-1.49-.33-1.49-.33c-.04.02-4.29,2.18-5.91,5.37-.44.87-.63,1.77-.56,2.67l.08,1.04h0s-.86.27-.86.27l.1.3-.09.07c-1.09.81-1.92,1.81-2.55,3.04-1.88,3.69-1.92,9.37-.14,16.86,1.52,6.38,3.92,12.17,4.89,14.36l.41.93c-2.76-.36-5.25,1.42-5.62,4l-.95,6.63s-1.76,17.77-14.2,37.54"/>
  <line class="cls-4" x1="393.04" y1="170.62" x2="404.1" y2="201.71"/>
  <line class="cls-4" x1="401.95" y1="163.87" x2="413.26" y2="198.14"/>
  <polygon class="cls-2" points="468.15 105.4 497.11 99.4 504.55 108.23 494.24 137.21 468.15 105.4"/>
  <path d="M502.71,115.03l-12.99-14.84,12.92-3.41c4.04-1.06,7.38,3.22,5.37,6.88l-5.3,11.37Z"/>
  <path class="cls-3" d="M194.1,161.96s-33.75,2.88-44.21,5.07c-3.28.69-9.42,5.72-1.33,13.33"/>
</svg>