<?xml version="1.0" encoding="UTF-8"?>
<svg id="Capa_1" xmlns="http://www.w3.org/2000/svg" xmlns:xlink="http://www.w3.org/1999/xlink" version="1.1" viewBox="0 0 566.93 566.93">
  <!-- Generator: Adobe Illustrator 29.5.1, SVG Export Plug-In . SVG Version: 2.1.0 Build 141)  -->
  <defs>
    <style>
      .st0, .st1 {
        fill: none;
      }

      .st1, .st2 {
        stroke: #000;
      }

      .st1, .st3 {
        stroke-linecap: round;
        stroke-linejoin: round;
      }

      .st2 {
        fill: url(#Motivo_nuevo_2);
        stroke-miterlimit: 10;
      }

      .st3 {
        stroke: #020202;
      }

      .st4 {
        fill: #b564b5;
      }
    </style>
    <pattern id="Motivo_nuevo_2" data-name="Motivo nuevo 2" x="0" y="0" width="129.4" height="129.5" patternTransform="translate(6850.24 -17026.59) scale(1 -1)" patternUnits="userSpaceOnUse" viewBox="0 0 129.4 129.5">
      <g>
        <rect class="st0" width="129.4" height="129.5"/>
        <g>
          <rect class="st0" width="129.4" height="129.5"/>
          <g>
            <path class="st3" d="M1.52,114.17c.2.94.87,1.71,1.51,2.44,3.43,3.93,6.6,8.07,9.48,12.39"/>
            <path class="st3" d="M2.02,125.35c3.86-2.73,7.85-5.3,11.94-7.7"/>
            <path class="st3" d="M17.98,112.99c3.7,4.63,7.22,9.39,10.55,14.28"/>
            <path class="st3" d="M17.27,126.21c3.71-3.39,7.3-6.91,10.76-10.54"/>
            <path class="st3" d="M32.16,114.27c1.63,2.36,3.46,4.58,5.47,6.63,1.7,1.73,3.54,3.37,4.86,5.4"/>
            <path class="st3" d="M34.59,126.68c1.84-2.22,3.69-4.46,5.05-6.99.41-.75.77-1.53,1.19-2.27.44-.77.94-1.5,1.5-2.18"/>
            <path class="st3" d="M46.25,114.93c.32.85,1,1.52,1.65,2.16,3.22,3.19,6.26,6.55,9.1,10.07"/>
            <path class="st3" d="M48,126.45c1.76-2.17,3.52-4.34,5.05-6.66.94-1.42,1.83-2.93,3.16-4.01"/>
            <path class="st3" d="M60.75,115.06c3.98,4.02,7.99,8.01,12.03,11.97"/>
            <path class="st3" d="M64.14,127.09c2.21-3.52,4.42-7.04,6.62-10.56"/>
            <path class="st3" d="M75.51,116.01c.52.58,1.12,1.08,1.71,1.59,3.46,2.95,6.58,6.27,9.31,9.88"/>
            <path class="st3" d="M79.79,127.32c2.04-3.78,3.91-7.63,5.62-11.56"/>
            <path class="st3" d="M89.02,115.29c3.68,4.06,7.57,7.93,11.66,11.59"/>
            <path class="st3" d="M91.63,127.62c2.52-3.78,5.05-7.55,7.57-11.33"/>
            <path class="st3" d="M102.34,115.22c.7,1.54,2.22,2.55,3.61,3.54,3.52,2.51,6.68,5.45,9.83,8.38"/>
            <path class="st3" d="M106.92,126.96c2.11-2.97,3.77-6.26,4.88-9.71.22-.69.59-1.53,1.33-1.58"/>
            <path class="st3" d="M117.07,115c1.18,1.05,2.36,2.11,3.53,3.16,2.85,2.55,5.71,5.11,8.29,7.93-.17-.06-.35-.12-.52-.19"/>
            <path class="st3" d="M120.01,127.57c2.64-4.52,5.15-9.1,7.54-13.75"/>
            <path class="st3" d="M128.69,72.64c-.2-.94-.87-1.71-1.51-2.44-3.42-3.93-6.57-8.07-9.45-12.39"/>
            <path class="st3" d="M128.2,61.45c-3.85,2.73-7.82,5.3-11.9,7.7"/>
            <path class="st3" d="M112.29,73.81c-3.69-4.63-7.2-9.39-10.51-14.28"/>
            <path class="st3" d="M113,60.6c-3.69,3.39-7.27,6.91-10.73,10.54"/>
            <path class="st3" d="M98.15,72.54c-1.62-2.36-3.45-4.58-5.45-6.63-1.69-1.74-3.53-3.37-4.84-5.4"/>
            <path class="st3" d="M95.73,60.12c-1.83,2.22-3.68,4.46-5.04,6.99-.4.75-.76,1.53-1.19,2.27-.43.77-.93,1.5-1.49,2.18"/>
            <path class="st3" d="M84.11,71.87c-.32-.85-.99-1.52-1.64-2.16-3.21-3.19-6.24-6.55-9.07-10.07"/>
            <path class="st3" d="M82.37,60.35c-1.75,2.17-3.5,4.34-5.04,6.66-.94,1.42-1.82,2.93-3.15,4.01"/>
            <path class="st3" d="M69.66,71.74c-3.97-4.02-7.96-8.01-11.99-11.97"/>
            <path class="st3" d="M66.28,59.71c-2.2,3.52-4.4,7.04-6.6,10.56"/>
            <path class="st3" d="M54.95,70.79c-.51-.58-1.12-1.08-1.71-1.59-3.44-2.95-6.56-6.27-9.28-9.88"/>
            <path class="st3" d="M50.68,59.48c-2.03,3.78-3.9,7.63-5.6,11.56"/>
            <path class="st3" d="M41.48,71.51c-3.67-4.06-7.55-7.93-11.63-11.59"/>
            <path class="st3" d="M38.87,59.18c-2.52,3.78-5.03,7.55-7.55,11.33"/>
            <path class="st3" d="M28.2,71.58c-.7-1.54-2.21-2.55-3.6-3.54-3.5-2.51-6.66-5.45-9.8-8.38"/>
            <path class="st3" d="M23.64,59.85c-2.11,2.97-3.75,6.26-4.87,9.71-.22.69-.59,1.53-1.32,1.58"/>
            <path class="st3" d="M13.52,71.8c-1.17-1.05-2.35-2.11-3.52-3.16-2.84-2.55-5.69-5.11-8.27-7.93.17.06.35.12.52.19"/>
            <path class="st3" d="M10.59,59.23c-2.63,4.52-5.13,9.1-7.52,13.75"/>
            <path class="st3" d="M1.3,96.46c2.66,3.91,5.71,7.67,9.13,11.23"/>
            <path class="st3" d="M2.58,107.53c1.16-1,2.23-2.06,3.18-3.18,2.45-2.85,4.29-6.13,7.84-8.21"/>
            <path class="st3" d="M15.67,96.27c4.25,3.15,8.51,6.31,12.76,9.46"/>
            <path class="st3" d="M18.6,108.13c1.37-.46,2.43-1.34,3.3-2.27,2.93-3.12,4.22-7.01,7.29-10.04"/>
            <path class="st3" d="M31.01,95.54c-.22.11-.08.37.08.53,3.84,3.85,7.92,7.56,12.21,11.12"/>
            <path class="st3" d="M31.81,107.4c1.45-1.16,2.81-2.39,4.06-3.68.86-.88,1.66-1.78,2.54-2.64,1.67-1.66,3.57-3.18,5.67-4.53"/>
            <path class="st3" d="M47.79,96.28c1.02,1.26,2.21,2.44,3.33,3.64,2.43,2.6,4.58,5.35,6.73,8.09"/>
            <path class="st3" d="M47.38,107.97c1.42-1.09,2.7-2.29,3.8-3.58,2.61-3.04,4.25-6.52,7.11-9.43"/>
            <path class="st3" d="M61.86,95.48c3.89,4.31,7.63,8.71,11.21,13.18"/>
            <path class="st3" d="M62.49,108.06c3.72-3.9,5.33-8.79,9.16-12.63"/>
            <path class="st3" d="M76.32,108.4c4.74-2.25,7.03-6.48,10.6-9.74"/>
            <path class="st3" d="M77.32,96.21c.05.2.18.39.3.57,2.39,3.52,4.79,7.03,7.18,10.55.16.24.33.49.61.66"/>
            <path class="st3" d="M88.29,108.27c3.7-3.58,7.4-7.16,11.1-10.74"/>
            <path class="st3" d="M90.9,95.96c-.16.24.03.53.23.76,3.47,4.15,6.94,8.29,10.41,12.44"/>
            <path class="st3" d="M103.74,107.86c1.79-1.73,3.43-3.55,4.9-5.45,1.53-1.98,2.88-4.04,4.23-6.09"/>
            <path class="st3" d="M104.87,96.72c.42.75.96,1.47,1.49,2.18,2.39,3.19,4.79,6.38,7.18,9.56"/>
            <path class="st3" d="M116.44,108.35c2.63-1.86,4.95-3.98,6.87-6.28,1.37-1.64,2.58-3.4,4.46-4.7"/>
            <path class="st3" d="M118.06,96.35c2.72,3.94,6.03,7.65,9.83,11.03"/>
            <path class="st3" d="M1.73,89.05c1.67-2.72,3.54-5.36,5.62-7.91.81-1,1.65-1.98,2.58-2.92.32-.33.67-.66,1.13-.88"/>
            <path class="st3" d="M.5,76.28c.28.47.73.86,1.16,1.26,3.97,3.65,6.86,7.89,9.72,12.09"/>
            <path class="st3" d="M15.56,90.13c3.52-4,6.78-8.14,9.76-12.4"/>
            <path class="st3" d="M16.34,76.57c3.25,3.45,6.24,7.04,8.95,10.75.39.53.77,1.06,1.23,1.56"/>
            <path class="st3" d="M32.01,89.49c3.9-3.36,5.44-7.99,9.26-11.41"/>
            <path class="st3" d="M33.82,76.73c2.76,4.22,5.52,8.45,8.28,12.67"/>
            <path class="st3" d="M48.16,89.79c-.26-.29,0-.67.28-.96,3.24-3.45,6.03-7.15,8.32-11.01"/>
            <path class="st3" d="M50.52,78.95c1.81,2.99,3.62,5.97,5.43,8.96.43.72.87,1.44,1.51,2.06"/>
            <path class="st3" d="M61.13,89.52c3.45-3.28,5.23-7.4,8.44-10.81.11-.12-.01-.38-.11-.26"/>
            <path class="st3" d="M62.64,76.38c2.66,4.37,5.32,8.74,7.99,13.12"/>
            <path class="st3" d="M74.79,89.41c.72-.89,1.8-1.57,2.72-2.35,2.83-2.42,3.95-5.74,6.52-8.32.07-.07.14-.16.07-.23s-.22.07-.11.08"/>
            <path class="st3" d="M75.84,76.43c2.07,4.42,4.13,8.84,6.2,13.26.04.1.12.21.25.21s.15-.2.03-.17"/>
            <path class="st3" d="M89.39,89.98c2.33-1.95,3.38-4.56,4.99-6.89,1.18-1.71,2.68-3.29,4.17-4.86"/>
            <path class="st3" d="M91.85,77.43c.25.71.66,1.38,1.07,2.04,2.15,3.5,4.3,6.99,6.45,10.49"/>
            <path class="st3" d="M103.38,88.91c2.81-3.7,4.49-7.94,8.21-11.14"/>
            <path class="st3" d="M104.6,75.99c2.8,4.7,5.72,9.35,8.75,13.96"/>
            <path class="st3" d="M117.49,90.02c3.58-3.88,7.15-7.76,10.73-11.65"/>
            <path class="st3" d="M119.17,76.64c2.93,4.26,5.54,8.64,7.83,13.12.12.23.39.5.67.39"/>
            <path class="st3" d="M128.69,15.34c-.2-.94-.87-1.71-1.51-2.44-3.42-3.93-6.57-8.07-9.45-12.39"/>
            <path class="st3" d="M128.2,4.15c-3.85,2.73-7.82,5.3-11.9,7.7"/>
            <path class="st3" d="M112.29,16.52c-3.69-4.63-7.2-9.39-10.51-14.28"/>
            <path class="st3" d="M113,3.3c-3.69,3.39-7.27,6.91-10.73,10.54"/>
            <path class="st3" d="M98.15,15.24c-1.62-2.36-3.45-4.58-5.45-6.63-1.69-1.74-3.53-3.37-4.84-5.4"/>
            <path class="st3" d="M95.73,2.82c-1.83,2.22-3.68,4.46-5.04,6.99-.4.75-.76,1.53-1.19,2.27-.43.77-.93,1.5-1.49,2.18"/>
            <path class="st3" d="M84.11,14.57c-.32-.85-.99-1.52-1.64-2.16-3.21-3.19-6.24-6.55-9.07-10.07"/>
            <path class="st3" d="M82.37,3.05c-1.75,2.17-3.5,4.34-5.04,6.66-.94,1.42-1.82,2.93-3.15,4.01"/>
            <path class="st3" d="M69.66,14.44c-3.97-4.02-7.96-8.01-11.99-11.97"/>
            <path class="st3" d="M66.28,2.41c-2.2,3.52-4.4,7.04-6.6,10.56"/>
            <path class="st3" d="M54.95,13.49c-.51-.58-1.12-1.08-1.71-1.59-3.44-2.95-6.56-6.27-9.28-9.88"/>
            <path class="st3" d="M50.68,2.18c-2.03,3.78-3.9,7.63-5.6,11.56"/>
            <path class="st3" d="M41.48,14.22c-3.67-4.06-7.55-7.93-11.63-11.59"/>
            <path class="st3" d="M38.87,1.88c-2.52,3.78-5.03,7.55-7.55,11.33"/>
            <path class="st3" d="M28.2,14.29c-.7-1.54-2.21-2.55-3.6-3.54-3.5-2.51-6.66-5.45-9.8-8.38"/>
            <path class="st3" d="M23.64,2.55c-2.11,2.97-3.75,6.26-4.87,9.71-.22.69-.59,1.53-1.32,1.58"/>
            <path class="st3" d="M13.52,14.51c-1.17-1.05-2.35-2.11-3.52-3.16C7.16,8.8,4.31,6.24,1.73,3.42c.17.06.35.12.52.19"/>
            <path class="st3" d="M10.59,1.93c-2.63,4.52-5.13,9.1-7.52,13.75"/>
            <path class="st3" d="M1.3,41.49c2.66,3.91,5.71,7.67,9.13,11.23"/>
            <path class="st3" d="M2.58,52.56c1.16-1,2.23-2.06,3.18-3.18,2.45-2.85,4.29-6.13,7.84-8.21"/>
            <path class="st3" d="M15.67,41.3c4.25,3.15,8.51,6.31,12.76,9.46"/>
            <path class="st3" d="M18.6,53.15c1.37-.46,2.43-1.34,3.3-2.27,2.93-3.12,4.22-7.01,7.29-10.04"/>
            <path class="st3" d="M31.01,40.57c-.22.11-.08.37.08.53,3.84,3.85,7.92,7.56,12.21,11.12"/>
            <path class="st3" d="M31.81,52.43c1.45-1.16,2.81-2.39,4.06-3.68.86-.88,1.66-1.78,2.54-2.64,1.67-1.66,3.57-3.18,5.67-4.53"/>
            <path class="st3" d="M47.79,41.31c1.02,1.26,2.21,2.44,3.33,3.64,2.43,2.6,4.58,5.35,6.73,8.09"/>
            <path class="st3" d="M47.38,52.99c1.42-1.09,2.7-2.29,3.8-3.58,2.61-3.04,4.25-6.52,7.11-9.43"/>
            <path class="st3" d="M61.86,40.5c3.89,4.31,7.63,8.71,11.21,13.18"/>
            <path class="st3" d="M62.49,53.09c3.72-3.9,5.33-8.79,9.16-12.62"/>
            <path class="st3" d="M76.32,53.43c4.74-2.25,7.03-6.48,10.6-9.74"/>
            <path class="st3" d="M77.32,41.24c.05.2.18.39.3.57,2.39,3.52,4.79,7.03,7.18,10.55.16.24.33.49.61.66"/>
            <path class="st3" d="M88.29,53.3c3.7-3.58,7.4-7.16,11.1-10.74"/>
            <path class="st3" d="M90.9,40.98c-.16.24.03.53.23.76,3.47,4.15,6.94,8.29,10.41,12.44"/>
            <path class="st3" d="M103.74,52.89c1.79-1.73,3.43-3.55,4.9-5.45,1.53-1.98,2.88-4.04,4.23-6.09"/>
            <path class="st3" d="M104.87,41.75c.42.75.96,1.47,1.49,2.18,2.39,3.19,4.79,6.38,7.18,9.56"/>
            <path class="st3" d="M116.44,53.37c2.63-1.86,4.95-3.98,6.87-6.28,1.37-1.64,2.58-3.4,4.46-4.7"/>
            <path class="st3" d="M118.06,41.38c2.72,3.94,6.03,7.65,9.83,11.03"/>
            <path class="st3" d="M1.73,34.07c1.67-2.72,3.54-5.36,5.62-7.91.81-1,1.65-1.98,2.58-2.92.32-.33.67-.66,1.13-.88"/>
            <path class="st3" d="M.5,21.31c.28.47.73.86,1.16,1.26,3.97,3.65,6.86,7.89,9.72,12.09"/>
            <path class="st3" d="M15.56,35.16c3.52-4,6.78-8.14,9.76-12.4"/>
            <path class="st3" d="M16.34,21.6c3.25,3.45,6.24,7.04,8.95,10.75.39.53.77,1.06,1.23,1.56"/>
            <path class="st3" d="M32.01,34.52c3.9-3.36,5.44-7.99,9.26-11.41"/>
            <path class="st3" d="M33.82,21.76c2.76,4.22,5.52,8.45,8.28,12.67"/>
            <path class="st3" d="M48.16,34.82c-.26-.29,0-.67.28-.96,3.24-3.45,6.03-7.15,8.32-11.01"/>
            <path class="st3" d="M50.52,23.98c1.81,2.99,3.62,5.97,5.43,8.96.43.72.87,1.44,1.51,2.06"/>
            <path class="st3" d="M61.13,34.54c3.45-3.28,5.23-7.4,8.44-10.81.11-.12-.01-.38-.11-.26"/>
            <path class="st3" d="M62.64,21.41c2.66,4.37,5.32,8.74,7.99,13.12"/>
            <path class="st3" d="M74.79,34.44c.72-.89,1.8-1.57,2.72-2.35,2.83-2.42,3.95-5.74,6.52-8.32.07-.07.14-.16.07-.23s-.22.07-.11.08"/>
            <path class="st3" d="M75.84,21.46c2.07,4.42,4.13,8.84,6.2,13.26.04.1.12.21.25.21s.15-.2.03-.17"/>
            <path class="st3" d="M89.39,35.01c2.33-1.95,3.38-4.56,4.99-6.89,1.18-1.71,2.68-3.29,4.17-4.86"/>
            <path class="st3" d="M91.85,22.45c.25.71.66,1.38,1.07,2.05,2.15,3.5,4.3,6.99,6.45,10.49"/>
            <path class="st3" d="M103.38,33.93c2.81-3.7,4.49-7.94,8.21-11.14"/>
            <path class="st3" d="M104.6,21.02c2.8,4.7,5.72,9.35,8.75,13.96"/>
            <path class="st3" d="M117.49,35.05c3.58-3.88,7.15-7.76,10.73-11.65"/>
            <path class="st3" d="M119.17,21.67c2.93,4.26,5.54,8.64,7.83,13.12.12.23.39.5.67.39"/>
          </g>
        </g>
      </g>
    </pattern>
  </defs>
  <rect class="st2" x="44.27" y="276.69" width="136.05" height="136.05"/>
  <rect class="st4" x="326.59" y="222.23" width="196.94" height="191.18"/>
  <g>
    <path class="st1" d="M177.57,255.1s29.44-82.72,121.15-35.41"/>
    <polyline class="st1" points="295.75 208.82 299.9 219.86 288.56 224.54"/>
  </g>
</svg>