<?xml version="1.0" encoding="UTF-8"?>
<svg id="Capa_1" data-name="Capa 1" xmlns="http://www.w3.org/2000/svg" viewBox="0 0 566.93 566.93">
  <defs>
    <style>
      .cls-1 {
        fill: #fff;
      }

      .cls-1, .cls-2 {
        stroke: #000;
      }

      .cls-1, .cls-2, .cls-3 {
        stroke-linecap: round;
        stroke-linejoin: round;
      }

      .cls-2 {
        fill: none;
      }

      .cls-3 {
        fill: #b564b5;
        stroke: #b564b5;
      }
    </style>
  </defs>
  <path class="cls-1" d="M387.68,450.49c49.38-14.59,49.38-58.36,49.38-58.36,0,0-68.26-52.27-46.02-78,0,0,23.3-27.36,22.05-52.17l5.37-37.15c3.22-17.15-8.38-18-14.82-12.09-8.52,7.81-15.51,60.74-26.49,42.14l-3.42-88.78c.15-8.76-1.88-23.63-11.04-25.6-12.17-2.62-14.27,14.62-14.42,23.38l-2.78,75.07h0l-2.17-84.81c.15-8.76-2.83-24.96-11.38-24.93h0c-8.55.03-11.98,12.84-12.13,21.6l-2.55,82.38c-.13,0,0,0,0,0l-1.67-76.69c.15-8.76-3.31-15.47-11.85-15.45s-11.3,5.59-11.46,14.35l-.12,81.08s-5.51-7.65-8.47-48.65c-.63-8.74-3.07-15.75-11.61-15.39-4.81.21-7.59,8.76-7.38,16.02,0,0-9.22,140.26,44.84,148.33,42.16,88.39,78.15,113.72,78.15,113.72Z"/>
  <path class="cls-3" d="M305.85,250.11c-.23-7.27-2.57-15.82-7.38-16.02-8.54-.36-10.98,6.65-11.61,15.39-2.97,41-8.47,48.65-8.47,48.65l-.12-81.08c-.15-8.76-2.91-14.33-11.46-14.35s-12.01,6.69-11.85,15.45l-1.67,76.69s.13,0,0,0l-2.55-82.38c-.15-8.76-3.59-21.58-12.13-21.6h0c-8.55-.03-11.53,16.17-11.38,24.93l-2.17,84.81h0l-2.78-75.07c-.15-8.76-2.25-26-14.42-23.38-9.15,1.97-11.19,16.84-11.04,25.6l-3.42,88.78c-10.98,18.61-1.36-38.8-11.28-46.66,0,0,0,0,0,0-9.98-3.91-16.42,4-17.84,12.61l-6.82,41.15c-1.26,24.81,22.05,52.17,22.05,52.17,7.71,25.46-58.76,65.88-58.76,65.88,0,0,5.88,49.16,68.34,48.14,0,0,121.72-86.91,116.78-239.7Z"/>
  <path class="cls-2" d="M380.85,258.5s-24.03-2.65-34.7,17.8c-10.67,20.45-8.45,34.25-8.45,34.25"/>
  <path class="cls-2" d="M308.09,234.34s30.27-2.06,40.3,6.49"/>
  <line class="cls-2" x1="213.58" y1="84.21" x2="243.08" y2="125.5"/>
  <line class="cls-2" x1="298.32" y1="118.61" x2="310.78" y2="68.48"/>
  <line class="cls-2" x1="217.2" y1="161.96" x2="159.5" y2="147.54"/>
</svg>