<?xml version="1.0" encoding="UTF-8"?>
<svg id="Capa_1" data-name="Capa 1" xmlns="http://www.w3.org/2000/svg" viewBox="0 0 566.93 566.93">
  <defs>
    <style>
      .cls-1 {
        fill: #fff;
        stroke: #000;
      }

      .cls-1, .cls-2, .cls-3, .cls-4 {
        stroke-linejoin: round;
      }

      .cls-1, .cls-2, .cls-4 {
        stroke-linecap: round;
      }

      .cls-2 {
        stroke-width: 2px;
      }

      .cls-2, .cls-3 {
        fill: none;
      }

      .cls-2, .cls-3, .cls-4 {
        stroke: #b564b5;
      }

      .cls-4 {
        fill: #b564b5;
      }
    </style>
  </defs>
  <polygon class="cls-1" points="100.74 109.79 100.74 450.49 206.86 406.4 298.02 450.49 403.75 406.4 489.87 450.49 489.87 103.64 403.75 156.49 299.72 100.27 205.5 154.69 100.74 109.79"/>
  <line class="cls-1" x1="205.5" y1="154.69" x2="206.86" y2="406.4"/>
  <line class="cls-1" x1="299.72" y1="100.27" x2="298.02" y2="450.49"/>
  <line class="cls-1" x1="403.75" y1="156.49" x2="403.75" y2="406.4"/>
  <line class="cls-3" x1="153.15" y1="132.25" x2="153.15" y2="425.85"/>
  <line class="cls-3" x1="254.35" y1="126.47" x2="254.35" y2="429.37"/>
  <line class="cls-3" x1="334.02" y1="118.81" x2="334.02" y2="435.48"/>
  <line class="cls-3" x1="378.86" y1="143.04" x2="378.86" y2="416.78"/>
  <line class="cls-3" x1="447.03" y1="129.93" x2="448.61" y2="429.37"/>
  <polyline class="cls-2" points="100.74 182.65 205.5 217.53 299.32 182.65 403.75 217.53 489.87 182.65"/>
  <polyline class="cls-2" points="100.74 390.15 206.18 358.07 298.02 390.15 403.75 358.07 489.87 390.15"/>
  <g>
    <path class="cls-4" d="M406.75,99.13c1.23-19-13.19-35.4-32.19-36.63-19-1.23-35.4,13.19-36.63,32.19-.39,6.07.81,11.88,3.26,17.02l25.66,70.26,34.47-66.38h0c3.08-4.78,5.03-10.38,5.42-16.46Z"/>
    <circle class="cls-1" cx="372.31" cy="97.42" r="20.8"/>
  </g>
</svg>