<?xml version="1.0" encoding="UTF-8"?>
<svg id="Capa_1" data-name="Capa 1" xmlns="http://www.w3.org/2000/svg" viewBox="0 0 1135 566.93">
  <defs>
    <style>
      .cls-1 {
        fill: #fff;
      }

      .cls-1, .cls-2 {
        stroke: #000;
      }

      .cls-1, .cls-2, .cls-3 {
        stroke-linecap: round;
        stroke-linejoin: round;
      }

      .cls-2 {
        fill: none;
      }

      .cls-4 {
        fill: #010100;
      }

      .cls-4, .cls-5, .cls-6 {
        font-family: Inter-Regular, Inter;
        font-variation-settings: 'opsz' 14, 'wght' 400;
      }

      .cls-4, .cls-7 {
        font-size: 42.22px;
      }

      .cls-5 {
        font-size: 21.15px;
      }

      .cls-6 {
        font-size: 20.72px;
      }

      .cls-8 {
        letter-spacing: 0em;
      }

      .cls-3 {
        fill: #b564b5;
        stroke: #b564b5;
      }

      .cls-9 {
        letter-spacing: -.07em;
      }

      .cls-7 {
        font-family: Inter-Thin, Inter;
        font-variation-settings: 'opsz' 14, 'wght' 100;
        font-weight: 200;
      }

      .cls-10 {
        letter-spacing: -.03em;
      }

      .cls-11 {
        letter-spacing: -.03em;
      }
    </style>
  </defs>
  <rect class="cls-1" x="55.34" y="38.34" width="1024.31" height="506.38" rx="14.57" ry="14.57"/>
  <text class="cls-4" transform="translate(254.73 119.74) scale(1.04 1)"><tspan x="0" y="0">ANÁLISIS DE LA INN</tspan><tspan class="cls-11" x="410.25" y="0">O</tspan><tspan class="cls-9" x="441.11" y="0">V</tspan><tspan class="cls-10" x="467.35" y="0">A</tspan><tspan class="cls-8" x="495.04" y="0">CIÓN</tspan></text>
  <rect class="cls-3" x="136.42" y="319.38" width="66.04" height="66.04"/>
  <rect class="cls-3" x="442.75" y="226.62" width="66.04" height="66.04"/>
  <rect class="cls-3" x="624.46" y="395.26" width="66.04" height="66.04"/>
  <circle class="cls-1" cx="338.43" cy="352.4" r="35.92"/>
  <circle class="cls-1" cx="638.04" cy="226.62" r="20.2"/>
  <polygon class="cls-1" points="614.81 304.14 664.18 304.14 639.49 267.63 614.81 304.14"/>
  <rect class="cls-3" x="736.37" y="268.67" width="34.43" height="34.43"/>
  <rect class="cls-1" x="868.47" y="268.67" width="34.43" height="34.43"/>
  <rect class="cls-1" x="793.91" y="454.41" width="34.43" height="34.43"/>
  <rect class="cls-1" x="793.91" y="410.23" width="34.43" height="34.43"/>
  <rect class="cls-1" x="793.91" y="365.02" width="34.43" height="34.43"/>
  <rect class="cls-3" x="736.37" y="218.66" width="254.02" height="24.28"/>
  <g>
    <line class="cls-2" x1="217.23" y1="351.41" x2="287.09" y2="351.41"/>
    <polyline class="cls-2" points="274.98 342.4 287.75 351.41 274.98 362.41"/>
  </g>
  <g>
    <line class="cls-2" x1="364.93" y1="304.3" x2="422.34" y2="264.5"/>
    <polyline class="cls-2" points="407.25 263.99 422.88 264.12 418.65 280.44"/>
  </g>
  <g>
    <line class="cls-2" x1="364.93" y1="394.83" x2="429.89" y2="420.55"/>
    <polyline class="cls-2" points="421.94 407.71 430.5 420.79 414.57 426.31"/>
  </g>
  <g>
    <line class="cls-2" x1="543.68" y1="231.32" x2="590.22" y2="231.32"/>
    <polyline class="cls-2" points="582.15 226.62 590.66 231.32 582.15 237.06"/>
  </g>
  <g>
    <line class="cls-2" x1="543.46" y1="286.92" x2="590" y2="286.92"/>
    <polyline class="cls-2" points="581.93 282.22 590.44 286.92 581.93 292.66"/>
  </g>
  <g>
    <line class="cls-2" x1="673.81" y1="230.8" x2="720.36" y2="230.8"/>
    <polyline class="cls-2" points="712.28 226.1 720.79 230.8 712.28 236.54"/>
  </g>
  <g>
    <line class="cls-2" x1="673.59" y1="286.41" x2="720.14" y2="286.41"/>
    <polyline class="cls-2" points="712.06 281.7 720.57 286.41 712.06 292.15"/>
  </g>
  <g>
    <line class="cls-2" x1="793.91" y1="285.89" x2="840.45" y2="285.89"/>
    <polyline class="cls-2" points="832.38 281.18 840.89 285.89 832.38 291.63"/>
  </g>
  <g>
    <line class="cls-2" x1="543.24" y1="427.76" x2="589.79" y2="427.76"/>
    <polyline class="cls-2" points="581.71 423.06 590.22 427.76 581.71 433.5"/>
  </g>
  <g>
    <line class="cls-2" x1="716.1" y1="425.79" x2="762.64" y2="425.79"/>
    <polyline class="cls-2" points="754.57 421.09 763.08 425.79 754.57 431.53"/>
  </g>
  <g>
    <path class="cls-1" d="M443.21,462.59h71.37c4.11,0,6.55-5.01,4.25-8.72l-35.68-57.46c-2.03-3.28-6.47-3.28-8.5,0l-35.68,57.46c-2.3,3.71.14,8.72,4.25,8.72Z"/>
    <text class="cls-7" transform="translate(472.97 446.22) scale(1.04 1)"><tspan x="0" y="0">!</tspan></text>
  </g>
  <g>
    <path class="cls-1" d="M844.82,444.57h35.76c2.06,0,3.28-2.51,2.13-4.37l-17.88-28.79c-1.02-1.64-3.24-1.64-4.26,0l-17.88,28.79c-1.15,1.86.07,4.37,2.13,4.37Z"/>
    <text class="cls-5" transform="translate(859.54 436.37) scale(1.04 1)"><tspan x="0" y="0">!</tspan></text>
  </g>
  <g>
    <path class="cls-1" d="M952.13,210.88h35.02c2.02,0,3.22-2.46,2.09-4.28l-17.51-28.19c-1-1.61-3.17-1.61-4.17,0l-17.51,28.19c-1.13,1.82.07,4.28,2.09,4.28Z"/>
    <text class="cls-6" transform="translate(966.55 202.85) scale(1.04 1)"><tspan x="0" y="0">!</tspan></text>
  </g>
</svg>