<?xml version="1.0" encoding="UTF-8"?>
<svg id="Capa_1" data-name="Capa 1" xmlns="http://www.w3.org/2000/svg" viewBox="0 0 566.93 566.93">
  <defs>
    <style>
      .cls-1 {
        fill: #fff;
        stroke: #000;
        stroke-linecap: round;
        stroke-linejoin: round;
      }

      .cls-2 {
        letter-spacing: -.07em;
      }

      .cls-3 {
        letter-spacing: -.03em;
      }

      .cls-4 {
        letter-spacing: -.03em;
      }

      .cls-5 {
        letter-spacing: -.03em;
      }

      .cls-6 {
        font-family: Inter18pt-ExtraLight, 'Inter 18pt';
        font-size: 38.64px;
        font-weight: 200;
      }

      .cls-7 {
        fill: #b564b5;
      }
    </style>
  </defs>
  <rect class="cls-1" x="233.65" y="135.3" width="198.61" height="226.7"/>
  <line class="cls-1" x1="274.15" y1="178.21" x2="418.92" y2="178.21"/>
  <rect class="cls-1" x="178.19" y="100.17" width="198.61" height="226.7"/>
  <line class="cls-1" x1="205.38" y1="135.3" x2="350.15" y2="135.3"/>
  <line class="cls-1" x1="205.38" y1="170.14" x2="350.15" y2="170.14"/>
  <path class="cls-7" d="M455.73,215.94H199.5v-20.2c0-5.22-4.84-9.45-10.81-9.45h-103.01c-5.97,0-10.81,4.23-10.81,9.45v239.73c0,8.55,7.92,15.47,17.69,15.47h363.16c9.77,0,17.69-6.93,17.69-15.47v-204.05c0-8.55-7.92-15.47-17.69-15.47Z"/>
  <text class="cls-6" transform="translate(157.47 278.8)"><tspan x="0" y="0">EJEMP</tspan><tspan class="cls-4" x="124.14" y="0">L</tspan><tspan x="144.42" y="0">O DE</tspan><tspan x="-10.4" y="46.37">E</tspan><tspan class="cls-3" x="12.19" y="46.37">V</tspan><tspan x="35.88" y="46.37">OLUCIÓN Y</tspan><tspan class="cls-5" x="-48.98" y="92.73">T</tspan><tspan x="-26.24" y="92.73">OMA DE NUE</tspan><tspan class="cls-2" x="211.59" y="92.73">V</tspan><tspan x="233.72" y="92.73">AS</tspan><tspan x="4.74" y="139.1">DECISIONES</tspan></text>
</svg>