<?xml version="1.0" encoding="UTF-8"?>
<svg id="Capa_1" data-name="Capa 1" xmlns="http://www.w3.org/2000/svg" viewBox="0 0 566.93 566.93">
  <defs>
    <style>
      .cls-1 {
        fill: #fff;
        stroke: #000;
        stroke-linecap: round;
        stroke-linejoin: round;
      }

      .cls-2 {
        fill: #b564b5;
      }
    </style>
  </defs>
  <rect class="cls-1" x="233.65" y="135.3" width="198.61" height="226.7"/>
  <line class="cls-1" x1="274.15" y1="178.21" x2="418.92" y2="178.21"/>
  <rect class="cls-1" x="178.19" y="100.17" width="198.61" height="226.7"/>
  <line class="cls-1" x1="205.38" y1="135.3" x2="350.15" y2="135.3"/>
  <line class="cls-1" x1="205.38" y1="170.14" x2="350.15" y2="170.14"/>
  <path class="cls-2" d="M455.73,215.94H199.5v-20.2c0-5.22-4.84-9.45-10.81-9.45h-103.01c-5.97,0-10.81,4.23-10.81,9.45v239.73c0,8.55,7.92,15.47,17.69,15.47h363.16c9.77,0,17.69-6.93,17.69-15.47v-204.05c0-8.55-7.92-15.47-17.69-15.47Z"/>
  <g>
    <path d="M179.61,278.8v-28.11h16.07v1.62h-14.32v11.51h13.38v1.64h-13.38v11.72h14.58v1.62h-16.34Z"/>
    <path d="M208.55,279.17c-2.34,0-4.21-.71-5.61-2.14-1.4-1.43-2.1-3.39-2.1-5.9v-1.36h1.75v1.36c0,2.01.53,3.58,1.6,4.72s2.52,1.7,4.36,1.7,3.29-.57,4.36-1.7c1.07-1.13,1.6-2.7,1.6-4.72v-20.45h1.75v20.45c0,2.5-.7,4.47-2.1,5.9-1.4,1.43-3.27,2.14-5.61,2.14Z"/>
    <path d="M223.54,278.8v-28.11h16.07v1.62h-14.32v11.51h13.38v1.64h-13.38v11.72h14.58v1.62h-16.34Z"/>
    <path d="M246.12,278.8v-28.11h2.47l8.79,20.87c.18.42.36.87.56,1.37.19.5.39,1.01.59,1.54s.4,1.05.58,1.58c.19.52.38,1.03.57,1.52h-.57c.18-.48.36-.97.56-1.49.19-.52.39-1.04.59-1.58.2-.53.4-1.05.59-1.56.19-.5.38-.96.56-1.38l8.75-20.87h2.47v28.11h-1.74v-21.33c0-.58,0-1.19.02-1.8.01-.62.02-1.23.03-1.85s0-1.22,0-1.81h.3c-.24.64-.48,1.28-.72,1.92-.24.64-.48,1.27-.72,1.88-.24.61-.47,1.2-.7,1.75-.23.56-.44,1.08-.64,1.58l-8.32,19.66h-1.58l-8.34-19.66c-.2-.48-.42-1-.64-1.56-.23-.56-.46-1.14-.7-1.75-.24-.61-.48-1.24-.73-1.88-.25-.64-.49-1.29-.75-1.94h.32c.01.57.02,1.15.03,1.76s.01,1.23.02,1.85c0,.62.01,1.23.02,1.82,0,.59,0,1.16,0,1.7v19.66h-1.72Z"/>
    <path d="M280.3,278.8v-28.11h8.89c1.76,0,3.28.36,4.56,1.08,1.28.72,2.26,1.72,2.95,2.98.69,1.26,1.04,2.71,1.04,4.35s-.35,3.07-1.04,4.33c-.69,1.26-1.68,2.25-2.96,2.97-1.28.72-2.8,1.08-4.57,1.08h-7.72v-1.6h7.68c1.42,0,2.64-.29,3.66-.87,1.02-.58,1.8-1.38,2.36-2.4.55-1.02.83-2.19.83-3.51s-.28-2.51-.83-3.53c-.55-1.02-1.34-1.82-2.37-2.4-1.03-.58-2.24-.87-3.65-.87h-7.08v26.49h-1.75Z"/>
    <path d="M303.76,278.8v-28.11h1.77v26.49h13.81v1.62h-15.58Z"/>
    <path d="M334.56,279.17c-2.35,0-4.43-.6-6.23-1.8s-3.2-2.89-4.22-5.06c-1.01-2.17-1.52-4.69-1.52-7.56s.51-5.42,1.53-7.58c1.02-2.16,2.42-3.85,4.22-5.06,1.79-1.21,3.86-1.81,6.22-1.81s4.41.6,6.21,1.81c1.8,1.21,3.2,2.89,4.21,5.06,1.01,2.16,1.51,4.69,1.51,7.58s-.5,5.4-1.51,7.57c-1.01,2.16-2.41,3.85-4.21,5.05s-3.87,1.8-6.21,1.8ZM334.56,277.5c1.97,0,3.73-.52,5.26-1.57s2.74-2.52,3.61-4.42c.87-1.91,1.31-4.15,1.31-6.75s-.44-4.86-1.31-6.77c-.87-1.91-2.08-3.39-3.61-4.43-1.53-1.04-3.29-1.57-5.26-1.57s-3.73.52-5.27,1.56c-1.54,1.04-2.75,2.51-3.63,4.42-.88,1.91-1.32,4.18-1.32,6.79s.44,4.82,1.31,6.73c.87,1.91,2.08,3.38,3.62,4.43,1.54,1.05,3.3,1.58,5.29,1.58Z"/>
    <path d="M360.66,279.25c-1.82,0-3.42-.31-4.77-.93-1.36-.62-2.42-1.49-3.2-2.61-.77-1.12-1.2-2.41-1.29-3.89h1.79c.08,1.18.44,2.21,1.08,3.08.65.87,1.52,1.53,2.61,2,1.09.47,2.35.7,3.77.7,1.51,0,2.84-.25,3.98-.76,1.14-.51,2.04-1.22,2.68-2.14.64-.92.96-1.99.96-3.21,0-.96-.23-1.78-.68-2.48-.45-.7-1.13-1.31-2.03-1.83-.9-.52-2.04-.99-3.42-1.41l-3.23-.96c-2.28-.68-3.99-1.6-5.14-2.75s-1.73-2.58-1.73-4.28c0-1.46.38-2.75,1.15-3.88.77-1.13,1.81-2.01,3.13-2.65,1.32-.64,2.82-.96,4.51-.96s3.19.33,4.47.98c1.28.65,2.3,1.55,3.06,2.68.75,1.13,1.17,2.43,1.25,3.89h-1.75c-.14-1.76-.84-3.19-2.11-4.27s-2.92-1.63-4.94-1.63c-1.35,0-2.55.25-3.61.75-1.06.5-1.9,1.18-2.5,2.06-.6.87-.91,1.87-.91,2.99,0,.93.24,1.75.71,2.45.47.71,1.14,1.31,2.01,1.8.87.5,1.88.92,3.04,1.27l3.11.91c1.11.33,2.11.71,3.01,1.15s1.67.95,2.32,1.54c.65.58,1.15,1.26,1.5,2.03.35.77.53,1.64.53,2.62,0,1.5-.38,2.83-1.15,4-.77,1.17-1.85,2.09-3.25,2.76-1.4.67-3.05,1.01-4.95,1.01Z"/>
    <path d="M224.19,325.62c-1.82,0-3.42-.31-4.77-.93-1.36-.62-2.42-1.49-3.2-2.61-.77-1.12-1.2-2.41-1.29-3.89h1.79c.08,1.18.44,2.21,1.08,3.08.65.87,1.52,1.53,2.61,2,1.09.47,2.35.7,3.77.7,1.51,0,2.84-.25,3.98-.76,1.14-.51,2.04-1.22,2.68-2.14.64-.92.96-1.99.96-3.21,0-.96-.23-1.78-.68-2.48-.45-.7-1.13-1.31-2.03-1.83-.9-.52-2.04-.99-3.42-1.41l-3.23-.96c-2.28-.68-3.99-1.6-5.14-2.75s-1.73-2.58-1.73-4.28c0-1.46.38-2.75,1.15-3.88.77-1.13,1.81-2.01,3.13-2.65,1.32-.64,2.82-.96,4.51-.96s3.19.33,4.47.98c1.28.65,2.3,1.55,3.06,2.68.75,1.13,1.17,2.43,1.25,3.89h-1.75c-.14-1.76-.84-3.19-2.11-4.27s-2.92-1.63-4.94-1.63c-1.35,0-2.55.25-3.61.75-1.06.5-1.9,1.18-2.5,2.06-.6.87-.91,1.87-.91,2.99,0,.93.24,1.75.71,2.45.47.71,1.14,1.31,2.01,1.8.87.5,1.88.92,3.04,1.27l3.11.91c1.11.33,2.11.71,3.01,1.15s1.67.95,2.32,1.54c.65.58,1.15,1.26,1.5,2.03.35.77.53,1.64.53,2.62,0,1.5-.38,2.83-1.15,4-.77,1.17-1.85,2.09-3.25,2.76-1.4.67-3.05,1.01-4.95,1.01Z"/>
    <path d="M250.39,325.54c-2.35,0-4.43-.6-6.23-1.8s-3.2-2.89-4.22-5.06c-1.01-2.17-1.52-4.69-1.52-7.56s.51-5.42,1.53-7.58c1.02-2.16,2.42-3.85,4.22-5.06,1.79-1.21,3.86-1.81,6.22-1.81s4.41.6,6.21,1.81c1.8,1.21,3.2,2.89,4.21,5.06,1.01,2.16,1.51,4.69,1.51,7.58s-.5,5.4-1.51,7.57c-1.01,2.16-2.41,3.85-4.21,5.05s-3.87,1.8-6.21,1.8ZM250.39,323.86c1.97,0,3.73-.52,5.26-1.57s2.74-2.52,3.61-4.42c.87-1.91,1.31-4.15,1.31-6.75s-.44-4.86-1.31-6.77c-.87-1.91-2.08-3.39-3.61-4.43-1.53-1.04-3.29-1.57-5.26-1.57s-3.73.52-5.27,1.56c-1.54,1.04-2.75,2.51-3.63,4.42-.88,1.91-1.32,4.18-1.32,6.79s.44,4.82,1.31,6.73c.87,1.91,2.08,3.38,3.62,4.43,1.54,1.05,3.3,1.58,5.29,1.58Z"/>
    <path d="M268.56,325.16v-28.11h9.17c1.71,0,3.17.3,4.37.91,1.2.6,2.12,1.45,2.75,2.53.63,1.08.94,2.35.94,3.81,0,1.13-.19,2.13-.58,3.01s-.91,1.6-1.58,2.18c-.67.58-1.45.99-2.33,1.23v.13c.94.09,1.84.43,2.69,1.02.85.59,1.54,1.39,2.08,2.4.54,1.01.81,2.18.81,3.53,0,1.46-.32,2.74-.96,3.85-.64,1.11-1.59,1.97-2.84,2.59-1.25.62-2.8.93-4.63.93h-9.89ZM270.31,310.09h8c1.21,0,2.24-.26,3.09-.77.85-.52,1.51-1.21,1.97-2.08.46-.87.69-1.84.69-2.91,0-1.75-.56-3.13-1.68-4.14-1.12-1.01-2.68-1.52-4.68-1.52h-7.4v11.42ZM270.31,323.54h8.11c2.15,0,3.81-.53,4.97-1.59,1.16-1.06,1.75-2.45,1.75-4.16,0-1.18-.28-2.24-.85-3.16s-1.35-1.65-2.36-2.17c-1.01-.52-2.16-.78-3.45-.78h-8.17v11.87Z"/>
    <path d="M293.22,325.16v-28.11h8.9c1.76,0,3.28.35,4.56,1.04,1.28.69,2.26,1.66,2.95,2.9.69,1.24,1.04,2.68,1.04,4.31s-.35,3.04-1.04,4.26-1.68,2.17-2.96,2.86-2.8,1.03-4.57,1.03h-7.92v-1.64h7.91c1.41,0,2.62-.27,3.64-.8,1.02-.54,1.8-1.29,2.36-2.27.55-.98.83-2.13.83-3.43s-.28-2.51-.83-3.5c-.55-.99-1.34-1.75-2.36-2.3-1.02-.55-2.24-.82-3.66-.82h-7.09v26.49h-1.75ZM309.69,325.16l-6.85-12.75h1.98l6.89,12.75h-2.02Z"/>
    <path d="M317.1,325.16v-28.11h16.07v1.62h-14.32v11.51h13.38v1.64h-13.38v11.72h14.58v1.62h-16.34Z"/>
    <path d="M159.59,371.53v-28.11h16.07v1.62h-14.32v11.51h13.38v1.64h-13.38v11.72h14.58v1.62h-16.34Z"/>
    <path d="M189.79,371.53l-10.47-28.11h1.87l7.41,20.09c.36.98.76,2.07,1.18,3.27.42,1.2.86,2.53,1.33,3.97h-.47c.48-1.46.92-2.79,1.34-3.98s.8-2.28,1.17-3.26l7.34-20.09h1.87l-10.41,28.11h-2.15Z"/>
    <path d="M201.45,371.53l10.41-28.11h2.17l10.45,28.11h-1.87l-7.41-20.09c-.38-1.02-.77-2.12-1.18-3.29s-.85-2.5-1.33-3.97h.49c-.48,1.47-.92,2.8-1.34,3.98-.42,1.18-.81,2.28-1.17,3.28l-7.36,20.09h-1.87ZM205.94,362.68v-1.6h14.06v1.6h-14.06Z"/>
    <path d="M229.3,371.53v-28.11h1.77v26.49h13.81v1.62h-15.58Z"/>
    <path d="M260.67,371.95c-2.01,0-3.8-.43-5.38-1.3-1.57-.87-2.8-2.05-3.7-3.55-.89-1.5-1.34-3.2-1.34-5.11v-18.57h1.77v18.47c0,1.61.37,3.05,1.1,4.31.74,1.26,1.75,2.26,3.06,2.98,1.3.72,2.8,1.08,4.48,1.08s3.19-.36,4.49-1.08c1.3-.72,2.31-1.72,3.05-2.98.74-1.26,1.1-2.7,1.1-4.31v-18.47h1.75v18.57c0,1.91-.44,3.62-1.33,5.11-.89,1.5-2.11,2.68-3.68,3.55-1.57.87-3.36,1.3-5.39,1.3Z"/>
    <path d="M274.6,371.53l10.41-28.11h2.17l10.45,28.11h-1.87l-7.41-20.09c-.38-1.02-.77-2.12-1.18-3.29s-.85-2.5-1.33-3.97h.49c-.48,1.47-.92,2.8-1.34,3.98-.42,1.18-.81,2.28-1.17,3.28l-7.36,20.09h-1.87ZM279.09,362.68v-1.6h14.06v1.6h-14.06Z"/>
    <path d="M312.07,371.91c-2.35,0-4.43-.6-6.23-1.8-1.8-1.2-3.21-2.88-4.23-5.04-1.02-2.16-1.53-4.68-1.53-7.57s.51-5.44,1.53-7.6c1.02-2.16,2.43-3.85,4.23-5.05,1.8-1.2,3.87-1.8,6.23-1.8,1.57,0,2.99.26,4.25.77,1.26.52,2.36,1.21,3.29,2.09.93.88,1.68,1.87,2.25,2.96.57,1.09.96,2.22,1.16,3.38h-1.77c-.2-.97-.55-1.9-1.05-2.8s-1.14-1.7-1.92-2.42c-.78-.71-1.69-1.27-2.74-1.69-1.04-.42-2.21-.62-3.49-.62-1.86,0-3.57.5-5.12,1.49-1.55.99-2.8,2.44-3.73,4.34-.93,1.9-1.4,4.21-1.4,6.94s.47,5.06,1.41,6.96c.94,1.9,2.18,3.34,3.73,4.31,1.55.97,3.25,1.46,5.11,1.46,1.28,0,2.45-.21,3.49-.62,1.04-.42,1.96-.98,2.74-1.7s1.42-1.52,1.92-2.42c.5-.89.85-1.82,1.05-2.79h1.77c-.2,1.14-.59,2.26-1.16,3.35s-1.32,2.08-2.25,2.96c-.92.89-2.02,1.59-3.29,2.11-1.27.52-2.69.78-4.26.78Z"/>
    <path d="M330.91,343.42v28.11h-1.75v-28.11h1.75Z"/>
    <path d="M349.1,371.91c-2.35,0-4.43-.6-6.23-1.8s-3.2-2.89-4.22-5.06c-1.01-2.17-1.52-4.69-1.52-7.56s.51-5.42,1.53-7.58c1.02-2.16,2.42-3.85,4.22-5.06,1.79-1.21,3.86-1.81,6.22-1.81s4.41.6,6.21,1.81c1.8,1.21,3.2,2.89,4.21,5.06,1.01,2.16,1.51,4.69,1.51,7.58s-.5,5.4-1.51,7.57c-1.01,2.16-2.41,3.85-4.21,5.05s-3.87,1.8-6.21,1.8ZM349.1,370.23c1.97,0,3.73-.52,5.26-1.57s2.74-2.52,3.61-4.42c.87-1.91,1.31-4.15,1.31-6.74s-.44-4.86-1.31-6.77c-.87-1.91-2.08-3.39-3.61-4.43s-3.29-1.57-5.26-1.57-3.73.52-5.27,1.56c-1.54,1.04-2.75,2.51-3.63,4.42-.88,1.91-1.32,4.18-1.32,6.79s.44,4.82,1.31,6.73,2.08,3.38,3.62,4.43c1.54,1.05,3.3,1.58,5.29,1.58ZM348.31,340.51l2.72-5.36h1.98l-3.21,5.36h-1.49Z"/>
    <path d="M367.27,371.53v-28.11h1.94l14.17,20.24c.42.58.85,1.21,1.29,1.88.45.67.91,1.38,1.38,2.1.47.73.94,1.47,1.41,2.23l-.36.06c-.03-.77-.05-1.53-.08-2.28-.03-.75-.04-1.49-.06-2.2s-.02-1.37-.02-1.99v-20.04h1.75v28.11h-1.94l-13.73-19.55c-.45-.67-.91-1.35-1.38-2.05s-.96-1.44-1.47-2.24c-.52-.79-1.08-1.65-1.68-2.58l.38-.08c.02.91.05,1.77.08,2.6.03.83.04,1.61.06,2.33s.02,1.39.02,1.99v19.56h-1.75Z"/>
    <path d="M230.8,389.78v28.11h-1.74v-26.38h-.13l-6.32,4.58v-1.96l6.02-4.36h2.17Z"/>
    <path d="M250.63,389.78v28.11h-1.75v-28.11h1.75ZM256.68,417.9h-6.85v-1.62h6.77c2.5,0,4.61-.5,6.33-1.5s3.01-2.43,3.89-4.3,1.31-4.1,1.31-6.71-.42-4.79-1.26-6.63c-.84-1.84-2.08-3.26-3.7-4.25-1.62-.99-3.61-1.48-5.96-1.48h-7.43v-1.62h7.51c2.64,0,4.9.56,6.77,1.67,1.87,1.11,3.31,2.71,4.31,4.8s1.5,4.59,1.5,7.51-.52,5.49-1.55,7.6-2.53,3.73-4.5,4.85c-1.97,1.12-4.35,1.68-7.14,1.68Z"/>
    <path d="M276.1,417.9v-28.11h16.07v1.62h-14.32v11.51h13.38v1.64h-13.38v11.72h14.58v1.62h-16.34Z"/>
    <path d="M316.66,418.27c-1.69,0-3.2-.32-4.54-.96-1.34-.64-2.4-1.53-3.17-2.67-.77-1.14-1.17-2.44-1.18-3.92h1.77c.02,1.17.35,2.2.97,3.09.62.89,1.46,1.59,2.53,2.09s2.26.75,3.59.75c1.42,0,2.67-.27,3.74-.82,1.07-.55,1.9-1.29,2.5-2.24.6-.94.9-1.99.9-3.15,0-1.25-.33-2.33-.99-3.26s-1.58-1.65-2.75-2.17c-1.18-.51-2.54-.77-4.1-.77h-1.04v-1.64h1.04c1.33,0,2.52-.24,3.58-.71,1.05-.47,1.88-1.14,2.48-2.02.6-.87.91-1.9.91-3.08,0-1.12-.26-2.12-.78-2.99s-1.25-1.56-2.2-2.06c-.94-.5-2.04-.75-3.28-.75s-2.32.25-3.29.74c-.97.49-1.75,1.18-2.32,2.06-.57.88-.86,1.91-.86,3.09h-1.74c.01-1.47.38-2.77,1.09-3.89.72-1.12,1.69-2,2.93-2.64s2.64-.96,4.2-.96,2.97.32,4.17.97,2.13,1.53,2.8,2.63c.67,1.11,1.01,2.35,1.01,3.74,0,1.61-.46,3-1.39,4.16-.92,1.16-2.18,1.97-3.76,2.41v.11c1.23.26,2.3.73,3.21,1.39.91.66,1.61,1.47,2.1,2.43.5.96.75,2.04.75,3.24,0,1.47-.38,2.79-1.14,3.97-.76,1.18-1.81,2.11-3.14,2.79-1.33.69-2.86,1.03-4.58,1.03Z"/>
  </g>
</svg>