<?xml version="1.0" encoding="UTF-8"?>
<svg id="Capa_1" data-name="Capa 1" xmlns="http://www.w3.org/2000/svg" viewBox="0 0 566.93 566.93">
  <defs>
    <style>
      .cls-1 {
        stroke: #050505;
      }

      .cls-1, .cls-2, .cls-3 {
        stroke-linejoin: round;
      }

      .cls-1, .cls-2, .cls-4 {
        fill: none;
      }

      .cls-2 {
        stroke: #000;
      }

      .cls-2, .cls-3, .cls-4 {
        stroke-linecap: round;
      }

      .cls-3 {
        fill: #b564b5;
        stroke: #b564b5;
      }

      .cls-4 {
        stroke: #fff;
        stroke-miterlimit: 10;
      }
    </style>
  </defs>
  <path class="cls-3" d="M362.43,270.47l-117.04-190.35c-8.33-13.55-28.03-13.52-36.32.05L52.26,336.94c-8.67,14.19,1.55,32.4,18.18,32.4h88.25v162.3h48.97s-5.56-2.73-15.4-7.05l1.83-155.24h38.87v162.3h49.56s-10.56-5.59-15.98-8.52l1.83-153.78h53.7l13.67,25.87c1.4,2.64,5.4,1.65,5.4-1.34v-24.53h44.01c16.66,0,26.87-18.26,18.14-32.46l-16.77-27.28"/>
  <path d="M203.37,200.07c-12.53,0-22.73-10.2-22.73-22.73s10.2-22.73,22.73-22.73,22.73,10.2,22.73,22.73-10.2,22.73-22.73,22.73ZM203.37,156.41c-11.54,0-20.93,9.39-20.93,20.93s9.39,20.93,20.93,20.93,20.93-9.39,20.93-20.93-9.39-20.93-20.93-20.93Z"/>
  <path d="M263.8,199.71c-12.53,0-22.73-10.2-22.73-22.73s10.2-22.73,22.73-22.73,22.73,10.2,22.73,22.73-10.2,22.73-22.73,22.73ZM263.8,156.05c-11.54,0-20.93,9.39-20.93,20.93s9.39,20.93,20.93,20.93,20.93-9.39,20.93-20.93-9.39-20.93-20.93-20.93Z"/>
  <path d="M225.6,178.15l-.81-1.61c.33-.17,8.16-4.02,17.51-.4l-.65,1.68c-8.58-3.32-15.98.29-16.05.33Z"/>
  <polyline class="cls-2" points="278.8 253.75 454.83 116.74 480.61 148.73 304.58 285.73"/>
  <path d="M305.27,286.27c-9.33,7.35-22.82,5.78-30.14-3.5-7.32-9.29-5.69-22.77,3.63-30.13"/>
  <path class="cls-3" d="M386.49,309.6c11.41-18.38,44.2-73.61,44.21-101.41.2-1.15.26-2.32.15-3.5-1.29-14.02-4.64-28.38-4.78-28.99-.06.02-6.39,1.7-9.29,7.4-.23.44-.43.91-.61,1.41-1.38,3.78-1.09,9.28-.67,13.65l-4.01.99-13.93-25.76c-1.87-.03-5.83.59-7.46,3.14l-.78,1.18h0s-1.49-.33-1.49-.33c-.04.02-4.29,2.18-5.91,5.37-.44.87-.63,1.77-.56,2.67l.08,1.04h0s-.86.27-.86.27l.1.3-.09.07c-1.09.81-1.92,1.81-2.55,3.04-1.88,3.69-1.92,9.37-.14,16.86,1.52,6.38,3.92,12.17,4.89,14.36l.41.93c-2.76-.36-5.25,1.42-5.62,4l-.95,6.63s-1.76,17.77-14.2,37.54"/>
  <line class="cls-4" x1="379.58" y1="181.98" x2="390.64" y2="213.06"/>
  <line class="cls-4" x1="388.49" y1="175.23" x2="399.8" y2="209.5"/>
  <polygon class="cls-1" points="454.69 116.76 483.64 110.76 491.08 119.59 480.77 148.57 454.69 116.76"/>
  <path d="M489.25,126.39l-12.99-14.84,12.92-3.41c4.04-1.06,7.38,3.22,5.37,6.88l-5.3,11.37Z"/>
  <path class="cls-2" d="M180.64,173.32s-33.75,2.88-44.21,5.07c-3.28.69-9.42,5.72-1.33,13.33"/>
</svg>