<?xml version="1.0" encoding="UTF-8"?>
<svg id="Capa_1" data-name="Capa 1" xmlns="http://www.w3.org/2000/svg" viewBox="0 0 566.93 566.93">
  <defs>
    <style>
      .cls-1 {
        stroke: #000;
      }

      .cls-1, .cls-2 {
        fill: #fff;
      }

      .cls-1, .cls-2, .cls-3 {
        stroke-linecap: round;
        stroke-linejoin: round;
      }

      .cls-2 {
        stroke: #fff;
      }

      .cls-3 {
        fill: #b564b5;
        stroke: #b564b5;
      }
    </style>
  </defs>
  <path class="cls-1" d="M360.97,475.71l63.68-28.16c12.81-5.66,18.57-20.72,12.88-33.63l-28.29-64.2c-5.69-12.91-20.68-18.79-33.49-13.12l-63.68,28.16c-12.81,5.66-18.57,20.72-12.88,33.63l28.29,64.2c5.69,12.91,20.68,18.79,33.49,13.12Z"/>
  <path class="cls-1" d="M126.78,361.27l83.62,12.63c16.81,2.54,32.56-9.25,35.16-26.33l12.94-84.95c2.6-17.08-8.92-32.99-25.73-35.53l-83.62-12.63c-16.81-2.54-32.56,9.25-35.16,26.33l-12.94,84.95c-2.6,17.08,8.92,32.99,25.73,35.53Z"/>
  <path class="cls-1" d="M294.95,214.12l81.7-.05c16.43,0,29.76-13.15,29.77-29.35l.05-80.56c0-16.2-13.3-29.32-29.73-29.31l-81.7.05c-16.43,0-29.76,13.15-29.77,29.35l-.05,80.56c-.01,16.2,13.3,29.32,29.73,29.31Z"/>
  <path d="M113.81,348.31l83.62,12.63c16.81,2.54,32.56-9.25,35.16-26.33l12.94-84.95c2.6-17.08-8.92-32.99-25.73-35.53l-83.62-12.63c-16.81-2.54-32.56,9.25-35.16,26.33l-12.94,84.95c-2.6,17.08,8.92,32.99,25.73,35.53Z"/>
  <g>
    <path class="cls-2" d="M121.01,310.63s.46-3,.69-4.56c2.3-15.1,16.22-25.52,31.08-23.28,4.91.74,22.01,3.33,26.91,4.07,14.86,2.25,25.05,16.31,22.75,31.41-.24,1.56-.69,4.56-.69,4.56l-80.74-12.2Z"/>
    <path class="cls-2" d="M153.16,250.22c-1.53,10.07,5.26,19.44,15.17,20.94,9.91,1.5,19.19-5.45,20.72-15.52,1.53-10.07-5.26-19.44-15.17-20.94-9.91-1.5-19.19,5.45-20.72,15.52Z"/>
  </g>
  <path d="M346.26,472.5l63.68-28.16c12.81-5.66,18.57-20.72,12.88-33.63l-28.29-64.2c-5.69-12.91-20.68-18.79-33.49-13.12l-63.68,28.16c-12.81,5.66-18.57,20.72-12.88,33.63l28.29,64.2c5.69,12.91,20.68,18.79,33.49,13.12Z"/>
  <g>
    <path class="cls-2" d="M334.73,443.38s-1-2.27-1.52-3.44c-5.03-11.41.07-24.72,11.39-29.73,3.74-1.65,16.76-7.41,20.5-9.06,11.32-5,24.57.19,29.6,11.6.52,1.18,1.52,3.44,1.52,3.44l-61.49,27.19Z"/>
    <path class="cls-2" d="M330.56,387.62c3.35,7.61,12.19,11.07,19.74,7.73,7.55-3.34,10.95-12.21,7.59-19.82-3.35-7.61-12.19-11.07-19.73-7.73-7.55,3.34-10.95,12.21-7.59,19.82Z"/>
  </g>
  <path class="cls-3" d="M280.68,203.92l81.7-.05c16.43,0,29.76-13.15,29.77-29.35l.05-80.56c0-16.2-13.3-29.32-29.73-29.31l-81.7.05c-16.43,0-29.76,13.15-29.77,29.35l-.05,80.56c-.01,16.2,13.3,29.32,29.73,29.31Z"/>
  <g>
    <path class="cls-2" d="M282.11,167.99s0-2.84,0-4.32c0-14.32,11.79-25.94,26.31-25.94,4.79,0,21.5-.01,26.3-.02,14.52,0,26.29,11.59,26.28,25.91,0,1.48,0,4.32,0,4.32l-78.89.05Z"/>
    <path class="cls-2" d="M304.06,107.48c0,9.55,7.84,17.28,17.52,17.28,9.68,0,17.54-7.75,17.54-17.3,0-9.55-7.84-17.28-17.52-17.28-9.68,0-17.54,7.75-17.54,17.3Z"/>
  </g>
</svg>