<?xml version="1.0" encoding="UTF-8"?>
<svg id="Capa_1" data-name="Capa 1" xmlns="http://www.w3.org/2000/svg" xmlns:xlink="http://www.w3.org/1999/xlink" viewBox="0 0 222.02 132.23">
  <defs>
    <style>
      .cls-1, .cls-2 {
        fill: none;
      }

      .cls-3 {
        fill: #e5fbf6;
      }

      .cls-4 {
        fill: #00d6a3;
      }

      .cls-5 {
        clip-path: url(#clippath-1);
      }

      .cls-6 {
        clip-path: url(#clippath-2);
      }

      .cls-7 {
        fill: #fff;
      }

      .cls-8 {
        font-family: Inter-Regular, Inter;
        font-variation-settings: 'opsz' 14, 'wght' 400;
      }

      .cls-8, .cls-9 {
        fill: #1d1d1b;
        font-size: 10px;
      }

      .cls-2 {
        stroke: #1d1d1b;
        stroke-width: .5px;
      }

      .cls-9 {
        font-family: InstrumentSerif-Italic, 'Instrument Serif';
        font-style: italic;
      }

      .cls-10 {
        clip-path: url(#clippath);
      }
    </style>
    <clipPath id="clippath">
      <rect class="cls-1" x="12.15" y="14.63" width="173.84" height="100.76"/>
    </clipPath>
    <clipPath id="clippath-1">
      <rect class="cls-1" x="12.15" y="14.63" width="173.84" height="100.76"/>
    </clipPath>
    <clipPath id="clippath-2">
      <rect class="cls-1" x="12.15" y="14.63" width="173.84" height="100.76"/>
    </clipPath>
  </defs>
  <polygon class="cls-7" points="32.44 103.13 32.2 105.32 151.23 115.13 157.18 36.48 153.04 35.99 32.44 103.13"/>
  <g class="cls-10">
    <polyline class="cls-2" points="153.04 35.99 157.18 36.48 151.23 115.13 32.2 105.32 32.44 103.13"/>
  </g>
  <rect class="cls-3" x="51.71" y="7.29" width="80.15" height="120.73" transform="translate(17.9 154.5) rotate(-86)"/>
  <text class="cls-9" transform="translate(67.37 65.39) rotate(4)"><tspan x="0" y="0">1.2. </tspan></text>
  <text class="cls-8" transform="translate(79.94 66.27) rotate(4)"><tspan x="0" y="0">Analizar</tspan></text>
  <text class="cls-8" transform="translate(116.28 68.81) rotate(4)"><tspan x="0" y="0"> </tspan></text>
  <text class="cls-8" transform="translate(65.57 76.29) rotate(4)"><tspan x="0" y="0">la situación</tspan></text>
  <rect class="cls-2" x="51.71" y="7.29" width="80.15" height="120.73" transform="translate(17.9 154.5) rotate(-86)"/>
  <g class="cls-5">
    <line class="cls-2" x1="31.92" y1="42.03" x2="186" y2="42.03"/>
    <path d="M48.67,37.99c-3.83,8.79-12.74,13.39-19.89,10.27-7.15-3.12-9.84-12.77-6.01-21.57,3.83-8.79,12.74-13.39,19.89-10.27,7.15,3.12,9.85,12.77,6.01,21.57"/>
    <path class="cls-4" d="M47.07,37.29c-3.83,8.79-12.74,13.39-19.89,10.27-7.15-3.12-9.84-12.77-6.01-21.57,3.83-8.79,12.74-13.39,19.89-10.27,7.15,3.12,9.85,12.77,6.01,21.57"/>
    <path class="cls-4" d="M36.34,14.87c-5.93,0-12.07,4.3-15.07,11.18-3.8,8.72-1.13,18.32,5.95,21.41,7.08,3.09,15.93-1.5,19.74-10.21,3.8-8.72,1.13-18.32-5.95-21.41-1.5-.65-3.08-.96-4.67-.96M31.89,48.66c-1.62,0-3.23-.32-4.76-.98-7.2-3.14-9.93-12.88-6.08-21.72,3.85-8.84,12.85-13.47,20.05-10.34,7.2,3.14,9.93,12.89,6.08,21.72-3.04,6.96-9.26,11.32-15.29,11.32"/>
    <path class="cls-7" d="M45.14,37.1c-3.79,7.74-11.85,11.56-18,8.55-6.14-3.01-8.05-11.73-4.26-19.46,3.79-7.74,11.85-11.56,17.99-8.55,6.15,3.01,8.05,11.73,4.26,19.46"/>
  </g>
  <polygon class="cls-4" points="12.31 66.7 15.73 68.48 27.54 46.19 24.12 44.41 12.31 66.7"/>
  <path class="cls-4" d="M12.47,66.65l11.7-22.07,3.2,1.67-11.7,22.08-3.2-1.67ZM12.21,66.64l-.06.1,3.62,1.89,11.87-22.39.06-.1-3.62-1.89-11.86,22.39Z"/>
  <g class="cls-6">
    <path d="M38.82,29.03c-1.44,0-2.61,1.17-2.61,2.61s1.17,2.61,2.61,2.61,2.61-1.17,2.61-2.61-1.17-2.61-2.61-2.61M38.82,34.5c-1.57,0-2.85-1.28-2.85-2.85s1.28-2.85,2.85-2.85,2.85,1.28,2.85,2.85-1.28,2.85-2.85,2.85"/>
  </g>
  <path d="M27.52,39.08h4.05v-4.05h-4.05v4.05ZM31.81,39.32h-4.53v-4.53h4.53v4.53Z"/>
  <path d="M27.58,23.89l2.03,5.85,4.17-4.89-6.2-.97ZM29.52,30.21l-2.29-6.62,7.02,1.09-4.73,5.53Z"/>
</svg>