<?xml version="1.0" encoding="UTF-8"?>
<svg id="Capa_1" data-name="Capa 1" xmlns="http://www.w3.org/2000/svg" viewBox="0 0 642.97 341.55">
  <defs>
    <style>
      .cls-1 {
        fill: #00d6a3;
      }

      .cls-2 {
        fill: #1d1d1b;
      }

      .cls-3 {
        fill: #020202;
      }

      .cls-4 {
        fill: #fff;
      }
    </style>
  </defs>
  <g>
    <rect class="cls-4" x="452.53" y="61.93" width="128.11" height="158.24" transform="translate(-10.34 45.65) rotate(-5.01)"/>
    <path class="cls-2" d="M459.46,225.73l-.02-.25-13.84-157.88.25-.02,127.87-11.21.02.25,13.84,157.88-.25.02-127.87,11.21ZM446.14,68.05l13.77,157.14,127.12-11.14-13.77-157.13-127.12,11.14Z"/>
  </g>
  <g>
    <line class="cls-4" x1="65.84" y1="150.86" x2="115.06" y2="146.55"/>
    <polygon class="cls-2" points="65.86 151.11 65.82 150.61 115.04 146.3 115.08 146.79 65.86 151.11"/>
  </g>
  <path class="cls-3" d="M50.91,303.38l-.02-.25L30.54,70.99l.25-.02,205.31-18,.02.25,20.35,232.14-.25.02-205.31,18ZM31.08,71.45l20.28,231.39,204.56-17.93-20.28-231.39L31.08,71.45Z"/>
  <rect class="cls-1" x="131.33" y="117.67" width="88.07" height="5.06" transform="translate(-9.83 15.77) rotate(-5.01)"/>
  <g>
    <line class="cls-4" x1="139.8" y1="157.43" x2="222.2" y2="150.21"/>
    <polygon class="cls-2" points="139.82 157.68 139.77 157.18 222.18 149.96 222.23 150.46 139.82 157.68"/>
  </g>
  <g>
    <line class="cls-4" x1="141.24" y1="173.95" x2="221.84" y2="166.88"/>
    <polygon class="cls-2" points="141.27 174.2 141.22 173.7 221.82 166.63 221.86 167.13 141.27 174.2"/>
  </g>
  <g>
    <line class="cls-4" x1="138.35" y1="140.95" x2="220.76" y2="133.73"/>
    <polygon class="cls-2" points="138.37 141.2 138.33 140.71 220.74 133.48 220.78 133.98 138.37 141.2"/>
  </g>
  <rect class="cls-1" x="79.5" y="201.63" width="37.62" height="34.87" transform="translate(-18.75 9.42) rotate(-5.01)"/>
  <g>
    <line class="cls-4" x1="64.2" y1="129.94" x2="113.42" y2="125.63"/>
    <polygon class="cls-2" points="64.22 130.19 64.18 129.69 113.4 125.38 113.44 125.88 64.22 130.19"/>
  </g>
  <g>
    <line class="cls-4" x1="64.73" y1="140.43" x2="114.34" y2="136.08"/>
    <polygon class="cls-2" points="64.75 140.67 64.71 140.18 114.31 135.83 114.36 136.33 64.75 140.67"/>
  </g>
  <g>
    <g>
      <rect class="cls-4" x="38.97" y="170.56" width="7.87" height="53.96" transform="translate(-103.07 57.71) rotate(-33.98)"/>
      <path class="cls-2" d="M54.65,222.45l-30.43-45.16,6.94-4.68,30.43,45.16-6.94,4.68ZM24.91,177.43l29.88,44.33,6.11-4.12-29.88-44.33-6.11,4.12Z"/>
    </g>
    <polygon class="cls-2" points="54.9 221.99 60.89 224.22 61.04 217.85 54.9 221.99"/>
    <rect class="cls-2" x="27.23" y="171.56" width="11.38" height="21.59" transform="translate(-96.29 49.53) rotate(-33.98)"/>
    <rect class="cls-2" x="42.81" y="185.58" width="3.5" height="14" transform="translate(-100.02 57.79) rotate(-33.98)"/>
  </g>
  <g>
    <rect class="cls-1" x="101.9" y="219.65" width="34.37" height="37.12" transform="translate(-128.59 336.1) rotate(-85)"/>
    <path class="cls-4" d="M102.32,219.75l36.48,3.19-2.95,33.74-36.48-3.19,2.95-33.74M101.86,219.21l-3.04,34.74,37.48,3.28,3.04-34.74-37.48-3.28h0Z"/>
  </g>
  <rect class="cls-1" x="58.39" y="248.36" width="37.62" height="34.87" transform="translate(-22.91 7.76) rotate(-5.01)"/>
  <g>
    <rect class="cls-4" x="142.44" y="208.88" width="11.76" height="11.06" transform="translate(-18.16 13.77) rotate(-5.01)"/>
    <path class="cls-2" d="M142.72,220.7l-1.01-11.51,12.21-1.07,1.01,11.51-12.21,1.07ZM142.25,209.64l.92,10.52,11.22-.98-.92-10.52-11.22.98Z"/>
  </g>
  <g>
    <rect class="cls-4" x="146.7" y="257.43" width="11.76" height="11.06" transform="translate(-22.38 14.33) rotate(-5.01)"/>
    <path class="cls-2" d="M146.97,269.25l-1.01-11.51,12.21-1.07,1.01,11.51-12.21,1.07ZM146.51,258.19l.92,10.52,11.22-.98-.92-10.52-11.22.98Z"/>
  </g>
  <g>
    <line class="cls-4" x1="165.12" y1="212.94" x2="200.07" y2="209.88"/>
    <polygon class="cls-2" points="165.14 213.19 165.1 212.69 200.05 209.63 200.09 210.12 165.14 213.19"/>
  </g>
  <g>
    <line class="cls-4" x1="167.44" y1="261.66" x2="237.21" y2="255.54"/>
    <polygon class="cls-2" points="167.46 261.91 167.42 261.41 237.19 255.29 237.23 255.79 167.46 261.91"/>
  </g>
  <g>
    <polyline class="cls-4" points="145.45 213.98 147.53 216.18 154.88 208.29"/>
    <polygon class="cls-2" points="147.53 216.55 145.27 214.16 145.63 213.81 147.53 215.82 154.7 208.12 155.06 208.46 147.53 216.55"/>
  </g>
  <g>
    <polyline class="cls-4" points="151.47 264.15 153.56 266.35 160.9 258.45"/>
    <polygon class="cls-2" points="153.56 266.72 151.29 264.32 151.65 263.98 153.56 265.99 160.72 258.28 161.09 258.62 153.56 266.72"/>
  </g>
  <g>
    <rect class="cls-4" x="141.24" y="188.4" width="11.76" height="11.06" transform="translate(-16.37 13.59) rotate(-5.01)"/>
    <path class="cls-2" d="M141.51,200.22l-1.01-11.51,12.21-1.07,1.01,11.51-12.21,1.07ZM141.05,189.17l.92,10.52,11.22-.98-.92-10.52-11.22.98Z"/>
  </g>
  <g>
    <line class="cls-4" x1="162.97" y1="192.84" x2="226.62" y2="187.26"/>
    <polygon class="cls-2" points="162.99 193.09 162.95 192.59 226.6 187.01 226.65 187.51 162.99 193.09"/>
  </g>
  <rect class="cls-1" x="191.03" y="193.74" width="37.62" height="34.87" transform="translate(-17.64 19.13) rotate(-5.01)"/>
  <g>
    <polygon class="cls-1" points="99.2 184.34 93.53 194.95 65.91 197.37 62.79 161.82 98.34 158.71 99.2 184.34"/>
    <polygon class="cls-4" points="93.29 195.01 91.03 186.06 99.14 184.1 99.26 184.58 91.64 186.42 93.77 194.89 93.29 195.01"/>
  </g>
  <g>
    <polygon class="cls-1" points="199.32 280.19 189.25 273.61 189.26 245.88 224.94 245.89 224.93 281.58 199.32 280.19"/>
    <polygon class="cls-4" points="199.07 280.22 197.91 272.47 189.29 273.86 189.21 273.36 198.33 271.9 199.57 280.15 199.07 280.22"/>
  </g>
  <g>
    <rect class="cls-1" x="164.84" y="217.95" width="37.12" height="34.37" transform="translate(-19.83 16.91) rotate(-5.01)"/>
    <path class="cls-4" d="M200.16,216.67l2.96,33.74-36.48,3.2-2.96-33.74,36.48-3.2M200.62,216.12l-37.48,3.28,3.04,34.73,37.48-3.28-3.04-34.73h0Z"/>
  </g>
  <g>
    <polygon class="cls-1" points="84.8 269.68 109.64 264.74 120.83 268.56 127.6 295.05 93.51 303.76 84.8 269.68"/>
    <path class="cls-4" d="M109.62,265l11,3.75,6.67,26.12-33.61,8.59-8.58-33.58,24.51-4.87M109.65,264.49l-25.16,5,8.83,34.57,34.57-8.83-6.86-26.86-11.39-3.88h0Z"/>
  </g>
  <polygon class="cls-4" points="112.67 272.27 109.42 264.58 109.88 264.39 112.93 271.61 120.94 268.13 121.14 268.59 112.67 272.27"/>
  <g>
    <rect class="cls-4" x="144.4" y="231.25" width="11.76" height="11.06" transform="translate(-20.1 14.03) rotate(-5.01)"/>
    <path class="cls-2" d="M144.68,243.07l-1.01-11.51,12.21-1.07,1.01,11.51-12.21,1.07ZM144.21,232.01l.92,10.52,11.22-.98-.92-10.52-11.22.98Z"/>
  </g>
  <g>
    <line class="cls-4" x1="202.14" y1="233.49" x2="233.89" y2="230.71"/>
    <polygon class="cls-2" points="202.16 233.74 202.12 233.24 233.87 230.46 233.91 230.96 202.16 233.74"/>
  </g>
  <circle class="cls-1" cx="471.45" cy="137.7" r="7.27"/>
  <circle class="cls-1" cx="474.67" cy="174.46" r="7.27"/>
  <g>
    <line class="cls-4" x1="491.11" y1="134.22" x2="561.02" y2="128.09"/>
    <polygon class="cls-2" points="491.14 134.47 491.09 133.97 560.99 127.84 561.04 128.34 491.14 134.47"/>
  </g>
  <g>
    <line class="cls-4" x1="495.87" y1="169.13" x2="565.77" y2="163"/>
    <polygon class="cls-2" points="495.89 169.38 495.85 168.88 565.75 162.76 565.79 163.25 495.89 169.38"/>
  </g>
  <g>
    <line class="cls-4" x1="492.93" y1="145.61" x2="540.68" y2="141.43"/>
    <polygon class="cls-2" points="492.95 145.86 492.91 145.36 540.66 141.18 540.7 141.68 492.95 145.86"/>
  </g>
  <g>
    <line class="cls-4" x1="497.16" y1="180.88" x2="567.06" y2="174.76"/>
    <polygon class="cls-2" points="497.18 181.13 497.14 180.63 567.04 174.51 567.08 175.01 497.18 181.13"/>
  </g>
  <g>
    <line class="cls-4" x1="498.19" y1="192.66" x2="524.67" y2="190.34"/>
    <polygon class="cls-2" points="498.21 192.91 498.17 192.41 524.65 190.09 524.69 190.59 498.21 192.91"/>
  </g>
  <path d="M257.3,243.12c-3.37,0-6.86-.08-10.48-.26-28.45-1.34-55-7.61-55.26-7.67l.12-.49c.26.06,26.77,6.32,55.17,7.66,26.15,1.23,59.3-1.56,68.7-21.87,4.24-9.16,3.53-19.43.3-29.01-11.51.75-23.45-1.84-32.9-7.16-11.95-6.72-17.35-16.25-14.44-25.48,1.28-4.07,3.7-6.45,7.2-7.07,7.67-1.36,19.79,6.47,29.49,19.05,4.41,5.72,8.45,12.71,11,20.13.21-.01.41-.03.62-.05,9.48-.78,23.01-4.25,33.6-16.32,8.13-9.28,15.55-21.3,23.4-34.03,10.09-16.36,20.52-33.27,33.27-45.41,14.47-13.78,29.87-19.14,47.07-16.41l-.08.49c-17.04-2.71-32.3,2.62-46.65,16.28-12.7,12.09-23.12,28.97-33.19,45.31-7.86,12.75-15.29,24.79-23.45,34.1-10.7,12.2-24.36,15.71-33.94,16.49-.16.01-.33.03-.49.04,3.23,9.66,3.92,20.01-.36,29.26-4.21,9.1-13.39,15.52-27.29,19.08-8.68,2.22-19.22,3.34-31.42,3.34ZM277.55,152.12c-.61,0-1.19.05-1.75.15-3.29.58-5.58,2.85-6.81,6.73-2.83,8.99,2.48,18.3,14.21,24.9,9.33,5.25,21.12,7.82,32.48,7.1-2.54-7.32-6.52-14.21-10.88-19.86-8.87-11.51-19.75-19.01-27.26-19.01Z"/>
  <g>
    <path d="M71.22,109.45c-5.09.45-8.78-2.92-9.29-8.77-.52-5.9,2.54-9.81,7.65-10.26,5.09-.45,8.78,2.84,9.3,8.77.51,5.88-2.57,9.81-7.65,10.26ZM71.12,108.29c4.35-.38,6.82-3.73,6.36-8.98-.46-5.22-3.47-8.12-7.82-7.73-4.32.38-6.76,3.75-6.3,8.97.46,5.22,3.47,8.12,7.77,7.74Z"/>
    <path d="M86.54,108.08c-2.11.18-3.75-.68-4.79-2.5l.67,6.98c0,.08-.04.14-.12.14l-1.08.09c-.08,0-.14-.04-.14-.12l-.88-10.6-.68-7.19c0-.08.04-.14.12-.14l1.05-.09c.08,0,.14.04.14.12l.18,2.61c.71-1.95,2.16-3.24,4.29-3.43,3.53-.31,5.7,2.61,6.05,6.56.34,3.9-1.3,7.26-4.81,7.57ZM86.16,107.08c3.06-.27,4.17-3.02,3.88-6.29-.3-3.43-1.89-6.05-4.92-5.78-2.61.23-4.15,2.38-3.83,6.29.31,3.88,2.12,6.03,4.86,5.79Z"/>
    <path d="M98.56,107.05c-3.93.34-6.31-2.29-6.68-6.53s1.51-7.28,5.44-7.62c3.9-.34,6.31,2.32,6.68,6.56.37,4.22-1.54,7.25-5.44,7.59ZM98.47,106.02c3.16-.28,4.51-2.76,4.19-6.45-.32-3.66-2.11-5.92-5.25-5.65-3.16.3-4.54,2.79-4.21,6.48.32,3.69,2.13,5.89,5.27,5.62Z"/>
    <path d="M105.68,106.14c-.08,0-.14-.04-.14-.12l-.55-6.88-.62-6.43c0-.08.04-.14.12-.14l1.08-.09c.08,0,.14.04.14.12l.11,2.49c.77-1.82,2.37-3,4.21-3.16.37-.03.74-.04,1.01.02.08.02.14.09.15.17l.08.87c0,.05-.04.11-.12.12-.27-.06-.59-.08-.99-.05-2,.18-3.97,1.73-4.05,4.76l.76,8.09c0,.08-.04.14-.12.14l-1.08.09Z"/>
    <path d="M119.03,104.78c0,.08-.04.16-.12.17-.41.14-.98.33-1.48.37-1.77.15-3.16-.63-3.42-3.5l-.78-8.93-1.61.14c-.08,0-.14-.04-.14-.12l-.07-.82c0-.08.04-.14.12-.14l1.61-.14-.31-3.27c0-.08.04-.14.12-.14l1.08-.09c.08,0,.14.04.14.12l.26,3.27,3.29-.29c.08,0,.14.04.14.12l.07.82c0,.08-.04.14-.12.14l-3.29.29.78,8.93c.18,2.03.76,2.59,2.1,2.47.5-.04,1.05-.15,1.41-.28.08,0,.14.04.14.09l.07.79Z"/>
    <path d="M124.16,104.84c-2.72.24-4.58-1.38-4.91-5.09l-.23-2.58-.53-5.69c0-.08.04-.13.12-.14l1.08-.09c.08,0,.14.04.14.12l.47,5.7.21,2.45c.29,3.27,1.77,4.39,3.82,4.21,2.03-.18,3.27-1.83,3.95-4.38l-.26-2.95-.53-5.69c0-.08.04-.13.12-.14l1.08-.09c.08,0,.14.04.14.12l.46,5.83.68,7.48c0,.08-.04.14-.12.14l-1.03.09c-.08,0-.14-.04-.14-.12l-.18-2.67c-.63,1.6-2.02,3.31-4.37,3.52Z"/>
    <path d="M131.59,103.87c-.08,0-.14-.04-.14-.12l-.46-5.83-.68-7.48c0-.08.04-.13.12-.14l1.03-.09c.08,0,.14.04.14.12l.18,2.67c.63-1.6,2.02-3.31,4.37-3.52,2.71-.24,4.58,1.38,4.91,5.09l.23,2.58.53,5.69c0,.08-.04.14-.12.14l-1.08.09c-.08,0-.14-.04-.14-.12l-.47-5.7-.21-2.45c-.29-3.27-1.77-4.39-3.82-4.21-2.03.18-3.27,1.83-3.94,4.38l.26,2.95.53,5.69c0,.08-.04.14-.12.14l-1.08.09Z"/>
    <path d="M142.05,87.73c-.08,0-.14-.04-.14-.12l-.14-1.61c0-.08.04-.14.12-.14l1.08-.09c.08,0,.14.04.14.12l.14,1.61c0,.08-.04.14-.12.14l-1.08.09ZM143.37,102.83c-.08,0-.14-.04-.14-.12l-.59-7.04-.58-6.27c0-.08.04-.14.12-.14l1.08-.09c.08,0,.14.04.14.12l.52,6.25.65,7.06c0,.08-.04.14-.12.14l-1.08.09Z"/>
    <path d="M155.74,101.75c-.08,0-.14-.04-.14-.12l-.17-2.59c-.68,1.92-2.14,3.19-4.3,3.38-3.53.31-5.7-2.61-6.05-6.56-.34-3.9,1.3-7.26,4.81-7.57,2.08-.18,3.72.68,4.76,2.45l-.67-7.3c0-.08.04-.14.12-.14l1.08-.09c.08,0,.14.04.14.12l.58,7.28,1.01,10.91c0,.08-.04.14-.12.14l-1.05.09ZM151.27,101.37c2.63-.23,4.17-2.36,3.86-6.26-.31-3.88-2.13-6.08-4.87-5.84-3.06.27-4.17,3.05-3.88,6.34.3,3.4,1.88,6.02,4.89,5.76Z"/>
    <path d="M167.94,100.68c-.08,0-.14-.04-.14-.12l-.17-2.59c-.68,1.89-2.14,3.16-4.3,3.35-3.53.31-5.7-2.58-6.04-6.54-.34-3.9,1.31-7.23,4.81-7.54,2.13-.19,3.78.7,4.82,2.55l-.28-2.55c0-.08.04-.14.12-.14l1.05-.09c.08,0,.14.04.14.12l.51,6.41.66,6.9c0,.08-.04.14-.12.14l-1.05.09ZM163.47,100.27c2.64-.23,4.17-2.36,3.86-6.23-.31-3.88-2.12-6.03-4.86-5.79-3.03.27-4.17,3-3.88,6.29.3,3.4,1.88,6,4.88,5.73Z"/>
    <path d="M180.15,99.61c-.08,0-.14-.04-.14-.12l-.17-2.59c-.68,1.92-2.14,3.19-4.3,3.38-3.53.31-5.7-2.61-6.05-6.56-.34-3.9,1.3-7.26,4.81-7.57,2.08-.18,3.73.68,4.76,2.45l-.67-7.3c0-.08.04-.14.12-.14l1.08-.09c.08,0,.14.04.14.12l.58,7.28,1.01,10.91c0,.08-.04.14-.12.14l-1.05.09ZM175.68,99.23c2.64-.23,4.17-2.36,3.86-6.26-.31-3.88-2.13-6.08-4.87-5.84-3.06.27-4.17,3.05-3.88,6.34.3,3.4,1.88,6.02,4.89,5.76Z"/>
    <path d="M193.46,93.61c.08,0,.14.04.12.12-.21,3.07-1.88,5.16-5.15,5.44-4.01.35-6.37-2.34-6.73-6.5s1.7-7.32,5.33-7.64c3.61-.32,5.99,2.02,6.43,6.4,0,.08-.04.14-.12.14l-10.36.93c.33,3.82,2.17,5.92,5.38,5.64,2.48-.22,3.72-1.81,3.93-4.3.02-.08.07-.14.15-.15l1.03-.09ZM187.11,86.06c-2.69.24-4.13,2.3-4.18,5.36l9.04-.79c-.27-2.74-1.96-4.82-4.86-4.57Z"/>
    <path d="M200.15,98.12c-3.45.3-5.72-1.06-6.07-4.43,0-.08.04-.14.12-.14l1-.09c.08,0,.14.04.14.12.29,2.71,1.93,3.81,4.75,3.57,2.32-.2,3.89-1.4,3.72-3.27-.39-4.4-9.44-.39-9.9-5.67-.21-2.45,1.73-3.9,4.63-4.15,2.87-.25,5.28.81,5.61,3.68,0,.08-.04.14-.12.14l-.95.08c-.08,0-.14-.04-.14-.12-.3-2.23-2.12-3-4.31-2.81-2.27.2-3.64,1.22-3.48,3.01.35,4.01,9.43,0,9.92,5.64.22,2.5-1.94,4.18-4.92,4.44Z"/>
  </g>
  <g>
    <path d="M465.79,101.4l-3.37.29.55,5.77c0,.06-.03.11-.09.11l-.86.08c-.06,0-.1-.03-.11-.09l-.61-7.37-.63-6.71c0-.06.03-.11.09-.11l4.23-.37c2.92-.26,4.96.98,5.2,3.74.26,2.94-1.61,4.42-4.41,4.66ZM462.29,100.1l.06.73,3.41-.3c2.29-.2,3.59-1.24,3.38-3.71-.2-2.25-1.66-3.17-4.04-2.96l-3.29.29.48,5.94Z"/>
    <path d="M471.74,106.81c-.06,0-.11-.03-.11-.09l-.43-5.33-.48-4.98c0-.06.03-.11.09-.11l.84-.07c.06,0,.1.03.11.09l.09,1.93c.6-1.41,1.83-2.32,3.26-2.45.29-.03.57-.03.78.01.06.02.11.07.12.13l.06.67s-.03.09-.1.09c-.21-.04-.46-.06-.76-.04-1.55.14-3.07,1.34-3.13,3.69l.59,6.26c0,.06-.03.11-.09.11l-.84.07Z"/>
    <path d="M480.8,106.24c-3.04.27-4.89-1.77-5.17-5.06-.29-3.29,1.17-5.64,4.21-5.9,3.02-.26,4.89,1.79,5.18,5.08.29,3.27-1.19,5.62-4.22,5.88ZM480.73,105.44c2.45-.21,3.49-2.14,3.24-5-.25-2.84-1.64-4.59-4.06-4.37-2.45.24-3.51,2.16-3.26,5.02.25,2.86,1.66,4.57,4.08,4.35Z"/>
    <path d="M490.74,105.35c-1.65.14-2.93-.55-3.73-1.98l.21,1.96c0,.06-.03.11-.09.11l-.82.07c-.06,0-.1-.03-.11-.09l-.69-8.29-.55-5.77c0-.06.03-.11.09-.11l.84-.07c.06,0,.11.03.11.09l.48,5.68c.55-1.43,1.66-2.37,3.3-2.51,2.74-.24,4.41,2,4.68,5.06.26,3.02-1.01,5.62-3.72,5.86ZM490.44,104.57c2.35-.21,3.21-2.32,2.99-4.89-.23-2.63-1.44-4.65-3.78-4.44-2.02.18-3.21,1.82-2.97,4.83.25,3.02,1.65,4.69,3.77,4.5Z"/>
    <path d="M495.86,104.69c-.06,0-.11-.03-.11-.09l-.59-7.19-.65-6.9c0-.06.03-.11.09-.11l.82-.07c.06,0,.11.03.11.09l.56,6.86.67,7.22c0,.06-.03.11-.09.11l-.82.07Z"/>
    <path d="M506.29,100.03c.06,0,.11.03.09.1-.16,2.38-1.46,4-3.99,4.22-3.1.27-4.93-1.81-5.21-5.04-.28-3.23,1.31-5.67,4.13-5.92,2.8-.25,4.64,1.57,4.98,4.95,0,.06-.03.11-.09.11l-8.02.72c.26,2.96,1.68,4.58,4.17,4.37,1.92-.17,2.88-1.4,3.04-3.33.01-.06.05-.11.11-.11l.8-.07ZM501.38,94.19c-2.08.18-3.2,1.78-3.24,4.15l7-.61c-.21-2.12-1.52-3.73-3.77-3.54Z"/>
    <path d="M508.13,99.19l.4,4.29c0,.06-.03.11-.09.11l-.84.07c-.06,0-.11-.03-.11-.09l-.33-4.29-.55-6.02c0-.06.03-.11.09-.11l.8-.07c.06,0,.11.03.11.09l.14,2.06c.49-1.26,1.46-2.56,3.2-2.71,1.53-.13,2.68.53,3.25,2.14.52-1.34,1.5-2.56,3.18-2.71,2.02-.18,3.36,1.04,3.62,3.96l.19,2.12.4,4.29c0,.06-.03.11-.09.11l-.84.07c-.06,0-.11-.03-.11-.09l-.36-4.29-.18-2.02c-.22-2.55-1.29-3.4-2.78-3.27-1.37.12-2.21,1.24-2.74,2.96.04.22.06.45.08.69l.19,2.12.4,4.29c0,.06-.03.11-.09.11l-.84.07c-.06,0-.1-.03-.11-.09l-.36-4.29-.18-2.02c-.22-2.55-1.29-3.4-2.78-3.27-1.49.13-2.34,1.42-2.87,3.38l.21,2.41Z"/>
    <path d="M530.01,101.7c-.06,0-.11-.03-.11-.09l-.13-2c-.53,1.47-1.66,2.45-3.33,2.6-2.74.24-4.41-2-4.68-5.06-.26-3.02,1.01-5.6,3.73-5.84,1.65-.14,2.93.55,3.73,1.98l-.21-1.98c0-.06.03-.11.09-.11l.82-.07c.06,0,.11.03.11.09l.39,4.96.51,5.34c0,.06-.03.11-.09.11l-.82.07ZM526.54,101.38c2.04-.18,3.23-1.83,2.99-4.83-.24-3-1.64-4.67-3.77-4.48-2.35.21-3.23,2.32-3.01,4.87.23,2.63,1.46,4.64,3.78,4.44Z"/>
  </g>
</svg>