<?xml version="1.0" encoding="UTF-8"?>
<svg id="Capa_1" data-name="Capa 1" xmlns="http://www.w3.org/2000/svg" viewBox="0 0 122.9 124.38">
  <defs>
    <style>
      .cls-1 {
        fill: #ff4e00;
      }

      .cls-2 {
        fill: #fff;
      }
    </style>
  </defs>
  <path d="M80.36,112.62h-19.65v-.24s-1.81-43.29-1.81-43.29l-12.68.92.84,33.67,10.27,8.94h-21.6v-42.35l9.98-.72-.04-1.6h13.69l.02.61,10.43-.75.93,35.53,9.63,9.29ZM61.19,112.12h17.93l-8.88-8.57v-.1s-.92-35.1-.92-35.1l-9.92.72,1.79,43.06ZM36.22,112.12h19.76l-9.43-8.21v-.11s-.85-33.75-.85-33.75l-9.49.69v41.39ZM46.17,68.45l.03,1.06,12.67-.92v-.14h-12.7Z"/>
  <g>
    <path class="cls-2" d="M38.12,54.82l8.16-1.84.61-1.39c.94-2.15,2.52-3.73,4.32-4.31l12.93-4.15,5.59-4.63,21.09-6.71,1.23,33.07-26.19,3.2-1.67-2.43-13.13,1.49c-1.32.15-2.57-.44-3.44-1.62l-.98-1.33-8.46.72h0c-1.16-2.08-1.44-4.86-.75-7.49l.68-2.59Z"/>
    <path d="M65.74,68.33l-1.68-2.43-12.98,1.47c-1.41.16-2.74-.47-3.67-1.72l-.9-1.21-8.48.72-.08-.14c-1.19-2.13-1.47-5-.77-7.68l.72-2.74,8.19-1.84.56-1.28c.97-2.22,2.6-3.84,4.47-4.44l12.88-4.13,5.64-4.64,21.41-6.81v.33s1.25,33.3,1.25,33.3l-26.57,3.25ZM64.3,65.38l1.67,2.42,25.81-3.16-1.21-32.51-20.73,6.6-5.64,4.64-12.93,4.15c-1.73.56-3.25,2.08-4.16,4.17l-.66,1.51-8.14,1.83-.64,2.44c-.66,2.5-.42,5.16.64,7.16l8.43-.71,1.06,1.44c.82,1.1,1.99,1.66,3.21,1.52l13.28-1.5Z"/>
  </g>
  <g>
    <path class="cls-2" d="M13.66,59.48l8.16-1.84.61-1.39c.94-2.15,2.52-3.73,4.32-4.31l12.93-4.15,5.59-4.63,20.02-6.51,1.35,32.4-25.23,3.67-1.67-2.43-13.13,1.49c-1.32.15-2.57-.44-3.44-1.62l-.98-1.33-8.46.72h0c-1.16-2.08-1.44-4.86-.75-7.49l.68-2.59Z"/>
    <path d="M41.28,73l-1.68-2.43-12.98,1.47c-1.41.16-2.74-.47-3.67-1.72l-.9-1.21-8.48.72-.08-.14c-1.19-2.13-1.47-5-.77-7.67l.72-2.74,8.19-1.84.56-1.28c.97-2.22,2.6-3.84,4.47-4.44l12.88-4.13,5.63-4.64,20.33-6.61,1.37,32.96-.22.03-25.38,3.69ZM39.85,70.04l1.67,2.42,24.85-3.61-1.32-31.85-19.66,6.39-5.64,4.64-12.93,4.15c-1.73.56-3.25,2.08-4.16,4.17l-.66,1.51-8.14,1.83-.64,2.44c-.66,2.5-.42,5.16.64,7.16l8.43-.71,1.06,1.44c.82,1.1,1.99,1.66,3.21,1.52l13.28-1.5Z"/>
  </g>
  <path d="M78.28,46.05c1.28-7.15,6.03-12.97,11.81-14.49,1.54-.41,3.1-.49,4.63-.25,7.4,1.17,12.06,9.7,10.39,19-1.67,9.3-9.04,15.91-16.44,14.74-7.4-1.17-12.06-9.7-10.39-19Z"/>
  <path d="M107.51,31.94l-.33-.94c-.98-2.83-3.13-5.09-5.92-6.2l-.58-.23.58-.23c2.79-1.11,4.94-3.37,5.92-6.2l.33-.94.33.94c.98,2.83,3.13,5.09,5.92,6.2l.58.23-.58.23c-2.78,1.11-4.94,3.37-5.92,6.2l-.33.94ZM102,24.57c2.53,1.17,4.5,3.27,5.52,5.87,1.01-2.6,2.99-4.7,5.52-5.87-2.53-1.17-4.5-3.27-5.52-5.87-1.01,2.6-2.99,4.7-5.52,5.87Z"/>
  <path d="M39.52,70.44c-4.4-6.74-4.18-12.58-3.21-16.29,1.04-4.03,3.1-6.42,3.18-6.52l.38.33s-2.07,2.42-3.08,6.34c-.93,3.61-1.14,9.29,3.15,15.87l-.42.27Z"/>
  <path d="M21.96,68.97c-3-5.19-.39-11.36-.37-11.43l.46.2c-.03.06-2.54,6.01.34,10.98l-.43.25Z"/>
  <g>
    <ellipse class="cls-2" cx="90.34" cy="48.38" rx="14.91" ry="11.15" transform="translate(27.61 129.41) rotate(-80.42)"/>
    <path class="cls-2" d="M78.81,46.43c1.43-8.5,7.78-14.55,14.14-13.47,6.36,1.07,10.37,8.86,8.93,17.37-1.43,8.5-7.78,14.55-14.14,13.47-6.36-1.07-10.37-8.86-8.93-17.37ZM79.88,46.61c-1.3,7.71,2.33,14.77,8.1,15.75,5.77.97,11.52-4.51,12.82-12.22s-2.33-14.77-8.1-15.75-11.52,4.51-12.82,12.22Z"/>
  </g>
  <g>
    <path class="cls-2" d="M83.95,51.02s4.12-10.79,14.01-3.56c0,0-4.53,12.02-14.01,3.56Z"/>
    <path d="M90.35,54.28c-2.07,0-4.27-1.03-6.57-3.08l-.13-.11.06-.16c.07-.19,1.85-4.74,5.9-5.93,2.55-.75,5.41,0,8.49,2.26l.15.11-.07.18c-.08.22-2.12,5.51-6.38,6.56-.48.12-.96.18-1.46.18ZM84.25,50.95c2.66,2.33,5.16,3.23,7.44,2.67,3.58-.88,5.57-5.15,5.96-6.08-2.89-2.07-5.55-2.77-7.9-2.07-3.4,1-5.16,4.67-5.51,5.48Z"/>
  </g>
  <path class="cls-1" d="M90.45,48.5s-.05.02-.08.03c-.59.15-1.19-.24-1.32-.88-.02-.09-.03-.18-.03-.27-.37-.11-.78-.12-1.19-.02-1.31.33-2.13,1.74-1.83,3.14.3,1.4,1.61,2.27,2.92,1.94,1.31-.33,2.13-1.74,1.83-3.14-.06-.29-.17-.56-.31-.8Z"/>
  <polygon points="96.45 43.67 96.93 43.97 95.89 46.02 95.41 45.72 96.45 43.67"/>
  <polygon points="85.47 48.22 85.09 48.67 83.52 47.06 83.9 46.61 85.47 48.22"/>
  <polygon points="90.08 44.92 89.55 45.06 89.06 42.76 89.59 42.62 90.08 44.92"/>
  <path d="M53.72,50.4c1.23-7.09,5.8-12.87,11.37-14.38,1.48-.4,2.98-.48,4.45-.24,7.12,1.16,11.6,9.62,10,18.85s-8.7,15.79-15.82,14.62-11.6-9.62-10-18.85Z"/>
  <g>
    <ellipse class="cls-2" cx="65.23" cy="52.66" rx="14.4" ry="10.77" transform="translate(2.46 108.22) rotate(-80.42)"/>
    <path class="cls-2" d="M54.07,50.77c1.39-8.22,7.52-14.07,13.67-13.03,6.15,1.04,10.03,8.57,8.64,16.8-1.39,8.22-7.52,14.07-13.67,13.03-6.15-1.04-10.03-8.57-8.64-16.8ZM55.15,50.95c-1.25,7.43,2.25,14.24,7.81,15.18,5.56.94,11.1-4.34,12.36-11.78s-2.25-14.24-7.81-15.18-11.1,4.35-12.36,11.78Z"/>
  </g>
  <g>
    <path class="cls-2" d="M58.89,56.35s4.12-10.79,14.01-3.56c0,0-4.53,12.02-14.01,3.56Z"/>
    <path d="M65.3,59.61c-2.07,0-4.27-1.03-6.57-3.08l-.13-.11.06-.16c.07-.19,1.85-4.74,5.9-5.93,2.55-.75,5.41,0,8.49,2.26l.15.11-.07.18c-.08.22-2.12,5.51-6.38,6.56-.48.12-.96.18-1.46.18ZM59.19,56.28c2.66,2.33,5.17,3.23,7.44,2.67,3.58-.88,5.57-5.15,5.96-6.08-2.89-2.07-5.55-2.77-7.89-2.07-3.4,1-5.16,4.67-5.51,5.48Z"/>
  </g>
  <path class="cls-1" d="M65.99,53.8s-.05.02-.08.03c-.59.15-1.19-.24-1.32-.88-.02-.09-.03-.18-.03-.27-.37-.11-.78-.12-1.19-.02-1.31.33-2.13,1.74-1.83,3.14.3,1.4,1.61,2.27,2.92,1.94,1.31-.33,2.13-1.74,1.83-3.14-.06-.29-.17-.56-.31-.8Z"/>
  <polygon points="71.39 49.38 71.87 49.68 70.83 51.73 70.35 51.42 71.39 49.38"/>
  <polygon points="60.41 53.93 60.04 54.37 58.47 52.77 58.84 52.32 60.41 53.93"/>
  <polygon points="65.03 50.63 64.49 50.76 64 48.46 64.53 48.33 65.03 50.63"/>
</svg>