<?xml version="1.0" encoding="UTF-8"?>
<svg id="Capa_1" data-name="Capa 1" xmlns="http://www.w3.org/2000/svg" viewBox="0 0 147.71 124.38">
  <defs>
    <style>
      .cls-1 {
        fill: #00d6a3;
      }

      .cls-2 {
        fill: #1d1d1b;
      }

      .cls-3 {
        fill: #fff;
      }
    </style>
  </defs>
  <g>
    <circle class="cls-1" cx="21.37" cy="75.45" r="13.64"/>
    <path class="cls-1" d="M21.37,89.35c-7.66,0-13.89-6.23-13.89-13.89s6.23-13.89,13.89-13.89,13.89,6.23,13.89,13.89-6.23,13.89-13.89,13.89ZM21.37,62.06c-7.38,0-13.39,6.01-13.39,13.39s6.01,13.39,13.39,13.39,13.39-6.01,13.39-13.39-6.01-13.39-13.39-13.39Z"/>
  </g>
  <g>
    <circle class="cls-1" cx="84.24" cy="91.49" r="13.64"/>
    <path class="cls-1" d="M84.24,105.39c-7.66,0-13.89-6.23-13.89-13.89s6.23-13.89,13.89-13.89,13.89,6.23,13.89,13.89-6.23,13.89-13.89,13.89ZM84.24,78.1c-7.39,0-13.39,6.01-13.39,13.39s6.01,13.39,13.39,13.39,13.39-6.01,13.39-13.39-6.01-13.39-13.39-13.39Z"/>
  </g>
  <g>
    <g>
      <line class="cls-3" x1="30.95" y1="65.74" x2="70.6" y2="28.87"/>
      <rect x="23.71" y="47.06" width="54.14" height=".5" transform="translate(-18.62 47.26) rotate(-42.94)"/>
    </g>
    <g>
      <polygon class="cls-2" points="31.06 65.86 30.84 65.62 70.49 28.75 70.71 28.99 31.06 65.86"/>
      <polygon points="31.05 66.21 30.49 65.61 30.67 65.44 70.5 28.4 71.06 29.01 70.88 29.18 31.05 66.21"/>
    </g>
  </g>
  <g>
    <rect x="83.99" y="27.77" width=".5" height="50.08"/>
    <g>
      <rect class="cls-2" x="84.08" y="27.77" width=".33" height="50.08"/>
      <rect x="83.83" y="27.52" width=".83" height="50.58"/>
    </g>
  </g>
  <g>
    <circle class="cls-1" cx="116.88" cy="91.49" r="13.64"/>
    <path class="cls-1" d="M116.88,105.39c-7.66,0-13.89-6.23-13.89-13.89s6.23-13.89,13.89-13.89,13.89,6.23,13.89,13.89-6.23,13.89-13.89,13.89ZM116.88,78.1c-7.38,0-13.39,6.01-13.39,13.39s6.01,13.39,13.39,13.39,13.39-6.01,13.39-13.39-6.01-13.39-13.39-13.39Z"/>
  </g>
  <g>
    <rect x="116.63" y="27.77" width=".5" height="50.08"/>
    <g>
      <rect class="cls-2" x="116.72" y="27.77" width=".33" height="50.08"/>
      <rect x="116.47" y="27.52" width=".83" height="50.58"/>
    </g>
  </g>
  <rect x="56.6" y="22.03" width="76.85" height="6.84"/>
  <path d="M56.81,97.18c-.13,0-.25-.11-.25-.24v-.33c-.01-.07,0-.13.06-.18.04-.05.11-.08.17-.08,2.05-.07,4.19-.38,6.35-.92.06-.02.13,0,.19.03.06.03.1.09.11.15l.08.32c.03.13-.05.27-.18.3-2.23.56-4.42.88-6.52.95h0ZM50.3,96.58s-.04,0-.06,0c-2.15-.5-4.23-1.29-6.17-2.37-.12-.07-.16-.22-.1-.34l.16-.29c.03-.06.09-.1.15-.12.06-.02.13,0,.19.02,1.87,1.04,3.87,1.81,5.96,2.29.13.03.22.16.19.3l-.07.32c-.01.06-.05.12-.11.16-.04.03-.09.04-.13.04ZM38.94,90.32c-.06,0-.13-.03-.17-.07-2.77-2.69-4.11-5.19-4.12-5.21-.06-.12-.02-.27.1-.34l.29-.15c.12-.06.27-.02.34.1.01.02,1.29,2.41,3.97,5,.1.1.1.25,0,.35l-.23.23s-.11.08-.18.08h0Z"/>
</svg>