<?xml version="1.0" encoding="UTF-8"?>
<svg id="Capa_1" data-name="Capa 1" xmlns="http://www.w3.org/2000/svg" viewBox="0 0 277.18 152.22">
  <defs>
    <style>
      .cls-1 {
        font-family: InstrumentSerif-Italic, 'Instrument Serif';
        font-style: italic;
      }

      .cls-1, .cls-2 {
        fill: #fff;
        font-size: 15px;
      }

      .cls-2 {
        font-family: InstrumentSerif-Regular, 'Instrument Serif';
      }

      .cls-3 {
        fill: #1d1d1b;
      }

      .cls-4 {
        letter-spacing: -.02em;
      }

      .cls-5 {
        letter-spacing: 0em;
      }

      .cls-6 {
        letter-spacing: 0em;
      }

      .cls-7 {
        letter-spacing: -.01em;
      }

      .cls-8 {
        letter-spacing: 0em;
      }

      .cls-9 {
        letter-spacing: 0em;
      }
    </style>
  </defs>
  <polygon class="cls-3" points="23.06 41.07 23.06 46.24 23.06 116.53 247.84 116.53 247.84 41.07 23.06 41.07"/>
  <polygon class="cls-3" points="23.06 25.76 23.06 42.13 32.29 42.13 23.06 25.76"/>
  <text class="cls-2" transform="translate(41.77 69.8)"><tspan x="0" y="0">¿Cómo </tspan></text>
  <text class="cls-1" transform="translate(79.07 69.8)"><tspan x="0" y="0">evitar pasar por al</tspan><tspan class="cls-5" x="100.29" y="0">t</tspan><tspan x="104.28" y="0">o</tspan></text>
  <text class="cls-2" transform="translate(189.56 69.8)"><tspan x="0" y="0"> </tspan></text>
  <text class="cls-2" transform="translate(41.77 84.8)"><tspan x="0" y="0">opor</tspan><tspan class="cls-8" x="23.67" y="0">t</tspan><tspan x="27.45" y="0">unidades pa</tspan><tspan class="cls-4" x="89.49" y="0">r</tspan><tspan x="93.99" y="0">a inn</tspan><tspan class="cls-6" x="119.97" y="0">o</tspan><tspan class="cls-7" x="126.01" y="0">v</tspan><tspan x="131.74" y="0">ar </tspan></text>
  <text class="cls-2" transform="translate(186.77 84.8)"><tspan x="0" y="0"> </tspan></text>
  <text class="cls-2" transform="translate(41.77 99.8)"><tspan x="0" y="0">que están a </tspan><tspan class="cls-9" x="59.26" y="0">t</tspan><tspan x="63.03" y="0">u alcance?</tspan></text>
</svg>