<?xml version="1.0" encoding="UTF-8"?>
<svg id="Capa_1" data-name="Capa 1" xmlns="http://www.w3.org/2000/svg" viewBox="0 0 122.9 124.38">
  <defs>
    <style>
      .cls-1 {
        fill: #00d6a3;
      }

      .cls-2 {
        fill: #1d1d1b;
      }
    </style>
  </defs>
  <ellipse class="cls-2" cx="65.81" cy="65.61" rx="46.33" ry="46.58"/>
  <g>
    <ellipse class="cls-1" cx="60.46" cy="63.08" rx="46.33" ry="46.58"/>
    <path class="cls-1" d="M60.46,109.91c-25.68,0-46.58-21.01-46.58-46.83S34.78,16.25,60.46,16.25s46.58,21.01,46.58,46.83-20.89,46.83-46.58,46.83ZM60.46,16.75c-25.41,0-46.08,20.79-46.08,46.33s20.67,46.33,46.08,46.33,46.08-20.79,46.08-46.33-20.67-46.33-46.08-46.33Z"/>
  </g>
  <circle class="cls-2" cx="45.94" cy="50.58" r="5.3"/>
  <circle class="cls-2" cx="74.77" cy="50.58" r="5.3"/>
  <path d="M44.03,83.23h0c-.14,0-.25-.11-.25-.25.09-9.48,8.48-13.79,16.26-13.79h.05c7.79.04,16.18,4.37,16.17,13.79,0,.14-.11.25-.25.25h0c-.14,0-.25-.11-.25-.25,0-9.08-8.13-13.25-15.68-13.29h-.05c-7.54,0-15.67,4.15-15.76,13.29,0,.14-.11.25-.25.25Z"/>
</svg>