<?xml version="1.0" encoding="UTF-8"?>
<svg id="Capa_1" data-name="Capa 1" xmlns="http://www.w3.org/2000/svg" viewBox="0 0 122.9 124.38">
  <defs>
    <style>
      .cls-1 {
        fill: #00d6a3;
      }
    </style>
  </defs>
  <g>
    <path class="cls-1" d="M6.81,106.46V34.32h109.33v72.14H6.81ZM21.08,93.87h80.79v-46.96H21.08v46.96Z"/>
    <path d="M115.89,34.57v71.64H7.06V34.57h108.83M20.83,94.12h81.29v-47.46H20.83v47.46M116.39,34.07H6.56v72.64h109.83V34.07h0ZM21.33,93.62v-46.46h80.29v46.46H21.33Z"/>
  </g>
  <path d="M116.64,106.96H6.31V33.82h110.33v73.14ZM6.81,106.46h109.33V34.32H6.81v72.14Z"/>
  <polygon points="52.77 34.17 52.37 33.88 61.48 21.47 61.69 21.74 70.58 33.85 70.17 34.15 61.48 22.31 52.77 34.17"/>
  <path d="M18.37,45.22c-.06,0-.12-.02-.17-.06l-11.86-10.67c-.1-.09-.11-.25-.02-.35.09-.1.25-.11.35-.02l11.86,10.67c.1.09.11.25.02.35-.05.05-.12.08-.19.08Z"/>
  <path d="M116.39,106.96c-.06,0-.12-.02-.16-.06l-12.03-10.34c-.1-.09-.12-.25-.03-.35.09-.1.25-.12.35-.03l12.03,10.34c.1.09.12.25.03.35-.05.06-.12.09-.19.09Z"/>
  <path d="M6.56,106.96c-.07,0-.14-.03-.19-.08-.09-.1-.08-.26.02-.35l12.12-10.97c.1-.09.26-.08.35.02.09.1.08.26-.02.35l-12.12,10.97s-.11.06-.17.06Z"/>
  <path d="M104.35,45.02c-.07,0-.14-.03-.19-.08-.09-.1-.08-.26.02-.35l11.7-10.33c.1-.09.26-.08.35.02.09.1.08.26-.02.35l-11.7,10.33s-.11.06-.17.06Z"/>
  <circle cx="61.42" cy="21.96" r="1.53"/>
</svg>