<?xml version="1.0" encoding="UTF-8"?>
<svg id="Capa_1" data-name="Capa 1" xmlns="http://www.w3.org/2000/svg" xmlns:xlink="http://www.w3.org/1999/xlink" viewBox="0 0 115.66 101.1">
  <defs>
    <style>
      .cls-1, .cls-2, .cls-3 {
        fill: none;
      }

      .cls-4 {
        fill: #e5fbf6;
      }

      .cls-2, .cls-3 {
        stroke: #1d1d1b;
        stroke-width: .5px;
      }

      .cls-3 {
        stroke-miterlimit: 10;
      }

      .cls-5 {
        clip-path: url(#clippath);
      }
    </style>
    <clipPath id="clippath">
      <rect class="cls-1" x="23.84" y="14.48" width="67.98" height="72.15"/>
    </clipPath>
  </defs>
  <g class="cls-5">
    <path class="cls-4" d="M78.47,53.32c0,11.4-9.24,20.64-20.64,20.64s-20.63-9.24-20.63-20.64,9.24-20.64,20.63-20.64,20.64,9.24,20.64,20.64M91.57,52.64c0,18.63-15.1,33.74-33.74,33.74s-33.74-15.11-33.74-33.74,15.1-33.74,33.74-33.74,33.74,15.11,33.74,33.74"/>
    <path class="cls-3" d="M78.47,53.32c0,11.4-9.24,20.64-20.64,20.64s-20.63-9.24-20.63-20.64,9.24-20.64,20.63-20.64,20.64,9.24,20.64,20.64ZM91.57,52.64c0,18.63-15.1,33.74-33.74,33.74s-33.74-15.11-33.74-33.74,15.1-33.74,33.74-33.74,33.74,15.11,33.74,33.74Z"/>
    <circle class="cls-3" cx="57.83" cy="53.33" r="7.48"/>
    <line class="cls-2" x1="57.58" y1="14.48" x2="57.58" y2="18.65"/>
    <line class="cls-2" x1="73.27" y1="82.56" x2="74.49" y2="86.55"/>
    <line class="cls-2" x1="42.46" y1="82.56" x2="41.24" y2="86.55"/>
  </g>
</svg>