<?xml version="1.0" encoding="UTF-8"?>
<svg id="Capa_1" data-name="Capa 1" xmlns="http://www.w3.org/2000/svg" xmlns:xlink="http://www.w3.org/1999/xlink" viewBox="0 0 272.49 116.1">
  <defs>
    <style>
      .cls-1, .cls-2 {
        fill: none;
      }

      .cls-3 {
        fill: #e5fbf6;
      }

      .cls-4 {
        fill: #00d6a3;
      }

      .cls-5 {
        clip-path: url(#clippath-1);
      }

      .cls-6 {
        clip-path: url(#clippath-3);
      }

      .cls-7 {
        clip-path: url(#clippath-4);
      }

      .cls-8 {
        clip-path: url(#clippath-2);
      }

      .cls-9 {
        fill: #fff;
      }

      .cls-10 {
        font-family: Inter-Regular, Inter;
        font-variation-settings: 'opsz' 14, 'wght' 400;
      }

      .cls-10, .cls-11 {
        fill: #1d1d1b;
        font-size: 10px;
      }

      .cls-2 {
        stroke: #1d1d1b;
        stroke-width: .5px;
      }

      .cls-11 {
        font-family: InstrumentSerif-Italic, 'Instrument Serif';
        font-style: italic;
      }

      .cls-12 {
        letter-spacing: 0em;
      }

      .cls-13 {
        clip-path: url(#clippath);
      }

      .cls-14 {
        letter-spacing: 0em;
      }
    </style>
    <clipPath id="clippath">
      <rect class="cls-1" x="4.28" y="4.89" width="259.57" height="95.72"/>
    </clipPath>
    <clipPath id="clippath-1">
      <rect class="cls-1" x="4.28" y="4.89" width="259.57" height="95.72"/>
    </clipPath>
    <clipPath id="clippath-2">
      <rect class="cls-1" x="4.28" y="4.89" width="259.57" height="95.72"/>
    </clipPath>
    <clipPath id="clippath-3">
      <rect class="cls-1" x="4.28" y="4.89" width="259.57" height="95.72"/>
    </clipPath>
    <clipPath id="clippath-4">
      <rect class="cls-1" x="4.28" y="4.89" width="259.57" height="95.72"/>
    </clipPath>
  </defs>
  <polygon class="cls-9" points="148.65 17.3 36.78 98.15 36.8 100.35 156.16 96.1 152.82 17.3 148.65 17.3"/>
  <g class="cls-13">
    <polyline class="cls-2" points="148.65 17.3 152.82 17.3 156.16 96.1 36.8 100.35 36.78 98.15"/>
  </g>
  <rect class="cls-3" x="31.06" y="15.65" width="120.73" height="80.15" transform="translate(-1.89 3.22) rotate(-2)"/>
  <text class="cls-11" transform="translate(60.26 56.27) rotate(-2)"><tspan x="0" y="0">1.1. </tspan></text>
  <text class="cls-10" transform="translate(71.29 55.88) rotate(-2)"><tspan x="0" y="0">Delimi</tspan><tspan class="cls-14" x="29.07" y="0">t</tspan><tspan x="32.42" y="0">ar tu </tspan></text>
  <text class="cls-10" transform="translate(125.37 53.99) rotate(-2)"><tspan x="0" y="0"> </tspan></text>
  <text class="cls-10" transform="translate(45.75 67.78) rotate(-2)"><tspan x="0" y="0">ámbi</tspan><tspan class="cls-12" x="22.92" y="0">t</tspan><tspan x="26.13" y="0">o de influencia</tspan></text>
  <rect class="cls-2" x="31.06" y="15.65" width="120.73" height="80.15" transform="translate(-1.89 3.22) rotate(-2)"/>
  <g class="cls-5">
    <line class="cls-2" x1="41.33" y1="31.24" x2="263.85" y2="31.24"/>
  </g>
  <polygon class="cls-9" points="39.18 41.65 37.37 44.81 35.77 47.6 31.32 45.05 30.93 45.72 29.53 48.15 27.27 52.1 30.65 54.04 32.92 50.09 33.99 50.71 36.96 52.41 37.29 52.6 40.67 46.71 44.54 48.93 46.36 45.77 39.18 41.65"/>
  <path d="M27.45,52.05l3.15,1.81,2.27-3.95,4.38,2.51,3.38-5.9.11.06,3.76,2.16,1.69-2.94-6.95-3.99-3.41,5.95-.11-.07-4.34-2.49-3.92,6.83ZM30.7,54.22l-3.61-2.07.06-.11,4.11-7.17,4.45,2.55,3.41-5.95.11.07,7.29,4.18-1.94,3.39-.11-.07-3.76-2.15-3.38,5.9-4.38-2.51-2.26,3.95Z"/>
  <polygon class="cls-9" points="48.39 20.46 50.62 16.57 47.94 15.03 45.71 18.93 44.1 21.73 46.78 23.27 50.86 25.61 52.47 22.8 48.39 20.46"/>
  <path d="M44.28,21.69l6.53,3.74,1.48-2.58-4.08-2.34.07-.11,2.17-3.78-2.45-1.41-3.72,6.48ZM50.9,25.79l-.11-.07-6.87-3.94,1.67-2.92,2.3-4.01,2.9,1.67-.06.11-2.17,3.78,4.08,2.34-1.74,3.03Z"/>
  <g class="cls-8">
    <path class="cls-9" d="M7.13,40.54c1.28-1.93,3.93-2.45,5.88-1.16,1.95,1.29,2.5,3.93,1.24,5.85l2.94,1.95c2.28-3.44,1.28-8.18-2.2-10.48-3.49-2.31-8.23-1.38-10.51,2.06,0,.01-.02.02-.02.04l2.67,1.75s0,0,0,0"/>
    <path d="M14.43,45.19l2.73,1.81c2.16-3.39,1.17-7.94-2.24-10.2-3.42-2.27-8.01-1.38-10.28,1.96l2.45,1.6c1.35-1.91,4.01-2.41,5.99-1.09,1.97,1.31,2.56,3.94,1.35,5.92M17.23,47.36l-3.16-2.09.07-.11c1.23-1.87.69-4.42-1.21-5.67-1.9-1.26-4.46-.76-5.7,1.12l-.06.13-2.9-1.9.09-.15c2.33-3.52,7.13-4.46,10.69-2.1,3.57,2.36,4.57,7.15,2.24,10.66l-.07.11Z"/>
    <path class="cls-9" d="M41.67,30.76c.1,2.75-2.05,5.05-4.8,5.14s-5.05-2.05-5.14-4.8,2.05-5.05,4.8-5.14c2.75-.1,5.05,2.05,5.14,4.8"/>
    <path d="M36.54,26.09c-2.67.09-4.76,2.34-4.67,5.01.09,2.67,2.34,4.76,5.01,4.67,2.67-.09,4.76-2.34,4.67-5.01-.09-2.67-2.34-4.77-5.01-4.67M36.88,36.04c-2.81.1-5.18-2.11-5.28-4.92-.1-2.81,2.11-5.18,4.92-5.28,2.81-.1,5.18,2.11,5.28,4.92.1,2.81-2.11,5.18-4.92,5.28"/>
  </g>
  <polygon class="cls-9" points="14.97 19.93 17.98 30.8 25.99 22.38 14.97 19.93"/>
  <path d="M15.15,20.1l2.89,10.44,7.69-8.09-10.58-2.35ZM17.92,31.05l-3.13-11.3,11.45,2.54-8.32,8.75Z"/>
  <polygon class="cls-9" points="58.14 41.63 55.51 40.8 55 43.52 53.37 41.3 51.37 43.21 51.36 40.44 48.62 40.82 50.23 38.57 47.81 37.26 50.43 36.38 49.25 33.89 51.88 34.72 52.38 32 54.01 34.22 56.02 32.31 56.03 35.08 58.77 34.7 57.15 36.95 59.58 38.26 56.95 39.14 58.14 41.63"/>
  <path d="M53.39,41.1l1.54,2.1.48-2.57,2.48.78-1.12-2.35,2.48-.83-2.29-1.24,1.53-2.13-2.59.35v-2.61s-1.9,1.81-1.9,1.81l-1.54-2.1-.48,2.57-2.49-.79,1.12,2.35-2.48.83,2.29,1.24-1.53,2.13,2.59-.35v2.61s1.9-1.81,1.9-1.81ZM55.08,43.84l-1.72-2.34-2.12,2.02v-2.92s-2.9.39-2.9.39l1.71-2.38-2.56-1.38,2.77-.93-1.25-2.63,2.78.88.53-2.87,1.72,2.35,2.12-2.02v2.92s2.9-.39,2.9-.39l-1.7,2.38,2.56,1.38-2.77.93,1.25,2.63-2.78-.88-.53,2.87Z"/>
  <rect class="cls-9" x="20.71" y="35.13" width="7.16" height="7.16" transform="translate(-1.34 .87) rotate(-2)"/>
  <path d="M20.96,42.27l6.9-.24-.24-6.9-6.9.24.24,6.9ZM28.13,42.28l-7.42.26-.26-7.42,7.42-.26.26,7.42Z"/>
  <g class="cls-6">
    <path class="cls-9" d="M43.87,7.38h-.01c-2.19-2.47-5.58-3.12-7.54-1.4-1.99,1.74-1.83,5.28.36,7.85,1.12,1.44,1.14,3.35.03,4.27-1.11.92-2.97.54-4.18-.83h0c-1.97-2.39-5.13-3.09-6.99-1.55l1.51,1.99c1.04-.86,2.8-.47,3.9.85h.01c2.15,2.51,5.54,3.23,7.55,1.57,2.04-1.68,1.95-5.21-.2-7.81h0c-1.18-1.43-1.26-3.37-.16-4.33,1.09-.95,2.94-.61,4.17.74h0c2.01,2.36,5.16,2.99,6.99,1.4l-1.55-1.97c-1.02.89-2.78.54-3.9-.77"/>
    <path d="M30.98,18.38l.09.09c2.11,2.47,5.42,3.17,7.37,1.56.95-.79,1.46-2.02,1.42-3.46-.04-1.42-.6-2.87-1.58-4.09l-.07-.08c-1.23-1.49-1.29-3.51-.14-4.52,1.13-.98,3.08-.65,4.35.75l.09.1h0c1.1,1.25,2.55,2.02,4,2.12,1.01.08,1.92-.19,2.62-.76l-1.39-1.76c-.42.33-.96.47-1.56.43-.84-.06-1.69-.5-2.33-1.2h-.01s-.09-.09-.09-.09c-2.15-2.44-5.45-3.06-7.36-1.4-1.94,1.69-1.78,5.1.33,7.62h0l.04.05c1.16,1.5,1.16,3.49,0,4.45-1.15.95-3.11.57-4.36-.84l-.09-.1h0c-1.9-2.23-4.83-2.9-6.63-1.52l1.36,1.79c1.08-.78,2.77-.41,3.89.86h0ZM36.08,21.15c-1.74.06-3.68-.79-5.11-2.42h0s-.1-.09-.1-.09c-1.06-1.28-2.73-1.65-3.72-.84l-.1.09-1.67-2.2.1-.08c1.93-1.59,5.15-.89,7.17,1.56l.08.1h0c1.16,1.23,2.89,1.56,3.91.72,1.05-.86,1.03-2.69-.04-4.07h0c-2.25-2.64-2.4-6.25-.35-8.04,1.99-1.73,5.39-1.13,7.64,1.33h0s.1.09.1.09c.61.71,1.43,1.15,2.24,1.21.58.04,1.09-.12,1.47-.45l.1-.09,1.71,2.17-.09.08c-.77.67-1.78.98-2.91.9-1.56-.11-3.11-.95-4.26-2.3l-.08-.1h0c-1.18-1.21-2.9-1.5-3.9-.63-1.03.89-.97,2.71.12,4.08l.06.07c1.06,1.28,1.66,2.82,1.7,4.33.04,1.52-.5,2.83-1.52,3.67-.71.59-1.59.89-2.53.92"/>
  </g>
  <polygon class="cls-9" points="65.41 28.09 63.19 26.19 65.13 23.91 62.68 21.82 60.74 24.1 58.51 22.21 56.56 24.49 58.79 26.39 56.94 28.55 59.39 30.64 61.23 28.48 63.46 30.38 65.41 28.09"/>
  <path d="M57.13,28.53l2.25,1.92,1.84-2.16,2.22,1.9,1.78-2.09-2.22-1.9,1.95-2.28-2.25-1.92-1.95,2.28-2.22-1.9-1.78,2.09,2.22,1.9-1.84,2.16ZM59.41,30.82l-2.65-2.26,1.84-2.16-2.22-1.9,2.12-2.49,2.22,1.9,1.95-2.28,2.65,2.26-1.95,2.28,2.22,1.9-2.12,2.49-2.22-1.9-1.84,2.16Z"/>
  <g class="cls-7">
    <path class="cls-4" d="M24.16,15.46c-5.11.18-9.81,1.98-11.41,4.5-3.53,5.58-2.62,10.62-1.24,13.87,2.44,5.74,7.86,9.59,11.94,10.42,5.75,1.18,14.11-2.38,18.24-7.77,1.84-2.39,3.58-6.14,1.47-10.37-3.19-6.39-9.39-10.27-16.99-10.65-.67-.03-1.35-.04-2.01-.01M26.3,44.73c-1.01.03-1.98-.03-2.89-.22-4.15-.85-9.65-4.76-12.13-10.58-1.41-3.31-2.33-8.44,1.26-14.11,1.85-2.93,7.72-4.91,13.65-4.61,7.7.39,13.97,4.32,17.21,10.79,2.18,4.35.39,8.19-1.49,10.65-3.54,4.61-10.12,7.89-15.61,8.08"/>
  </g>
</svg>