<?xml version="1.0" encoding="UTF-8"?>
<svg id="Capa_1" data-name="Capa 1" xmlns="http://www.w3.org/2000/svg" viewBox="0 0 122.9 124.38">
  <defs>
    <style>
      .cls-1 {
        fill: #00d6a3;
      }

      .cls-2 {
        fill: #fff;
      }

      .cls-3 {
        font-family: Inter18pt-Light, IQQTRH+Inter18pt-Light;
        font-size: 12px;
        font-weight: 300;
      }
    </style>
  </defs>
  <g>
    <rect class="cls-2" x="50.3" y="27.21" width="52.76" height="60.22"/>
    <path d="M103.31,87.68h-53.25V26.96h53.25v60.72ZM50.55,87.18h52.25V27.46h-52.25v59.72Z"/>
  </g>
  <rect x="61.06" y="38.36" width="38.45" height=".5"/>
  <g>
    <rect class="cls-2" x="35.57" y="17.88" width="52.76" height="60.22"/>
    <path d="M88.58,78.35h-53.26V17.63h53.26v60.72ZM35.82,77.85h52.26V18.13h-52.26v59.72Z"/>
  </g>
  <rect x="42.79" y="26.96" width="38.46" height=".5"/>
  <rect x="42.79" y="36.22" width="38.46" height=".5"/>
  <g>
    <path class="cls-1" d="M12.83,110.8c-2.45,0-4.45-1.73-4.45-3.86v-63.68c0-1.25,1.18-2.26,2.62-2.26h27.36c1.45,0,2.62,1.01,2.62,2.26v5.62h68.31c2.45,0,4.45,1.73,4.45,3.86v54.2c0,2.13-2,3.86-4.45,3.86H12.83Z"/>
    <path class="cls-1" d="M38.36,41.25c1.31,0,2.37.9,2.37,2.01v5.87h68.56c2.32,0,4.2,1.62,4.2,3.61v54.2c0,1.99-1.88,3.61-4.2,3.61H12.83c-2.32,0-4.2-1.62-4.2-3.61v-63.68c0-1.11,1.06-2.01,2.37-2.01h27.36M38.36,40.75H11c-1.59,0-2.87,1.12-2.87,2.51v63.68c0,2.27,2.1,4.11,4.7,4.11h96.46c2.6,0,4.7-1.84,4.7-4.11v-54.2c0-2.27-2.1-4.11-4.7-4.11H41.23v-5.37c0-1.39-1.29-2.51-2.87-2.51h0Z"/>
  </g>
  <text class="cls-3" transform="translate(29.97 84.19)"><tspan x="0" y="0">EJEMPLO 1</tspan></text>
</svg>