<?xml version="1.0" encoding="UTF-8"?>
<svg id="Capa_1" data-name="Capa 1" xmlns="http://www.w3.org/2000/svg" viewBox="0 0 566.93 566.93">
  <defs>
    <style>
      .cls-1 {
        fill: #fff;
        stroke: #1d1d1b;
      }

      .cls-1, .cls-2 {
        stroke-linecap: round;
        stroke-linejoin: round;
        stroke-width: .75px;
      }

      .cls-2 {
        fill: #ff4e00;
        stroke: #ff4e00;
      }
    </style>
  </defs>
  <path class="cls-1" d="M314.87,397.67l51.8,14.39s-17.87,85.06-30.75,83.03l-19.96-5.51-1.09-91.91Z"/>
  <path class="cls-1" d="M415.51,107.21s-2.8,22.5-10.84,22.51l18.7,20.54s8.91-34.57,0-54.63l-7.86,11.58Z"/>
  <path class="cls-1" d="M115.57,187.43l38.27-14.15s-4.83,39.88,10.99,52.36c11.02,8.69,18.36-2.4,18.36-2.4l-25.69,62.3s-49.28-25.98-41.94-98.11Z"/>
  <line class="cls-1" x1="121.21" y1="200.87" x2="147.44" y2="187.19"/>
  <line class="cls-1" x1="124.37" y1="218.76" x2="148.18" y2="203.48"/>
  <line class="cls-1" x1="154.81" y1="229.41" x2="136.06" y2="249.56"/>
  <line class="cls-1" x1="149.67" y1="218.76" x2="129.58" y2="234.9"/>
  <path class="cls-1" d="M362.66,217.01c12.43-24.81,55.93-19.82,55.93-19.82l-19.79,25.76c-16.54-13.38-27.34-13.33-34.38-7.58-13.16,10.74-13.23,41.38-13.23,41.38l24.09-18.63s-5.56-12.79-4.2-26.03"/>
  <g>
    <path class="cls-1" d="M352.26,82.23s-.94,27.31-11.91,31.66c-10.97,4.34-19.06,2.7-19.06,2.7l40.38,48.25s29.68-35.18,23.56-65.64l-32.98-16.96Z"/>
    <line class="cls-1" x1="337.13" y1="121.1" x2="363.42" y2="150.41"/>
    <line class="cls-1" x1="353.3" y1="104.28" x2="378.4" y2="122.66"/>
    <line class="cls-1" x1="355.32" y1="91.05" x2="381.71" y2="107.63"/>
  </g>
  <line class="cls-1" x1="356.11" y1="247.06" x2="370.64" y2="235.96"/>
  <line class="cls-1" x1="357.13" y1="236.97" x2="368.47" y2="228.29"/>
  <line class="cls-1" x1="358.98" y1="227.26" x2="366.62" y2="221.42"/>
  <polygon class="cls-2" points="142.71 262.24 147.52 266.17 167.75 235.56 163.94 233.85 142.71 262.24"/>
  <polygon class="cls-2" points="121.71 213.71 122.73 221.17 142.06 208.47 142.06 203.48 121.71 213.71"/>
  <polygon class="cls-1" points="224.21 215.7 224.21 491.89 272.16 506.48 316.22 489.4 311.92 205.69 277.92 196.35 224.21 215.7"/>
  <polyline class="cls-1" points="224.21 201.4 273.76 215.39 312.75 191.56"/>
  <polygon class="cls-1" points="315.2 221.16 274.52 244.32 218.93 229.41 224.13 227.01 274.16 238.99 312.13 218.76 315.2 221.16"/>
  <polygon class="cls-1" points="224.87 253.09 210.53 257.65 270.95 272.86 312.53 245.63 273.48 266.02 224.87 253.09"/>
  <polygon class="cls-1" points="227.52 293.32 277.03 308.39 326.54 286.96 313.84 286.11 273.63 303.67 227.52 293.32"/>
  <polygon class="cls-1" points="314.64 207.73 273.7 229.41 212.48 218.75 252.18 198.99 303.14 198.99 314.64 207.73"/>
  <line class="cls-1" x1="224.87" y1="277.76" x2="252.28" y2="286.11"/>
  <line class="cls-1" x1="313.02" y1="274.63" x2="282.86" y2="288.44"/>
  <path class="cls-1" d="M224.21,313.09l-11.73,6.11,33.63,8.33s-19.89-5.83-20.89-10.13l-1-4.3Z"/>
  <line class="cls-1" x1="287.94" y1="248.17" x2="312.4" y2="234.97"/>
  <path class="cls-1" d="M221.06,191.56h3.84s4.61,13.36,32.96,22.23l-3.94,2.36s-22.83-8.56-32.86-24.59Z"/>
  <path class="cls-2" d="M371.41,97.98l.04,5.24,10.72,7.51s.09-3.64-.47-7.04l-10.3-5.7Z"/>
  <path class="cls-2" d="M348.42,111.84l-1.96,2.9,24.79,25.51s2.62-2.33,2.62-5.52l-25.44-22.89Z"/>
  <polygon class="cls-1" points="225.25 389.02 215.56 393.82 267.15 406.34 316.34 385.44 274.5 398.39 225.25 389.02"/>
  <path class="cls-1" d="M223.74,457.8l-11.73,4.86,33.63,6.62s-19.89-4.64-20.89-8.06l-1-3.42Z"/>
  <polygon class="cls-1" points="226.37 434.48 215.56 438.61 266.61 457.8 315.34 436.96 273.63 447.78 226.37 434.48"/>
  <polygon class="cls-1" points="229.27 366.49 276.73 376.32 331.1 356.44 314.67 354.51 273.63 367.91 246.11 362.85 229.27 366.49"/>
  <polyline class="cls-1" points="229.96 340.08 273.63 351.17 313.84 335.09"/>
  <line class="cls-1" x1="315.59" y1="463.65" x2="281.31" y2="476.8"/>
  <path class="cls-1" d="M143.14,435.32l32.93-16.56s.62,33.51,11.81,34.91c11.19,1.41,14.3-3.17,14.3-3.17l-33.58,50.98s-27.31-5.7-25.47-66.16Z"/>
  <line class="cls-1" x1="314.67" y1="412.89" x2="352.42" y2="422.07"/>
  <line class="cls-1" x1="315.15" y1="428.11" x2="348.68" y2="436.96"/>
  <line class="cls-1" x1="346.02" y1="452.59" x2="316.17" y2="442.96"/>
  <line class="cls-1" x1="149.52" y1="444.83" x2="172.62" y2="431.21"/>
  <line class="cls-1" x1="151.42" y1="460.12" x2="173.98" y2="443.67"/>
  <line class="cls-1" x1="156" y1="476.01" x2="179.46" y2="455.49"/>
  <path class="cls-1" d="M370.74,349.66s-1.3,29.13-16.56,33.77c-15.26,4.63-26.51,2.88-26.51,2.88l56.18,51.46s41.3-37.52,32.78-70.01l-45.88-18.09Z"/>
  <line class="cls-1" x1="349.71" y1="391.12" x2="386.28" y2="422.38"/>
  <line class="cls-1" x1="371.68" y1="367.67" x2="406.6" y2="387.26"/>
  <line class="cls-1" x1="367.79" y1="378.62" x2="402.01" y2="399.79"/>
  <line class="cls-1" x1="360.32" y1="385.44" x2="395.71" y2="411.54"/>
  <path class="cls-2" d="M395.71,367.15v5.42l16.65,8.94c.41-.46.68-4.16-.03-6.8l-16.62-7.56Z"/>
  <path class="cls-2" d="M190.41,458.83l-3.26-.24-25.45,27.07s2.97,3.5,5.08,4.09l23.62-30.92Z"/>
  <path class="cls-1" d="M210.53,185.03s32.56.8,48.53-11.45l44.98,14.87-46.16,31.02s-37.95-10.21-47.35-34.44Z"/>
  <path class="cls-1" d="M295.79,128.11s2.95,29.19-9.87,38.94c-12.82,9.75-23,11.84-23,11.84l56.83,31.7s31.17-51.05,19.08-80.21l-43.05-2.27Z"/>
  <path class="cls-1" d="M255.58,180.68s6.49,8.83,25.8,14.22"/>
  <line class="cls-1" x1="283.05" y1="176.16" x2="319.73" y2="194.57"/>
  <line class="cls-1" x1="299.15" y1="145.55" x2="332.74" y2="153.02"/>
  <line class="cls-1" x1="300.88" y1="135.94" x2="335.77" y2="140.92"/>
  <line class="cls-1" x1="291.62" y1="166.94" x2="326.54" y2="180.68"/>
  <path class="cls-1" d="M230.09,189.66s11.55,17.71,30.27,18.67"/>
  <path class="cls-1" d="M242.27,185.3s12.81,14.07,28.67,15.88"/>
  <polygon class="cls-2" points="299.15 154.18 296.3 160.09 329.21 170.43 331.23 162.51 299.15 154.18"/>
  <polygon class="cls-1" points="236.17 486.96 275.56 501.36 324.12 481.79 316.22 477.47 272.25 494.57 236.17 486.96"/>
  <path class="cls-1" d="M113.65,115.49s5.4,24.75,21.96,32.86c11.79,5.77,19.2,4.44,19.2,4.44l-22.76,44.76s-40.21-38.02-44.45-68.04l26.05-14.02Z"/>
</svg>