<?xml version="1.0" encoding="UTF-8"?>
<svg id="Capa_1" data-name="Capa 1" xmlns="http://www.w3.org/2000/svg" viewBox="0 0 662.36 550.28">
  <defs>
    <style>
      .cls-1 {
        fill: #00d6a3;
      }

      .cls-2 {
        fill: #080717;
      }

      .cls-3, .cls-4, .cls-5, .cls-6 {
        fill: #fff;
      }

      .cls-4, .cls-7, .cls-8, .cls-5, .cls-6 {
        stroke-miterlimit: 10;
        stroke-width: .5px;
      }

      .cls-4, .cls-8 {
        stroke: #000;
      }

      .cls-7 {
        stroke: #080717;
      }

      .cls-7, .cls-8 {
        fill: none;
      }

      .cls-5 {
        stroke: #1d1d1b;
      }

      .cls-6 {
        stroke: #020202;
      }
    </style>
  </defs>
  <polygon points="545.38 296.22 549.16 507.01 604.58 507.01 613.67 297.21 545.38 296.22"/>
  <path class="cls-5" d="M180.91,231.97l9.99,51.6,114.32,104.76,9.04,37.39s19.89,12.38,49.15.11l5.34-38,100.16-99.06,13.71-56.8"/>
  <ellipse cx="331.77" cy="233.97" rx="150.86" ry="27.74"/>
  <path class="cls-5" d="M190.91,283.57s113.65,63.32,278.01,5.2"/>
  <path class="cls-5" d="M198.58,172.3s38.7,1.21,47.16-9.07c0,0,.6,51.39,16.33,50.79,0,0-32.05,26.83-39.3,17.95,0,0-23.58.79-24.19-59.67Z"/>
  <path class="cls-5" d="M436.66,155.09s14.51,41.72-6.65,40.51l34.46,14.32s9.67-28.83,6.65-40.32l-34.46-14.51Z"/>
  <path class="cls-5" d="M334.02,196.7l27.21,2.42s10.28,48.98-4.84,48.98h-37.49s24.79-23.58,15.12-51.39Z"/>
  <path class="cls-5" d="M248.22,254.35s12.52,3.08,36.2,3.47c0,0-4.43-11.17,0-15.41,0,0-32.74,2.31-31-4.04,0,0-8.67,5.01-5.2,15.98Z"/>
  <path class="cls-5" d="M385.32,144.5s-14.29,18.05-32.48,11.02l35.11,35.11s32.37-23.71,19.27-49.8l-21.89,3.67Z"/>
  <path class="cls-5" d="M413.35,103.89s-4.97,17.19-21.01,16.81c-16.04-.38-22.16-3.82-22.16-3.82l29.72,32.09s30.26,5.73,34.47-6.49l-21.01-38.58Z"/>
  <path class="cls-5" d="M220.46,140.83l22.69,50.45s20.2-14.41,27.15-22.76l-20.36-46.68h-29.48s4.39,7.2,6.81,7.68c2.42.48-7.33,5.98-6.81,11.32Z"/>
  <path class="cls-5" d="M219.95,121.83s-5.45,10.5.5,18.49"/>
  <path class="cls-5" d="M297.69,163.23s3.22,28.5-4.65,27.4c0,0-3.51-2.07-2.83-6.15,0,0,25.03,6.98,27.76,5.28,0,0-2.35,4.04-.88,4.6.21.08.5.09.88,0,3.07-.68,13.45-17.92,10.9-28.63l-31.18-2.5Z"/>
  <path class="cls-5" d="M318.36,189.02l-28.14-4.54c-.08,4.49,2.83,6.15,2.83,6.15l24.05,3.72s-.76-2.31,1.27-5.33Z"/>
  <path class="cls-5" d="M145.94,88.39s27.78-6.61,29.32-17.21l26.2,41.51-15.52,23.91c-31.56-10.51-40-48.21-40-48.21Z"/>
  <path class="cls-5" d="M476.72,47.97s-19.43,43.75-32.22,43.67l26.53,27.73s37.9-25.75,37.9-41.94c0,0-31.75-10.98-32.22-29.46Z"/>
  <path class="cls-5" d="M314.51,435.1s-8.8,19.98-18.48,18.02l23.39,27.01s14.03-23.81,11.46-33.99l-16.37-11.04Z"/>
  <path class="cls-5" d="M350.53,433.11l-24.4,16.63s18.25,37.59,35.24,24.03l17.53-18.86s-30,.06-28.37-21.8Z"/>
  <path class="cls-1" d="M325.14,481.57s30.5-10.5,32-15.54c0,0-2.5,38.23,7.5,39.05l-28.83,21.23s-15.83-11.27-10.67-44.74Z"/>
  <g>
    <polygon class="cls-3" points="595.36 216.2 567.22 196.56 572.16 162.49 600.63 167.59 595.36 216.2"/>
    <path class="cls-2" d="M595.36,217.23c.14,0,.27-.03.4-.1.29-.15.48-.46.52-.81l5.27-48.61c.06-.55-.28-1.05-.77-1.14l-28.47-5.1c-.25-.04-.49.02-.69.18-.2.16-.33.4-.37.67l-4.94,34.07c-.06.41.11.82.42,1.04l28.14,19.64c.15.1.32.16.49.16ZM599.6,168.45l-4.99,46.01-26.38-18.41,4.7-32.38,26.67,4.78Z"/>
  </g>
  <path class="cls-2" d="M596.59,123.23s-15.66,9.72-18.94,7.43c-3.28-2.29-10.87-9.89-7.41-16.64,3.46-6.75,5.09-3.81,7.86-2.41,2.76,1.4,5.05-6.22,6.92-5.63,1.87.59,3.49,2.43,6.31,6.44,2.82,4.01,5.26,10.8,5.26,10.8Z"/>
  <path class="cls-5" d="M609.97,167.15c9.73-13.27,8.02-32.22-3.33-42.98-18.62-17.65-35.34-1.4-37.61,2.98-.53,1.03-1.05,2.02-1.55,2.97-1.02,1.49-1.9,3.05-2.65,4.66-2.03,3.22-4.04,5.42-6.39,5.8-3.59.59-6.6,30.06,13.34,31.95"/>
  <path class="cls-2" d="M612.24,120.05c-7.73-6.99-17.8-8.73-26.86-5.67,2.46,1.21,4.81,2.77,6.97,4.72,14.68,13.28,15.67,38.92,2.22,57.28-.75,1.02-1.53,1.99-2.33,2.92,8.76-.01,17.54-4.34,23.62-12.63,10.55-14.4,8.93-35.27-3.62-46.62Z"/>
  <path class="cls-2" d="M586.86,132.06c1.69-4.25,6.71-2.6,3.65-5.51-5.8-5.52-6.65-14.62-6.65-14.62,16.78-1.51,28.92,28.41,28.92,28.41l-10,34.59-3.9,7.7-7.94-2.43c-2.64-.81-4.49-3.42-4.58-6.46l-.46-15.86c.11.11.21.23.33.33,2.76,2.5,6.83,2.04,9.08-1.03,2.25-3.07,1.83-7.59-.93-10.09-2.76-2.5-6.83-2.04-9.08,1.03-.01.02-.02.04-.03.05-.8-.53-2.61-1.95-1.63-3.57,1.24-2.05,1.53-8.3,3.22-12.55Z"/>
  <path class="cls-2" d="M570.86,171.6l-1.58,10.9c4.45-1.12,8.62-3.84,11.72-8.08,1.24-1.7,2.23-3.53,2.98-5.44-4.02,2.43-8.64,3.32-13.12,2.61Z"/>
  <path class="cls-5" d="M619.76,314.3l-1.09-106.89c-3.46-9.65-11.94-15.91-21.29-15.72l-35.92.72c-7.1.24-14.05,2.39-20.25,6.26l-39.23,29.11-.4-17.21-32.12,1.58-9.64,29.73c-6.29,19.41,11.07,37.92,28.26,30.15l52.72-23.82-3.17,65.09,82.12.99Z"/>
  <polygon class="cls-5" points="562.92 201.56 565.88 183.43 601.31 185.38 605.93 199.91 562.92 201.56"/>
  <line class="cls-5" x1="464.96" y1="226.05" x2="501.9" y2="224.35"/>
  <circle class="cls-5" cx="473.06" cy="218.86" r="2.17"/>
  <g>
    <path class="cls-4" d="M469.46,212.16l9.46-18.45-.27-.05c-6.6-1.27-12.28-4.64-15.97-9.49l-5.17-6.78c-1.05-1.38.23-3.35,2.18-3.36h.28c1.74-.01,3.41.46,4.75,1.35l6.65,4.4,1.6-2.44-4.23-12.8-6.37-5.14c-1.13-.91-1.71-2.23-1.6-3.63l.02-.32c.09-1.17,1.54-1.94,2.69-1.44l4.06,1.78-.41-1.84c-.32-1.46,1.54-2.68,2.98-1.95l5.15,2.6-.21-1.86c-.16-1.48,1.85-2.49,3.1-1.56l4.31,3.21-.49-1.99c-.26-1.04-.02-2.16.66-3.1.89-1.23,2.41-2.01,4.01-2.06l.57-.02,12.27,32.97,1.88,30.58-31.91,1.35Z"/>
    <polyline class="cls-7" points="466.89 155.52 476.35 159.74 479.74 167.55"/>
    <polyline class="cls-7" points="475.11 154.55 482.14 158.08 484.97 164.31"/>
  </g>
  <path class="cls-5" d="M540.81,248.23l35.61-18.49s8.2-15.08-2.04-28.18"/>
  <path d="M562.24,502.26l32.21-4.68,6.04,25.67h-76.75s-14.85-7.25,38.5-20.99Z"/>
  <g>
    <path class="cls-2" d="M100.72,256.18c25.67,54.38,14.97,230.35,11.95,236.51-7.43,15.1-55.36,1.73-55.36,1.73l5-166.89s-29.16-14.08-2.62-69.96"/>
    <path class="cls-8" d="M114.63,122.19c-7.03-7.79-34.34-21.64-49.76-5.93-15.42,15.71-5.57,24.37-10.46,30.97-4.89,6.6-12.02,4.18-14.43,13.61-3.43,13.35,14.27,24.57,25.27,19.43"/>
    <path d="M113.15,142.51s12.68-14.08,5.56-22.5c-7.12-8.42-34.75-23.29-50.31-6.17-15.56,17.12-5.58,26.46-10.51,33.65-4.93,7.18-12.14,4.6-14.56,14.83-3.44,14.5,14.47,26.57,25.58,20.95,20.8-10.53,44.24-40.75,44.24-40.75Z"/>
    <path class="cls-6" d="M92.87,192.73l-4.07-1.17c-7.82-2.25-13.49-10.6-13.11-19.29l.99-22.82,21.36,6.16-1.49,34.23c-.09,2.1-1.8,3.44-3.69,2.9Z"/>
    <path class="cls-6" d="M82.7,152.57c10.57,8.38,21.47,8.22,21.47,8.22,2.79.02,5.43-.65,7.71-1.95h0c7.75-4.43,9.46-14.99,3.84-23.67l-7.67-11.85c-4.31-6.65-11.9-10.5-18.99-9.62h0v.26c-.37,11.73-5.46,22.07-14.15,28.69h0l7.79,9.93Z"/>
    <path class="cls-3" d="M67.3,141.51c1.46,4,5.7,6.55,9.47,5.71,3.77-.84,5.65-4.77,4.19-8.76-1.46-4-5.7-6.55-9.47-5.71-3.77.84-5.65,4.77-4.19,8.76Z"/>
    <path class="cls-8" d="M69.55,141.03s-1.22-6.08,5.12-5.74"/>
    <path class="cls-5" d="M75.81,169.42l14.77,22.68,6.99-19.05,4.63,1.46-2.37,26.63-7.68-5.4s-5.89,8.86-6.38,8.13c-.49-.73-16.4-32.7-16.4-32.7l6.44-1.75Z"/>
    <ellipse class="cls-5" cx="76.42" cy="146.25" rx="2.75" ry="2.67" transform="translate(-37.54 26.91) rotate(-16.09)"/>
    <path class="cls-5" d="M56.17,243.48s-19-71.01,23.31-74.06c23.7-1.71,46.34,20.76,58.08,27.92,7.51,4.58,14.66,15.13,47.25-7.02l9.82,11.6s-15.66,51.77-89.61,10.55c0,0-9.78,45.67-1.92,49.22,7.87,3.56-41.42,8.81-44.79-7.2-2.82-13.4-2.14-11.01-2.14-11.01Z"/>
    <path class="cls-5" d="M71.11,171.14l5.31-5.8,21.07,2.9,4.71,6.27s-26.56,1.61-31.09-3.37Z"/>
    <path class="cls-5" d="M105.01,212.47s-22.69-14.54-23.12-16.23c-6.2-23.98,20.31-21.73,20.31-21.73"/>
    <path class="cls-2" d="M65.31,494.42v17.26h14.56l3.09-3.75,4.12,3.75h41.53s-8.92-14.04-25.06-17.26"/>
    <g>
      <path class="cls-4" d="M193.28,204.77l1.34-2.85h0c3.55,2.4,6.73,2.67,11.42,1.68l6.57-1.39c1.34-.28,2.1-1.99,1.3-2.92l-.11-.13c-.71-.83-1.71-1.35-2.84-1.48l-10.66-1.75,6.21-3.46,9.89-2.8,5.98.11c1.06.02,2.17-.45,3.04-1.29l.2-.19c.73-.7.64-1.82-.17-2.08l-2.84-.91,1.37-.84c1.09-.67,1.12-2.24.05-2.51l-3.82-.96,1.3-.95c1.03-.76.87-2.28-.26-2.34l-9.79,2,7.42-3.12c.79-.46,1.42-1.21,1.76-2.06.44-1.11.33-2.27-.3-3.05l-.22-.28-26.64,12.81-8.68,6.33,8.47,14.45Z"/>
      <polyline class="cls-7" points="223.08 185.45 216.42 183.36 209.92 186.16"/>
      <polyline class="cls-7" points="220.33 181.01 215.12 179.69 209.88 181.87"/>
    </g>
    <line class="cls-4" x1="179.12" y1="194.01" x2="189.1" y2="212.6"/>
    <ellipse class="cls-4" cx="189.1" cy="204.39" rx="1.66" ry="1.65"/>
  </g>
</svg>