<?xml version="1.0" encoding="UTF-8"?>
<svg id="Capa_1" data-name="Capa 1" xmlns="http://www.w3.org/2000/svg" viewBox="0 0 167.95 140.91">
  <defs>
    <style>
      .cls-1 {
        fill: #fcdbe8;
      }

      .cls-1, .cls-2 {
        stroke: #1d1d1b;
        stroke-width: .5px;
      }

      .cls-3 {
        fill: #df1d61;
      }

      .cls-2 {
        fill: #fff;
      }
    </style>
  </defs>
  <rect class="cls-2" x="22.16" y="34.47" width="128.26" height="84.38"/>
  <rect class="cls-2" x="19.81" y="31.5" width="128.26" height="84.38"/>
  <rect class="cls-1" x="19.81" y="31.5" width="128.26" height="18.61"/>
  <path class="cls-3" d="M104.54,78.71l-.31,1.88-18.68-3.1.32-1.91-4.15-.69c-.64-3.46-2.29-6.76-4.97-9.42-6.99-6.95-18.3-6.91-25.25.08-6.95,6.99-6.91,18.3.08,25.25,6.99,6.95,18.3,6.91,25.25-.08,1.16-1.17,2.13-2.47,2.9-3.84l4.15.69.36-2.17,19.29,3.2-1.2,7.25,3.69.61.86-5.16,7.4,1.23-.86,5.16,5.18.86,2.66-15.13.31-1.88-17.03-2.82ZM66.96,89.46c-6.36,1.57-12.8-2.31-14.38-8.67s2.31-12.8,8.67-14.38c6.36-1.57,12.8,2.31,14.38,8.67,1.57,6.36-2.31,12.8-8.67,14.38Z"/>
</svg>