<?xml version="1.0" encoding="UTF-8"?>
<svg id="Capa_1" data-name="Capa 1" xmlns="http://www.w3.org/2000/svg" viewBox="0 0 566.93 566.93">
  <defs>
    <style>
      .cls-1 {
        fill: #1d1d1b;
      }

      .cls-2 {
        fill: #ffd008;
      }
    </style>
  </defs>
  <path d="M183.52,509.89c-40.84,0-81.37-17.55-109.3-51.47-24.01-29.16-35.23-65.93-31.58-103.52s21.71-71.53,50.87-95.54c29.36-24.17,66.34-35.35,104.19-31.49-.94-24.7,3.75-49.68,13.6-72.28,10.41-23.88,25.95-44.44,46.2-61.11,33.91-27.92,76.67-40.97,120.4-36.73,43.73,4.24,83.19,25.25,111.11,59.16,27.92,33.92,40.97,76.67,36.73,120.4s-25.25,83.19-59.16,111.11c-20.25,16.67-43.41,27.98-68.84,33.6-24.06,5.33-49.48,5.14-73.54-.53-3.49,37.88-21.55,72.03-50.91,96.2-26.28,21.64-58.12,32.18-89.76,32.18ZM183.08,228.12c-32.43,0-63.55,11.11-88.93,32.01-28.96,23.84-46.89,57.53-50.51,94.86-3.62,37.33,7.52,73.84,31.36,102.79,49.21,59.77,137.88,68.36,197.65,19.15,29.3-24.12,47.27-58.25,50.6-96.09l.05-.58.56.13c24.08,5.76,49.55,5.99,73.66.66,25.27-5.59,48.29-16.83,68.42-33.4,33.71-27.75,54.59-66.97,58.8-110.43,4.21-43.46-8.76-85.96-36.51-119.67-27.75-33.71-66.97-54.59-110.43-58.8-43.47-4.21-85.96,8.76-119.67,36.51-20.12,16.57-35.57,37-45.91,60.73-9.86,22.63-14.53,47.67-13.5,72.41l.02.58-.58-.06c-5.05-.53-10.09-.8-15.09-.8Z"/>
  <g>
    <circle class="cls-2" cx="361.75" cy="219.38" r="133.35"/>
    <path class="cls-1" d="M361.99,353.24c-4.36,0-8.75-.21-13.15-.64-35.59-3.45-67.7-20.55-90.43-48.15-22.73-27.6-33.34-62.4-29.9-97.99,3.45-35.59,20.55-67.7,48.15-90.43,56.98-46.91,141.5-38.72,188.42,18.25,22.73,27.6,33.34,62.4,29.9,97.99-3.45,35.59-20.55,67.7-48.15,90.43l-.32-.39.32.39c-24.19,19.92-53.91,30.53-84.84,30.53ZM361.63,86.58c-29.73,0-59.63,9.9-84.33,30.23-27.39,22.56-44.37,54.43-47.79,89.75-3.42,35.32,7.12,69.86,29.67,97.26s54.43,44.37,89.75,47.79c35.32,3.42,69.86-7.11,97.26-29.67,27.4-22.56,44.37-54.43,47.79-89.75,3.42-35.32-7.12-69.86-29.67-97.26-26.23-31.86-64.32-48.35-102.68-48.35Z"/>
  </g>
  <path d="M213.39,413.35l-66.86-81.2.39-.32,80.82-66.54,66.86,81.2-.39.32-80.81,66.54ZM147.94,332.29l65.59,79.66,79.66-65.59-65.58-79.66-79.66,65.59Z"/>
  <path d="M237.94,393.23l-66.9-81.25,27.26-22.44,66.9,81.25-27.26,22.44ZM172.45,312.11l65.63,79.71,25.71-21.17-65.63-79.71-25.71,21.17Z"/>
  <path d="M266.97,314.23l-.36-.93c1.03-.39,103.55-39.61,122.21-50.42,12.04-6.98,13.75-14.75,13.08-20.04-1.04-8.08-8.7-15.87-18.23-18.5-4.11-1.14-9.43-1.25-15.12-.43-5.75,11.35-16.63,21.95-27.07,27.73-7.05,3.9-11.26,4.84-12.88,2.86-2.35-2.86,2.32-10.49,5.81-14.63,7.65-9.06,21.36-14.99,33.52-16.85,4.09-8.29,5.32-16.93,1.4-24.28-1.25-2.34-6.07-10.08-15.61-11.25-9.03-1.11-19.25,4.33-29.57,15.74-16.57,18.32-73.88,88.08-74.46,88.79l-.77-.63c.58-.7,57.9-70.48,74.49-88.82,10.55-11.66,21.06-17.21,30.43-16.06,10.02,1.23,15.06,9.33,16.37,11.78,3.98,7.46,2.86,16.2-1.14,24.59,5.6-.74,10.81-.6,14.87.52,9.9,2.74,17.87,10.87,18.95,19.34,1.01,7.9-3.8,15.37-13.57,21.03-18.73,10.85-121.32,50.1-122.35,50.49ZM367.38,224.08c-11.74,1.93-24.83,7.69-32.21,16.42-4.11,4.86-7.42,11.39-5.8,13.35.71.86,3.15,1.6,11.63-3.1,10.1-5.6,20.66-15.76,26.38-26.67Z"/>
</svg>