<?xml version="1.0" encoding="UTF-8"?>
<svg id="Capa_1" data-name="Capa 1" xmlns="http://www.w3.org/2000/svg" viewBox="0 0 566.93 566.93">
  <defs>
    <style>
      .cls-1 {
        fill: #fff;
      }

      .cls-2 {
        fill: #b564b5;
      }
    </style>
  </defs>
  <g>
    <path class="cls-1" d="M41.52,459.17s62.18-228.2,148.13-213.11c38.12,6.69,105.55,85.03,94.99,122.27-17.71,62.42-113.24,137.68-243.12,90.84Z"/>
    <path d="M121.15,474.3c-26.01,0-52.79-4.91-79.8-14.66l-.43-.16.12-.45c.16-.57,15.86-57.72,41.87-112.3,15.29-32.07,31.09-57,46.98-74.09,19.94-21.44,40.07-30.56,59.86-27.08,23.03,4.04,58.2,34.52,80.07,69.39,13.54,21.58,18.97,40.58,15.31,53.51-9.38,33.07-38.82,65.73-76.82,85.24-22.91,11.76-47.99,18.56-74.55,20.2-4.18.26-8.38.39-12.6.39ZM42.13,458.86c31.12,11.17,61.92,15.89,91.56,14.05,26.41-1.64,51.36-8.4,74.15-20.1,37.77-19.38,67.01-51.8,76.32-84.62,3.59-12.65-1.81-31.37-15.19-52.71-21.38-34.08-57-65-79.4-68.93-19.42-3.41-39.26,5.6-58.95,26.77-15.82,17.01-31.56,41.85-46.8,73.83-24.76,51.94-40.17,106.24-41.69,111.7Z"/>
  </g>
  <g>
    <path class="cls-1" d="M73.77,435.29s42.97-165.25,104.44-150.24c26.51,6.47,74.41,59.95,66.97,86.2-12.48,44.01-90.88,99.77-171.4,64.04Z"/>
    <path d="M126.86,447.16c-18.1,0-36.13-3.8-53.29-11.41l-.39-.17.11-.41c.11-.41,10.97-41.81,29.2-80.84,10.72-22.95,21.86-40.6,33.11-52.48,14.15-14.94,28.52-20.75,42.73-17.29,17.54,4.28,44.54,28.83,58.97,53.6,5.46,9.37,11.33,22.73,8.36,33.22-6.74,23.75-30.91,48.39-61.59,62.77-18.48,8.66-37.88,13-57.22,13ZM74.37,435c35.11,15.45,73.91,14.83,109.28-1.75,29.96-14.04,54.49-39.02,61.05-62.14,2.28-8.04-.58-19.26-8.26-32.45-14.07-24.15-41.33-48.98-58.34-53.13-31.42-7.68-57.96,33.4-74.69,69.21-17.22,36.86-27.86,75.85-29.03,80.27Z"/>
  </g>
  <g>
    <path class="cls-1" d="M309.78,156.23s-144.73-76.9-210.42,40.79c5.1-3.61,86.2.75,88.73,65.05"/>
    <path d="M187.59,262.08c-1.22-30.85-20.88-46.87-37.16-54.88-22.91-11.27-48.33-11.51-50.78-9.78l-1.8,1.28,1.08-1.93c15.04-26.94,35.51-45.87,60.84-56.24,20.25-8.29,43.64-11.17,69.49-8.54,43.98,4.47,80.4,23.6,80.76,23.79l-.47.88c-.36-.19-36.63-19.24-80.42-23.69-25.69-2.61-48.9.24-69,8.48-24.74,10.13-44.81,28.51-59.67,54.62,6.43-1.5,29.83.1,50.41,10.22,16.53,8.13,36.48,24.4,37.72,55.74l-1,.04Z"/>
  </g>
  <g>
    <path class="cls-1" d="M410.05,285.3s38.72,159.25-91.55,193.8c4.76-4.04,20.58-83.7-41.08-102.06"/>
    <path d="M316.49,480.16l1.69-1.43c2.29-1.94,8.34-26.64,3.08-51.62-3.74-17.76-14.4-40.77-43.99-49.58l.29-.96c30.06,8.95,40.89,32.31,44.68,50.33,4.72,22.45.48,45.51-2.56,51.37,28.97-7.94,51.74-22.84,67.67-44.31,12.95-17.44,21.45-39.23,25.28-64.76,6.52-43.53-2.97-83.38-3.06-83.78l.97-.24c.1.4,9.63,40.41,3.08,84.14-3.85,25.71-12.41,47.65-25.46,65.22-16.31,21.98-39.71,37.13-69.54,45.04l-2.14.57Z"/>
  </g>
  <g>
    <path class="cls-1" d="M227.67,457.74l-128.89-165.92,73.85-77.69c88.98-93.61,218.66-136.88,346.03-115.46h0s0,0,0,0c-10.74,128.71-84.74,243.66-197.44,306.73l-93.54,52.34Z"/>
    <path d="M227.54,458.39l-.26-.34-129.15-166.25,74.14-78c89.23-93.87,218.75-137.09,346.47-115.61l.45.08-.04.46c-10.77,129.07-84.67,243.88-197.7,307.12l-93.91,52.55ZM99.44,291.86l128.36,165.24,93.16-52.13c112.6-63.01,186.28-177.32,197.15-305.87-127.25-21.25-256.23,21.87-345.13,115.39l-73.55,77.38Z"/>
  </g>
  <g>
    <circle class="cls-2" cx="300.81" cy="268.71" r="76.76"/>
    <path d="M300.72,345.97c-19.02,0-37.14-6.91-51.43-19.69-15.38-13.76-24.47-32.69-25.62-53.29-1.14-20.6,5.81-40.42,19.57-55.8,28.41-31.74,77.35-34.45,109.09-6.04,15.38,13.76,24.47,32.69,25.62,53.29,1.14,20.6-5.81,40.42-19.57,55.8-13.76,15.38-32.69,24.47-53.29,25.61-1.46.08-2.92.12-4.37.12ZM300.86,192.48c-20.95,0-41.82,8.56-56.86,25.37-13.58,15.18-20.45,34.74-19.32,55.07,1.13,20.34,10.11,39.02,25.28,52.6,15.18,13.58,34.73,20.45,55.08,19.32,20.34-1.13,39.02-10.11,52.6-25.28,13.58-15.18,20.45-34.74,19.32-55.07-1.13-20.34-10.11-39.02-25.28-52.6-14.53-13-32.71-19.4-50.82-19.4Z"/>
  </g>
  <path d="M471.27,251.25c-57-15.1-84.79-53.98-98.06-83.93-14.37-32.43-15.28-61.69-15.29-61.98l1-.03c0,.29.92,29.38,15.22,61.63,13.18,29.74,40.78,68.33,97.39,83.33l-.26.97Z"/>
</svg>