<?xml version="1.0" encoding="UTF-8"?>
<svg id="Capa_1" data-name="Capa 1" xmlns="http://www.w3.org/2000/svg" viewBox="0 0 566.93 566.93">
  <defs>
    <style>
      .cls-1 {
        fill: #008cf4;
      }

      .cls-2 {
        fill: #fff;
      }
    </style>
  </defs>
  <g>
    <polyline class="cls-2" points="499.43 240.3 499.43 374.89 252.64 464.48 48.63 349.59 46.07 223.75"/>
    <path d="M252.64,464.97c-.08,0-.17-.02-.25-.06l-204-114.89c-.15-.09-.25-.25-.25-.43l-2.56-125.83,1-.02,2.56,125.55,203.55,114.64,246.25-89.39v-134.24h1v134.59c0,.21-.13.4-.33.47l-246.8,89.59c-.06.02-.11.03-.17.03Z"/>
  </g>
  <g>
    <polygon class="cls-2" points="252.64 326.97 46.07 223.75 280.62 161.84 499.43 240.3 252.64 326.97"/>
    <path d="M252.64,327.47c-.08,0-.15-.02-.22-.05L45.85,224.2c-.19-.09-.29-.29-.27-.5s.17-.38.37-.43l234.55-61.91c.1-.03.2-.02.3.01l218.81,78.46c.2.07.33.26.33.47,0,.21-.13.4-.33.47l-246.8,86.66c-.05.02-.11.03-.17.03ZM47.48,223.9l205.19,102.53,245.27-86.13-217.34-77.94-233.12,61.54Z"/>
  </g>
  <path d="M252.64,464.97c-.28,0-.5-.22-.5-.5v-137.51c0-.28.22-.5.5-.5s.5.22.5.5v137.51c0,.28-.22.5-.5.5Z"/>
  <g>
    <g>
      <path class="cls-1" d="M431.92,192.23v43.38c0,11.98-23.91,21.69-53.4,21.69s-53.4-9.71-53.4-21.69v-43.38"/>
      <path d="M378.52,257.8c-29.72,0-53.9-9.95-53.9-22.19v-43.38h1v43.38c0,11.68,23.73,21.19,52.9,21.19s52.9-9.51,52.9-21.19v-43.38h1v43.38c0,12.23-24.18,22.19-53.9,22.19Z"/>
    </g>
    <g>
      <ellipse class="cls-1" cx="378.52" cy="192.23" rx="53.4" ry="21.69"/>
      <path d="M378.52,214.42c-29.72,0-53.9-9.95-53.9-22.19s24.18-22.19,53.9-22.19,53.9,9.95,53.9,22.19-24.18,22.19-53.9,22.19ZM378.52,171.04c-29.17,0-52.9,9.51-52.9,21.19s23.73,21.19,52.9,21.19,52.9-9.51,52.9-21.19-23.73-21.19-52.9-21.19Z"/>
    </g>
  </g>
  <g>
    <g>
      <path class="cls-1" d="M321.41,148.86v43.38c0,11.98-23.91,21.69-53.4,21.69s-53.4-9.71-53.4-21.69v-43.38"/>
      <path d="M268.01,214.42c-29.72,0-53.9-9.95-53.9-22.19v-43.38h1v43.38c0,11.68,23.73,21.19,52.9,21.19s52.9-9.51,52.9-21.19v-43.38h1v43.38c0,12.23-24.18,22.19-53.9,22.19Z"/>
    </g>
    <g>
      <ellipse class="cls-1" cx="268.01" cy="148.86" rx="53.4" ry="21.69"/>
      <path d="M268.01,171.04c-29.72,0-53.9-9.95-53.9-22.19s24.18-22.19,53.9-22.19,53.9,9.95,53.9,22.19-24.18,22.19-53.9,22.19ZM268.01,127.67c-29.17,0-52.9,9.51-52.9,21.19s23.73,21.19,52.9,21.19,52.9-9.51,52.9-21.19-23.73-21.19-52.9-21.19Z"/>
    </g>
  </g>
  <g>
    <g>
      <path class="cls-1" d="M320.48,241.32v43.38c0,11.98-23.91,21.69-53.4,21.69s-53.4-9.71-53.4-21.69v-43.38"/>
      <path d="M267.08,306.89c-29.72,0-53.9-9.95-53.9-22.19v-43.38h1v43.38c0,11.68,23.73,21.19,52.9,21.19s52.9-9.51,52.9-21.19v-43.38h1v43.38c0,12.23-24.18,22.19-53.9,22.19Z"/>
    </g>
    <g>
      <ellipse class="cls-1" cx="267.08" cy="241.32" rx="53.4" ry="21.69"/>
      <path d="M267.08,263.51c-29.72,0-53.9-9.95-53.9-22.19s24.18-22.19,53.9-22.19,53.9,9.95,53.9,22.19-24.18,22.19-53.9,22.19ZM267.08,220.13c-29.17,0-52.9,9.51-52.9,21.19s23.73,21.19,52.9,21.19,52.9-9.51,52.9-21.19-23.73-21.19-52.9-21.19Z"/>
    </g>
  </g>
  <g>
    <g>
      <path class="cls-1" d="M210.91,193.35v43.38c0,11.98-23.91,21.69-53.4,21.69s-53.4-9.71-53.4-21.69v-43.38"/>
      <path d="M157.51,258.92c-29.72,0-53.9-9.95-53.9-22.19v-43.38h1v43.38c0,11.68,23.73,21.19,52.9,21.19s52.9-9.51,52.9-21.19v-43.38h1v43.38c0,12.24-24.18,22.19-53.9,22.19Z"/>
    </g>
    <g>
      <ellipse class="cls-1" cx="157.51" cy="193.35" rx="53.4" ry="21.69"/>
      <path d="M157.51,215.54c-29.72,0-53.9-9.95-53.9-22.19s24.18-22.19,53.9-22.19,53.9,9.95,53.9,22.19-24.18,22.19-53.9,22.19ZM157.51,172.16c-29.17,0-52.9,9.51-52.9,21.19s23.73,21.19,52.9,21.19,52.9-9.51,52.9-21.19-23.73-21.19-52.9-21.19Z"/>
    </g>
  </g>
</svg>