<?xml version="1.0" encoding="UTF-8"?>
<svg id="Capa_1" data-name="Capa 1" xmlns="http://www.w3.org/2000/svg" viewBox="0 0 566.93 566.93">
  <defs>
    <style>
      .cls-1 {
        fill: #00d6a3;
      }

      .cls-2 {
        fill: #1d1d1b;
      }

      .cls-3 {
        fill: #fff;
      }
    </style>
  </defs>
  <g>
    <circle class="cls-3" cx="276.5" cy="131.95" r="32.24"/>
    <path class="cls-2" d="M276.55,164.69c-.9,0-1.81-.04-2.72-.11-8.72-.71-16.63-4.78-22.29-11.44-11.68-13.76-9.99-34.47,3.77-46.15,13.76-11.68,34.47-9.99,46.15,3.77h0c5.66,6.67,8.38,15.14,7.67,23.86-.71,8.72-4.78,16.63-11.44,22.29-5.97,5.07-13.39,7.78-21.14,7.78ZM276.48,100.22c-7.26,0-14.56,2.47-20.52,7.53-13.34,11.33-14.98,31.4-3.66,44.74,5.49,6.46,13.16,10.4,21.61,11.09,8.44.69,16.66-1.95,23.13-7.44,6.46-5.49,10.4-13.16,11.09-21.61.69-8.45-1.95-16.66-7.44-23.13-6.27-7.38-15.22-11.19-24.22-11.19Z"/>
  </g>
  <g>
    <circle class="cls-3" cx="322.47" cy="458.37" r="35.52"/>
    <path class="cls-2" d="M322.4,494.4c-7.25,0-14.32-2.19-20.42-6.41-7.91-5.47-13.22-13.7-14.95-23.17-1.72-9.47.34-19.04,5.81-26.95,5.47-7.91,13.7-13.22,23.17-14.95,19.55-3.56,38.33,9.44,41.9,28.98,1.72,9.47-.34,19.04-5.81,26.95-5.47,7.91-13.7,13.22-23.17,14.95-2.18.4-4.37.59-6.54.59ZM322.49,423.34c-2.08,0-4.18.19-6.29.57-9.2,1.68-17.2,6.84-22.52,14.53-5.32,7.69-7.33,17-5.65,26.2,1.68,9.2,6.84,17.2,14.53,22.52,7.69,5.32,17,7.33,26.2,5.65,9.2-1.68,17.2-6.84,22.52-14.53,5.32-7.69,7.33-17,5.65-26.2-3.08-16.88-17.85-28.75-34.44-28.75Z"/>
  </g>
  <g>
    <path class="cls-1" d="M183.25,270.13c10.46-55.48,11.8-98.15,2.16-100.37-9.13-2.11-25.3,32.69-39.64,82.63-35.67-37.78-66.02-61.26-73.16-55.2-7.36,6.25,12.26,41.92,45.53,84.97-53.03,12.2-90.81,27.35-89.08,36.85,1.77,9.74,44.46,10.38,100.36,2.5-10.46,55.48-11.8,98.15-2.16,100.37,9.13,2.11,25.3-32.69,39.63-82.63,35.67,37.78,66.02,61.26,73.16,55.2,7.36-6.25-12.26-41.92-45.53-84.97,53.03-12.2,90.81-27.35,89.08-36.85-1.77-9.74-44.46-10.38-100.36-2.5Z"/>
    <path class="cls-2" d="M128.05,422.47c-.31,0-.6-.03-.9-.1-6.25-1.44-7.17-17.5-6.85-30.72.44-17.99,3.46-42.67,8.5-69.55-27.09,3.79-51.88,5.66-69.87,5.26-13.22-.29-29.22-1.96-30.37-8.26-2.02-11.1,42.96-26.67,88.7-37.25-28.66-37.18-53.58-77.74-44.98-85.04,7.28-6.17,35.99,15.24,73.25,54.6,15.01-52.07,30.68-84.28,39.99-82.14,6.25,1.44,7.17,17.5,6.85,30.72-.44,17.99-3.46,42.67-8.5,69.55,27.09-3.79,51.87-5.66,69.87-5.27,13.22.29,29.22,1.96,30.37,8.26,2.02,11.1-42.96,26.67-88.7,37.25,28.66,37.18,53.58,77.74,44.98,85.04-7.27,6.17-35.99-15.24-73.25-54.6-14.54,50.43-29.7,82.24-39.09,82.24ZM130.04,320.92l-.13.69c-10.51,55.74-11.58,97.71-2.54,99.79,8.52,1.97,24.57-31.87,39.04-82.28l.24-.84.6.64c36.01,38.13,65.8,60.82,72.47,55.16,6.94-5.9-11.81-40.55-45.6-84.28l-.48-.62.76-.18c53.86-12.39,90.33-27.31,88.7-36.27-1.66-9.13-43.63-10.01-99.8-2.09l-.69.1.13-.69c10.51-55.74,11.58-97.71,2.54-99.79-8.55-1.97-24.57,31.87-39.04,82.28l-.24.84-.6-.64c-36.01-38.14-65.8-60.81-72.47-55.16-6.95,5.9,11.81,40.55,45.6,84.28l.48.62-.76.18c-53.86,12.39-90.33,27.31-88.7,36.27,1.66,9.13,43.64,10.01,99.8,2.09l.69-.1Z"/>
  </g>
  <g>
    <path class="cls-3" d="M462.51,339.49c-4.53,3.84-13.62,7.46-30.27.21-26.22-11.41-60.01-44.08-71.32-82.26-36.54,31.51-67.71,114.69-78.22,150.34-1.34,4.52-6.09,7.12-10.62,5.78-4.53-1.33-7.12-6.09-5.78-10.62,4.34-14.72,39.21-128.36,91.04-164.19-.4-4.75-.41-9.54.03-14.36,3.15-34.65,30.88-81.54,145.04-108.14,4.6-1.07,9.19,1.79,10.26,6.38,1.07,4.6-1.78,9.21-6.39,10.27-79.39,18.49-124.79,49.13-131.32,88.59-.48,2.91-.74,5.83-.8,8.75,2.98-.95,6.01-1.62,9.08-1.98,24.94-2.94,48.37,14.34,69.64,51.38,16.67,29.03,20.36,48.08,11.26,58.25-.46.52-1,1.06-1.63,1.59ZM376.1,247.7c7.18,30.48,32.81,58.4,53.62,71.34,13.1,8.15,20.5,8.3,21.71,7.44.03-.04,4.32-7.51-13.37-38.31-17.54-30.54-35.31-44.98-52.81-42.91-3.06.36-6.12,1.19-9.15,2.45Z"/>
    <path class="cls-2" d="M274.5,414.41c-.85,0-1.7-.12-2.55-.37-4.78-1.41-7.53-6.45-6.12-11.24,3.83-13.01,38.93-128.02,91-164.3-.39-4.76-.37-9.52.05-14.15,3.17-34.81,30.97-81.91,145.42-108.58,2.35-.55,4.78-.15,6.83,1.13,2.05,1.28,3.48,3.28,4.03,5.63.55,2.36.15,4.79-1.13,6.85-1.28,2.05-3.28,3.48-5.63,4.02-79.17,18.44-124.45,48.93-130.94,88.19-.43,2.59-.69,5.28-.78,7.99,2.84-.86,5.7-1.46,8.51-1.79,25.14-2.97,48.75,14.4,70.13,51.63,16.79,29.24,20.46,48.49,11.2,58.83-.52.58-1.08,1.13-1.68,1.64h0c-4.86,4.13-14.15,7.53-30.79.29-26.06-11.34-59.8-43.81-71.38-81.83-15.57,13.69-32.21,38.89-48.16,72.94-13.37,28.54-23.91,58.31-29.32,76.65-1.16,3.93-4.78,6.49-8.68,6.49ZM504.36,116.53c-.61,0-1.23.07-1.84.21-113.87,26.53-141.51,73.21-144.65,107.7-.43,4.67-.43,9.47-.03,14.27.02.18-.07.35-.21.45-51.92,35.9-87.01,150.93-90.84,163.92-1.25,4.26,1.19,8.74,5.45,10,4.25,1.25,8.74-1.19,10-5.44,5.42-18.37,15.98-48.2,29.38-76.79,16.44-35.1,32.93-59.93,49-73.79.13-.11.3-.15.47-.1.16.05.29.18.34.34,11.28,38.06,45.02,70.62,71.04,81.94,16.16,7.03,25.1,3.81,29.74-.14h0c.56-.48,1.1-1,1.58-1.54,8.94-9.98,5.23-28.84-11.32-57.66-21.16-36.85-44.44-54.04-69.15-51.13-2.96.35-5.99,1.01-8.99,1.96-.15.05-.32.02-.45-.08-.13-.1-.2-.25-.2-.41.06-2.99.33-5.96.81-8.83,6.57-39.68,52.11-70.46,131.7-89,2.09-.48,3.87-1.75,5-3.57,1.14-1.83,1.5-3.99,1.01-6.09-.49-2.09-1.76-3.87-3.58-5.01-1.29-.8-2.75-1.22-4.24-1.22ZM462.51,339.49h0,0ZM449.53,327.32c-3.38,0-10.19-1.71-20.08-7.86-20.86-12.98-46.6-40.94-53.84-71.65-.06-.24.07-.48.3-.58,3.12-1.29,6.25-2.12,9.28-2.48,17.72-2.09,35.65,12.43,53.3,43.16,17.92,31.2,13.39,38.79,13.34,38.86-.03.04-.07.08-.11.11-.37.26-1.1.44-2.19.44ZM376.69,248c7.31,30.27,32.7,57.8,53.29,70.62,13.33,8.3,20.05,7.96,21.07,7.5.31-.77,2.99-9.12-13.43-37.7-17.43-30.35-35.02-44.7-52.31-42.67-2.82.33-5.72,1.09-8.62,2.25Z"/>
  </g>
</svg>