<svg version="1.2" xmlns="http://www.w3.org/2000/svg" viewBox="0 0 160 134" width="160" height="134">
	<title>PORTADA F1</title>
	<defs>
		<clipPath clipPathUnits="userSpaceOnUse" id="cp1">
			<path d="m-227.57-229.45h631.59v748.4h-631.59z"/>
		</clipPath>
		<clipPath clipPathUnits="userSpaceOnUse" id="cp2">
			<path d="m-227.57-229.45h631.59v748.4h-631.59z"/>
		</clipPath>
	</defs>
	<style>
		tspan { white-space:pre } 
		.t0 { font-size: 200px;fill: #1d1d1b;font-weight: 300;font-family: "Forma DJ RBanner" } 
		.t1 { font-size: 22px;fill: #1d1d1b;font-weight: 300;font-family: "Forma DJ RBanner" } 
		.s2 { fill: #00d6a3 } 
		.s3 { fill: none;stroke: #ffffff;stroke-miterlimit:10 } 
	</style>
	<text id="  EX " style="transform: matrix(1,0,0,1,-207.37,-33.65)" >
		<tspan x="0" y="0" class="t0">  EX 
</tspan>
	</text>
	<g>
		<text id="P" style="transform: matrix(1,0,0,1,-207.37,136.35)" >
			<tspan x="0" y="0" class="t0">P
</tspan>
		</text>
		<text id="L" style="transform: matrix(1,0,0,1,-112.37,136.35)" >
			<tspan x="0" y="0" class="t0">L
</tspan>
		</text>
		<text id="" style="transform: matrix(1,0,0,1,-46.57,136.35)" >
		</text>
	</g>
	<g>
		<text id="     " style="transform: matrix(1,0,0,1,-207.37,306.35)" >
			<tspan x="0" y="0" class="t0">     
</tspan>
		</text>
		<text id="R" style="transform: matrix(1,0,0,1,-87.37,306.35)" >
			<tspan x="0" y="0" class="t0">R
</tspan>
		</text>
		<text id="A" style="transform: matrix(1,0,0,1,14.63,306.35)" >
			<tspan x="0" y="0" class="t0">A
</tspan>
		</text>
	</g>
	<g id="Clip-Path" clip-path="url(#cp1)">
		<g>
			<g>
				<text id=" " style="transform: matrix(1,0,0,1,-207.37,476.35)" >
					<tspan x="0" y="0" class="t0"> 
</tspan>
				</text>
				<text id="CIÓN" style="transform: matrix(1,0,0,1,-185.37,476.35)" >
					<tspan x="0" y="0" class="t0">CIÓN
</tspan>
				</text>
			</g>
		</g>
	</g>
	<g>
		<text id="F" style="transform: matrix(1,0,0,1,-151.67,-183.65)" >
			<tspan x="0" y="0" class="t1">F
</tspan>
		</text>
		<text id="A" style="transform: matrix(1,0,0,1,-144.3,-183.65)" >
			<tspan x="0" y="0" class="t1">A
</tspan>
		</text>
		<text id="SE 1" style="transform: matrix(1,0,0,1,-133.01,-183.65)" >
			<tspan x="0" y="0" class="t1">SE 1
</tspan>
		</text>
	</g>
	<g id="Clip-Path" clip-path="url(#cp2)">
		<g>
			<path class="s2" d="m24.8 78.64c1.36 1.15 4.08 2.24 9.07 0.06 7.86-3.42 17.99-13.23 21.38-24.68 10.95 9.45 20.29 34.41 23.44 45.11 0.4 1.36 1.83 2.14 3.18 1.73 1.36-0.4 2.13-1.83 1.73-3.19-1.3-4.42-11.75-38.51-27.29-49.26q0.18-2.14 0-4.31c-0.95-10.4-9.26-24.47-43.47-32.45-1.38-0.32-2.76 0.54-3.08 1.92-0.32 1.38 0.53 2.76 1.91 3.08 23.79 5.55 37.4 14.74 39.36 26.58q0.22 1.31 0.24 2.63-1.34-0.43-2.72-0.59c-7.48-0.88-14.5 4.3-20.87 15.42-5 8.71-6.1 14.43-3.37 17.48q0.21 0.23 0.49 0.48m25.89-27.55c-2.15 9.15-9.83 17.52-16.07 21.4-3.93 2.45-6.14 2.49-6.51 2.23 0-0.01-1.29-2.25 4.01-11.49 5.26-9.16 10.58-13.49 15.83-12.88q1.38 0.17 2.74 0.74zm57.81 6.72c-3.14-16.64-3.54-29.45-0.65-30.11 2.74-0.63 7.58 9.81 11.88 24.79 10.69-11.33 19.79-18.38 21.93-16.56 2.21 1.88-3.67 12.58-13.65 25.49 15.89 3.66 27.22 8.21 26.7 11.06-0.53 2.92-13.32 3.11-30.08 0.75 3.14 16.64 3.54 29.45 0.65 30.11-2.74 0.63-7.58-9.81-11.88-24.79-10.69 11.33-19.79 18.38-21.93 16.56-2.21-1.88 3.67-12.58 13.65-25.49-15.89-3.66-27.22-8.2-26.7-11.06 0.53-2.92 13.33-3.11 30.08-0.75zm-39.82 46c-5.78-1.05-11.33 2.78-12.38 8.57-1.05 5.79 2.78 11.34 8.57 12.4 5.78 1.05 11.33-2.78 12.38-8.57 1.05-5.79-2.78-11.34-8.57-12.4zm4.5-93.71c-3.45 4.07-2.96 10.18 1.11 13.64 4.07 3.46 10.17 2.96 13.62-1.11 3.45-4.07 2.95-10.18-1.11-13.64-4.07-3.46-10.17-2.96-13.62 1.11z"/>
			<path class="s3" d="m24.8 78.64c1.36 1.15 4.08 2.24 9.07 0.06 7.86-3.42 17.99-13.23 21.38-24.68 10.95 9.45 20.29 34.41 23.44 45.11 0.4 1.36 1.83 2.14 3.18 1.73 1.36-0.4 2.13-1.83 1.73-3.19-1.3-4.42-11.75-38.51-27.29-49.26q0.18-2.14 0-4.31c-0.95-10.4-9.26-24.47-43.47-32.45-1.38-0.32-2.76 0.54-3.08 1.92-0.32 1.38 0.53 2.76 1.91 3.08 23.79 5.55 37.4 14.74 39.36 26.58q0.22 1.31 0.24 2.63-1.34-0.43-2.72-0.59c-7.48-0.88-14.5 4.3-20.87 15.42-5 8.71-6.1 14.43-3.37 17.48q0.21 0.23 0.49 0.48zm25.89-27.54c-2.15 9.15-9.83 17.52-16.07 21.4-3.93 2.45-6.14 2.49-6.51 2.23 0-0.01-1.29-2.25 4.01-11.49 5.26-9.16 10.58-13.49 15.83-12.88q1.38 0.17 2.74 0.74zm57.81 6.72c-3.14-16.64-3.54-29.45-0.65-30.11 2.74-0.63 7.58 9.81 11.88 24.79 10.69-11.33 19.79-18.38 21.93-16.56 2.21 1.88-3.67 12.58-13.65 25.49 15.89 3.66 27.22 8.21 26.7 11.06-0.53 2.92-13.32 3.11-30.08 0.75 3.14 16.64 3.54 29.45 0.65 30.11-2.74 0.63-7.58-9.81-11.88-24.79-10.69 11.33-19.79 18.38-21.93 16.56-2.21-1.88 3.67-12.58 13.65-25.49-15.89-3.66-27.22-8.2-26.7-11.06 0.53-2.92 13.33-3.11 30.08-0.75zm-39.82 46c-5.78-1.05-11.33 2.78-12.38 8.57-1.05 5.79 2.78 11.34 8.57 12.4 5.78 1.05 11.33-2.78 12.38-8.57 1.05-5.79-2.78-11.34-8.57-12.4zm4.5-93.71c-3.45 4.07-2.96 10.18 1.11 13.64 4.07 3.46 10.17 2.96 13.62-1.11 3.45-4.07 2.95-10.18-1.11-13.64-4.07-3.46-10.17-2.96-13.62 1.11z"/>
		</g>
	</g>
</svg>