<?xml version="1.0" encoding="UTF-8"?>
<svg id="Capa_1" data-name="Capa 1" xmlns="http://www.w3.org/2000/svg" viewBox="0 0 122.9 124.38">
  <defs>
    <style>
      .cls-1 {
        fill: #00d6a3;
      }
    </style>
  </defs>
  <path d="M48.45,120.51c-21.62,0-39.21-17.28-39.21-38.51,0-11.1,4.88-21.66,13.39-28.98l.33.38c-8.4,7.22-13.21,17.65-13.21,28.6,0,20.96,17.36,38.01,38.71,38.01,5.69,0,11.17-1.18,16.29-3.52l.21.46c-5.18,2.37-10.73,3.56-16.5,3.56Z"/>
  <path d="M103.57,68.28l-.36-.34c6.52-6.9,10.05-16.01,9.95-25.66-.21-19.82-15.87-35.82-34.98-35.82-.12,0-.24,0-.36,0-4.99.05-9.79,1.17-14.29,3.31l-.21-.45c4.56-2.18,9.43-3.31,14.49-3.36.12,0,.24,0,.36,0,19.39,0,35.27,16.21,35.48,36.31.1,9.78-3.48,19.02-10.09,26.01Z"/>
  <polygon points="23.06 61.38 22.56 53.51 13.08 55.66 12.97 55.18 23.02 52.9 23.56 61.35 23.06 61.38"/>
  <polygon points="103.09 68.38 104.05 60.73 104.55 60.8 103.66 67.85 112.05 67.45 112.07 67.95 103.09 68.38"/>
  <path class="cls-1" d="M23.97,79.93l-.02,8.54h5.11c.52,2.13,1.42,4.13,2.63,5.93l-3.63,3.38,6.47,6.03,3.63-3.38c1.93,1.13,4.08,1.97,6.38,2.46v4.76s9.16-.02,9.16-.02v-4.76c2.31-.49,4.47-1.34,6.4-2.48l3.61,3.37,6.5-6.05-3.61-3.37c1.23-1.81,2.14-3.81,2.67-5.95h5.11s.02-8.55.02-8.55h-5.11c-.52-2.13-1.42-4.13-2.63-5.93l3.63-3.38-6.47-6.02-3.63,3.38c-1.93-1.13-4.08-1.98-6.38-2.46v-4.76s-9.16.02-9.16.02v4.76c-2.31.49-4.47,1.34-6.41,2.48l-3.61-3.37-6.5,6.05,3.61,3.37c-1.23,1.81-2.14,3.81-2.67,5.95h-5.11ZM49.19,77.74c3.8,0,6.87,2.85,6.86,6.39,0,3.54-3.1,6.41-6.9,6.42-3.8,0-6.87-2.85-6.86-6.39,0-3.54,3.1-6.41,6.9-6.42Z"/>
  <path class="cls-1" d="M49.2,39.51l-.02,8.54h5.11c.52,2.13,1.42,4.13,2.63,5.93l-3.63,3.38,6.47,6.03,3.63-3.38c1.93,1.13,4.08,1.97,6.38,2.46v4.76s9.16-.02,9.16-.02v-4.76c2.31-.49,4.47-1.34,6.4-2.48l3.61,3.37,6.5-6.05-3.61-3.37c1.23-1.81,2.14-3.81,2.67-5.95h5.11s.02-8.55.02-8.55h-5.11c-.52-2.13-1.42-4.13-2.63-5.93l3.63-3.38-6.47-6.02-3.63,3.38c-1.93-1.13-4.08-1.98-6.38-2.46v-4.76s-9.16.02-9.16.02v4.76c-2.31.49-4.47,1.34-6.41,2.48l-3.61-3.37-6.5,6.05,3.61,3.37c-1.23,1.81-2.14,3.81-2.67,5.95h-5.11ZM74.42,37.33c3.8,0,6.87,2.85,6.86,6.39,0,3.54-3.1,6.41-6.9,6.42-3.8,0-6.87-2.85-6.86-6.39,0-3.54,3.1-6.41,6.9-6.42Z"/>
</svg>