<?xml version="1.0" encoding="UTF-8"?>
<svg id="Capa_1" data-name="Capa 1" xmlns="http://www.w3.org/2000/svg" viewBox="0 0 137.48 149.07">
  <defs>
    <style>
      .cls-1 {
        fill: #00d6a3;
      }

      .cls-2 {
        fill: #080717;
      }

      .cls-3 {
        fill: #fff;
      }
    </style>
  </defs>
  <g>
    <g>
      <path class="cls-3" d="M104.19,29.82c-.98-7.12-7.31-12.62-14.98-12.62-5.3,0-9.97,2.63-12.66,6.61-2.76-3.5-7.12-5.75-12.04-5.75-7.34,0-13.45,5.03-14.82,11.7-6.41,1.68-11.12,7.32-11.12,14.02,0,8.03,6.77,14.54,15.11,14.54,4.2,0,8-1.65,10.74-4.31,2.77,3.17,6.92,5.18,11.56,5.18,5.1,0,9.6-2.43,12.34-6.15,2.77,3.23,6.96,5.28,11.65,5.28,8.35,0,15.11-6.51,15.11-14.54,0-6.62-4.6-12.2-10.89-13.96Z"/>
      <path d="M75.98,59.43c-4.45,0-8.65-1.84-11.57-5.07-2.88,2.71-6.68,4.2-10.72,4.2-8.47,0-15.36-6.63-15.36-14.79,0-6.6,4.58-12.43,11.16-14.22,1.48-6.82,7.78-11.75,15.03-11.75,4.73,0,9.09,2.03,12.02,5.59,2.87-4.04,7.59-6.45,12.68-6.45,7.62,0,14.12,5.44,15.2,12.67,6.43,1.87,10.92,7.67,10.92,14.16,0,8.15-6.89,14.79-15.36,14.79-4.49,0-8.71-1.87-11.64-5.14-2.89,3.77-7.49,6-12.35,6ZM64.44,53.64l.17.2c2.83,3.24,6.98,5.09,11.37,5.09,4.81,0,9.35-2.26,12.14-6.05l.19-.25.2.24c2.84,3.3,7.01,5.2,11.46,5.2,8.19,0,14.86-6.41,14.86-14.29,0-6.32-4.4-11.96-10.71-13.72l-.16-.04-.02-.16c-.97-7.07-7.3-12.4-14.73-12.4-5.04,0-9.7,2.43-12.46,6.5l-.19.28-.21-.27c-2.84-3.6-7.16-5.66-11.84-5.66-7.07,0-13.2,4.84-14.57,11.5l-.03.15-.15.04c-6.44,1.69-10.93,7.36-10.93,13.78,0,7.88,6.67,14.29,14.86,14.29,4,0,7.75-1.51,10.56-4.24l.19-.18Z"/>
    </g>
    <g>
      <ellipse class="cls-3" cx="46.5" cy="64.81" rx="5.17" ry="4.97"/>
      <path d="M46.5,70.03c-2.99,0-5.42-2.34-5.42-5.22s2.43-5.22,5.42-5.22,5.42,2.34,5.42,5.22-2.43,5.22-5.42,5.22ZM46.5,60.08c-2.71,0-4.92,2.12-4.92,4.72s2.21,4.72,4.92,4.72,4.92-2.12,4.92-4.72-2.21-4.72-4.92-4.72Z"/>
    </g>
    <g>
      <ellipse class="cls-3" cx="55.58" cy="72.66" rx="3.9" ry="3.75"/>
      <path d="M55.58,76.66c-2.29,0-4.15-1.8-4.15-4s1.86-4,4.15-4,4.15,1.8,4.15,4-1.86,4-4.15,4ZM55.58,69.15c-2.01,0-3.65,1.57-3.65,3.5s1.64,3.5,3.65,3.5,3.65-1.57,3.65-3.5-1.64-3.5-3.65-3.5Z"/>
    </g>
  </g>
  <g>
    <path class="cls-1" d="M93.74,38.23l21.6-23.53c.48-.51.07-1.76-.92-2.78l-1.78-1.85c-.98-1.02-2.16-1.44-2.64-.92l-21.58,23.55,5.31,5.54Z"/>
    <path d="M115.22,14.78l-5.33-5.56.74-.8c.48-.51,1.66-.1,2.64.92l1.78,1.85c.98,1.02,1.39,2.27.92,2.78l-.74.8Z"/>
    <polygon class="cls-3" points="88.57 32.91 93.52 38.07 87.43 39.4 88.57 32.91"/>
    <polygon points="87.86 36.18 90.45 38.89 87.26 39.59 87.86 36.18"/>
    <polygon points="92.59 34.24 92.22 33.91 111.25 12.94 111.62 13.28 92.59 34.24"/>
  </g>
  <path class="cls-2" d="M97.47,88.69c-.4,0-.93-.27-1.6-.81-5.61-4.49-21.23-28.28-21.03-36.33.04-1.75,3.14-3.1,8.08-3.53h0c2.43-.21,7.2.96,10.18,4.22,2.41,2.63,3.26,6.08,2.52,10.24-.77,4.37,5.51,7.52,9.66,9.61,1.04.52,1.94.98,2.53,1.35,1.56,1,2.26,2.77,1.91,4.87-.62,3.8-4.6,8.48-12.06,10.34-.06.02-.13.02-.19.02ZM82.96,48.52c-5.23.45-7.59,1.85-7.62,3.04-.2,7.95,15.29,31.48,20.84,35.93.88.71,1.25.72,1.36.69,7.21-1.8,11.11-6.41,11.69-9.93.31-1.89-.31-3.48-1.69-4.37-.57-.37-1.46-.81-2.49-1.33-4.29-2.16-10.77-5.42-9.93-10.15.71-4-.1-7.31-2.4-9.82-3.14-3.43-7.92-4.22-9.77-4.06h0Z"/>
  <path d="M75.28,86.38c1.3-3.68.05-5.94-4.72-10.64-4.77-4.7-8.45-6.01-8.25-13.49.16-6.03,4.8-11.31,9.64-13.21,20.05-7.88,23.69,8.13,19.99,15-2.06,3.83-2.16,6.55.72,10.08,1.81,2.22,5.71,5.22,8.93,8.86-1.43,6.35-3.31,18.13-8.7,20.52"/>
  <path d="M81.09,48.44c3.62-.31,14.46,2.71,12.43,14.17-1.01,5.7,9.42,9.38,12.31,11.22,4.48,2.87.93,12.01-10.08,14.75-3.16.79-22.74-27.84-22.52-36.87.04-1.53,2.92-2.86,7.85-3.28Z"/>
  <circle cx="77.22" cy="85.5" r="11.01" transform="translate(-2.98 2.79) rotate(-2.03)"/>
  <circle cx="98.48" cy="80.13" r="6.99" transform="translate(12.08 173.16) rotate(-86.25)"/>
  <g>
    <polygon class="cls-3" points="103.21 127.52 84.48 83.9 64.65 122.6 85.43 129.44 103.21 127.52"/>
    <path d="M85.4,129.69l-.05-.02-21.06-6.93.13-.26,20.07-39.18,19.08,44.42-.34.04-17.83,1.92ZM65,122.45l20.46,6.73,17.39-1.87-18.39-42.83-19.45,37.97Z"/>
  </g>
  <g>
    <path class="cls-3" d="M97.22,137.86l9.4,1.96c9.03,1.88,17.87-3.94,19.72-12.97l.06-.29c.76-3.71.23-7.56-1.49-10.93l-9.34-18.25c-3.11-6.08-8.46-10.73-14.92-12.96l-8.95-3.09-9.85,7.92c-.21.17-.55.25-.61.51-1.67,7.97-6.44,16.76-3.73,24.38l3.06,10.61,16.66,13.13Z"/>
    <path d="M110.04,140.42c-1.16,0-2.32-.12-3.48-.36l-9.5-2-16.72-13.18-3.08-10.69c-1.96-5.51-.05-11.63,1.79-17.56.72-2.3,1.46-4.68,1.93-6.94.06-.29.3-.42.5-.53.07-.04.14-.07.19-.12l9.96-8.01,9.08,3.14c6.55,2.26,11.9,6.91,15.06,13.08l9.34,18.25c1.74,3.41,2.28,7.35,1.51,11.1l-.06.29c-.91,4.44-3.49,8.25-7.27,10.74-2.79,1.84-5.99,2.79-9.26,2.79ZM97.33,137.63l9.34,1.94c4.3.9,8.7.06,12.37-2.36,3.67-2.42,6.18-6.12,7.06-10.42l.06-.29c.75-3.64.22-7.46-1.47-10.77l-9.34-18.25c-3.1-6.06-8.35-10.62-14.78-12.84l-8.82-3.05-9.74,7.83c-.08.06-.17.12-.26.17-.11.06-.24.13-.25.2-.48,2.28-1.22,4.67-1.94,6.99-1.82,5.84-3.7,11.89-1.79,17.25l3.04,10.55,16.55,13.04Z"/>
  </g>
  <g>
    <path class="cls-3" d="M86.96,74.47l3.55,5.87,3.46.81-1.98,8.03c-1.24,5.06-7.91,6.21-10.78,1.86l-2.76-4.19,8.51-12.39Z"/>
    <path d="M86.16,94.14c-2.12,0-4.08-1.04-5.29-2.87l-2.76-4.19c-.09-.14-.09-.32,0-.46l8.51-12.39c.08-.11.21-.19.35-.18.14,0,.27.08.34.2l3.46,5.72,3.29.77c.11.02.2.09.26.19.06.09.07.21.05.31l-1.97,8.03c-.61,2.5-2.57,4.33-5.11,4.76-.38.07-.75.1-1.13.1ZM78.95,86.86l2.61,3.96c1.24,1.87,3.38,2.8,5.58,2.42,2.21-.38,3.92-1.97,4.45-4.15l1.88-7.63-3.06-.71c-.11-.03-.2-.09-.26-.19l-3.22-5.33-7.99,11.64Z"/>
  </g>
  <path d="M81.22,91.04c.18.27.37.52.58.75.87-1.05,1.54-2.32,1.91-3.82l3.11-12.66-.38-.09-7.99,11.63,2.76,4.19Z"/>
  <path d="M78.9,53.6c-1.72.85-2.98,2.04-3.54,3.51-1.56,4.15,3.02,11.69,10.37,11.21.46-.03.91-.29,1.35-.21-.57-6.66-3.82-12.08-8.19-14.51Z"/>
  <path d="M62.68,75.2c2.45-1.86,4.77-4.87,6.39-8.6,2.72-6.27,2.59-12.6-.02-15.61-4.02.19-7.52,1.82-9.62,4.88-3.6,5.23-2.05,13.07,3.25,19.33Z"/>
  <path class="cls-3" d="M92.1,69.85c.82,2.66-.67,5.47-3.33,6.29-2.66.82-5.47-.67-6.29-3.33-.82-2.66.67-5.47,3.33-6.29,2.66-.82,5.47.67,6.29,3.33Z"/>
  <g>
    <path class="cls-3" d="M85.81,66.52c-1.01.31-1.85.91-2.46,1.67-3.14-.56-12.1-8.04-13.49-10.39-.11,1.21-2.46,4-3.98,5.75-2.37,2.74-3.88,3.56-3.88,3.56-.25,1.84.03,2.06.21,4.07.88,9.86,6.93,17.38,13.53,16.8,4.94-.44,8.78-5.3,10.03-11.86.94.3,1.99.33,3,.02,2.66-.82,4.15-3.63,3.33-6.29-.82-2.66-3.63-4.15-6.29-3.33Z"/>
    <path d="M75.01,88.26c-3.02,0-5.96-1.61-8.38-4.61-2.58-3.21-4.24-7.63-4.67-12.45-.06-.64-.12-1.09-.18-1.49-.12-.82-.2-1.36-.03-2.64l.02-.13.11-.06s1.52-.84,3.81-3.5c1.04-1.2,3.81-4.41,3.92-5.61l.07-.77.4.67c1.36,2.28,10.07,9.51,13.18,10.24.65-.77,1.51-1.34,2.48-1.64,1.35-.42,2.78-.28,4.03.38,1.25.66,2.16,1.77,2.58,3.12.86,2.79-.71,5.75-3.5,6.6-.94.29-1.93.31-2.89.06-1.36,6.74-5.35,11.36-10.2,11.79-.25.02-.5.03-.75.03ZM62.23,67.27c-.14,1.12-.07,1.6.04,2.38.06.38.13.86.19,1.52.42,4.72,2.04,9.05,4.56,12.18,2.5,3.1,5.58,4.67,8.69,4.39,4.69-.42,8.54-4.99,9.81-11.66l.05-.28.27.09c.93.3,1.92.3,2.86.02,2.52-.78,3.94-3.46,3.17-5.98-.38-1.22-1.2-2.22-2.33-2.82-1.13-.6-2.42-.72-3.65-.34h0c-.92.28-1.73.83-2.33,1.59l-.09.12-.15-.03c-2.97-.53-11.21-7.24-13.35-10.04-.51,1.31-2.22,3.4-3.89,5.33-2.03,2.35-3.44,3.3-3.84,3.55Z"/>
  </g>
  <g>
    <polygon class="cls-3" points="79.55 91.55 82.93 100.79 85.57 93.74 89.67 99.35 93.91 81.29 90.58 79.52 85.35 91.87 81.19 88.68 79.55 91.55"/>
    <path d="M82.93,101.51l-3.65-9.97,1.84-3.22,4.12,3.17,5.21-12.31,3.75,1.99-4.41,18.78-4.15-5.67-2.71,7.24ZM79.83,91.58l3.11,8.49,2.57-6.84,4.05,5.54,4.07-17.35-2.93-1.55-5.25,12.4-4.18-3.21-1.44,2.52Z"/>
  </g>
  <g>
    <path class="cls-3" d="M98.37,121.16s-12.53-1.06-18.46-1.79c-5.93-.73-14.92.53-14.92.53-9.4.51-16.2,5.63-16.49,5.84-1.02.78-1.22,2.24-.44,3.27.78,1.03,2.24,1.23,3.27.45.02-.02.81-.6,2.18-1.37-2.2,2.29-3.17,4.29-3.24,4.43-.55,1.16-.06,2.54,1.1,3.1.82.4,1.76.27,2.43-.25.28-.21.52-.49.68-.83,0-.02.28-.56.85-1.35-.37.86-.54,1.43-.57,1.5-.35,1.24.36,2.52,1.6,2.87.74.21,1.5.05,2.07-.39.38-.29.68-.7.82-1.2.01-.04,1.22-3.98,5.2-7.24-2.89,2.8-3.74,5.68-3.79,5.84-.35,1.23.36,2.5,1.59,2.87.74.22,1.5.05,2.08-.39.38-.29.67-.69.82-1.18.03-.11.67-2.09,2.8-4.03,2.53,2.15,6.54.43,6.54.43l23.23,5.58.64-16.7Z"/>
    <path d="M97.98,138.18l-23.45-5.63c-.58.23-4.1,1.52-6.55-.36-1.99,1.87-2.57,3.75-2.58,3.77-.16.53-.48.98-.91,1.31-.66.5-1.51.66-2.3.43-1.35-.4-2.14-1.82-1.76-3.17.02-.06.22-.75.74-1.77-1.23,1.85-1.67,3.28-1.67,3.31-.16.53-.47.99-.91,1.33-.65.5-1.5.66-2.29.43-1.21-.35-1.97-1.52-1.86-2.72-.14.18-.3.35-.49.49-.78.59-1.81.7-2.69.28-1.28-.62-1.82-2.16-1.21-3.43.03-.07.7-1.47,2.19-3.27-.49.31-.75.51-.75.51-1.14.86-2.76.64-3.62-.5-.86-1.13-.64-2.75.49-3.62.29-.22,7.14-5.38,16.62-5.89.07-.01,9.07-1.25,14.96-.53,5.86.72,18.33,1.78,18.45,1.79l.24.02-.66,17.25ZM74.48,132.02l23.02,5.52.61-16.16c-1.76-.15-12.82-1.11-18.23-1.77-5.83-.72-14.76.52-14.85.53-9.35.51-16.09,5.58-16.37,5.79-.91.7-1.09,2-.39,2.92.69.92,2,1.1,2.92.4,0,0,.8-.6,2.21-1.39l1.46-.81-1.16,1.21c-2.21,2.3-3.16,4.28-3.2,4.37-.49,1.03-.05,2.27.98,2.77.71.34,1.54.26,2.17-.22.26-.2.46-.45.61-.74,0,0,.28-.57.87-1.39l1.38-1.92-.94,2.17c-.39.9-.55,1.47-.55,1.47-.31,1.1.33,2.25,1.43,2.57.63.18,1.32.05,1.85-.35.35-.27.61-.64.74-1.07,0-.04,1.23-4.04,5.28-7.36l.33.37c-2.85,2.76-3.69,5.61-3.72,5.73-.31,1.09.33,2.24,1.42,2.56.63.19,1.32.06,1.85-.35.35-.27.61-.63.73-1.05.03-.08.65-2.13,2.88-4.14l.16-.15.17.14c2.38,2.02,6.24.41,6.28.39l.08-.03Z"/>
  </g>
  <path d="M14.32,138.55h39.16l-10.03-37.43c-.58-2.15-2.94-3.8-4.98-3.47l-30.8,5.04c-1.64.27-2.5,1.74-2.04,3.47l8.68,32.39Z"/>
  <path d="M30.07,134.3h50.96v4.25h-46.71c-2.34,0-4.25-1.9-4.25-4.25h0Z" transform="translate(111.1 272.85) rotate(180)"/>
  <path class="cls-2" d="M54.7,134.67l-.43-.25c.13-.22,3.13-5.47,4.93-7.11l.34.37c-1.74,1.59-4.8,6.93-4.83,6.99Z"/>
  <path class="cls-2" d="M53.68,128.28l-.33-.38s2.38-2.07,3.01-2.84l.38.32c-.66.8-2.97,2.81-3.07,2.9Z"/>
  <polygon class="cls-2" points="108.64 121.72 98.36 121.41 98.38 120.91 107.95 121.2 103.53 107.4 104.01 107.25 108.64 121.72"/>
  <rect class="cls-2" x="103.32" y="121.3" width=".5" height="17.93" transform="translate(-3.29 2.69) rotate(-1.46)"/>
  <path d="M90.29,120.62c-3.71-4.08-4.87-11.18-5.18-16.43-.34-5.66.2-10.43.21-10.48l.5.06c-.02.19-2.09,18.9,4.85,26.51l-.37.34Z"/>
  <path class="cls-3" d="M25.6,125.29c-.54,0-1.11-.21-1.63-.63-.7-.55-1.25-1.39-1.56-2.38-.31-.98-.34-1.99-.08-2.84.27-.88.81-1.5,1.52-1.72.72-.23,1.51-.04,2.23.54.7.55,1.25,1.39,1.56,2.38.65,2.06,0,4.11-1.44,4.56-.2.06-.4.09-.6.09ZM24.45,118.13c-.15,0-.31.02-.45.07-.55.17-.98.67-1.2,1.39-.23.75-.2,1.66.08,2.55s.77,1.64,1.39,2.13c.59.47,1.23.63,1.78.45,1.18-.37,1.68-2.14,1.11-3.93-.28-.89-.77-1.64-1.39-2.13-.43-.34-.89-.52-1.32-.52Z"/>
  <path class="cls-2" d="M100.62,136.96c-.74,0-1.34-.6-1.34-1.34s.6-1.34,1.34-1.34,1.34.6,1.34,1.34-.6,1.34-1.34,1.34ZM100.62,134.79c-.46,0-.84.38-.84.84s.38.84.84.84.84-.38.84-.84-.38-.84-.84-.84Z"/>
  <g>
    <path class="cls-3" d="M84.89,69.24s3.73-2.19,5.11,1.5"/>
    <path d="M89.76,70.82c-.36-.96-.91-1.57-1.65-1.84-1.42-.51-3.09.45-3.11.46l-.25-.43c.08-.04,1.88-1.09,3.52-.5.88.31,1.54,1.03,1.95,2.13l-.47.17Z"/>
  </g>
  <g>
    <circle class="cls-3" cx="86.82" cy="75.22" r="1.94"/>
    <path d="M86.82,77.42c-1.21,0-2.19-.98-2.19-2.19s.98-2.19,2.19-2.19,2.19.98,2.19,2.19-.98,2.19-2.19,2.19ZM86.82,73.53c-.93,0-1.69.76-1.69,1.69s.76,1.69,1.69,1.69,1.69-.76,1.69-1.69-.76-1.69-1.69-1.69Z"/>
  </g>
  <path d="M87.26,39.76c-.06,0-.13-.02-.17-.07-.06-.06-.09-.15-.07-.23l1.37-6.67c.02-.09.09-.16.18-.19.09-.03.19,0,.25.07l4.93,5.2c.06.06.08.16.06.24-.03.09-.1.15-.18.17l-6.31,1.47s-.04,0-.06,0ZM88.78,33.36l-1.2,5.82,5.5-1.28-4.3-4.54Z"/>
</svg>