<?xml version="1.0" encoding="UTF-8"?>
<svg id="Capa_1" data-name="Capa 1" xmlns="http://www.w3.org/2000/svg" viewBox="0 0 122.9 124.38">
  <defs>
    <style>
      .cls-1 {
        fill: #00d6a3;
      }

      .cls-2 {
        fill: #fff;
      }
    </style>
  </defs>
  <g>
    <path class="cls-2" d="M52.47,116.56l-3.95-12.26h35.11l17.61-18.92c1.05-1.13.98-2.91-.17-3.95h0c-2.54-2.3-6.45-2.17-8.83.31l-10.28,10.72-35.94-10.39,12.02-6.46c2.27-1.22,2.69-4.3.83-6.09h0c-.89-.86-2.15-1.23-3.36-.99l-10.59,2.07c-14.6,2.86-23.92,17.27-20.51,31.76l3.33,14.19h24.72Z"/>
    <path d="M52.81,116.81h-25.26l-3.38-14.38c-1.66-7.07-.4-14.33,3.54-20.44,3.94-6.1,10.04-10.23,17.17-11.63l10.59-2.07c1.29-.25,2.63.14,3.58,1.05.95.91,1.39,2.17,1.21,3.47-.18,1.3-.94,2.4-2.1,3.02l-11.48,6.17,35.21,10.18,10.17-10.61c2.49-2.59,6.51-2.73,9.18-.32.6.55.96,1.3.99,2.11.03.81-.25,1.59-.81,2.19l-17.69,19h-34.88l3.95,12.26ZM27.95,116.31h24.18l-3.95-12.26h35.34l17.54-18.85c.46-.5.7-1.15.67-1.83-.03-.68-.32-1.31-.83-1.76-2.46-2.23-6.18-2.1-8.48.3l-10.38,10.83-36.67-10.6,12.56-6.75c1.01-.54,1.68-1.51,1.84-2.65.16-1.14-.23-2.25-1.06-3.04-.83-.8-2.01-1.14-3.14-.92l-10.59,2.07c-7,1.37-12.98,5.42-16.85,11.41-3.87,5.99-5.1,13.11-3.47,20.05l3.29,14Z"/>
  </g>
  <g>
    <path class="cls-2" d="M61.95,97.51l9.2-18.23c1.48-3.1,5.15-4.46,8.28-3.07,1.41.63,2.04,2.29,1.4,3.69l-8.04,17.6,10.43-19.05c1.75-2.95,5.53-3.97,8.53-2.31,1.35.75,1.83,2.46,1.06,3.8l-9.7,15.82"/>
    <path d="M73.01,97.63l-.45-.22,8.04-17.6c.28-.62.31-1.31.07-1.95-.24-.64-.72-1.14-1.34-1.41-3.03-1.34-6.53-.05-7.96,2.95l-9.2,18.23-.45-.23,9.2-18.23c1.54-3.24,5.33-4.64,8.61-3.18.75.33,1.31.93,1.6,1.69.29.76.26,1.59-.08,2.33l-5.17,11.31,7.11-12.99c1.84-3.1,5.73-4.15,8.87-2.4.71.4,1.23,1.05,1.44,1.83.22.79.12,1.61-.29,2.31l-9.71,15.83-.43-.26,9.7-15.82c.33-.58.42-1.27.24-1.93s-.61-1.2-1.21-1.53c-2.9-1.61-6.5-.64-8.19,2.22l-10.42,19.04Z"/>
  </g>
  <path d="M63.72,94.24l-10.58-.53-.07-.13c-3.46-6.65-8.72-4.87-8.94-4.79l-.17-.47c.06-.02,1.49-.52,3.4-.15,1.73.34,4.18,1.49,6.08,5.06l10.3.52-.03.5Z"/>
  <circle class="cls-1" cx="68.68" cy="35.46" r="24.64"/>
  <path class="cls-2" d="M68.76,11.32c4.97,0,9.16,11.05,9.16,24.14s-4.2,24.14-9.16,24.14-9.16-11.05-9.16-24.14,4.2-24.14,9.16-24.14M68.76,10.82c-5.34,0-9.66,11.03-9.66,24.64s4.33,24.64,9.66,24.64,9.66-11.03,9.66-24.64-4.33-24.64-9.66-24.64h0Z"/>
  <path class="cls-2" d="M68.68,24.71c13.09,0,24.14,4.2,24.14,9.16s-11.05,9.16-24.14,9.16-24.14-4.2-24.14-9.16,11.05-9.16,24.14-9.16M68.68,24.21c-13.61,0-24.64,4.33-24.64,9.66s11.03,9.66,24.64,9.66,24.64-4.33,24.64-9.66-11.03-9.66-24.64-9.66h0Z"/>
</svg>