<?xml version="1.0" encoding="UTF-8"?>
<svg id="Capa_1" data-name="Capa 1" xmlns="http://www.w3.org/2000/svg" xmlns:xlink="http://www.w3.org/1999/xlink" viewBox="0 0 315.36 281.83">
  <defs>
    <style>
      .cls-1 {
        fill: none;
      }

      .cls-2 {
        font-family: InstrumentSerif-Italic, 'Instrument Serif';
        font-style: italic;
      }

      .cls-2, .cls-3 {
        font-size: 15px;
      }

      .cls-2, .cls-3, .cls-4 {
        fill: #fff;
      }

      .cls-3 {
        font-family: InstrumentSerif-Regular, 'Instrument Serif';
      }

      .cls-5 {
        fill: #00d6a3;
      }

      .cls-6 {
        fill: #080717;
      }

      .cls-7 {
        letter-spacing: 0em;
      }

      .cls-8 {
        fill: #c7b299;
      }

      .cls-9 {
        letter-spacing: -.02em;
      }

      .cls-10 {
        letter-spacing: -.02em;
      }

      .cls-11 {
        letter-spacing: -.02em;
      }

      .cls-12 {
        letter-spacing: -.01em;
      }

      .cls-13 {
        letter-spacing: -.01em;
      }

      .cls-14 {
        letter-spacing: 0em;
      }

      .cls-15 {
        letter-spacing: 0em;
      }

      .cls-16 {
        clip-path: url(#clippath);
      }
    </style>
    <clipPath id="clippath">
      <rect class="cls-1" x="111.97" y="40.8" width="189.07" height="95.92"/>
    </clipPath>
  </defs>
  <g class="cls-16">
    <rect class="cls-5" x="111.97" y="40.8" width="189.07" height="83.04" rx="13.17" ry="13.17"/>
  </g>
  <polygon class="cls-5" points="138.05 122.12 138.05 136.72 149.39 121.55 138.05 122.12"/>
  <text class="cls-3" transform="translate(138.18 75.65)"><tspan class="cls-11" x="0" y="0">H</tspan><tspan x="7.94" y="0">ola, ¡S</tspan><tspan class="cls-15" x="38.8" y="0">o</tspan><tspan x="44.8" y="0">y </tspan></text>
  <text class="cls-2" transform="translate(191.53 75.65)"><tspan x="0" y="0">So</tspan><tspan class="cls-9" x="12.57" y="0">f</tspan><tspan x="16.39" y="0">ía</tspan></text>
  <text class="cls-3" transform="translate(219.36 75.65)"><tspan x="0" y="0" xml:space="preserve"> y te </tspan><tspan class="cls-13" x="22.87" y="0">v</tspan><tspan class="cls-14" x="28.6" y="0">o</tspan><tspan x="34.62" y="0">y </tspan></text>
  <text class="cls-3" transform="translate(138.18 90.65)"><tspan x="0" y="0">a acompañar en esta </tspan></text>
  <text class="cls-3" transform="translate(138.18 105.65)"><tspan class="cls-11" x="0" y="0">a</tspan><tspan class="cls-12" x="5.73" y="0">v</tspan><tspan class="cls-7" x="11.46" y="0">en</tspan><tspan class="cls-14" x="23.83" y="0">t</tspan><tspan x="27.61" y="0">u</tspan><tspan class="cls-10" x="34.42" y="0">r</tspan><tspan x="38.92" y="0">a!</tspan></text>
  <g>
    <path class="cls-6" d="M57.64,178.71c-2.91-4.5-5.91-9.14-8.36-10.79-11.12-7.5-16.78-15.97-15.51-23.25.76-4.37,4.14-7.72,9.03-8.96.56-.14,1.12-.28,1.66-.41,6.68-1.61,11.96-2.88,13.76-14.62,1.49-9.72,5.86-16.6,13-20.45,8.45-4.55,18.96-3.52,23.72-1.32,9.94,4.57,15.39,9.74,14.24,13.51-2.72,8.89-9.37,16.74-15.23,23.66-5.15,6.08-9.6,11.33-9.16,15.05.15,1.22.81,2.25,2.03,3.14,10.82,7.92,15.52,14.46,14.36,19.99-1.74,8.35-16.83,11.73-25.84,13.74-2.96.66-5.53,1.23-6.29,1.72-.38.24-.78.36-1.19.36-2.88,0-6.47-5.54-10.24-11.37ZM71.69,101.1c-6.85,3.69-11.06,10.33-12.49,19.73-1.89,12.39-7.73,13.8-14.5,15.43-.54.13-1.1.26-1.65.4-4.57,1.16-7.6,4.14-8.31,8.18-.57,3.25-.23,11.94,15.09,22.26,2.61,1.76,5.67,6.49,8.63,11.07,3.68,5.69,7.85,12.13,10.08,10.72.91-.58,3.3-1.11,6.6-1.85,8.78-1.96,23.48-5.25,25.1-12.98,1.05-5.05-3.65-11.44-13.98-19-1.44-1.05-2.25-2.34-2.43-3.82-.49-4.15,3.86-9.29,9.38-15.8,5.8-6.85,12.38-14.61,15.04-23.31.81-2.63-3.12-7.46-13.71-12.33h0c-2.23-1.03-5.78-1.79-9.79-1.79s-8.88.84-13.06,3.09Z"/>
    <path d="M99.18,99.51c-7.31-3.36-32.02-4.86-36.03,21.4-2,13.06-8.45,13.58-15.78,15.43-11.37,2.87-14.29,17.23,6.63,31.32,6.01,4.05,14.69,24.69,19.25,21.8,4.56-2.89,56.62-6.19,17.74-34.64-10.03-7.34,16.15-22.72,22.17-42.39,1.02-3.34-4.02-8.34-13.98-12.92Z"/>
    <g>
      <path class="cls-4" d="M84.16,242.29l43.04-4.6c15.07-1.61,25.43-17.97,22.46-35.48l-5.9-34.81c-2.48-14.61-13.9-24.97-26.51-24.05l-29.15,2.13-26.17,9.85c-17.75,6.68-24.55,31.66-13.56,49.83l17.66,27.56,18.13,9.57Z"/>
      <path d="M65.8,233.15l-.11-.06-17.73-27.68c-5.73-9.48-6.97-21.44-3.32-31.99,3.07-8.85,9.31-15.62,17.12-18.56l26.17-9.85,29.28-2.16c.54-.04,1.07-.06,1.6-.06,12.24,0,23.01,10.25,25.43,24.52l5.9,34.81c1.6,9.47-.56,18.97-5.95,26.08-4.33,5.72-10.35,9.26-16.94,9.96l-43.04,4.6-.15.02-18.27-9.64ZM117.29,143.85l-29.08,2.12-26.11,9.82c-7.54,2.84-13.57,9.38-16.54,17.96-3.56,10.28-2.35,21.93,3.22,31.15l17.58,27.45,17.89,9.44,42.9-4.58c6.32-.67,12.1-4.08,16.26-9.58,5.22-6.9,7.33-16.13,5.77-25.33l-5.9-34.81c-2.34-13.79-12.7-23.7-24.46-23.7-.51,0-1.02.02-1.53.06Z"/>
    </g>
    <path d="M82.91,96.51c8.9-2.2,17.84.6,24.24,6.66-2.47-.08-4.97.15-7.46.77-16.9,4.18-26.93,23.47-22.4,43.09.25,1.09.55,2.15.88,3.2-7.23-3.6-12.94-10.53-14.99-19.39-3.55-15.39,5.28-30.76,19.73-34.33Z"/>
    <polygon points="96.51 108.06 96.52 107.08 96.51 107.08 96.51 108.06"/>
    <ellipse cx="90.9" cy="121.41" rx="27.56" ry="26.89" transform="translate(-26.84 25.8) rotate(-14.1)"/>
    <ellipse cx="111.08" cy="120.99" rx="13.09" ry="13.55"/>
    <path class="cls-6" d="M50.79,246.28c1.48,0,2.95-.36,4.31-1.07l.33-.17,82.35-8.75c4.64-.49,8.78-2.85,11.66-6.64,2.98-3.92,4.22-8.98,3.4-13.89-.05-.27-.29-.45-.57-.4-.27.04-.45.3-.4.56.77,4.64-.39,9.43-3.21,13.14-2.71,3.57-6.61,5.8-10.98,6.26l-82.45,8.76c-.06,0-.12.02-.18.05l-.42.22c-1.78.94-3.79,1.19-5.72.75l2.2-2.26c.16-.17.18-.44.04-.63-.14-.19-.39-.26-.61-.15l-.78.38c-1.53.74-3.27.86-4.87.34l17.41-20.65,62.11-6.6c.13-.01.26-.08.34-.19s.12-.24.1-.37l-3.36-21.66c-.04-.27-.31-.45-.56-.41-.27.04-.45.29-.41.56l3.28,21.15-61.79,6.57c-.13.01-.24.07-.32.17l-17.98,21.33c-.1.12-.14.28-.1.43.03.15.14.28.28.34,1.56.68,3.28.81,4.9.4l-1.13,1.16c-.12.12-.16.29-.12.46s.16.3.32.35c.97.32,1.96.48,2.95.48Z"/>
    <g>
      <path class="cls-4" d="M105.58,106.85c-7.66-2.61-16.37,1.81-22.39,10.36-1.44-1.97-3.69-3.14-6.09-2.88-3.8.4-6.53,4.19-6.11,8.46.38,3.78,3.11,6.67,6.37,7-4.01,14.71.57,29.01,10.65,32.44,10.46,3.56,22.87-5.96,27.73-21.25,4.85-15.29.31-30.58-10.15-34.13Z"/>
      <path class="cls-6" d="M87.85,162.7c-10.13-3.44-14.95-17.65-11.1-32.5-3.29-.62-5.87-3.62-6.24-7.36-.45-4.53,2.49-8.57,6.55-9,2.28-.23,4.53.7,6.13,2.55,6.3-8.62,15.11-12.55,22.56-10.01h0c10.7,3.64,15.39,19.23,10.46,34.75-2.93,9.24-8.8,16.84-15.7,20.32-2.66,1.34-5.35,2.02-7.95,2.02-1.6,0-3.18-.26-4.7-.77ZM105.43,107.31c-7.19-2.45-15.75,1.55-21.83,10.18l-.39.56-.4-.55c-1.39-1.91-3.49-2.92-5.64-2.68-3.53.37-6.07,3.93-5.67,7.93.35,3.49,2.84,6.25,5.93,6.56l.58.06-.15.56c-3.96,14.54.57,28.53,10.33,31.84,3.74,1.27,7.84.86,11.9-1.19,6.67-3.37,12.35-10.75,15.21-19.74,4.77-15.02.35-30.05-9.84-33.52h0Z"/>
    </g>
    <path d="M126.45,267.87l-38.91-19.85c-3.76-1.92-3.68-7.5.14-9.29l62.06-29.18c1.07-.5,2.27-.6,3.4-.27l40.67,11.81c4.26,1.24,4.95,7.18,1.1,9.43l-63.82,37.22c-1.43.83-3.16.88-4.63.13Z"/>
    <path d="M134.76,252.57l22.28-61.67c.58-1.6,1.75-2.9,3.25-3.6l57.19-26.89c5.05-2.37,10.34,2.77,8.37,8.14l-19.71,53.72c-.52,1.41-1.49,2.58-2.76,3.32l-59.75,34.85c-5.05,2.94-10.89-2.24-8.86-7.85Z"/>
    <g>
      <path class="cls-4" d="M55.69,216.79l15.97,26.71c9.18,11.31,26.69,5.52,28.03-9.27l6.12-67.39c.45-4.95-1.66-9.79-5.52-12.67l-5.28-3.92-4.21-11.19c-.65-1.72-2.13-2.92-3.87-3.14h0l-.83-2.54c-.33-1.01-1.01-1.84-1.9-2.34h0c-.73-.41-1.62.11-1.67.98l-.12,2.09-.59,7.6-3.84.72-1.33,11.58,15.35,14.37-13.28,39.29-3.48-11.7"/>
      <path d="M83.75,249.93c1.54,0,3.1-.23,4.64-.7,6.61-2.01,11.12-7.74,11.78-14.96l6.12-67.39c.46-5.11-1.73-10.13-5.72-13.1l-5.16-3.84-4.15-11.06c-.67-1.79-2.17-3.07-3.96-3.41l-.73-2.25c-.37-1.13-1.12-2.06-2.12-2.62-.48-.27-1.05-.27-1.53,0-.51.28-.83.8-.86,1.39l-.12,2.09-.56,7.21-3.83.71-1.4,12.18,15.3,14.33-12.69,37.53-3.04-10.22c-.08-.26-.35-.4-.61-.33-.26.08-.41.35-.33.61l3.92,13.19,13.88-41.06-15.4-14.42,1.26-10.97,3.86-.72.74-10.07c.01-.25.15-.47.35-.59.11-.06.33-.14.58,0,.79.44,1.38,1.17,1.67,2.07l.92,2.83.31.04c1.56.19,2.89,1.28,3.47,2.83l4.26,11.33,5.39,4.01c3.72,2.77,5.76,7.45,5.33,12.23l-6.12,67.39c-.62,6.81-4.87,12.21-11.09,14.11-5.91,1.8-12.06-.16-16.08-5.11l-15.93-26.65c-.14-.23-.44-.31-.67-.17-.23.14-.31.44-.17.67l15.97,26.71c3.26,4.01,7.79,6.18,12.52,6.18Z"/>
    </g>
    <path class="cls-6" d="M96.81,125.07c.63,0,1.27-.05,1.9-.14,9.09-1.34,14.51-11.78,14.73-12.22.12-.24.03-.54-.21-.66-.24-.12-.54-.03-.66.21-.05.1-5.42,10.43-14.01,11.7-4.83.72-9.83-1.56-14.82-6.77-.19-.19-.5-.2-.69-.01-.2.19-.2.5-.02.69,4.59,4.78,9.22,7.2,13.78,7.2Z"/>
    <g>
      <path class="cls-4" d="M80.95,119.07s-3.58-5.06-7.1.23"/>
      <path class="cls-6" d="M73.85,119.8c.16,0,.31-.08.41-.22.96-1.44,1.99-2.18,3.06-2.2.01,0,.02,0,.04,0,1.77,0,3.18,1.95,3.2,1.97.16.22.46.27.68.12.22-.16.27-.46.12-.68-.07-.1-1.71-2.39-4-2.39-.02,0-.03,0-.05,0-1.41.02-2.71.9-3.87,2.63-.15.23-.09.53.14.68.08.06.18.08.27.08Z"/>
    </g>
    <path d="M48,245.82c.12,0,.25-.05.34-.14l9.4-9.04c.2-.19.2-.5.02-.69-.19-.19-.5-.2-.69-.01l-9.4,9.04c-.2.19-.2.5-.02.69.1.1.23.15.35.15Z"/>
    <path class="cls-4" d="M133.16,264.37c.2,0,.39-.12.46-.32l26.03-72.65c.09-.26-.04-.54-.3-.63-.25-.09-.54.04-.63.3l-26.03,72.65c-.09.26.04.54.3.63.05.02.11.03.16.03Z"/>
    <g>
      <ellipse cx="188.27" cy="208.89" rx="6.71" ry="4.82" transform="translate(-76.44 303.81) rotate(-67.7)"/>
      <path class="cls-4" d="M185.34,215.47c-2.64-1.25-3.49-5.22-1.88-8.85.92-2.09,2.53-3.72,4.3-4.38,1.2-.44,2.39-.42,3.44.07,2.64,1.25,3.48,5.22,1.88,8.85-.92,2.09-2.53,3.72-4.3,4.38-.57.21-1.14.32-1.69.32-.61,0-1.2-.13-1.75-.39ZM188.11,203.16c-1.53.57-2.93,2.01-3.75,3.86h0c-1.39,3.14-.77,6.53,1.4,7.56.8.38,1.72.39,2.67.04,1.53-.57,2.93-2.01,3.75-3.86,1.39-3.14.76-6.53-1.4-7.56-.41-.2-.86-.29-1.33-.29-.44,0-.89.08-1.34.25Z"/>
    </g>
    <g>
      <circle class="cls-4" cx="73.69" cy="127.16" r="2.22"/>
      <path class="cls-6" d="M70.98,127.16c0-1.49,1.22-2.71,2.71-2.71s2.71,1.22,2.71,2.71c0,1.49-1.22,2.71-2.71,2.71s-2.71-1.22-2.71-2.71ZM71.96,127.16c0,.95.77,1.73,1.73,1.73s1.73-.77,1.73-1.73-.77-1.73-1.73-1.73-1.73.77-1.73,1.73Z"/>
    </g>
    <path d="M83.09,117.18s9.52,4.21,18.14,2.02c10.88-2.77,10.14-5.98,12.51-4.84,4.54,2.18-1.84-10.04-9.28-11-7.44-.96-18.48,2.64-21.37,13.82Z"/>
    <polygon points="91.33 155.24 91.96 154.49 87.59 150.76 87.28 135.82 86.29 135.85 86.62 151.22 91.33 155.24"/>
    <polygon points="86.45 157.65 87.12 156.94 82.01 152.14 82.16 141.68 81.18 141.67 81.02 152.56 86.45 157.65"/>
    <g>
      <line class="cls-8" x1="102.24" y1="209.09" x2="80.57" y2="202.15"/>
      <rect x="90.92" y="194.24" width=".98" height="22.76" transform="translate(-132.28 230.08) rotate(-72.27)"/>
    </g>
    <g>
      <line class="cls-8" x1="101.65" y1="216.48" x2="78.84" y2="208.79"/>
      <rect x="89.75" y="200.6" width=".98" height="24.07" transform="translate(-140.1 230.01) rotate(-71.32)"/>
    </g>
    <path d="M96.93,210.91c0-.79.63-1.44,1.41-1.44s1.42.65,1.42,1.44-.63,1.44-1.42,1.44-1.41-.65-1.41-1.44ZM97.78,210.91c0,.32.25.58.56.58s.56-.26.56-.58c0-.32-.25-.58-.56-.58s-.56.26-.56.58Z"/>
    <polygon points="111.68 174.27 109.59 153.55 108.61 153.65 110.48 172.15 105.89 168.74 105.3 169.53 111.68 174.27"/>
    <polygon points="84.42 176.21 92.34 168.73 91.67 168.01 85.13 174.19 83.03 159.45 82.06 159.58 84.42 176.21"/>
    <path d="M52.16,100.49c.12,0,.25-.05.35-.14.19-.19.19-.5,0-.69l-16.08-16.26c-.19-.19-.5-.2-.69,0-.19.19-.19.5,0,.69l16.08,16.26c.1.1.22.15.35.15Z"/>
    <path d="M36,100.17c.12,0,.25-.05.35-.14l16.02-15.83c.19-.19.19-.5,0-.69-.19-.19-.5-.2-.69,0l-16.02,15.83c-.19.19-.19.5,0,.69.1.1.22.15.35.15Z"/>
    <path d="M72.73,82.12c.12,0,.25-.05.35-.14.19-.19.19-.5,0-.69l-9.68-9.79c-.19-.19-.5-.19-.69,0s-.19.5,0,.69l9.68,9.79c.1.1.22.15.35.15Z"/>
    <path d="M63.19,81.38c.12,0,.25-.05.35-.14l8.56-8.46c.19-.19.19-.5,0-.69-.19-.19-.5-.2-.69,0l-8.56,8.46c-.19.19-.19.5,0,.69.1.1.22.15.35.15Z"/>
  </g>
</svg>