<?xml version="1.0" encoding="UTF-8"?>
<svg id="Capa_1" data-name="Capa 1" xmlns="http://www.w3.org/2000/svg" viewBox="0 0 122.9 124.38">
  <defs>
    <style>
      .cls-1 {
        fill: #00d6a3;
      }

      .cls-2 {
        fill: #1d1d1b;
      }

      .cls-3 {
        fill: #fff;
      }
    </style>
  </defs>
  <g>
    <path class="cls-1" d="M78.18,58.03L51.26,14.25c-1.92-3.12-6.45-3.11-8.35.01L6.84,73.31c-1.99,3.26.36,7.45,4.18,7.45h20.3v37.33h11.26s-1.28-.63-3.54-1.62l.42-35.71h8.94v37.33h11.4s-2.43-1.29-3.68-1.96l.42-35.37h12.35l3.14,5.95c.32.61,1.24.38,1.24-.31v-5.64h10.12c3.83,0,6.18-4.2,4.17-7.47l-3.86-6.27"/>
    <path class="cls-1" d="M60.8,118.35h-12.65v-37.33h-8.44l-.42,35.29c2.15.95,3.39,1.55,3.4,1.56l.97.47h-12.59v-37.33H11.02c-1.89,0-3.57-.98-4.49-2.63-.92-1.65-.89-3.59.1-5.2L42.69,14.13c.94-1.54,2.58-2.46,4.39-2.47h0c1.8,0,3.44.92,4.39,2.45l26.92,43.78-.43.26L51.05,14.38c-.85-1.39-2.33-2.21-3.96-2.21h0c-1.63,0-3.11.83-3.96,2.23L7.05,73.45c-.89,1.45-.92,3.21-.09,4.7s2.35,2.37,4.05,2.37h20.55v37.33h9.9c-.6-.28-1.46-.67-2.53-1.14l-.15-.07.43-36.12h9.44v37.33h10.14c-.82-.44-2.03-1.08-2.79-1.49l-.13-.07v-.15s.43-35.62.43-35.62h12.75l3.21,6.08c.11.21.31.24.46.21.15-.04.31-.16.31-.4v-5.89h10.37c1.71,0,3.22-.89,4.06-2.38.83-1.49.8-3.25-.1-4.7l-3.86-6.27.43-.26,3.86,6.27c.99,1.61,1.03,3.56.11,5.21-.92,1.65-2.6,2.64-4.5,2.64h-9.87v5.39c0,.43-.28.78-.69.88-.41.1-.82-.08-1.02-.46l-3.07-5.82h-11.95l-.42,34.97c1.28.69,3.54,1.89,3.54,1.89l.89.47Z"/>
  </g>
  <path class="cls-2" d="M41.59,41.83c-2.88,0-5.23-2.35-5.23-5.23s2.35-5.23,5.23-5.23,5.23,2.35,5.23,5.23-2.35,5.23-5.23,5.23ZM41.59,31.79c-2.65,0-4.81,2.16-4.81,4.81s2.16,4.81,4.81,4.81,4.81-2.16,4.81-4.81-2.16-4.81-4.81-4.81Z"/>
  <path class="cls-2" d="M55.5,41.75c-2.88,0-5.23-2.35-5.23-5.23s2.35-5.23,5.23-5.23,5.23,2.35,5.23,5.23-2.35,5.23-5.23,5.23ZM55.5,31.71c-2.65,0-4.81,2.16-4.81,4.81s2.16,4.81,4.81,4.81,4.81-2.16,4.81-4.81-2.16-4.81-4.81-4.81Z"/>
  <path class="cls-2" d="M46.71,36.79l-.19-.37c.08-.04,1.88-.93,4.03-.09l-.15.39c-1.97-.76-3.67.07-3.69.08Z"/>
  <path class="cls-2" d="M36.49,36.8l-7.21-3.34c-.7-.11-1.21,0-1.53.34-.68.74-.3,2.32-.29,2.34l-.4.1c-.02-.07-.45-1.81.39-2.72.42-.46,1.07-.61,1.93-.47l.05.02,7.23,3.35-.17.38Z"/>
  <g>
    <path d="M66.1,60.16c-.07,0-.15-.03-.2-.1-.08-.11-.07-.27.04-.35l40.43-31.47,2.5-7.42-1.23-1.15-6.88,1.59-40.44,31.48c-.11.08-.27.07-.35-.04-.08-.11-.07-.27.04-.35l40.53-31.55h.05s7.2-1.68,7.2-1.68l1.66,1.55-2.65,7.86-.06.05-40.49,31.51s-.1.05-.15.05Z"/>
    <rect x="103.38" y="19.99" width=".5" height="9.45" transform="translate(7.43 70.5) rotate(-38.87)"/>
    <path d="M66.29,60.02c-2.15,1.69-5.25,1.33-6.93-.81-1.68-2.14-1.31-5.24.84-6.93"/>
    <path d="M108.58,23.11l-2.99-3.41,2.97-.78c.93-.24,1.7.74,1.24,1.58l-1.22,2.62Z"/>
  </g>
  <path class="cls-1" d="M83.71,67.03c2.62-4.23,10.17-16.93,10.17-23.32.05-.27.06-.53.04-.81-.3-3.22-1.07-6.53-1.1-6.67-.01,0-1.47.39-2.14,1.7-.05.1-.1.21-.14.32-.32.87-.25,2.13-.15,3.14l-.92.23-3.2-5.92c-.43,0-1.34.14-1.72.72l-.18.27h0s-.34-.08-.34-.08c0,0-.99.5-1.36,1.23-.1.2-.14.41-.13.61l.02.24h0s-.2.06-.2.06l.02.07-.02.02c-.25.19-.44.42-.59.7-.43.85-.44,2.15-.03,3.88.35,1.47.9,2.8,1.12,3.3l.09.21c-.63-.08-1.21.33-1.29.92l-.22,1.53s-.4,4.09-3.27,8.64"/>
  <polygon class="cls-1" points="82.65 46.11 82.12 44.79 88.02 38.97 88.85 40.52 82.65 46.11"/>
  <rect class="cls-3" x="83.15" y="37.45" width=".5" height="7.59" transform="translate(-9 30.35) rotate(-19.59)"/>
  <rect class="cls-3" x="85.23" y="35.91" width=".5" height="8.3" transform="translate(-8.25 28.78) rotate(-18.25)"/>
</svg>