<?xml version="1.0" encoding="UTF-8"?>
<svg id="Capa_1" data-name="Capa 1" xmlns="http://www.w3.org/2000/svg" viewBox="0 0 122.9 124.38">
  <defs>
    <style>
      .cls-1 {
        fill: #00d6a3;
      }

      .cls-2 {
        fill: #fff;
      }
    </style>
  </defs>
  <path d="M64.55,47.9c-2.1,0-4.07-.81-5.54-2.29-1.45-1.45-2.24-3.36-2.24-5.4v-20.42c.02-4.24,3.51-7.69,7.81-7.69h20.71s0-.01,0-.01c2.1,0,4.07.81,5.54,2.29,1.45,1.45,2.24,3.36,2.24,5.4v20.42c-.02,4.24-3.51,7.69-7.81,7.69h-20.71s0,.01,0,.01ZM85.3,12.59h-20.72c-4.02.02-7.29,3.24-7.3,7.2v20.42c-.01,1.9.73,3.69,2.08,5.04,1.38,1.38,3.22,2.14,5.19,2.14h20.72c4.02-.02,7.29-3.24,7.3-7.2v-20.42c.01-1.9-.73-3.69-2.08-5.04-1.38-1.38-3.22-2.14-5.19-2.14Z"/>
  <path d="M20.3,82.74l21.2,3.2c4.26.64,8.25-2.34,8.91-6.68l3.28-21.54c.66-4.33-2.26-8.36-6.52-9.01l-21.2-3.2c-4.26-.64-8.25,2.34-8.91,6.68l-3.28,21.54c-.66,4.33,2.26,8.36,6.52,9.01Z"/>
  <g>
    <path class="cls-2" d="M22.13,73.19s.12-.76.18-1.16c.58-3.83,4.11-6.47,7.88-5.9,1.24.19,5.58.84,6.82,1.03,3.77.57,6.35,4.14,5.77,7.96-.06.39-.18,1.16-.18,1.16l-20.47-3.09Z"/>
    <path class="cls-2" d="M30.28,57.87c-.39,2.55,1.33,4.93,3.85,5.31,2.51.38,4.86-1.38,5.25-3.93.39-2.55-1.33-4.93-3.85-5.31-2.51-.38-4.86,1.38-5.25,3.93Z"/>
  </g>
  <path d="M43.74,87.61c-.39,0-.79-.03-1.19-.09l-21.2-3.2c-2.11-.32-3.96-1.44-5.24-3.17-1.3-1.76-1.83-3.94-1.5-6.12l3.28-21.54c.68-4.46,4.8-7.55,9.2-6.89l21.2,3.2c2.1.32,3.96,1.44,5.24,3.17,1.3,1.76,1.83,3.94,1.5,6.12l-3.28,21.54c-.62,4.05-4.08,6.98-8.01,6.98ZM25.91,47.01c-3.68,0-6.93,2.74-7.51,6.55l-3.28,21.54c-.31,2.05.19,4.1,1.41,5.75,1.19,1.62,2.93,2.67,4.91,2.97l21.2,3.2c4.11.62,7.99-2.28,8.63-6.47l3.28-21.54c.31-2.05-.19-4.09-1.41-5.75-1.19-1.62-2.93-2.67-4.91-2.97l-21.2-3.2c-.38-.06-.75-.08-1.12-.08Z"/>
  <path d="M79.24,114.23l16.14-7.14c3.25-1.44,4.71-5.25,3.27-8.53l-7.17-16.28c-1.44-3.27-5.24-4.76-8.49-3.33l-16.14,7.14c-3.25,1.44-4.71,5.25-3.27,8.53l7.17,16.28c1.44,3.27,5.24,4.76,8.49,3.33Z"/>
  <g>
    <path class="cls-2" d="M76.31,106.85s-.25-.57-.38-.87c-1.28-2.89.02-6.27,2.89-7.54.95-.42,4.25-1.88,5.2-2.3,2.87-1.27,6.23.05,7.51,2.94.13.3.38.87.38.87l-15.59,6.89Z"/>
    <path class="cls-2" d="M75.26,92.71c.85,1.93,3.09,2.81,5,1.96,1.91-.85,2.78-3.1,1.92-5.02-.85-1.93-3.09-2.81-5-1.96-1.91.85-2.78,3.1-1.93,5.02Z"/>
  </g>
  <path d="M79.22,115.84c-.81,0-1.63-.15-2.41-.45-1.68-.65-3-1.92-3.73-3.57l-7.17-16.28c-1.5-3.39.03-7.37,3.39-8.85l16.14-7.14c1.62-.72,3.43-.76,5.09-.12,1.68.65,3,1.92,3.73,3.57l7.17,16.28c1.5,3.39-.03,7.37-3.39,8.85l-16.14,7.14c-.86.38-1.77.57-2.68.57ZM88.12,79.48c-.84,0-1.68.18-2.48.53l-16.14,7.14c-3.12,1.38-4.52,5.05-3.14,8.2l7.17,16.28c.67,1.53,1.9,2.7,3.45,3.31,1.54.59,3.21.56,4.71-.11l16.14-7.14c3.12-1.38,4.53-5.05,3.14-8.2l-7.17-16.28c-.67-1.53-1.9-2.7-3.45-3.31-.72-.28-1.48-.42-2.23-.42Z"/>
  <path class="cls-1" d="M62.61,46.13h20.71c4.17-.01,7.54-3.35,7.55-7.45v-20.42c.02-4.11-3.36-7.44-7.53-7.43h-20.71c-4.17.01-7.54,3.35-7.55,7.45v20.42c-.02,4.11,3.36,7.44,7.53,7.43Z"/>
  <g>
    <path class="cls-2" d="M62.97,37.02s0-.72,0-1.1c0-3.63,2.99-6.58,6.67-6.58,1.22,0,5.45,0,6.67,0,3.68,0,6.67,2.94,6.66,6.57,0,.37,0,1.1,0,1.1h-20Z"/>
    <path class="cls-2" d="M68.54,21.68c0,2.42,1.99,4.38,4.44,4.38,2.45,0,4.45-1.96,4.45-4.39,0-2.42-1.99-4.38-4.44-4.38-2.45,0-4.45,1.97-4.45,4.39Z"/>
  </g>
</svg>